<svg width="37" height="32" viewBox="0 0 37 32" fill="none" xmlns="http://www.w3.org/2000/svg">
    <path d="M32.7072 16.1606C32.0466 16.1606 31.428 16.3412 30.8973 16.6534L21.1527 6.40218C21.546 5.83789 21.7751 5.16074 21.7751 4.4234C21.7751 2.49353 20.1867 0.924805 18.224 0.924805C16.2614 0.924805 14.6729 2.48977 14.6729 4.4234C14.6729 5.15698 14.902 5.83789 15.2953 6.40218L5.55462 16.6534C5.02387 16.3412 4.40529 16.1606 3.74471 16.1606C1.78587 16.1606 0.193604 17.7256 0.193604 19.6592C0.193604 21.5929 1.78205 23.1578 3.74471 23.1578C4.78331 23.1578 5.71118 22.7177 6.3603 22.018L14.8409 26.8408C14.734 27.1756 14.6768 27.5292 14.6768 27.8979C14.6768 29.8277 16.2652 31.3965 18.2279 31.3965C20.1905 31.3965 21.779 29.8315 21.779 27.8979C21.779 27.5292 21.7217 27.1756 21.6148 26.8408L30.0954 22.018C30.7445 22.7177 31.6762 23.1578 32.711 23.1578C34.6698 23.1578 36.2621 21.5929 36.2621 19.6592C36.2621 17.7256 34.6737 16.1606 32.711 16.1606H32.7072ZM7.1278 20.7126C7.23471 20.3778 7.29199 20.0241 7.29199 19.6555C7.29199 18.9219 7.06288 18.241 6.66959 17.6767L16.4141 7.42543C16.7349 7.61352 17.0862 7.75271 17.4604 7.83548V24.482C16.7349 24.64 16.0934 25.0162 15.6084 25.5391L7.1278 20.7163V20.7126ZM20.8435 25.5354C20.3585 25.0125 19.717 24.6363 18.9915 24.4783V7.83924C19.3657 7.75648 19.717 7.61729 20.0378 7.42919L29.7823 17.6805C29.389 18.2447 29.1599 18.9219 29.1599 19.6592C29.1599 20.0279 29.2172 20.3815 29.3241 20.7163L20.8435 25.5391V25.5354Z" fill="white"/>
</svg>
