<svg width="46" height="43" viewBox="0 0 46 43" fill="none" xmlns="http://www.w3.org/2000/svg">
    <path d="M9.35808 14.2698V12.2313H12.4774V14.2698H9.35808ZM17.6764 14.2698V12.2313H14.557V14.2698H17.6764ZM9.35808 26.5011H12.4774V24.4626H9.35808V26.5011ZM14.557 26.5011H17.6764V24.4626H14.557V26.5011ZM45.7506 34.6553V40.771C45.7506 41.3116 45.5315 41.8301 45.1415 42.2124C44.7515 42.5947 44.2226 42.8095 43.6711 42.8095H37.4323C36.8808 42.8095 36.3519 42.5947 35.9619 42.2124C35.5719 41.8301 35.3528 41.3116 35.3528 40.771V38.7324H27.8871C27.6726 39.3272 27.2756 39.8424 26.7507 40.2074C26.2257 40.5723 25.5985 40.7692 24.9549 40.771H20.7957C20.1522 40.7692 19.5249 40.5723 19 40.2074C18.475 39.8424 18.0781 39.3272 17.8635 38.7324H10.3979V40.771C10.3979 41.3116 10.1788 41.8301 9.78878 42.2124C9.39878 42.5947 8.86983 42.8095 8.3183 42.8095H2.07957C1.52804 42.8095 0.999089 42.5947 0.609093 42.2124C0.219097 41.8301 0 41.3116 0 40.771V34.6553C0 34.1147 0.219097 33.5962 0.609093 33.2139C0.999089 32.8316 1.52804 32.6168 2.07957 32.6168H8.3183C8.86983 32.6168 9.39878 32.8316 9.78878 33.2139C10.1788 33.5962 10.3979 34.1147 10.3979 34.6553V36.6939H17.8635C18.0781 36.0991 18.475 35.5839 19 35.2189C19.5249 34.854 20.1522 34.6571 20.7957 34.6553H21.8355V30.5782H8.3183C7.49099 30.5782 6.69757 30.2561 6.11258 29.6826C5.52758 29.1092 5.19894 28.3314 5.19894 27.5204V23.4433C5.19894 22.6323 5.52758 21.8546 6.11258 21.2811C6.69757 20.7076 7.49099 20.3855 8.3183 20.3855H21.8355V18.3469H8.3183C7.49099 18.3469 6.69757 18.0248 6.11258 17.4513C5.52758 16.8779 5.19894 16.1001 5.19894 15.2891V11.212C5.19894 10.401 5.52758 9.62326 6.11258 9.04981C6.69757 8.47636 7.49099 8.15419 8.3183 8.15419H23.9151V10.1927H8.3183C8.04253 10.1927 7.77805 10.3001 7.58306 10.4913C7.38806 10.6824 7.27851 10.9417 7.27851 11.212V15.2891C7.27851 15.5594 7.38806 15.8187 7.58306 16.0099C7.77805 16.201 8.04253 16.3084 8.3183 16.3084H22.8753C23.1511 16.3084 23.4156 16.4158 23.6106 16.6069C23.8056 16.7981 23.9151 17.0573 23.9151 17.3277V20.3855H37.4323C38.2596 20.3855 39.0531 20.7076 39.6381 21.2811C40.2231 21.8546 40.5517 22.6323 40.5517 23.4433V27.5204C40.5517 28.3314 40.2231 29.1092 39.6381 29.6826C39.0531 30.2561 38.2596 30.5782 37.4323 30.5782H23.9151V34.6553H24.9549C25.5985 34.6571 26.2257 34.854 26.7507 35.2189C27.2756 35.5839 27.6726 36.0991 27.8871 36.6939H35.3528V34.6553C35.3528 34.1147 35.5719 33.5962 35.9619 33.2139C36.3519 32.8316 36.8808 32.6168 37.4323 32.6168H43.6711C44.2226 32.6168 44.7515 32.8316 45.1415 33.2139C45.5315 33.5962 45.7506 34.1147 45.7506 34.6553ZM8.3183 28.5397H37.4323C37.7081 28.5397 37.9726 28.4323 38.1676 28.2411C38.3626 28.05 38.4721 27.7907 38.4721 27.5204V23.4433C38.4721 23.173 38.3626 22.9137 38.1676 22.7226C37.9726 22.5314 37.7081 22.424 37.4323 22.424H8.3183C8.04253 22.424 7.77805 22.5314 7.58306 22.7226C7.38806 22.9137 7.27851 23.173 7.27851 23.4433V27.5204C7.27851 27.7907 7.38806 28.05 7.58306 28.2411C7.77805 28.4323 8.04253 28.5397 8.3183 28.5397ZM8.3183 40.771V34.6553H2.07957V40.771H8.3183ZM25.9947 37.7132C25.9947 37.4428 25.8851 37.1836 25.6901 36.9924C25.4951 36.8013 25.2307 36.6939 24.9549 36.6939H20.7957C20.52 36.6939 20.2555 36.8013 20.0605 36.9924C19.8655 37.1836 19.756 37.4428 19.756 37.7132C19.756 37.9835 19.8655 38.2427 20.0605 38.4339C20.2555 38.625 20.52 38.7324 20.7957 38.7324H24.9549C25.2307 38.7324 25.4951 38.625 25.6901 38.4339C25.8851 38.2427 25.9947 37.9835 25.9947 37.7132ZM43.6711 34.6553H37.4323V40.771H43.6711V34.6553ZM35.3528 8.15419C34.5916 8.15323 33.8394 8.31613 33.1495 8.63139C32.4596 8.94666 31.8487 9.40659 31.36 9.9787L32.9613 11.2834C33.254 10.9407 33.6199 10.665 34.0331 10.4759C34.4463 10.2868 34.8968 10.1888 35.3528 10.1888C35.8088 10.1888 36.2592 10.2868 36.6724 10.4759C37.0856 10.665 37.4515 10.9407 37.7443 11.2834L39.3455 9.9787C38.8569 9.40659 38.246 8.94666 37.556 8.63139C36.8661 8.31613 36.114 8.15323 35.3528 8.15419ZM28.4486 7.06357L29.9875 8.4294C30.6693 7.70025 31.4984 7.11805 32.422 6.71977C33.3457 6.32148 34.3437 6.11581 35.3528 6.11581C36.3618 6.11581 37.3599 6.32148 38.2835 6.71977C39.2071 7.11805 40.0362 7.70025 40.7181 8.4294L42.257 7.06357C41.3802 6.12422 40.3135 5.37407 39.1249 4.86085C37.9362 4.34764 36.6516 4.08259 35.3528 4.08259C34.0539 4.08259 32.7693 4.34764 31.5807 4.86085C30.392 5.37407 29.3254 6.12422 28.4486 7.06357ZM34.313 14.2698H36.3926V12.2313H34.313V14.2698ZM45.7506 3.05782V15.2891C45.7506 16.1001 45.422 16.8779 44.837 17.4513C44.252 18.0248 43.4586 18.3469 42.6313 18.3469H28.0743C27.2469 18.3469 26.4535 18.0248 25.8685 17.4513C25.2835 16.8779 24.9549 16.1001 24.9549 15.2891V3.05782C24.9549 2.24684 25.2835 1.46907 25.8685 0.895616C26.4535 0.322163 27.2469 0 28.0743 0H42.6313C43.4586 0 44.252 0.322163 44.837 0.895616C45.422 1.46907 45.7506 2.24684 45.7506 3.05782ZM43.6711 3.05782C43.6711 2.78749 43.5615 2.52824 43.3665 2.33709C43.1715 2.14594 42.907 2.03855 42.6313 2.03855H28.0743C27.7985 2.03855 27.534 2.14594 27.339 2.33709C27.144 2.52824 27.0345 2.78749 27.0345 3.05782V15.2891C27.0345 15.5594 27.144 15.8187 27.339 16.0099C27.534 16.201 27.7985 16.3084 28.0743 16.3084H42.6313C42.907 16.3084 43.1715 16.201 43.3665 16.0099C43.5615 15.8187 43.6711 15.5594 43.6711 15.2891V3.05782Z" fill="white"/>
</svg>
