<svg width="524" height="182" viewBox="0 0 524 182" fill="none" xmlns="http://www.w3.org/2000/svg">
    <path d="M354.824 0H0V182H354.824V0Z" fill="#0A378B"/>
    <path d="M101.285 146.12C101.083 142.015 100.882 137.938 100.566 133.948C100.251 129.959 100.05 126.055 99.6474 122.181H58.6615C56.5361 126.084 54.382 130.074 52.0555 133.948C49.729 137.938 47.5749 141.928 45.4495 146.12H19.7148C26.5219 134.237 32.9268 123.28 38.8435 113.247C44.7602 103.215 50.5333 93.7031 56.0191 84.885C61.5049 75.9801 66.9046 67.5957 72.1894 59.5871C77.4742 51.4918 82.8739 43.7145 88.3598 36.1396H110.217C111.94 43.7145 113.463 52.2146 114.985 61.4375C116.507 70.6603 117.943 80.1723 119.264 89.8C120.586 99.5143 121.821 109.142 122.941 118.885C124.061 128.629 125.066 137.62 125.985 146.12H101.285ZM93.9605 60.2521C89.5948 67.3066 85.2004 74.39 80.9496 81.3288C76.67 88.2966 72.6203 95.4667 68.5418 102.724H98.039C97.522 96.2762 96.9188 89.4241 96.4018 82.0516C95.8848 74.8815 95.0806 67.5089 93.9605 60.2521Z" fill="white"/>
    <path d="M219.647 141.321C215.368 143.46 210.6 145.108 205.315 146.438C200.03 147.681 193.625 148.375 186.1 148.375C179.58 148.375 173.606 147.248 168.207 145.108C162.807 142.969 158.154 139.875 154.363 135.799C150.485 131.809 147.556 126.894 145.402 121.169C143.276 115.445 142.242 108.882 142.242 101.712C142.242 93.4139 143.678 85.2319 146.608 77.1366C149.451 68.9545 153.731 61.6687 159.418 55.337C165.019 48.8897 171.912 43.7723 180.069 39.6668C188.197 35.677 197.56 33.6243 208.245 33.6243C213.328 33.6243 218.211 34.2314 223.094 35.359C227.977 36.4865 233.06 38.626 238.46 41.4883L229.499 60.7436C225.133 58.4017 221.169 56.8694 217.694 56.0309C214.248 55.2214 210.485 54.7877 206.493 54.7877C200.49 54.7877 195.09 56.0309 190.322 58.4884C185.555 60.9459 181.476 64.213 178.029 68.4341C174.583 72.6263 172.027 77.4546 170.188 82.9768C168.35 88.4989 167.546 94.3391 167.546 100.468C167.546 109.778 169.585 116.543 173.635 120.736C177.685 124.928 183.487 127.096 191.012 127.096C196.095 127.096 200.662 126.576 204.942 125.564C209.221 124.552 213.185 123.106 216.833 121.458L219.647 141.321Z" fill="white"/>
    <path d="M317.067 141.321C312.788 143.46 308.02 145.108 302.735 146.438C297.45 147.681 291.045 148.375 283.52 148.375C277 148.375 271.026 147.248 265.627 145.108C260.227 142.969 255.574 139.875 251.783 135.799C247.905 131.809 244.976 126.894 242.821 121.169C240.696 115.445 239.662 108.882 239.662 101.712C239.662 93.4139 241.098 85.2319 244.028 77.1366C246.871 68.9545 251.151 61.6687 256.838 55.337C262.438 48.8897 269.332 43.7723 277.489 39.6668C285.617 35.677 294.98 33.6243 305.665 33.6243C310.748 33.6243 315.631 34.2314 320.514 35.359C325.396 36.4865 330.48 38.626 335.88 41.4883L326.919 60.7436C322.553 58.4017 318.589 56.8694 315.114 56.0309C311.639 55.1925 307.905 54.7877 303.941 54.7877C297.939 54.7877 292.539 56.0309 287.771 58.4884C283.003 60.9459 278.925 64.213 275.478 68.4341C272.031 72.6552 269.475 77.4546 267.637 82.9768C265.799 88.4989 264.995 94.3391 264.995 100.468C264.995 109.778 267.034 116.543 271.084 120.736C275.133 124.928 280.935 127.096 288.46 127.096C293.544 127.096 298.111 126.576 302.39 125.564C306.67 124.552 310.634 123.106 314.281 121.458L317.067 141.321Z" fill="white"/>
    <path d="M377.734 29.9529H405.106V152.076H377.734V29.9529Z" fill="#0A378B"/>
    <path d="M523.067 29.9523V53.3998H486.447V152.076H459.075V53.3709H422.455V29.9234C422.484 29.9523 523.067 29.9523 523.067 29.9523Z" fill="#0A378B"/>
</svg>
