<svg width="155" height="52" viewBox="0 0 155 52" fill="none" xmlns="http://www.w3.org/2000/svg">
    <path d="M154 -3.05176e-05H0V51.3333H154V-3.05176e-05Z" fill="#0A378B"/>
    <path d="M154.999 -3.05176e-05H100.018V51.3333H154.999V-3.05176e-05Z" fill="white"/>
    <path d="M28.5674 41.2134C28.5107 40.0554 28.454 38.9056 28.3649 37.7803C28.2757 36.6549 28.219 35.5541 28.1056 34.4614H16.5455C15.946 35.5622 15.3385 36.6876 14.6823 37.7803C14.0261 38.9056 13.4185 40.031 12.819 41.2134H5.56055C7.48048 37.8618 9.28701 34.7712 10.9558 31.9416C12.6246 29.1119 14.2529 26.4291 15.8002 23.9419C17.3475 21.4303 18.8705 19.0654 20.3611 16.8066C21.8517 14.5233 23.3746 12.3297 24.9219 10.1932H31.0868C31.5729 12.3297 32.0022 14.7272 32.4316 17.3285C32.8609 19.9298 33.266 22.6127 33.6386 25.3282C34.0113 28.0681 34.3596 30.7836 34.6755 33.5317C34.9915 36.2798 35.275 38.8159 35.5342 41.2134H28.5674ZM26.5016 16.9942C25.2703 18.9839 24.0308 20.9818 22.8319 22.9389C21.6248 24.9041 20.4826 26.9265 19.3322 28.9733H27.652C27.5062 27.1548 27.336 25.2222 27.1902 23.1427C27.0444 21.1204 26.8176 19.041 26.5016 16.9942Z" fill="white"/>
    <path d="M61.9513 39.8597C60.7443 40.4631 59.3995 40.9279 57.9089 41.3031C56.4184 41.6537 54.6118 41.8494 52.4894 41.8494C50.6504 41.8494 48.9654 41.5314 47.4424 40.9279C45.9195 40.3245 44.6071 39.452 43.5378 38.3022C42.4441 37.1768 41.6178 35.7905 41.0103 34.1759C40.4108 32.5613 40.1191 30.7102 40.1191 28.6879C40.1191 26.3475 40.5242 24.0397 41.3505 21.7564C42.1525 19.4487 43.3595 17.3937 44.9635 15.6079C46.5432 13.7894 48.4875 12.346 50.7882 11.188C53.0807 10.0627 55.7217 9.48373 58.7352 9.48373C60.1691 9.48373 61.5463 9.65498 62.9235 9.97301C64.3006 10.291 65.7345 10.8945 67.2575 11.7018L64.73 17.1328C63.4986 16.4722 62.3807 16.04 61.4005 15.8036C60.4283 15.5752 59.3671 15.4529 58.2411 15.4529C56.548 15.4529 55.025 15.8036 53.6802 16.4967C52.3354 17.1899 51.1851 18.1113 50.213 19.3019C49.2409 20.4843 48.5199 21.8461 48.0014 23.4037C47.483 24.9612 47.2561 26.6084 47.2561 28.3372C47.2561 30.963 47.8313 32.8712 48.9735 34.0536C50.1158 35.236 51.7522 35.8476 53.8746 35.8476C55.3085 35.8476 56.5966 35.7008 57.8036 35.4154C59.0107 35.13 60.1286 34.7223 61.1574 34.2575L61.9513 39.8597Z" fill="white"/>
    <path d="M89.4298 39.8597C88.2228 40.4631 86.878 40.9279 85.3874 41.3031C83.8969 41.6537 82.0903 41.8494 79.9679 41.8494C78.129 41.8494 76.4439 41.5314 74.921 40.9279C73.398 40.3245 72.0856 39.452 71.0163 38.3022C69.9226 37.1768 69.0963 35.7905 68.4888 34.1759C67.8893 32.5613 67.5977 30.7102 67.5977 28.6879C67.5977 26.3475 68.0027 24.0397 68.829 21.7564C69.631 19.4487 70.8381 17.3937 72.4421 15.6079C74.0218 13.7894 75.966 12.346 78.2667 11.188C80.5593 10.0627 83.2002 9.48373 86.2138 9.48373C87.6476 9.48373 89.0248 9.65498 90.402 9.97301C91.7791 10.291 93.213 10.8945 94.736 11.7018L92.2085 17.1328C90.9771 16.4722 89.8592 16.04 88.879 15.8036C87.8988 15.5671 86.8456 15.4529 85.7277 15.4529C84.0346 15.4529 82.5116 15.8036 81.1668 16.4967C79.8221 17.1899 78.6717 18.1113 77.6996 19.3019C76.7275 20.4925 76.0065 21.8461 75.488 23.4037C74.9696 24.9612 74.7427 26.6084 74.7427 28.3372C74.7427 30.963 75.3179 32.8712 76.4602 34.0536C77.6024 35.236 79.2388 35.8476 81.3613 35.8476C82.7951 35.8476 84.0832 35.7008 85.2902 35.4154C86.4973 35.13 87.6152 34.7223 88.6441 34.2575L89.4298 39.8597Z" fill="white"/>
    <path d="M106.541 8.44821H114.261V42.8933H106.541V8.44821Z" fill="#0A378B"/>
    <path d="M147.532 8.44803V15.0614H137.203V42.8932H129.483V15.0533H119.154V8.43988C119.162 8.44803 147.532 8.44803 147.532 8.44803Z" fill="#0A378B"/>
</svg>
