<svg width="594" height="589" viewBox="0 0 594 589" fill="none" xmlns="http://www.w3.org/2000/svg">
    <g opacity="0.2">
        <path fill-rule="evenodd" clip-rule="evenodd" d="M669.385 353.489L698.435 370.169L669.385 353.489ZM378.926 588.211L698.435 403.797L378.926 588.211ZM698.435 336.675V370.169V336.675Z" stroke="white" stroke-width="0.828" stroke-miterlimit="10"/>
        <path fill-rule="evenodd" clip-rule="evenodd" d="M553.197 386.982L611.284 353.489L553.197 386.982ZM582.261 437.29L378.926 554.718L582.261 437.29ZM553.197 420.477L466.06 470.783L553.197 420.477ZM582.247 437.29L553.197 420.477L582.247 437.29Z" stroke="white" stroke-width="0.828" stroke-miterlimit="10"/>
        <path d="M582.261 269.554V236.061" stroke="white" stroke-width="0.828" stroke-miterlimit="10"/>
        <path fill-rule="evenodd" clip-rule="evenodd" d="M495.11 319.862L582.261 269.554L495.11 319.862ZM582.261 236.061L553.197 252.874L582.261 236.061Z" stroke="white" stroke-width="0.828" stroke-miterlimit="10"/>
        <path d="M611.298 286.368L582.261 269.554" stroke="white" stroke-width="0.828" stroke-miterlimit="10"/>
        <path fill-rule="evenodd" clip-rule="evenodd" d="M582.261 403.797L640.348 370.169L582.261 403.797ZM524.161 269.554L495.11 286.368L524.161 269.554ZM495.11 286.368V319.862V286.368ZM495.11 319.862L524.161 336.675L495.11 319.862ZM524.161 336.675L611.298 286.368L524.161 336.675Z" stroke="white" stroke-width="0.828" stroke-miterlimit="10"/>
        <path fill-rule="evenodd" clip-rule="evenodd" d="M553.197 386.982L582.261 403.797L553.197 386.982ZM524.161 336.675V370.169V336.675ZM495.11 319.862V353.489V319.862ZM495.11 353.489L524.161 370.169L495.11 353.489Z" stroke="white" stroke-width="0.828" stroke-miterlimit="10"/>
        <path fill-rule="evenodd" clip-rule="evenodd" d="M553.198 219.246L582.261 236.061L553.198 219.246ZM640.348 303.181L698.435 336.675L640.348 303.181ZM611.285 286.368V252.874V286.368ZM553.198 185.753L582.261 202.566L553.198 185.753ZM582.261 202.566V236.061V202.566ZM582.261 236.061L611.298 252.874L582.261 236.061Z" stroke="white" stroke-width="0.828" stroke-miterlimit="10"/>
        <path fill-rule="evenodd" clip-rule="evenodd" d="M582.234 202.566L553.184 219.247L582.234 202.566ZM495.11 286.369L466.06 269.554L495.11 286.369ZM466.06 269.554V303.182V269.554ZM466.06 303.182L495.11 319.862L466.06 303.182ZM495.11 252.874L466.06 269.554L495.11 252.874ZM524.16 269.554L495.097 252.874L524.16 269.554ZM640.334 303.182L611.284 319.862L640.334 303.182ZM611.284 252.874L582.234 269.554L611.284 252.874Z" stroke="white" stroke-width="0.828" stroke-miterlimit="10"/>
        <path fill-rule="evenodd" clip-rule="evenodd" d="M582.261 403.797V437.29V403.797ZM553.198 420.477V386.982V420.477Z" stroke="white" stroke-width="0.828" stroke-miterlimit="10"/>
        <path fill-rule="evenodd" clip-rule="evenodd" d="M553.198 118.633V185.753V118.633ZM524.161 101.952L553.198 118.633L524.161 101.952Z" stroke="white" stroke-width="0.828" stroke-miterlimit="10"/>
        <path fill-rule="evenodd" clip-rule="evenodd" d="M524.161 202.433L553.197 185.753L524.161 202.433ZM553.197 118.632L495.11 152.26L553.197 118.632ZM495.11 185.753L524.161 168.94L495.11 185.753Z" stroke="white" stroke-width="0.828" stroke-miterlimit="10"/>
        <path fill-rule="evenodd" clip-rule="evenodd" d="M495.097 219.247V185.753V219.247ZM553.197 185.753L524.16 168.94L553.197 185.753Z" stroke="white" stroke-width="0.828" stroke-miterlimit="10"/>
        <path fill-rule="evenodd" clip-rule="evenodd" d="M466.06 202.566V269.554V202.566ZM495.11 185.753L466.06 202.566L495.11 185.753Z" stroke="white" stroke-width="0.828" stroke-miterlimit="10"/>
        <path d="M466.073 168.94L495.11 185.753" stroke="white" stroke-width="0.828" stroke-miterlimit="10"/>
        <path fill-rule="evenodd" clip-rule="evenodd" d="M466.074 168.94L437.023 185.753L466.074 168.94ZM466.074 202.566L437.023 185.753L466.074 202.566Z" stroke="white" stroke-width="0.828" stroke-miterlimit="10"/>
        <path d="M495.11 118.633V51.6448" stroke="white" stroke-width="0.828" stroke-miterlimit="10"/>
        <path d="M495.11 51.6446L466.073 68.3247" stroke="white" stroke-width="0.828" stroke-miterlimit="10"/>
        <path d="M466.073 34.832L495.11 51.645" stroke="white" stroke-width="0.828" stroke-miterlimit="10"/>
        <path fill-rule="evenodd" clip-rule="evenodd" d="M349.89 135.446L407.987 168.94L349.89 135.446ZM407.987 68.3251V135.446V68.3251ZM407.987 135.446L466.074 101.953L407.987 135.446ZM407.987 168.94V202.566V168.94ZM407.987 202.566L437.024 219.247L407.987 202.566ZM407.987 135.446L437.024 152.26L407.987 135.446ZM437.024 152.26L495.124 118.633L437.024 152.26ZM437.024 152.26V185.753V152.26Z" stroke="white" stroke-width="0.828" stroke-miterlimit="10"/>
        <path fill-rule="evenodd" clip-rule="evenodd" d="M407.973 34.832L378.921 51.6451L407.973 34.832ZM495.11 152.26V118.633V152.26ZM466.06 101.953L495.11 118.633L466.06 101.953Z" stroke="white" stroke-width="0.828" stroke-miterlimit="10"/>
        <path fill-rule="evenodd" clip-rule="evenodd" d="M407.987 68.3247L466.073 34.8315L407.987 68.3247ZM378.926 51.6446L407.987 68.3247L378.926 51.6446Z" stroke="white" stroke-width="0.828" stroke-miterlimit="10"/>
        <path d="M466.074 34.8318L407.987 1.20435" stroke="white" stroke-width="0.828" stroke-miterlimit="10"/>
        <path fill-rule="evenodd" clip-rule="evenodd" d="M524.161 236.061L553.197 219.246L524.161 236.061ZM495.11 219.246L524.161 236.061L495.11 219.246Z" stroke="white" stroke-width="0.828" stroke-miterlimit="10"/>
        <path fill-rule="evenodd" clip-rule="evenodd" d="M378.921 85.1382V51.645V85.1382ZM553.197 219.247L524.161 202.566L553.197 219.247ZM495.097 118.633L524.161 101.818L495.097 118.633ZM466.06 34.8319V68.3251V34.8319Z" stroke="white" stroke-width="0.828" stroke-miterlimit="10"/>
        <path fill-rule="evenodd" clip-rule="evenodd" d="M320.847 554.719L1.32983 370.17L320.847 554.719ZM437.023 454.104L407.973 470.784L437.023 454.104ZM466.06 470.784L437.01 454.104L466.06 470.784ZM466.06 403.797V370.17V403.797ZM466.06 370.17L437.01 386.983L466.06 370.17ZM437.01 386.983V420.477V386.983ZM437.01 420.477L466.06 403.797L437.01 420.477ZM495.11 386.983L466.06 370.17L495.11 386.983ZM466.06 403.797L495.11 420.477L466.06 403.797ZM495.11 420.477V386.983V420.477ZM437.023 420.477L466.073 437.29L437.023 420.477ZM466.073 437.29L495.124 420.477L466.073 437.29ZM378.938 554.719V588.212V554.719Z" stroke="white" stroke-width="0.828" stroke-miterlimit="10"/>
        <path d="M1.32983 403.797L320.837 588.212" stroke="white" stroke-width="0.828" stroke-miterlimit="10"/>
        <path fill-rule="evenodd" clip-rule="evenodd" d="M349.884 537.905V571.398V537.905ZM320.838 588.211V554.718V588.211ZM378.926 554.718L349.884 537.905L378.926 554.718Z" stroke="white" stroke-width="0.828" stroke-miterlimit="10"/>
        <path d="M349.884 571.398L378.926 588.211" stroke="white" stroke-width="0.828" stroke-miterlimit="10"/>
        <path d="M349.884 537.905L320.838 554.718" stroke="white" stroke-width="0.828" stroke-miterlimit="10"/>
        <path d="M320.838 588.211L349.884 571.398" stroke="white" stroke-width="0.828" stroke-miterlimit="10"/>
        <path fill-rule="evenodd" clip-rule="evenodd" d="M378.921 219.246V185.753V219.246ZM349.884 437.29L291.781 470.783L349.884 437.29ZM407.974 470.783L349.884 437.29L407.974 470.783ZM437.024 386.982L378.926 353.489L437.024 386.982ZM378.926 353.489V386.982V353.489ZM378.926 386.982L437.024 420.477L378.926 386.982ZM407.974 336.675L378.921 353.489L407.974 336.675ZM466.061 370.169L407.974 336.675L466.061 370.169ZM437.024 286.368L407.974 269.554L437.024 286.368ZM437.024 319.862V286.368V319.862ZM378.926 286.368V252.874V286.368ZM378.926 252.874L349.884 269.554L378.926 252.874ZM349.884 269.554V303.181V269.554ZM349.884 303.181L378.926 286.368L349.884 303.181ZM349.884 269.554L291.781 236.061L349.884 269.554ZM291.781 269.554L349.884 303.181L291.781 269.554ZM378.926 252.874L320.838 219.246L378.926 252.874ZM320.838 386.982V353.489V386.982ZM320.838 353.489L262.745 386.982L320.838 353.489ZM262.745 420.477L320.838 386.982L262.745 420.477ZM291.781 336.675L262.737 353.489L291.781 336.675ZM320.827 353.489L291.773 336.675L320.827 353.489ZM378.921 286.368L407.974 303.181L378.921 286.368ZM349.884 303.181L378.926 319.862L349.884 303.181ZM378.926 319.862L407.987 303.181L378.926 319.862ZM349.891 370.169L320.838 353.489L349.891 370.169ZM320.838 386.982L349.891 403.797L320.838 386.982ZM349.891 403.797V370.169V403.797ZM291.792 437.29L349.891 403.797L291.792 437.29ZM378.938 353.489L349.891 370.169L378.938 353.489ZM349.891 403.797L378.938 386.982L349.891 403.797ZM349.891 403.797L407.987 437.29L349.891 403.797ZM291.792 303.181L320.847 319.862L291.792 303.181ZM320.847 319.862L349.9 303.181L320.847 319.862ZM407.987 336.675V303.181V336.675ZM378.938 319.862V353.489V319.862ZM291.792 336.675V303.181V336.675ZM291.792 303.181L262.745 319.862L291.792 303.181ZM262.745 319.862V353.489V319.862ZM320.838 353.489V319.862V353.489ZM349.891 336.675V303.181V336.675ZM320.838 353.489L349.891 336.675L320.838 353.489ZM349.891 336.675L378.938 353.489L349.891 336.675ZM262.753 454.103L233.703 470.783L262.753 454.103ZM291.792 470.783L262.745 454.103L291.792 470.783ZM233.693 470.783L59.4105 370.169L233.693 470.783ZM262.737 386.982L204.648 353.489L262.737 386.982ZM204.648 386.982L262.737 420.477L204.648 386.982ZM262.737 420.477V386.982V420.477ZM175.592 403.797L233.685 437.29L175.592 403.797ZM233.685 437.29L262.737 420.477L233.685 437.29ZM466.061 336.675L437.01 319.862L466.061 336.675ZM466.061 370.169V336.675V370.169ZM407.974 437.29L437.024 420.477L407.974 437.29ZM262.745 420.477L291.792 437.29L262.745 420.477ZM466.074 437.29V470.783V437.29ZM437.024 420.477V454.103V420.477ZM407.974 437.29V470.783V437.29ZM349.884 437.29V403.797V437.29ZM262.737 454.103V420.477V454.103ZM233.685 437.29V470.783V437.29ZM291.773 470.783V437.29V470.783ZM378.921 185.753L320.827 152.26L378.921 185.753Z" stroke="white" stroke-width="0.828" stroke-miterlimit="10"/>
        <path fill-rule="evenodd" clip-rule="evenodd" d="M233.698 202.566V168.94V202.566ZM1.32999 336.675L59.421 303.181L1.32999 336.675ZM233.698 168.94L262.753 152.26L233.698 168.94Z" stroke="white" stroke-width="0.828" stroke-miterlimit="10"/>
        <path d="M233.693 168.94L262.745 185.753" stroke="white" stroke-width="0.828" stroke-miterlimit="10"/>
        <path fill-rule="evenodd" clip-rule="evenodd" d="M320.827 118.633L349.884 101.953L320.827 118.633ZM378.926 51.6451L349.884 68.3252L378.926 51.6451ZM320.827 152.26V118.633V152.26Z" stroke="white" stroke-width="0.828" stroke-miterlimit="10"/>
        <path d="M349.884 135.446L320.838 118.632" stroke="white" stroke-width="0.828" stroke-miterlimit="10"/>
        <path fill-rule="evenodd" clip-rule="evenodd" d="M378.926 18.0174L407.987 1.20429L378.926 18.0174ZM349.884 68.325V101.952V68.325ZM378.926 51.6448V18.0174V51.6448Z" stroke="white" stroke-width="0.828" stroke-miterlimit="10"/>
        <path d="M262.745 252.874L233.693 236.061" stroke="white" stroke-width="0.828" stroke-miterlimit="10"/>
        <path d="M233.693 236.061V269.554" stroke="white" stroke-width="0.828" stroke-miterlimit="10"/>
        <path fill-rule="evenodd" clip-rule="evenodd" d="M175.603 269.554L262.745 319.862L175.603 269.554ZM233.692 269.554L262.745 286.369L233.692 269.554ZM262.745 286.369V252.874V286.369Z" stroke="white" stroke-width="0.828" stroke-miterlimit="10"/>
        <path fill-rule="evenodd" clip-rule="evenodd" d="M262.745 219.247L233.692 236.061L262.745 219.247ZM204.657 219.247L117.509 269.554L204.657 219.247Z" stroke="white" stroke-width="0.828" stroke-miterlimit="10"/>
        <path fill-rule="evenodd" clip-rule="evenodd" d="M262.737 286.368L291.781 269.554L262.737 286.368ZM291.781 269.554V236.061V269.554ZM291.781 236.061L262.737 252.874L291.781 236.061Z" stroke="white" stroke-width="0.828" stroke-miterlimit="10"/>
        <path d="M233.692 236.061L204.657 219.246" stroke="white" stroke-width="0.828" stroke-miterlimit="10"/>
        <path fill-rule="evenodd" clip-rule="evenodd" d="M262.745 219.246L233.692 202.566L262.745 219.246ZM175.603 303.181L262.745 353.489L175.603 303.181Z" stroke="white" stroke-width="0.828" stroke-miterlimit="10"/>
        <path d="M233.693 202.566V236.061" stroke="white" stroke-width="0.828" stroke-miterlimit="10"/>
        <path fill-rule="evenodd" clip-rule="evenodd" d="M175.603 403.797L204.657 386.982L175.603 403.797ZM175.603 269.554V303.181V269.554ZM204.657 386.982V353.489V386.982ZM204.657 353.489L175.603 370.169L204.657 353.489ZM175.603 370.169V403.797V370.169Z" stroke="white" stroke-width="0.828" stroke-miterlimit="10"/>
        <path fill-rule="evenodd" clip-rule="evenodd" d="M146.555 353.489L175.603 336.675L146.555 353.489ZM146.555 386.982V353.489V386.982Z" stroke="white" stroke-width="0.828" stroke-miterlimit="10"/>
        <path fill-rule="evenodd" clip-rule="evenodd" d="M117.504 370.169L146.555 353.489L117.504 370.169ZM175.603 370.169L146.555 353.489L175.603 370.169ZM146.555 353.489V319.862V353.489ZM146.555 319.862L117.504 336.675L146.555 319.862ZM117.504 336.675V370.169V336.675Z" stroke="white" stroke-width="0.828" stroke-miterlimit="10"/>
        <path fill-rule="evenodd" clip-rule="evenodd" d="M88.4659 319.862L117.509 303.181L88.4659 319.862ZM88.4659 353.489V319.862V353.489Z" stroke="white" stroke-width="0.828" stroke-miterlimit="10"/>
        <path fill-rule="evenodd" clip-rule="evenodd" d="M146.545 286.369L117.493 269.554L146.545 286.369ZM117.509 336.675L88.4659 319.862L117.509 336.675ZM146.556 319.862L117.504 303.182L146.556 319.862ZM175.592 336.675L146.545 319.862L175.592 336.675ZM117.493 370.169L146.545 386.982L117.493 370.169Z" stroke="white" stroke-width="0.828" stroke-miterlimit="10"/>
        <path d="M117.509 269.554V303.182" stroke="white" stroke-width="0.828" stroke-miterlimit="10"/>
        <path d="M146.555 319.862V286.369" stroke="white" stroke-width="0.828" stroke-miterlimit="10"/>
        <path fill-rule="evenodd" clip-rule="evenodd" d="M1.32999 370.169V336.675V370.169ZM88.4658 286.368L117.509 269.554L88.4658 286.368ZM1.32999 370.169V403.797V370.169Z" stroke="white" stroke-width="0.828" stroke-miterlimit="10"/>
        <path d="M30.3654 353.489L1.32999 336.675" stroke="white" stroke-width="0.828" stroke-miterlimit="10"/>
        <path d="M1.32999 370.169L30.3654 353.489" stroke="white" stroke-width="0.828" stroke-miterlimit="10"/>
        <path d="M117.509 303.182L88.4659 286.369" stroke="white" stroke-width="0.828" stroke-miterlimit="10"/>
        <path fill-rule="evenodd" clip-rule="evenodd" d="M88.4659 319.861L59.4105 336.675L88.4659 319.861ZM88.4659 286.368V319.861V286.368Z" stroke="white" stroke-width="0.828" stroke-miterlimit="10"/>
        <path fill-rule="evenodd" clip-rule="evenodd" d="M59.4304 303.181L88.4833 319.862L59.4304 303.181ZM59.4211 336.675L88.4766 353.489L59.4211 336.675ZM146.565 286.368L175.61 269.554L146.565 286.368ZM146.565 319.862L175.61 303.181L146.565 319.862Z" stroke="white" stroke-width="0.828" stroke-miterlimit="10"/>
        <path fill-rule="evenodd" clip-rule="evenodd" d="M59.4211 303.181V336.675V303.181ZM59.4211 370.169V336.675V370.169Z" stroke="white" stroke-width="0.828" stroke-miterlimit="10"/>
        <path fill-rule="evenodd" clip-rule="evenodd" d="M320.818 185.753L291.764 202.566L320.818 185.753ZM378.926 85.1382L349.884 68.3251L378.926 85.1382ZM378.926 18.0175L407.987 34.8319L378.926 18.0175ZM524.161 370.169L495.111 386.982L524.161 370.169ZM495.111 353.489L466.061 370.169L495.111 353.489ZM495.111 319.862L466.061 336.675L495.111 319.862ZM466.061 269.554L437.01 286.369L466.061 269.554ZM437.01 319.862L466.061 303.182L437.01 319.862ZM437.01 252.874L407.96 269.554L437.01 252.874ZM466.061 269.554L436.997 252.874L466.061 269.554Z" stroke="white" stroke-width="0.828" stroke-miterlimit="10"/>
        <path fill-rule="evenodd" clip-rule="evenodd" d="M204.647 219.247L233.692 202.566L204.647 219.247ZM262.745 185.753L233.692 202.566L262.745 185.753Z" stroke="white" stroke-width="0.828" stroke-miterlimit="10"/>
        <path fill-rule="evenodd" clip-rule="evenodd" d="M407.987 236.061L437.023 219.246L407.987 236.061ZM407.987 168.94L378.926 185.753L407.987 168.94ZM378.926 219.246L407.987 202.566L378.926 219.246ZM378.926 219.246L407.987 236.061L378.926 219.246Z" stroke="white" stroke-width="0.828" stroke-miterlimit="10"/>
        <path d="M320.838 152.26L349.884 135.446" stroke="white" stroke-width="0.828" stroke-miterlimit="10"/>
        <path fill-rule="evenodd" clip-rule="evenodd" d="M291.791 168.94L320.847 152.26L291.791 168.94ZM262.745 152.26L291.791 168.94L262.745 152.26Z" stroke="white" stroke-width="0.828" stroke-miterlimit="10"/>
        <path d="M553.198 252.874V219.246" stroke="white" stroke-width="0.828" stroke-miterlimit="10"/>
        <path d="M524.161 236.061V269.554" stroke="white" stroke-width="0.828" stroke-miterlimit="10"/>
        <path d="M553.198 219.247V185.753" stroke="white" stroke-width="0.828" stroke-miterlimit="10"/>
        <path fill-rule="evenodd" clip-rule="evenodd" d="M407.974 269.554V236.061V269.554ZM495.111 252.874V219.247V252.874ZM437.024 219.247V252.874V219.247Z" stroke="white" stroke-width="0.828" stroke-miterlimit="10"/>
        <path d="M320.838 152.26V185.753" stroke="white" stroke-width="0.828" stroke-miterlimit="10"/>
        <path d="M291.781 202.566V168.94" stroke="white" stroke-width="0.828" stroke-miterlimit="10"/>
        <path fill-rule="evenodd" clip-rule="evenodd" d="M640.348 303.181V370.169V303.181ZM88.4659 286.368L59.4105 303.181L88.4659 286.368ZM349.884 135.446V101.952V135.446ZM262.737 219.246L291.781 202.566L262.737 219.246ZM262.737 152.26V185.753V152.26ZM262.737 185.753V219.246V185.753ZM320.827 185.753V219.246V185.753ZM320.827 118.633L262.737 152.126L320.827 118.633Z" stroke="white" stroke-width="0.828" stroke-miterlimit="10"/>
    </g>
</svg>
