<svg width="31" height="31" viewBox="0 0 31 31" fill="none" xmlns="http://www.w3.org/2000/svg">
    <path fill-rule="evenodd" clip-rule="evenodd" d="M15.2279 30.7746C6.99804 30.7746 0.302979 24.0795 0.302979 15.8497C0.302979 7.61986 6.99804 0.924805 15.2279 0.924805C23.4577 0.924805 30.1528 7.61986 30.1528 15.8497C30.1528 24.0795 23.4577 30.7746 15.2279 30.7746ZM15.2279 2.79042C8.02661 2.79042 2.16859 8.64844 2.16859 15.8497C2.16859 23.051 8.02661 28.909 15.2279 28.909C22.4291 28.909 28.2872 23.051 28.2872 15.8497C28.2872 8.64844 22.4291 2.79042 15.2279 2.79042ZM6.77262 19.8058H4.95178C4.43687 19.8058 4.01897 19.3879 4.01897 18.873V12.8259C4.01897 12.311 4.43687 11.8931 4.95178 11.8931H6.77262C8.57709 11.8931 10.1033 13.1074 10.577 14.7618L13.1707 12.166C13.5339 11.8028 14.1247 11.8015 14.4904 12.166C14.8548 12.5304 14.8548 13.1211 14.4904 13.4856L12.1471 15.83L12.6704 16.1986L15.2403 13.6256C15.6035 13.2612 16.1942 13.26 16.5599 13.6244C16.9243 13.9888 16.9243 14.5796 16.5599 14.944L14.2178 17.2889L14.7404 17.6571L17.3099 15.085C17.4856 14.9093 17.714 14.818 17.9442 14.8115V12.8259C17.9442 12.311 18.3621 11.8931 18.877 11.8931C19.3919 11.8931 19.8098 12.311 19.8098 12.8259V17.9389H21.9055C22.315 17.9389 22.6631 18.2032 22.7885 18.5705V12.8259C22.7885 12.311 23.2064 11.8931 23.7213 11.8931C24.2362 11.8931 24.6541 12.311 24.6541 12.8259V17.9389H26.7498C27.2647 17.9389 27.6826 18.3568 27.6826 18.8717C27.6826 19.3866 27.2647 19.8058 26.7498 19.8058H23.7213C23.2801 19.8058 22.9102 19.499 22.8133 19.0872C22.716 19.4986 22.3463 19.8058 21.9055 19.8058H18.877C18.3621 19.8058 17.9442 19.3879 17.9442 18.873V17.0895L15.504 19.5326C15.3237 19.713 15.0849 19.8063 14.8436 19.8063C14.657 19.8063 14.468 19.7503 14.3063 19.6359L10.5597 16.9956C10.0672 18.62 8.55575 19.8058 6.77262 19.8058ZM5.88458 17.9402H6.77262C7.92556 17.9402 8.86334 17.0024 8.86334 15.8494C8.86334 14.6965 7.92556 13.7587 6.77262 13.7587H5.88458V17.9402Z" fill="white"/>
</svg>
