<svg width="72" height="69" viewBox="0 0 72 69" fill="none" xmlns="http://www.w3.org/2000/svg">
    <path d="M65.6988 37.45C68.3988 35.2 70.0488 31.75 70.0488 28C70.0488 22.45 66.4488 17.65 61.3488 16C60.4488 10 55.1988 5.35 48.8988 5.35C46.9488 5.35 44.9988 5.8 43.3488 6.7C43.0488 6.7 42.8988 6.55 42.5988 6.55C40.3488 3.25 36.4488 1 32.0988 1C27.7488 1 23.9988 3.1 21.7488 6.4C20.0988 5.8 18.2988 5.35 16.3488 5.35C8.3988 5.35 1.79883 11.8 1.79883 19.9C1.79883 27.85 8.2488 34.45 16.3488 34.45C22.1988 34.45 27.1488 31 29.3988 26.2C31.6488 29.35 35.3988 31.45 39.5988 31.45C41.5488 31.45 43.1988 31 44.8488 30.25C45.4488 33.85 47.6988 37 50.8488 38.8" stroke="white" stroke-width="2" stroke-miterlimit="10"/>
    <path d="M7.20117 19.4501C7.20117 24.5501 11.4012 28.7501 16.5012 28.7501" stroke="white" stroke-width="2" stroke-miterlimit="10"/>
    <path d="M31.9512 16.8999C31.9512 21.2499 35.4012 24.6999 39.7512 24.6999" stroke="white" stroke-width="2" stroke-miterlimit="10"/>
    <path d="M50.7012 30.5499C51.6012 33.0999 53.8512 34.8999 56.5512 35.4999" stroke="white" stroke-width="2" stroke-miterlimit="10"/>
    <path d="M16.3516 5.20007C20.7016 5.20007 24.6016 7.15007 27.3016 10.3001" stroke="white" stroke-width="2" stroke-miterlimit="10"/>
    <path d="M40.5 4C42.75 5.95 44.25 8.65 44.7 11.65" stroke="white" stroke-width="2" stroke-miterlimit="10"/>
    <path d="M49.35 26.9501C47.1 29.6501 43.65 31.3001 39.75 31.3001" stroke="white" stroke-width="2" stroke-miterlimit="10"/>
    <path d="M68.9984 67.2999L62.9984 40.2999H53.5484L47.3984 67.2999H68.9984Z" stroke="white" stroke-width="2" stroke-miterlimit="10"/>
    <path d="M0 67.2999H72" stroke="white" stroke-width="2" stroke-miterlimit="10"/>
    <path d="M51 47.7999H24V67.2999" stroke="white" stroke-width="2" stroke-miterlimit="10"/>
    <path d="M21 53.7999H9V67.2999" stroke="white" stroke-width="2" stroke-miterlimit="10"/>
    <path d="M28.5 61.2999H31.5" stroke="white" stroke-width="2" stroke-miterlimit="10"/>
    <path d="M34.5 61.2999H37.5" stroke="white" stroke-width="2" stroke-miterlimit="10"/>
    <path d="M40.5 61.2999H43.5" stroke="white" stroke-width="2" stroke-miterlimit="10"/>
    <path d="M13.5 61.2999H16.5" stroke="white" stroke-width="2" stroke-miterlimit="10"/>
</svg>
