<svg width="73" height="63" viewBox="0 0 73 63" fill="none" xmlns="http://www.w3.org/2000/svg">
    <path d="M36.1931 62.7978L19.2305 45.8352L21.3444 43.7728L36.1931 58.6216L51.0418 43.7728L53.1041 45.8352L36.1931 62.7978Z" fill="white"/>
    <path d="M6.90763 33.5127L5.77335 32.3785C2.16429 28.7694 0.205078 24.0261 0.205078 18.9734C0.205078 13.9207 2.16429 9.12578 5.77335 5.56827C13.1977 -1.85609 25.2107 -1.85609 32.6351 5.56827L36.1926 9.12579L39.7501 5.56827C47.1745 -1.85609 59.1875 -1.85609 66.6119 5.56827C74.0362 12.9926 74.0362 25.0057 66.6119 32.43L65.6323 33.4096L63.57 31.3473L64.5496 30.3677C70.7881 24.1292 70.7881 13.9207 64.5496 7.68214C58.311 1.44361 48.1025 1.44361 41.864 7.68214L36.2442 13.302L30.6243 7.68214C24.3858 1.44361 14.1773 1.44361 7.93879 7.68214C4.89686 10.7241 3.247 14.7456 3.247 19.0249C3.247 23.3042 4.89686 27.3258 7.93879 30.3677L9.07307 31.502L6.90763 33.5127Z" fill="white"/>
    <path d="M37.6883 49.3926L30.0061 34.3377L27.0673 40.1122H5.87695V37.1734H25.3143L30.0061 27.8413L37.7398 42.9994L43.9268 31.1926L48.1546 37.1734H66.9217V40.1122H46.6078L44.2877 36.8124L37.6883 49.3926Z" fill="white"/>
    <path d="M3.35127 37.1735H0V40.1122H3.35127V37.1735Z" fill="white"/>
    <path d="M72.7985 37.1735H69.4473V40.1122H72.7985V37.1735Z" fill="white"/>
</svg>
