<svg width="70" height="67" viewBox="0 0 70 67" fill="none" xmlns="http://www.w3.org/2000/svg">
    <path d="M24.2591 15.6466L26.0786 5.1842L20.9232 2C11.0674 5.79072 2.57617 17.3145 2.57617 33.2355L6.06363 35.2067L24.2591 15.6466Z" stroke="white" stroke-width="2" stroke-miterlimit="10"/>
    <path d="M6.06445 62.6514V35.3583" stroke="white" stroke-width="2" stroke-miterlimit="10"/>
    <path d="M24.2611 15.6465L68.2334 44.4559L66.7171 50.5211L16.6797 23.2279" stroke="white" stroke-width="2" stroke-miterlimit="10"/>
    <path d="M66.7168 50.5212V62.6515" stroke="white" stroke-width="2" stroke-miterlimit="10"/>
    <path d="M33.3575 32.3257V39.9071L24.2598 65.684" stroke="white" stroke-width="2" stroke-miterlimit="10"/>
    <path d="M42.4551 36.8745V39.9071L51.5528 65.6839" stroke="white" stroke-width="2" stroke-miterlimit="10"/>
    <path d="M30.3242 47.4885L50.0359 65.684" stroke="white" stroke-width="2" stroke-miterlimit="10"/>
    <path d="M45.4891 47.4885L25.7773 65.684" stroke="white" stroke-width="2" stroke-miterlimit="10"/>
    <path d="M0 65.684H69.7492" stroke="white" stroke-width="2" stroke-miterlimit="10"/>
    <path d="M62.1688 9.58131H57.3167C56.7102 8.06502 55.1939 7.15525 53.526 7.15525C52.9195 7.15525 52.4646 7.30688 52.0097 7.45851C51.0999 4.88082 48.5222 3.06128 45.6413 3.06128C41.8506 3.06128 38.9696 6.70037 38.9696 9.73294H33.3594" stroke="white" stroke-width="2" stroke-miterlimit="10"/>
    <path d="M47.0039 23.228H50.7946C51.2495 21.7117 52.4625 21.2568 53.8272 21.2568C54.2821 21.2568 54.737 21.4085 55.0402 21.5601C55.7984 19.5889 57.7695 18.0726 60.044 18.0726C62.9249 18.0726 65.351 20.1954 65.351 23.228H69.8998" stroke="white" stroke-width="2" stroke-miterlimit="10"/>
</svg>
