<svg width="699" height="589" viewBox="0 0 699 589" fill="none" xmlns="http://www.w3.org/2000/svg">
    <g opacity="0.3">
        <path d="M698.105 369.952L640.018 403.485" stroke="white" stroke-width="0.828" stroke-miterlimit="10"/>
        <path fill-rule="evenodd" clip-rule="evenodd" d="M669.055 353.178L698.105 369.952L669.055 353.178ZM378.596 587.953L698.105 403.485L378.596 587.953ZM698.105 336.417V369.952V336.417Z" stroke="white" stroke-width="0.828" stroke-miterlimit="10"/>
        <path d="M698.105 403.485V369.952" stroke="white" stroke-width="0.828" stroke-miterlimit="10"/>
        <path d="M698.105 336.417L669.068 353.178" stroke="white" stroke-width="0.828" stroke-miterlimit="10"/>
        <path d="M610.968 286.096L640.018 302.883" stroke="white" stroke-width="0.828" stroke-miterlimit="10"/>
        <path fill-rule="evenodd" clip-rule="evenodd" d="M552.868 386.711L610.955 353.178L552.868 386.711ZM581.931 437.032L378.596 554.42L581.931 437.032ZM552.868 420.258L465.733 470.566L552.868 420.258ZM581.918 437.032L552.868 420.258L581.918 437.032Z" stroke="white" stroke-width="0.828" stroke-miterlimit="10"/>
        <path d="M581.931 269.336V235.803" stroke="white" stroke-width="0.828" stroke-miterlimit="10"/>
        <path fill-rule="evenodd" clip-rule="evenodd" d="M494.778 319.644L581.931 269.337L494.778 319.644ZM581.931 235.803L552.867 252.563L581.931 235.803Z" stroke="white" stroke-width="0.828" stroke-miterlimit="10"/>
        <path d="M610.968 286.11L581.931 269.336" stroke="white" stroke-width="0.828" stroke-miterlimit="10"/>
        <path fill-rule="evenodd" clip-rule="evenodd" d="M581.931 403.485L640.018 369.952L581.931 403.485ZM523.831 269.337L494.778 286.111L523.831 269.337ZM494.778 286.111V319.63V286.111ZM494.778 319.63L523.831 336.417L494.778 319.63ZM523.831 336.417L610.968 286.111L523.831 336.417Z" stroke="white" stroke-width="0.828" stroke-miterlimit="10"/>
        <path fill-rule="evenodd" clip-rule="evenodd" d="M610.954 319.644V286.111V319.644ZM640.018 369.952L610.954 353.178L640.018 369.952Z" stroke="white" stroke-width="0.828" stroke-miterlimit="10"/>
        <path fill-rule="evenodd" clip-rule="evenodd" d="M552.867 386.711L581.931 403.485L552.867 386.711ZM523.831 336.417V369.952V336.417ZM494.778 319.63V353.178V319.63ZM494.778 353.178L523.831 369.952L494.778 353.178Z" stroke="white" stroke-width="0.828" stroke-miterlimit="10"/>
        <path fill-rule="evenodd" clip-rule="evenodd" d="M552.867 219.029L581.931 235.803L552.867 219.029ZM640.018 302.87L698.105 336.417L640.018 302.87ZM610.954 286.096V252.562V286.096ZM552.867 185.482L581.931 202.255L552.867 185.482ZM581.931 202.255V235.803V202.255ZM581.931 235.803L610.968 252.562L581.931 235.803Z" stroke="white" stroke-width="0.828" stroke-miterlimit="10"/>
        <path fill-rule="evenodd" clip-rule="evenodd" d="M581.904 202.242L552.854 219.016L581.904 202.242ZM494.778 286.096L465.733 269.337L494.778 286.096ZM465.733 269.337V302.87V269.337ZM465.733 302.87L494.778 319.63L465.733 302.87ZM494.778 252.55L465.733 269.337L494.778 252.55ZM523.831 269.337L494.77 252.55L523.831 269.337ZM640.005 302.87L610.955 319.63L640.005 302.87ZM610.955 252.55L581.904 269.337L610.955 252.55Z" stroke="white" stroke-width="0.828" stroke-miterlimit="10"/>
        <path d="M640.018 403.485V369.952" stroke="white" stroke-width="0.828" stroke-miterlimit="10"/>
        <path fill-rule="evenodd" clip-rule="evenodd" d="M581.931 403.498V437.031V403.498ZM552.867 420.258V386.724V420.258Z" stroke="white" stroke-width="0.828" stroke-miterlimit="10"/>
        <path fill-rule="evenodd" clip-rule="evenodd" d="M552.868 118.4V185.482V118.4ZM523.831 101.628L552.868 118.4L523.831 101.628Z" stroke="white" stroke-width="0.828" stroke-miterlimit="10"/>
        <path fill-rule="evenodd" clip-rule="evenodd" d="M523.831 202.229L552.867 185.469L523.831 202.229ZM552.867 118.401L494.778 151.934L552.867 118.401ZM494.778 185.469L523.831 168.695L494.778 185.469Z" stroke="white" stroke-width="0.828" stroke-miterlimit="10"/>
        <path fill-rule="evenodd" clip-rule="evenodd" d="M494.77 219.016V185.482V219.016ZM552.867 185.482L523.831 168.708L552.867 185.482Z" stroke="white" stroke-width="0.828" stroke-miterlimit="10"/>
        <path fill-rule="evenodd" clip-rule="evenodd" d="M465.733 202.255V269.336V202.255ZM494.778 185.482L465.733 202.255L494.778 185.482Z" stroke="white" stroke-width="0.828" stroke-miterlimit="10"/>
        <path d="M465.744 168.708L494.778 185.482" stroke="white" stroke-width="0.828" stroke-miterlimit="10"/>
        <path fill-rule="evenodd" clip-rule="evenodd" d="M465.744 168.695L436.69 185.482L465.744 168.695ZM465.744 202.242L436.69 185.482L465.744 202.242Z" stroke="white" stroke-width="0.828" stroke-miterlimit="10"/>
        <path d="M494.778 118.401V51.3203" stroke="white" stroke-width="0.828" stroke-miterlimit="10"/>
        <path d="M494.778 51.3206L465.744 68.0933" stroke="white" stroke-width="0.828" stroke-miterlimit="10"/>
        <path d="M465.744 34.56L494.778 51.3209" stroke="white" stroke-width="0.828" stroke-miterlimit="10"/>
        <path fill-rule="evenodd" clip-rule="evenodd" d="M349.56 135.162L407.65 168.708L349.56 135.162ZM407.65 68.0931V135.175V68.0931ZM407.65 135.175L465.744 101.641L407.65 135.175ZM407.65 168.721V202.255V168.721ZM407.65 202.255L436.696 219.016L407.65 202.255ZM407.65 135.175L436.696 151.934L407.65 135.175ZM436.696 151.934L494.79 118.401L436.696 151.934ZM436.696 151.934V185.482V151.934Z" stroke="white" stroke-width="0.828" stroke-miterlimit="10"/>
        <path fill-rule="evenodd" clip-rule="evenodd" d="M407.642 34.5462L378.59 51.3202L407.642 34.5462ZM494.778 151.934V118.4V151.934ZM465.733 101.641L494.778 118.4L465.733 101.641Z" stroke="white" stroke-width="0.828" stroke-miterlimit="10"/>
        <path fill-rule="evenodd" clip-rule="evenodd" d="M407.65 68.1074L465.744 34.5738L407.65 68.1074ZM378.596 51.3204L407.65 68.1074L378.596 51.3204Z" stroke="white" stroke-width="0.828" stroke-miterlimit="10"/>
        <path d="M465.744 34.5596L407.65 0.999894" stroke="white" stroke-width="0.828" stroke-miterlimit="10"/>
        <path fill-rule="evenodd" clip-rule="evenodd" d="M523.831 235.803L552.867 219.016L523.831 235.803ZM494.778 219.016L523.831 235.803L494.778 219.016Z" stroke="white" stroke-width="0.828" stroke-miterlimit="10"/>
        <path fill-rule="evenodd" clip-rule="evenodd" d="M378.59 84.854V51.3204V84.854ZM552.867 219.016L523.83 202.242L552.867 219.016ZM494.77 118.401L523.83 101.614L494.77 118.401ZM465.733 34.5465V68.0801V34.5465Z" stroke="white" stroke-width="0.828" stroke-miterlimit="10"/>
        <path fill-rule="evenodd" clip-rule="evenodd" d="M320.517 554.42L1.00012 369.951L320.517 554.42ZM436.69 453.791L407.642 470.578L436.69 453.791ZM465.733 470.578L436.679 453.791L465.733 470.578ZM465.733 403.485V369.951V403.485ZM465.733 369.951L436.679 386.724L465.733 369.951ZM436.679 386.724V420.258V386.724ZM436.679 420.258L465.733 403.485L436.679 420.258ZM494.778 386.711L465.733 369.951L494.778 386.711ZM465.733 403.485L494.778 420.258L465.733 403.485ZM494.778 420.258V386.711V420.258ZM436.69 420.258L465.744 437.032L436.69 420.258ZM465.744 437.032L494.79 420.258L465.744 437.032ZM378.608 554.42V587.94V554.42Z" stroke="white" stroke-width="0.828" stroke-miterlimit="10"/>
        <path d="M1.00012 403.485L320.508 587.953" stroke="white" stroke-width="0.828" stroke-miterlimit="10"/>
        <path fill-rule="evenodd" clip-rule="evenodd" d="M349.554 537.647V571.194V537.647ZM320.508 587.953V554.42V587.953ZM378.596 554.42L349.554 537.647L378.596 554.42Z" stroke="white" stroke-width="0.828" stroke-miterlimit="10"/>
        <path d="M349.554 571.194L378.596 587.953" stroke="white" stroke-width="0.828" stroke-miterlimit="10"/>
        <path d="M349.554 537.647L320.508 554.42" stroke="white" stroke-width="0.828" stroke-miterlimit="10"/>
        <path d="M320.508 587.953L349.554 571.194" stroke="white" stroke-width="0.828" stroke-miterlimit="10"/>
        <path fill-rule="evenodd" clip-rule="evenodd" d="M378.591 219.029V185.495V219.029ZM349.554 437.032L291.451 470.565L349.554 437.032ZM407.642 470.565L349.554 437.032L407.642 470.565ZM436.69 386.711L378.596 353.177L436.69 386.711ZM378.596 353.177V386.711V353.177ZM378.596 386.711L436.69 420.258L378.596 386.711ZM407.642 336.403L378.591 353.177L407.642 336.403ZM465.733 369.951L407.642 336.416L465.733 369.951ZM436.69 286.11L407.642 269.336L436.69 286.11ZM436.69 319.629V286.11V319.629ZM378.596 286.11V252.562V286.11ZM378.596 252.562L349.554 269.336L378.596 252.562ZM349.554 269.336V302.883V269.336ZM349.554 302.883L378.596 286.11L349.554 302.883ZM349.554 269.336L291.451 235.803L349.554 269.336ZM291.451 269.336L349.554 302.87L291.451 269.336ZM378.596 252.549L320.508 219.016L378.596 252.549ZM320.508 386.711V353.177V386.711ZM320.508 353.177L262.415 386.711L320.508 353.177ZM262.415 420.258L320.508 386.711L262.415 420.258ZM291.451 336.416L262.407 353.177L291.451 336.416ZM320.497 353.177L291.443 336.416L320.497 353.177ZM378.591 286.11L407.642 302.883L378.591 286.11ZM349.554 302.883L378.596 319.644L349.554 302.883ZM378.596 319.644L407.65 302.883L378.596 319.644ZM349.56 369.951L320.508 353.177L349.56 369.951ZM320.508 386.711L349.56 403.485L320.508 386.711ZM349.56 403.485V369.951V403.485ZM291.461 437.032L349.56 403.498L291.461 437.032ZM378.608 353.19L349.56 369.964L378.608 353.19ZM349.56 403.498L378.608 386.724L349.56 403.498ZM349.56 403.498L407.65 437.032L349.56 403.498ZM291.461 302.883L320.517 319.644L291.461 302.883ZM320.517 319.644L349.57 302.883L320.517 319.644ZM407.661 336.416V302.883V336.416ZM378.608 319.644V353.177V319.644ZM291.461 336.416V302.883V336.416ZM291.461 302.883L262.415 319.644L291.461 302.883ZM262.415 319.644V353.177V319.644ZM320.508 353.177V319.644V353.177ZM349.56 336.416V302.883V336.416ZM320.508 353.19L349.56 336.416L320.508 353.19ZM349.56 336.416L378.608 353.19L349.56 336.416ZM262.423 453.806L233.373 470.578L262.423 453.806ZM291.461 470.578L262.415 453.806L291.461 470.578ZM233.363 470.578L59.0804 369.964L233.363 470.578ZM262.407 386.737L204.318 353.19L262.407 386.737ZM204.318 386.737L262.407 420.272L204.318 386.737ZM262.407 420.272V386.737V420.272ZM175.262 403.511L233.355 437.045L175.262 403.511ZM233.355 437.045L262.407 420.272L233.355 437.045ZM465.733 336.416L436.679 319.644L465.733 336.416ZM465.733 369.951V336.416V369.951ZM407.642 437.032L436.69 420.258L407.642 437.032ZM262.415 420.258L291.461 437.032L262.415 420.258ZM465.744 437.032V470.578V437.032ZM436.69 420.258V453.791V420.258ZM407.642 437.032V470.565V437.032ZM349.554 437.032V403.485V437.032ZM262.407 453.791V420.258V453.791ZM233.355 437.032V470.578V437.032ZM291.443 470.578V437.032V470.578ZM378.591 185.482L320.497 151.948L378.591 185.482Z" stroke="white" stroke-width="0.828" stroke-miterlimit="10"/>
        <path fill-rule="evenodd" clip-rule="evenodd" d="M233.368 202.255V168.721V202.255ZM1 336.417L59.091 302.883L1 336.417ZM233.368 168.721L262.423 151.934L233.368 168.721Z" stroke="white" stroke-width="0.828" stroke-miterlimit="10"/>
        <path d="M233.363 168.721L262.415 185.482" stroke="white" stroke-width="0.828" stroke-miterlimit="10"/>
        <path fill-rule="evenodd" clip-rule="evenodd" d="M320.497 118.415L349.554 101.641L320.497 118.415ZM378.596 51.3205L349.554 68.1075L378.596 51.3205ZM320.497 151.949V118.415V151.949Z" stroke="white" stroke-width="0.828" stroke-miterlimit="10"/>
        <path d="M349.554 135.161L320.508 118.4" stroke="white" stroke-width="0.828" stroke-miterlimit="10"/>
        <path fill-rule="evenodd" clip-rule="evenodd" d="M378.596 17.7726L407.65 0.999958L378.596 17.7726ZM349.554 68.0933V101.628V68.0933ZM378.596 51.3206V17.7726V51.3206Z" stroke="white" stroke-width="0.828" stroke-miterlimit="10"/>
        <path d="M262.415 252.549L233.363 235.802" stroke="white" stroke-width="0.828" stroke-miterlimit="10"/>
        <path d="M233.363 235.803V269.336" stroke="white" stroke-width="0.828" stroke-miterlimit="10"/>
        <path fill-rule="evenodd" clip-rule="evenodd" d="M175.273 269.337L262.415 319.644L175.273 269.337ZM233.362 269.337L262.415 286.096L233.362 269.337ZM262.415 286.096V252.563V286.096Z" stroke="white" stroke-width="0.828" stroke-miterlimit="10"/>
        <path fill-rule="evenodd" clip-rule="evenodd" d="M262.415 219.016L233.362 235.803L262.415 219.016ZM204.327 219.016L117.179 269.336L204.327 219.016Z" stroke="white" stroke-width="0.828" stroke-miterlimit="10"/>
        <path fill-rule="evenodd" clip-rule="evenodd" d="M262.407 286.11L291.451 269.336L262.407 286.11ZM291.451 269.336V235.803V269.336ZM291.451 235.803L262.407 252.563L291.451 235.803Z" stroke="white" stroke-width="0.828" stroke-miterlimit="10"/>
        <path d="M233.363 235.803L204.327 219.016" stroke="white" stroke-width="0.828" stroke-miterlimit="10"/>
        <path fill-rule="evenodd" clip-rule="evenodd" d="M262.415 219.016L233.362 202.255L262.415 219.016ZM175.273 302.883L262.415 353.178L175.273 302.883Z" stroke="white" stroke-width="0.828" stroke-miterlimit="10"/>
        <path d="M233.363 202.255V235.803" stroke="white" stroke-width="0.828" stroke-miterlimit="10"/>
        <path fill-rule="evenodd" clip-rule="evenodd" d="M175.273 403.485L204.327 386.711L175.273 403.485ZM175.273 269.337V302.87V269.337ZM204.327 386.711V353.178V386.711ZM204.327 353.178L175.273 369.952L204.327 353.178ZM175.273 369.952V403.485V369.952Z" stroke="white" stroke-width="0.828" stroke-miterlimit="10"/>
        <path fill-rule="evenodd" clip-rule="evenodd" d="M146.225 353.178L175.273 336.417L146.225 353.178ZM146.225 386.711V353.178V386.711Z" stroke="white" stroke-width="0.828" stroke-miterlimit="10"/>
        <path fill-rule="evenodd" clip-rule="evenodd" d="M117.174 369.952L146.225 353.178L117.174 369.952ZM175.273 369.952L146.225 353.178L175.273 369.952ZM146.225 353.178V319.644V353.178ZM146.225 319.644L117.174 336.417L146.225 319.644ZM117.174 336.417V369.952V336.417Z" stroke="white" stroke-width="0.828" stroke-miterlimit="10"/>
        <path fill-rule="evenodd" clip-rule="evenodd" d="M88.1359 319.644L117.179 302.883L88.1359 319.644ZM88.1359 353.178V319.644V353.178Z" stroke="white" stroke-width="0.828" stroke-miterlimit="10"/>
        <path fill-rule="evenodd" clip-rule="evenodd" d="M146.215 286.096L117.163 269.324L146.215 286.096ZM117.179 336.417L88.1359 319.63L117.179 336.417ZM146.225 319.63L117.174 302.87L146.225 319.63ZM175.262 336.404L146.215 319.63L175.262 336.404ZM117.163 369.937L146.215 386.711L117.163 369.937Z" stroke="white" stroke-width="0.828" stroke-miterlimit="10"/>
        <path d="M117.179 269.336V302.883" stroke="white" stroke-width="0.828" stroke-miterlimit="10"/>
        <path d="M146.225 319.63V286.096" stroke="white" stroke-width="0.828" stroke-miterlimit="10"/>
        <path fill-rule="evenodd" clip-rule="evenodd" d="M1 369.952V336.417V369.952ZM88.1358 286.111L117.179 269.337L88.1358 286.111ZM1 369.952V403.485V369.952Z" stroke="white" stroke-width="0.828" stroke-miterlimit="10"/>
        <path d="M30.0354 353.178L1 336.417" stroke="white" stroke-width="0.828" stroke-miterlimit="10"/>
        <path d="M1 369.952L30.0354 353.178" stroke="white" stroke-width="0.828" stroke-miterlimit="10"/>
        <path d="M117.179 302.883L88.1359 286.096" stroke="white" stroke-width="0.828" stroke-miterlimit="10"/>
        <path fill-rule="evenodd" clip-rule="evenodd" d="M88.1358 319.63L59.0804 336.417L88.1358 319.63ZM88.1358 286.096V319.63V286.096Z" stroke="white" stroke-width="0.828" stroke-miterlimit="10"/>
        <path fill-rule="evenodd" clip-rule="evenodd" d="M59.1003 302.87L88.1531 319.63L59.1003 302.87ZM59.091 336.417L88.1464 353.178L59.091 336.417ZM146.235 286.111L175.28 269.337L146.235 286.111ZM146.235 319.63L175.28 302.87L146.235 319.63Z" stroke="white" stroke-width="0.828" stroke-miterlimit="10"/>
        <path fill-rule="evenodd" clip-rule="evenodd" d="M59.091 302.883V336.417V302.883ZM59.091 369.952V336.417V369.952Z" stroke="white" stroke-width="0.828" stroke-miterlimit="10"/>
        <path fill-rule="evenodd" clip-rule="evenodd" d="M320.488 185.495L291.434 202.269L320.488 185.495ZM378.596 84.854L349.554 68.0931L378.596 84.854ZM378.596 17.7725L407.65 34.5464L378.596 17.7725ZM523.831 369.952L494.778 386.724L523.831 369.952ZM494.778 353.191L465.733 369.965L494.778 353.191ZM494.778 319.657L465.733 336.431L494.778 319.657ZM465.733 269.35L436.679 286.124L465.733 269.35ZM436.679 319.657L465.733 302.883L436.679 319.657ZM436.679 252.576L407.632 269.35L436.679 252.576ZM465.725 269.35L436.67 252.576L465.725 269.35Z" stroke="white" stroke-width="0.828" stroke-miterlimit="10"/>
        <path fill-rule="evenodd" clip-rule="evenodd" d="M204.318 219.029L233.363 202.255L204.318 219.029ZM262.415 185.482L233.363 202.255L262.415 185.482Z" stroke="white" stroke-width="0.828" stroke-miterlimit="10"/>
        <path fill-rule="evenodd" clip-rule="evenodd" d="M407.65 235.79L436.696 219.016L407.65 235.79ZM407.65 168.721L378.596 185.482L407.65 168.721ZM378.596 219.016L407.65 202.255L378.596 219.016ZM378.596 219.016L407.65 235.79L378.596 219.016Z" stroke="white" stroke-width="0.828" stroke-miterlimit="10"/>
        <path d="M320.508 151.934L349.554 135.161" stroke="white" stroke-width="0.828" stroke-miterlimit="10"/>
        <path fill-rule="evenodd" clip-rule="evenodd" d="M291.462 168.708L320.517 151.934L291.462 168.708ZM262.415 151.934L291.462 168.708L262.415 151.934Z" stroke="white" stroke-width="0.828" stroke-miterlimit="10"/>
        <path d="M552.867 252.549V219.015" stroke="white" stroke-width="0.828" stroke-miterlimit="10"/>
        <path d="M523.831 235.803V269.336" stroke="white" stroke-width="0.828" stroke-miterlimit="10"/>
        <path d="M552.867 219.016V185.482" stroke="white" stroke-width="0.828" stroke-miterlimit="10"/>
        <path fill-rule="evenodd" clip-rule="evenodd" d="M407.642 269.336V235.79V269.336ZM494.778 252.549V219.016V252.549ZM436.69 219.016V252.549V219.016Z" stroke="white" stroke-width="0.828" stroke-miterlimit="10"/>
        <path d="M320.508 151.934V185.482" stroke="white" stroke-width="0.828" stroke-miterlimit="10"/>
        <path d="M291.451 202.242V168.708" stroke="white" stroke-width="0.828" stroke-miterlimit="10"/>
        <path fill-rule="evenodd" clip-rule="evenodd" d="M640.018 302.87V369.952V302.87ZM88.1358 286.096L59.0804 302.87L88.1358 286.096ZM349.554 135.162V101.628V135.162ZM262.407 219.016L291.451 202.242L262.407 219.016ZM262.407 151.934V185.469V151.934ZM262.407 185.469V219.016V185.469ZM320.497 185.469V219.016V185.469ZM320.497 118.401L262.407 151.934L320.497 118.401Z" stroke="white" stroke-width="0.828" stroke-miterlimit="10"/>
    </g>
</svg>
