<svg width="425" height="535" viewBox="0 0 425 535" fill="none" xmlns="http://www.w3.org/2000/svg">
    <g opacity="0.3">
        <path d="M424.156 336.112L371.393 366.563" stroke="white" stroke-width="0.752" stroke-miterlimit="10"/>
        <path fill-rule="evenodd" clip-rule="evenodd" d="M397.773 320.873L424.156 336.098L397.773 320.873ZM133.957 534.111L424.156 366.562L133.957 534.111ZM424.156 305.647V336.098V305.647Z" stroke="white" stroke-width="0.752" stroke-miterlimit="10"/>
        <path d="M424.156 366.563V336.112" stroke="white" stroke-width="0.752" stroke-miterlimit="10"/>
        <path d="M424.156 305.646L397.781 320.872" stroke="white" stroke-width="0.752" stroke-miterlimit="10"/>
        <path d="M345.01 259.943L371.393 275.181" stroke="white" stroke-width="0.752" stroke-miterlimit="10"/>
        <path fill-rule="evenodd" clip-rule="evenodd" d="M292.239 351.337L344.997 320.872L292.239 351.337ZM318.633 397.027L133.957 503.646L318.633 397.027ZM292.241 381.788L213.101 427.492L292.241 381.788ZM318.624 397.027L292.239 381.788L318.624 397.027Z" stroke="white" stroke-width="0.752" stroke-miterlimit="10"/>
        <path d="M318.633 244.717V214.253" stroke="white" stroke-width="0.752" stroke-miterlimit="10"/>
        <path fill-rule="evenodd" clip-rule="evenodd" d="M239.481 290.421L318.633 244.731L239.481 290.421ZM318.633 214.254L292.241 229.493L318.633 214.254Z" stroke="white" stroke-width="0.752" stroke-miterlimit="10"/>
        <path d="M345.01 259.956L318.633 244.717" stroke="white" stroke-width="0.752" stroke-miterlimit="10"/>
        <path fill-rule="evenodd" clip-rule="evenodd" d="M318.633 366.563L371.393 336.112L318.633 366.563ZM265.869 244.718L239.481 259.957L265.869 244.718ZM239.481 259.957V290.408V259.957ZM239.481 290.408L265.869 305.647L239.481 290.408ZM265.869 305.647L345.011 259.957L265.869 305.647Z" stroke="white" stroke-width="0.752" stroke-miterlimit="10"/>
        <path fill-rule="evenodd" clip-rule="evenodd" d="M345.004 290.421V259.957V290.421ZM371.393 336.112L345.004 320.873L371.393 336.112Z" stroke="white" stroke-width="0.752" stroke-miterlimit="10"/>
        <path fill-rule="evenodd" clip-rule="evenodd" d="M292.247 351.338L318.639 366.563L292.247 351.338ZM265.869 305.647V336.098V305.647ZM239.481 290.408V320.873V290.408ZM239.481 320.873L265.869 336.098L239.481 320.873Z" stroke="white" stroke-width="0.752" stroke-miterlimit="10"/>
        <path fill-rule="evenodd" clip-rule="evenodd" d="M292.247 199.028L318.639 214.267L292.247 199.028ZM371.393 275.183L424.156 305.647L371.393 275.183ZM345.004 259.944V229.493V259.944ZM292.241 168.563L318.633 183.789L292.241 168.563ZM318.633 183.789V214.254V183.789ZM318.633 214.254L345.011 229.493L318.633 214.254Z" stroke="white" stroke-width="0.752" stroke-miterlimit="10"/>
        <path fill-rule="evenodd" clip-rule="evenodd" d="M318.614 183.789L292.226 199.028L318.614 183.789ZM239.481 259.944L213.101 244.718L239.481 259.944ZM213.101 244.718V275.183V244.718ZM213.101 275.183L239.481 290.409L213.101 275.183ZM239.481 229.479L213.101 244.718L239.481 229.479ZM265.864 244.718L239.473 229.479L265.864 244.718ZM371.384 275.183L344.997 290.409L371.384 275.183ZM344.997 229.479L318.614 244.718L344.997 229.479Z" stroke="white" stroke-width="0.752" stroke-miterlimit="10"/>
        <path d="M371.393 366.563V336.112" stroke="white" stroke-width="0.752" stroke-miterlimit="10"/>
        <path fill-rule="evenodd" clip-rule="evenodd" d="M318.633 366.576V397.041V366.576ZM292.241 381.801V351.337V381.801Z" stroke="white" stroke-width="0.752" stroke-miterlimit="10"/>
        <path fill-rule="evenodd" clip-rule="evenodd" d="M292.247 107.634V168.563V107.634ZM265.869 92.3947L292.247 107.634L265.869 92.3947Z" stroke="white" stroke-width="0.752" stroke-miterlimit="10"/>
        <path fill-rule="evenodd" clip-rule="evenodd" d="M265.869 183.774L292.247 168.549L265.869 183.774ZM292.241 107.633L239.481 138.097L292.241 107.633ZM239.481 168.549L265.869 153.309L239.481 168.549Z" stroke="white" stroke-width="0.752" stroke-miterlimit="10"/>
        <path fill-rule="evenodd" clip-rule="evenodd" d="M239.473 199.027V168.562V199.027ZM292.241 168.562L265.864 153.323L292.241 168.562Z" stroke="white" stroke-width="0.752" stroke-miterlimit="10"/>
        <path fill-rule="evenodd" clip-rule="evenodd" d="M213.101 183.788V244.73V183.788ZM239.481 168.562L213.101 183.788L239.481 168.562Z" stroke="white" stroke-width="0.752" stroke-miterlimit="10"/>
        <path d="M213.111 153.324L239.481 168.563" stroke="white" stroke-width="0.752" stroke-miterlimit="10"/>
        <path fill-rule="evenodd" clip-rule="evenodd" d="M213.111 153.324L186.721 168.549L213.111 153.324ZM213.111 183.788L186.721 168.549L213.111 183.788Z" stroke="white" stroke-width="0.752" stroke-miterlimit="10"/>
        <path d="M239.481 107.634V46.705" stroke="white" stroke-width="0.752" stroke-miterlimit="10"/>
        <path d="M239.481 46.7045L213.111 61.9434" stroke="white" stroke-width="0.752" stroke-miterlimit="10"/>
        <path d="M213.111 31.477L239.481 46.7029" stroke="white" stroke-width="0.752" stroke-miterlimit="10"/>
        <path fill-rule="evenodd" clip-rule="evenodd" d="M107.585 122.858L160.347 153.323L107.585 122.858ZM160.347 61.9425V122.858V61.9425ZM160.347 122.858L213.111 92.4072L160.347 122.858ZM160.347 153.336V183.788V153.336ZM160.347 183.788L186.728 199.027L160.347 183.788ZM160.347 122.858L186.728 138.097L160.347 122.858ZM186.728 138.097L239.492 107.632L186.728 138.097ZM186.728 138.097V168.549V138.097Z" stroke="white" stroke-width="0.752" stroke-miterlimit="10"/>
        <path fill-rule="evenodd" clip-rule="evenodd" d="M160.339 31.4657L133.952 46.7046L160.339 31.4657ZM239.481 138.098V107.633V138.098ZM213.101 92.4082L239.481 107.633L213.101 92.4082Z" stroke="white" stroke-width="0.752" stroke-miterlimit="10"/>
        <path fill-rule="evenodd" clip-rule="evenodd" d="M160.347 61.9434L213.111 31.4917L160.347 61.9434ZM133.957 46.7045L160.347 61.9434L133.957 46.7045Z" stroke="white" stroke-width="0.752" stroke-miterlimit="10"/>
        <path d="M213.111 31.4788L160.347 1.001" stroke="white" stroke-width="0.752" stroke-miterlimit="10"/>
        <path fill-rule="evenodd" clip-rule="evenodd" d="M265.869 214.253L292.247 199.028L265.869 214.253ZM239.481 199.028L265.869 214.253L239.481 199.028Z" stroke="white" stroke-width="0.752" stroke-miterlimit="10"/>
        <path fill-rule="evenodd" clip-rule="evenodd" d="M133.952 77.1547V46.7036V77.1547ZM292.241 199.027L265.864 183.788L292.241 199.027ZM239.473 107.632L265.864 92.3935L239.473 107.632ZM213.101 31.4647V61.9288V31.4647Z" stroke="white" stroke-width="0.752" stroke-miterlimit="10"/>
        <path fill-rule="evenodd" clip-rule="evenodd" d="M81.2066 503.647L-209 336.112L81.2066 503.647ZM186.721 412.266L160.339 427.492L186.721 412.266ZM213.101 427.492L186.712 412.266L213.101 427.492ZM213.101 366.563V336.112V366.563ZM213.101 336.112L186.712 351.338L213.101 336.112ZM186.712 351.338V381.802V351.338ZM186.712 381.802L213.101 366.563L186.712 381.802ZM239.481 351.338L213.101 336.098L239.481 351.338ZM213.101 366.563L239.481 381.789L213.101 366.563ZM239.481 381.789V351.338V381.789ZM186.721 381.789L213.111 397.028L186.721 381.789ZM213.111 397.028L239.492 381.789L213.111 397.028ZM133.968 503.647V534.099V503.647Z" stroke="white" stroke-width="0.752" stroke-miterlimit="10"/>
        <path d="M-209 366.562L81.1973 534.111" stroke="white" stroke-width="0.752" stroke-miterlimit="10"/>
        <path fill-rule="evenodd" clip-rule="evenodd" d="M107.579 488.421V518.885V488.421ZM81.1974 534.111V503.66V534.111ZM133.957 503.66L107.579 488.421L133.957 503.66Z" stroke="white" stroke-width="0.752" stroke-miterlimit="10"/>
        <path d="M107.579 518.885L133.957 534.111" stroke="white" stroke-width="0.752" stroke-miterlimit="10"/>
        <path d="M107.579 488.422L81.1974 503.66" stroke="white" stroke-width="0.752" stroke-miterlimit="10"/>
        <path d="M81.1974 534.111L107.579 518.885" stroke="white" stroke-width="0.752" stroke-miterlimit="10"/>
        <path fill-rule="evenodd" clip-rule="evenodd" d="M133.952 199.028V168.564V199.028ZM107.579 397.028L54.8066 427.493L107.579 397.028ZM160.339 427.493L107.579 397.028L160.339 427.493ZM186.721 351.338L133.957 320.874L186.721 351.338ZM133.957 320.874V351.338V320.874ZM133.957 351.338L186.721 381.789L133.957 351.338ZM160.339 305.635L133.952 320.874L160.339 305.635ZM213.101 336.099L160.339 305.648L213.101 336.099ZM186.721 259.958L160.339 244.718L186.721 259.958ZM186.721 290.409V259.958V290.409ZM133.957 259.958V229.493V259.958ZM133.957 229.493L107.579 244.732L133.957 229.493ZM107.579 244.732V275.183V244.732ZM107.579 275.183L133.957 259.958L107.579 275.183ZM107.579 244.718L54.8066 214.254L107.579 244.718ZM54.8066 244.718L107.579 275.183L54.8066 244.718ZM133.957 229.479L81.1973 199.028L133.957 229.479ZM81.1973 351.338V320.874V351.338ZM81.1973 320.874L28.4347 351.338L81.1973 320.874ZM28.4347 381.789L81.1973 351.338L28.4347 381.789ZM54.8066 305.648L28.4267 320.874L54.8066 305.648ZM81.188 320.874L54.7986 305.648L81.188 320.874ZM133.952 259.958L160.339 275.183L133.952 259.958ZM107.579 275.183L133.957 290.422L107.579 275.183ZM133.957 290.422L160.347 275.183L133.957 290.422ZM107.585 336.113L81.1973 320.874L107.585 336.113ZM81.1973 351.338L107.585 366.564L81.1973 351.338ZM107.585 366.564V336.113V366.564ZM54.816 397.042L107.585 366.577L54.816 397.042ZM133.968 320.887L107.585 336.126L133.968 320.887ZM107.585 366.577L133.968 351.338L107.585 366.577ZM107.585 366.577L160.347 397.042L107.585 366.577ZM54.816 275.183L81.2066 290.422L54.816 275.183ZM81.2066 290.422L107.593 275.183L81.2066 290.422ZM160.356 305.648V275.183V305.648ZM133.968 290.422V320.874V290.422ZM54.816 305.648V275.183V305.648ZM54.816 275.183L28.4347 290.422L54.816 275.183ZM28.4347 290.422V320.874V290.422ZM81.1973 320.874V290.422V320.874ZM107.585 305.662V275.197V305.662ZM81.1973 320.887L107.585 305.662L81.1973 320.887ZM107.585 305.662L133.968 320.887L107.585 305.662ZM28.4413 412.267L2.05599 427.506L28.4413 412.267ZM54.816 427.506L28.4347 412.267L54.816 427.506ZM2.04667 427.506L-156.248 336.126L2.04667 427.506ZM28.4267 351.351L-24.3333 320.887L28.4267 351.351ZM-24.3333 351.351L28.4267 381.816L-24.3333 351.351ZM28.4267 381.816V351.351V381.816ZM-50.724 366.59L2.03999 397.055L-50.724 366.59ZM2.03999 397.055L28.4267 381.816L2.03999 397.055ZM213.101 305.662L186.712 290.422L213.101 305.662ZM213.101 336.113V305.662V336.113ZM160.339 397.042L186.721 381.802L160.339 397.042ZM28.4347 381.802L54.816 397.042L28.4347 381.802ZM213.111 397.042V427.493V397.042ZM186.721 381.802V412.267V381.802ZM160.339 397.028V427.493V397.028ZM107.579 397.028V366.564V397.028ZM28.4267 412.267V381.802V412.267ZM2.03999 397.042V427.493V397.042ZM54.7986 427.493V397.042V427.493ZM133.952 168.564L81.188 138.099L133.952 168.564Z" stroke="white" stroke-width="0.752" stroke-miterlimit="10"/>
        <path fill-rule="evenodd" clip-rule="evenodd" d="M2.05193 183.789V153.337V183.789ZM-209 305.647L-156.237 275.183L-209 305.647ZM2.05193 153.337L28.4413 138.099L2.05193 153.337Z" stroke="white" stroke-width="0.752" stroke-miterlimit="10"/>
        <path d="M2.04663 153.337L28.4346 168.563" stroke="white" stroke-width="0.752" stroke-miterlimit="10"/>
        <path fill-rule="evenodd" clip-rule="evenodd" d="M81.188 107.647L107.579 92.4082L81.188 107.647ZM133.957 46.7046L107.579 61.9435L133.957 46.7046ZM81.188 138.098V107.647V138.098Z" stroke="white" stroke-width="0.752" stroke-miterlimit="10"/>
        <path d="M107.579 122.859L81.1974 107.633" stroke="white" stroke-width="0.752" stroke-miterlimit="10"/>
        <path fill-rule="evenodd" clip-rule="evenodd" d="M133.957 16.2387L160.347 0.999773L133.957 16.2387ZM107.579 61.9423V92.3933V61.9423ZM133.957 46.7034V16.2387V46.7034Z" stroke="white" stroke-width="0.752" stroke-miterlimit="10"/>
        <path d="M28.4346 229.478L2.04663 214.253" stroke="white" stroke-width="0.752" stroke-miterlimit="10"/>
        <path d="M2.04663 214.253V244.717" stroke="white" stroke-width="0.752" stroke-miterlimit="10"/>
        <path fill-rule="evenodd" clip-rule="evenodd" d="M-50.7134 244.731L28.4346 290.421L-50.7134 244.731ZM2.04659 244.718L28.4346 259.944L2.04659 244.718ZM28.4346 259.944V229.493V259.944Z" stroke="white" stroke-width="0.752" stroke-miterlimit="10"/>
        <path fill-rule="evenodd" clip-rule="evenodd" d="M28.4345 199.027L2.04649 214.253L28.4345 199.027ZM-24.3255 199.027L-103.479 244.717L-24.3255 199.027Z" stroke="white" stroke-width="0.752" stroke-miterlimit="10"/>
        <path fill-rule="evenodd" clip-rule="evenodd" d="M28.4266 259.956L54.8066 244.717L28.4266 259.956ZM54.8066 244.717V214.253V244.717ZM54.8066 214.253L28.4266 229.492L54.8066 214.253Z" stroke="white" stroke-width="0.752" stroke-miterlimit="10"/>
        <path d="M2.04666 214.253L-24.3253 199.028" stroke="white" stroke-width="0.752" stroke-miterlimit="10"/>
        <path fill-rule="evenodd" clip-rule="evenodd" d="M28.4346 199.026L2.04659 183.787L28.4346 199.026ZM-50.7134 275.181L28.4346 320.872L-50.7134 275.181Z" stroke="white" stroke-width="0.752" stroke-miterlimit="10"/>
        <path d="M2.04663 183.789V214.253" stroke="white" stroke-width="0.752" stroke-miterlimit="10"/>
        <path fill-rule="evenodd" clip-rule="evenodd" d="M81.1799 168.562L54.7906 183.801L81.1799 168.562ZM133.957 77.1689L107.579 61.9431L133.957 77.1689ZM133.957 16.2395L160.347 31.4653L133.957 16.2395ZM265.869 336.111L239.481 351.337L265.869 336.111ZM239.481 320.885L213.101 336.124L239.481 320.885ZM239.481 290.421L213.101 305.66L239.481 290.421ZM213.101 244.731L186.712 259.97L213.101 244.731ZM186.712 290.421L213.101 275.196L186.712 290.421ZM186.712 229.492L160.329 244.731L186.712 229.492ZM213.093 244.731L186.704 229.492L213.093 244.731Z" stroke="white" stroke-width="0.752" stroke-miterlimit="10"/>
        <path fill-rule="evenodd" clip-rule="evenodd" d="M-24.3334 199.027L2.04663 183.801L-24.3334 199.027ZM28.4346 168.562L2.04663 183.801L28.4346 168.562Z" stroke="white" stroke-width="0.752" stroke-miterlimit="10"/>
        <path fill-rule="evenodd" clip-rule="evenodd" d="M160.347 214.253L186.728 199.028L160.347 214.253ZM160.347 153.337L133.957 168.563L160.347 153.337ZM133.957 199.028L160.347 183.789L133.957 199.028ZM133.957 199.028L160.347 214.253L133.957 199.028Z" stroke="white" stroke-width="0.752" stroke-miterlimit="10"/>
        <path d="M81.1974 138.098L107.579 122.859" stroke="white" stroke-width="0.752" stroke-miterlimit="10"/>
        <path fill-rule="evenodd" clip-rule="evenodd" d="M54.8159 153.324L81.2066 138.098L54.8159 153.324ZM28.4346 138.098L54.8159 153.324L28.4346 138.098Z" stroke="white" stroke-width="0.752" stroke-miterlimit="10"/>
        <path d="M292.241 229.478V199.027" stroke="white" stroke-width="0.752" stroke-miterlimit="10"/>
        <path d="M265.869 214.253V244.717" stroke="white" stroke-width="0.752" stroke-miterlimit="10"/>
        <path d="M292.241 199.027V168.562" stroke="white" stroke-width="0.752" stroke-miterlimit="10"/>
        <path fill-rule="evenodd" clip-rule="evenodd" d="M160.339 244.717V214.253V244.717ZM239.481 229.478V199.027V229.478ZM186.721 199.027V229.478V199.027Z" stroke="white" stroke-width="0.752" stroke-miterlimit="10"/>
        <path d="M81.1974 138.098V168.563" stroke="white" stroke-width="0.752" stroke-miterlimit="10"/>
        <path d="M54.8066 183.788V153.324" stroke="white" stroke-width="0.752" stroke-miterlimit="10"/>
        <path fill-rule="evenodd" clip-rule="evenodd" d="M371.393 275.182V336.097V275.182ZM-129.857 259.943L-156.248 275.182L-129.857 259.943ZM107.579 122.859V92.3939V122.859ZM28.4268 199.027L54.8067 183.788L28.4268 199.027ZM28.4268 138.098V168.549V138.098ZM28.4268 168.549V199.013V168.549ZM81.1881 168.549V199.013V168.549ZM81.1881 107.633L28.4268 138.084L81.1881 107.633Z" stroke="white" stroke-width="0.752" stroke-miterlimit="10"/>
    </g>
</svg>
