<svg width="699" height="589" viewBox="0 0 699 589" fill="none" xmlns="http://www.w3.org/2000/svg">
    <g opacity="0.3">
        <path d="M1.00009 369.953L59.0869 403.486" stroke="white" stroke-width="0.828" stroke-miterlimit="10"/>
        <path fill-rule="evenodd" clip-rule="evenodd" d="M30.0502 353.179L1.00022 369.952L30.0502 353.179ZM320.512 587.955L1.00022 403.486L320.512 587.955ZM1.00022 336.418V369.952V336.418Z" stroke="white" stroke-width="0.828" stroke-miterlimit="10"/>
        <path d="M1.00024 403.486V369.953" stroke="white" stroke-width="0.828" stroke-miterlimit="10"/>
        <path d="M1.00045 336.419L30.0371 353.18" stroke="white" stroke-width="0.828" stroke-miterlimit="10"/>
        <path d="M88.1372 286.099L59.087 302.886" stroke="white" stroke-width="0.828" stroke-miterlimit="10"/>
        <path fill-rule="evenodd" clip-rule="evenodd" d="M146.238 386.713L88.1505 353.179L146.238 386.713ZM117.174 437.033L320.512 554.422L117.174 437.033ZM146.238 420.26L233.375 470.567L146.238 420.26ZM117.187 437.033L146.238 420.26L117.187 437.033Z" stroke="white" stroke-width="0.828" stroke-miterlimit="10"/>
        <path d="M117.174 269.337V235.803" stroke="white" stroke-width="0.828" stroke-miterlimit="10"/>
        <path fill-rule="evenodd" clip-rule="evenodd" d="M204.325 319.646L117.174 269.339L204.325 319.646ZM117.174 235.805L146.238 252.565L117.174 235.805Z" stroke="white" stroke-width="0.828" stroke-miterlimit="10"/>
        <path d="M88.1375 286.111L117.174 269.338" stroke="white" stroke-width="0.828" stroke-miterlimit="10"/>
        <path fill-rule="evenodd" clip-rule="evenodd" d="M117.174 403.486L59.0872 369.953L117.174 403.486ZM175.275 269.338L204.325 286.112L175.275 269.338ZM204.325 286.112V319.632V286.112ZM204.325 319.632L175.275 336.419L204.325 319.632ZM175.275 336.419L88.1374 286.112L175.275 336.419Z" stroke="white" stroke-width="0.828" stroke-miterlimit="10"/>
        <path fill-rule="evenodd" clip-rule="evenodd" d="M88.1509 319.644V286.11V319.644ZM59.0873 369.951L88.1509 353.178L59.0873 369.951Z" stroke="white" stroke-width="0.828" stroke-miterlimit="10"/>
        <path fill-rule="evenodd" clip-rule="evenodd" d="M146.238 386.713L117.174 403.486L146.238 386.713ZM175.275 336.419V369.953V336.419ZM204.325 319.632V353.179V319.632ZM204.325 353.179L175.275 369.953L204.325 353.179Z" stroke="white" stroke-width="0.828" stroke-miterlimit="10"/>
        <path fill-rule="evenodd" clip-rule="evenodd" d="M146.238 219.03L117.174 235.804L146.238 219.03ZM59.0873 302.872L1.00045 336.419L59.0873 302.872ZM88.1508 286.098V252.564V286.098ZM146.238 185.484L117.174 202.257L146.238 185.484ZM117.174 202.257V235.804V202.257ZM117.174 235.804L88.1374 252.564L117.174 235.804Z" stroke="white" stroke-width="0.828" stroke-miterlimit="10"/>
        <path fill-rule="evenodd" clip-rule="evenodd" d="M117.201 202.243L146.251 219.017L117.201 202.243ZM204.325 286.098L233.375 269.338L204.325 286.098ZM233.375 269.338V302.872V269.338ZM233.375 302.872L204.325 319.632L233.375 302.872ZM204.325 252.551L233.375 269.338L204.325 252.551ZM175.274 269.338L204.338 252.551L175.274 269.338ZM59.1004 302.872L88.1505 319.632L59.1004 302.872ZM88.1505 252.551L117.201 269.338L88.1505 252.551Z" stroke="white" stroke-width="0.828" stroke-miterlimit="10"/>
        <path d="M59.0869 403.486V369.953" stroke="white" stroke-width="0.828" stroke-miterlimit="10"/>
        <path fill-rule="evenodd" clip-rule="evenodd" d="M117.174 403.5V437.033V403.5ZM146.238 420.26V386.726V420.26Z" stroke="white" stroke-width="0.828" stroke-miterlimit="10"/>
        <path fill-rule="evenodd" clip-rule="evenodd" d="M146.238 118.402V185.483V118.402ZM175.275 101.628L146.238 118.402L175.275 101.628Z" stroke="white" stroke-width="0.828" stroke-miterlimit="10"/>
        <path fill-rule="evenodd" clip-rule="evenodd" d="M175.275 202.23L146.238 185.47L175.275 202.23ZM146.238 118.403L204.325 151.937L146.238 118.403ZM204.325 185.47L175.275 168.697L204.325 185.47Z" stroke="white" stroke-width="0.828" stroke-miterlimit="10"/>
        <path fill-rule="evenodd" clip-rule="evenodd" d="M204.338 219.018V185.484V219.018ZM146.238 185.484L175.274 168.71L146.238 185.484Z" stroke="white" stroke-width="0.828" stroke-miterlimit="10"/>
        <path fill-rule="evenodd" clip-rule="evenodd" d="M233.375 202.256V269.337V202.256ZM204.324 185.483L233.375 202.256L204.324 185.483Z" stroke="white" stroke-width="0.828" stroke-miterlimit="10"/>
        <path d="M233.362 168.709L204.325 185.483" stroke="white" stroke-width="0.828" stroke-miterlimit="10"/>
        <path fill-rule="evenodd" clip-rule="evenodd" d="M233.361 168.697L262.411 185.484L233.361 168.697ZM233.361 202.243L262.411 185.484L233.361 202.243Z" stroke="white" stroke-width="0.828" stroke-miterlimit="10"/>
        <path d="M204.325 118.402V51.3214" stroke="white" stroke-width="0.828" stroke-miterlimit="10"/>
        <path d="M204.325 51.3214L233.362 68.0947" stroke="white" stroke-width="0.828" stroke-miterlimit="10"/>
        <path d="M233.362 34.561L204.325 51.3213" stroke="white" stroke-width="0.828" stroke-miterlimit="10"/>
        <path fill-rule="evenodd" clip-rule="evenodd" d="M349.548 135.163L291.448 168.71L349.548 135.163ZM291.448 68.0955V135.176V68.0955ZM291.448 135.176L233.361 101.643L291.448 135.176ZM291.448 168.724V202.257V168.724ZM291.448 202.257L262.411 219.018L291.448 202.257ZM291.448 135.176L262.411 151.937L291.448 135.176ZM262.411 151.937L204.311 118.403L262.411 151.937ZM262.411 151.937V185.484V151.937Z" stroke="white" stroke-width="0.828" stroke-miterlimit="10"/>
        <path fill-rule="evenodd" clip-rule="evenodd" d="M291.462 34.547L320.512 51.321L291.462 34.547ZM204.325 151.936V118.402V151.936ZM233.375 101.642L204.325 118.402L233.375 101.642Z" stroke="white" stroke-width="0.828" stroke-miterlimit="10"/>
        <path fill-rule="evenodd" clip-rule="evenodd" d="M291.448 68.1084L233.361 34.5617L291.448 68.1084ZM320.512 51.322L291.448 68.1084L320.512 51.322Z" stroke="white" stroke-width="0.828" stroke-miterlimit="10"/>
        <path d="M233.362 34.5605L291.448 1.00021" stroke="white" stroke-width="0.828" stroke-miterlimit="10"/>
        <path fill-rule="evenodd" clip-rule="evenodd" d="M175.275 235.805L146.238 219.018L175.275 235.805ZM204.325 219.018L175.275 235.805L204.325 219.018Z" stroke="white" stroke-width="0.828" stroke-miterlimit="10"/>
        <path fill-rule="evenodd" clip-rule="evenodd" d="M320.512 84.8558V51.3221V84.8558ZM146.238 219.018L175.274 202.244L146.238 219.018ZM204.338 118.403L175.274 101.616L204.338 118.403ZM233.375 34.5482V68.0818V34.5482Z" stroke="white" stroke-width="0.828" stroke-miterlimit="10"/>
        <path fill-rule="evenodd" clip-rule="evenodd" d="M378.585 554.421L698.105 369.952L378.585 554.421ZM262.411 453.793L291.462 470.58L262.411 453.793ZM233.375 470.58L262.425 453.793L233.375 470.58ZM233.375 403.486V369.952V403.486ZM233.375 369.952L262.425 386.725L233.375 369.952ZM262.425 386.725V420.26V386.725ZM262.425 420.26L233.375 403.486L262.425 420.26ZM204.325 386.712L233.375 369.952L204.325 386.712ZM233.375 403.486L204.325 420.26L233.375 403.486ZM204.325 420.26V386.712V420.26ZM262.411 420.26L233.361 437.033L262.411 420.26ZM233.361 437.033L204.311 420.26L233.361 437.033ZM320.498 554.421V587.941V554.421Z" stroke="white" stroke-width="0.828" stroke-miterlimit="10"/>
        <path d="M698.105 403.486L378.599 587.955" stroke="white" stroke-width="0.828" stroke-miterlimit="10"/>
        <path fill-rule="evenodd" clip-rule="evenodd" d="M349.548 537.647V571.195V537.647ZM378.599 587.955V554.421V587.955ZM320.512 554.421L349.548 537.647L320.512 554.421Z" stroke="white" stroke-width="0.828" stroke-miterlimit="10"/>
        <path d="M349.548 571.195L320.512 587.955" stroke="white" stroke-width="0.828" stroke-miterlimit="10"/>
        <path d="M349.549 537.648L378.599 554.422" stroke="white" stroke-width="0.828" stroke-miterlimit="10"/>
        <path d="M378.599 587.955L349.548 571.195" stroke="white" stroke-width="0.828" stroke-miterlimit="10"/>
        <path fill-rule="evenodd" clip-rule="evenodd" d="M320.512 219.03V185.496V219.03ZM349.549 437.033L407.649 470.566L349.549 437.033ZM291.462 470.566L349.549 437.033L291.462 470.566ZM262.412 386.712L320.512 353.179L262.412 386.712ZM320.512 353.179V386.712V353.179ZM320.512 386.712L262.412 420.259L320.512 386.712ZM291.462 336.405L320.512 353.179L291.462 336.405ZM233.375 369.952L291.462 336.418L233.375 369.952ZM262.412 286.111L291.462 269.337L262.412 286.111ZM262.412 319.631V286.111V319.631ZM320.512 286.111V252.563V286.111ZM320.512 252.563L349.549 269.337L320.512 252.563ZM349.549 269.337V302.885V269.337ZM349.549 302.885L320.512 286.111L349.549 302.885ZM349.549 269.337L407.649 235.804L349.549 269.337ZM407.649 269.337L349.549 302.871L407.649 269.337ZM320.512 252.55L378.599 219.017L320.512 252.55ZM378.599 386.712V353.179V386.712ZM378.599 353.179L436.686 386.712L378.599 353.179ZM436.686 420.259L378.599 386.712L436.686 420.259ZM407.649 336.418L436.699 353.179L407.649 336.418ZM378.612 353.179L407.662 336.418L378.612 353.179ZM320.512 286.111L291.462 302.885L320.512 286.111ZM349.549 302.885L320.512 319.644L349.549 302.885ZM320.512 319.644L291.448 302.885L320.512 319.644ZM349.549 369.952L378.599 353.179L349.549 369.952ZM378.599 386.712L349.549 403.485L378.599 386.712ZM349.549 403.485V369.952V403.485ZM407.649 437.033L349.549 403.499L407.649 437.033ZM320.499 353.192L349.549 369.966L320.499 353.192ZM349.549 403.499L320.499 386.725L349.549 403.499ZM349.549 403.499L291.448 437.033L349.549 403.499ZM407.649 302.885L378.586 319.644L407.649 302.885ZM378.586 319.644L349.535 302.885L378.586 319.644ZM291.448 336.418V302.885V336.418ZM320.499 319.644V353.179V319.644ZM407.649 336.418V302.885V336.418ZM407.649 302.885L436.686 319.644L407.649 302.885ZM436.686 319.644V353.179V319.644ZM378.599 353.179V319.644V353.179ZM349.549 336.418V302.885V336.418ZM378.599 353.192L349.549 336.418L378.599 353.192ZM349.549 336.418L320.499 353.192L349.549 336.418ZM436.686 453.806L465.736 470.58L436.686 453.806ZM407.649 470.58L436.686 453.806L407.649 470.58ZM465.736 470.58L640.025 369.966L465.736 470.58ZM436.699 386.739L494.786 353.205L436.699 386.739ZM494.786 386.739L436.699 420.272L494.786 386.739ZM436.699 420.272V386.739V420.272ZM523.843 403.512L465.749 437.046L523.843 403.512ZM465.749 437.046L436.699 420.272L465.749 437.046ZM233.375 336.418L262.425 319.644L233.375 336.418ZM233.375 369.952V336.418V369.952ZM291.462 437.033L262.412 420.259L291.462 437.033ZM436.686 420.259L407.649 437.033L436.686 420.259ZM233.362 437.033V470.58V437.033ZM262.412 420.259V453.793V420.259ZM291.462 437.033V470.566V437.033ZM349.549 437.033V403.485V437.033ZM436.699 453.793V420.259V453.793ZM465.749 437.033V470.58V437.033ZM407.662 470.58V437.033V470.58ZM320.512 185.483L378.612 151.949L320.512 185.483Z" stroke="white" stroke-width="0.828" stroke-miterlimit="10"/>
        <path fill-rule="evenodd" clip-rule="evenodd" d="M465.736 202.257V168.724V202.257ZM698.105 336.419L640.014 302.885L698.105 336.419ZM465.736 168.724L436.686 151.937L465.736 168.724Z" stroke="white" stroke-width="0.828" stroke-miterlimit="10"/>
        <path d="M465.736 168.723L436.686 185.483" stroke="white" stroke-width="0.828" stroke-miterlimit="10"/>
        <path fill-rule="evenodd" clip-rule="evenodd" d="M378.612 118.416L349.549 101.642L378.612 118.416ZM320.512 51.3217L349.549 68.108L320.512 51.3217ZM378.612 151.949V118.416V151.949Z" stroke="white" stroke-width="0.828" stroke-miterlimit="10"/>
        <path d="M349.548 135.162L378.599 118.402" stroke="white" stroke-width="0.828" stroke-miterlimit="10"/>
        <path fill-rule="evenodd" clip-rule="evenodd" d="M320.512 17.7737L291.448 1.00037L320.512 17.7737ZM349.548 68.0943V101.628V68.0943ZM320.512 51.321V17.7737V51.321Z" stroke="white" stroke-width="0.828" stroke-miterlimit="10"/>
        <path d="M436.686 252.551L465.736 235.804" stroke="white" stroke-width="0.828" stroke-miterlimit="10"/>
        <path d="M465.736 235.803V269.337" stroke="white" stroke-width="0.828" stroke-miterlimit="10"/>
        <path fill-rule="evenodd" clip-rule="evenodd" d="M523.832 269.339L436.685 319.646L523.832 269.339ZM465.735 269.339L436.685 286.099L465.735 269.339ZM436.685 286.099V252.565V286.099Z" stroke="white" stroke-width="0.828" stroke-miterlimit="10"/>
        <path fill-rule="evenodd" clip-rule="evenodd" d="M436.685 219.016L465.735 235.803L436.685 219.016ZM494.772 219.016L581.925 269.337L494.772 219.016Z" stroke="white" stroke-width="0.828" stroke-miterlimit="10"/>
        <path fill-rule="evenodd" clip-rule="evenodd" d="M436.699 286.111L407.649 269.338L436.699 286.111ZM407.649 269.338V235.804V269.338ZM407.649 235.804L436.699 252.564L407.649 235.804Z" stroke="white" stroke-width="0.828" stroke-miterlimit="10"/>
        <path d="M465.736 235.805L494.773 219.018" stroke="white" stroke-width="0.828" stroke-miterlimit="10"/>
        <path fill-rule="evenodd" clip-rule="evenodd" d="M436.685 219.018L465.735 202.258L436.685 219.018ZM523.832 302.886L436.685 353.18L523.832 302.886Z" stroke="white" stroke-width="0.828" stroke-miterlimit="10"/>
        <path d="M465.736 202.257V235.805" stroke="white" stroke-width="0.828" stroke-miterlimit="10"/>
        <path fill-rule="evenodd" clip-rule="evenodd" d="M523.832 403.486L494.772 386.713L523.832 403.486ZM523.832 269.338V302.872V269.338ZM494.772 386.713V353.179V386.713ZM494.772 353.179L523.832 369.953L494.772 353.179ZM523.832 369.953V403.486V369.953Z" stroke="white" stroke-width="0.828" stroke-miterlimit="10"/>
        <path fill-rule="evenodd" clip-rule="evenodd" d="M552.88 353.179L523.832 336.419L552.88 353.179ZM552.88 386.713V353.179V386.713Z" stroke="white" stroke-width="0.828" stroke-miterlimit="10"/>
        <path fill-rule="evenodd" clip-rule="evenodd" d="M581.931 369.951L552.88 353.178L581.931 369.951ZM523.832 369.951L552.88 353.178L523.832 369.951ZM552.88 353.178V319.644V353.178ZM552.88 319.644L581.931 336.418L552.88 319.644ZM581.931 336.418V369.951V336.418Z" stroke="white" stroke-width="0.828" stroke-miterlimit="10"/>
        <path fill-rule="evenodd" clip-rule="evenodd" d="M610.969 319.645L581.926 302.886L610.969 319.645ZM610.969 353.18V319.645V353.18Z" stroke="white" stroke-width="0.828" stroke-miterlimit="10"/>
        <path fill-rule="evenodd" clip-rule="evenodd" d="M552.89 286.098L581.942 269.324L552.89 286.098ZM581.926 336.419L610.969 319.632L581.926 336.419ZM552.88 319.632L581.931 302.872L552.88 319.632ZM523.843 336.405L552.89 319.632L523.843 336.405ZM581.942 369.94L552.89 386.713L581.942 369.94Z" stroke="white" stroke-width="0.828" stroke-miterlimit="10"/>
        <path d="M581.925 269.338V302.886" stroke="white" stroke-width="0.828" stroke-miterlimit="10"/>
        <path d="M552.88 319.632V286.098" stroke="white" stroke-width="0.828" stroke-miterlimit="10"/>
        <path fill-rule="evenodd" clip-rule="evenodd" d="M698.105 369.953V336.419V369.953ZM610.969 286.112L581.926 269.338L610.969 286.112ZM698.105 369.953V403.486V369.953Z" stroke="white" stroke-width="0.828" stroke-miterlimit="10"/>
        <path d="M669.07 353.18L698.105 336.419" stroke="white" stroke-width="0.828" stroke-miterlimit="10"/>
        <path d="M698.105 369.951L669.07 353.178" stroke="white" stroke-width="0.828" stroke-miterlimit="10"/>
        <path d="M581.926 302.886L610.969 286.099" stroke="white" stroke-width="0.828" stroke-miterlimit="10"/>
        <path fill-rule="evenodd" clip-rule="evenodd" d="M610.969 319.632L640.025 336.419L610.969 319.632ZM610.969 286.098V319.632V286.098Z" stroke="white" stroke-width="0.828" stroke-miterlimit="10"/>
        <path fill-rule="evenodd" clip-rule="evenodd" d="M640.005 302.872L610.952 319.632L640.005 302.872ZM640.014 336.419L610.958 353.18L640.014 336.419ZM552.87 286.112L523.825 269.338L552.87 286.112ZM552.87 319.632L523.825 302.872L552.87 319.632Z" stroke="white" stroke-width="0.828" stroke-miterlimit="10"/>
        <path fill-rule="evenodd" clip-rule="evenodd" d="M640.014 302.884V336.418V302.884ZM640.014 369.951V336.418V369.951Z" stroke="white" stroke-width="0.828" stroke-miterlimit="10"/>
        <path fill-rule="evenodd" clip-rule="evenodd" d="M378.612 185.497L407.676 202.27L378.612 185.497ZM320.512 84.8553L349.549 68.095L320.512 84.8553ZM320.512 17.7744L291.448 34.5477L320.512 17.7744ZM175.274 369.952L204.325 386.726L175.274 369.952ZM204.325 353.192L233.375 369.966L204.325 353.192ZM204.325 319.658L233.375 336.432L204.325 319.658ZM233.375 269.351L262.425 286.125L233.375 269.351ZM262.425 319.658L233.375 302.885L262.425 319.658ZM262.425 252.577L291.475 269.351L262.425 252.577ZM233.375 269.351L262.438 252.577L233.375 269.351Z" stroke="white" stroke-width="0.828" stroke-miterlimit="10"/>
        <path fill-rule="evenodd" clip-rule="evenodd" d="M494.786 219.03L465.736 202.257L494.786 219.03ZM436.686 185.484L465.736 202.257L436.686 185.484Z" stroke="white" stroke-width="0.828" stroke-miterlimit="10"/>
        <path fill-rule="evenodd" clip-rule="evenodd" d="M291.448 235.791L262.411 219.018L291.448 235.791ZM291.448 168.724L320.512 185.484L291.448 168.724ZM320.512 219.018L291.448 202.257L320.512 219.018ZM320.512 219.018L291.448 235.791L320.512 219.018Z" stroke="white" stroke-width="0.828" stroke-miterlimit="10"/>
        <path d="M378.599 151.936L349.549 135.162" stroke="white" stroke-width="0.828" stroke-miterlimit="10"/>
        <path fill-rule="evenodd" clip-rule="evenodd" d="M407.649 168.71L378.585 151.937L407.649 168.71ZM436.686 151.937L407.649 168.71L436.686 151.937Z" stroke="white" stroke-width="0.828" stroke-miterlimit="10"/>
        <path d="M146.238 252.551V219.017" stroke="white" stroke-width="0.828" stroke-miterlimit="10"/>
        <path d="M175.275 235.803V269.337" stroke="white" stroke-width="0.828" stroke-miterlimit="10"/>
        <path d="M146.238 219.018V185.484" stroke="white" stroke-width="0.828" stroke-miterlimit="10"/>
        <path fill-rule="evenodd" clip-rule="evenodd" d="M291.462 269.337V235.79V269.337ZM204.325 252.55V219.016V252.55ZM262.411 219.016V252.55V219.016Z" stroke="white" stroke-width="0.828" stroke-miterlimit="10"/>
        <path d="M378.599 151.936V185.483" stroke="white" stroke-width="0.828" stroke-miterlimit="10"/>
        <path d="M407.649 202.243V168.71" stroke="white" stroke-width="0.828" stroke-miterlimit="10"/>
        <path fill-rule="evenodd" clip-rule="evenodd" d="M59.0874 302.87V369.951V302.87ZM610.969 286.097L640.025 302.87L610.969 286.097ZM349.549 135.161V101.628V135.161ZM436.699 219.016L407.649 202.242L436.699 219.016ZM436.699 151.935V185.469V151.935ZM436.699 185.469V219.016V185.469ZM378.612 185.469V219.016V185.469ZM378.612 118.402L436.699 151.935L378.612 118.402Z" stroke="white" stroke-width="0.828" stroke-miterlimit="10"/>
    </g>
</svg>
