<svg width="697" height="475" viewBox="0 0 697 475" fill="none" xmlns="http://www.w3.org/2000/svg">
    <g opacity="0.3">
        <path d="M698.31 370.133L640.223 403.666" stroke="white" stroke-width="0.828" stroke-miterlimit="10"/>
        <path fill-rule="evenodd" clip-rule="evenodd" d="M669.273 353.345L698.31 370.119L669.273 353.345ZM378.806 588.135L698.31 403.665L378.806 588.135ZM698.31 336.584V370.119V336.584Z" stroke="white" stroke-width="0.828" stroke-miterlimit="10"/>
        <path d="M698.31 336.585L669.273 353.359" stroke="white" stroke-width="0.828" stroke-miterlimit="10"/>
        <path d="M611.173 286.277L640.223 303.051" stroke="white" stroke-width="0.828" stroke-miterlimit="10"/>
        <path fill-rule="evenodd" clip-rule="evenodd" d="M553.073 386.891L611.159 353.358L553.073 386.891ZM582.136 437.199L378.806 554.587L582.136 437.199ZM553.073 420.425L465.943 470.732L553.073 420.425ZM582.123 437.199L553.073 420.425L582.123 437.199Z" stroke="white" stroke-width="0.828" stroke-miterlimit="10"/>
        <path d="M582.136 269.503V235.969" stroke="white" stroke-width="0.828" stroke-miterlimit="10"/>
        <path fill-rule="evenodd" clip-rule="evenodd" d="M494.986 319.825L582.136 269.518L494.986 319.825ZM582.136 235.971L553.073 252.744L582.136 235.971Z" stroke="white" stroke-width="0.828" stroke-miterlimit="10"/>
        <path d="M611.173 286.278L582.136 269.504" stroke="white" stroke-width="0.828" stroke-miterlimit="10"/>
        <path fill-rule="evenodd" clip-rule="evenodd" d="M582.136 403.666L640.223 370.133L582.136 403.666ZM524.036 269.504L494.986 286.278L524.036 269.504ZM494.986 286.278V319.812V286.278ZM494.986 319.812L524.036 336.585L494.986 319.812ZM524.036 336.585L611.173 286.278L524.036 336.585Z" stroke="white" stroke-width="0.828" stroke-miterlimit="10"/>
        <path fill-rule="evenodd" clip-rule="evenodd" d="M611.173 319.824V286.278V319.824ZM640.223 370.132L611.173 353.359L640.223 370.132Z" stroke="white" stroke-width="0.828" stroke-miterlimit="10"/>
        <path fill-rule="evenodd" clip-rule="evenodd" d="M553.086 386.893L582.136 403.666L553.086 386.893ZM524.036 336.585V370.12V336.585ZM494.986 319.812V353.346V319.812ZM494.986 353.346L524.036 370.12L494.986 353.346Z" stroke="white" stroke-width="0.828" stroke-miterlimit="10"/>
        <path fill-rule="evenodd" clip-rule="evenodd" d="M553.086 219.21L582.136 235.984L553.086 219.21ZM640.223 303.052L698.31 336.585L640.223 303.052ZM611.173 286.278V252.744V286.278ZM553.072 185.664L582.136 202.423L553.072 185.664ZM582.136 202.423V235.971V202.423ZM582.136 235.971L611.173 252.744L582.136 235.971Z" stroke="white" stroke-width="0.828" stroke-miterlimit="10"/>
        <path fill-rule="evenodd" clip-rule="evenodd" d="M582.11 202.423L553.059 219.197L582.11 202.423ZM494.986 286.278L465.944 269.504L494.986 286.278ZM465.944 269.504V303.038V269.504ZM465.944 303.038L494.986 319.812L465.944 303.038ZM494.986 252.731L465.944 269.504L494.986 252.731ZM524.036 269.504L494.986 252.731L524.036 269.504ZM640.21 303.038L611.16 319.812L640.21 303.038ZM611.16 252.731L582.11 269.504L611.16 252.731Z" stroke="white" stroke-width="0.828" stroke-miterlimit="10"/>
        <path d="M640.223 403.666V370.133" stroke="white" stroke-width="0.828" stroke-miterlimit="10"/>
        <path fill-rule="evenodd" clip-rule="evenodd" d="M582.136 403.679V437.213V403.679ZM553.072 420.426V386.905V420.426Z" stroke="white" stroke-width="0.828" stroke-miterlimit="10"/>
        <path fill-rule="evenodd" clip-rule="evenodd" d="M553.086 118.582V185.663V118.582ZM524.036 101.795L553.086 118.582L524.036 101.795Z" stroke="white" stroke-width="0.828" stroke-miterlimit="10"/>
        <path fill-rule="evenodd" clip-rule="evenodd" d="M524.036 202.408L553.086 185.635L524.036 202.408ZM553.073 118.581L494.986 152.115L553.073 118.581ZM494.986 185.648L524.036 168.861L494.986 185.648Z" stroke="white" stroke-width="0.828" stroke-miterlimit="10"/>
        <path fill-rule="evenodd" clip-rule="evenodd" d="M494.986 219.197V185.664V219.197ZM553.073 185.664L524.036 168.877L553.073 185.664Z" stroke="white" stroke-width="0.828" stroke-miterlimit="10"/>
        <path fill-rule="evenodd" clip-rule="evenodd" d="M465.944 202.422V269.517V202.422ZM494.986 185.662L465.944 202.422L494.986 185.662Z" stroke="white" stroke-width="0.828" stroke-miterlimit="10"/>
        <path d="M465.954 168.876L494.986 185.663" stroke="white" stroke-width="0.828" stroke-miterlimit="10"/>
        <path fill-rule="evenodd" clip-rule="evenodd" d="M465.954 168.875L436.9 185.649L465.954 168.875ZM465.954 202.422L436.9 185.649L465.954 202.422Z" stroke="white" stroke-width="0.828" stroke-miterlimit="10"/>
        <path d="M494.986 118.582V51.5006" stroke="white" stroke-width="0.828" stroke-miterlimit="10"/>
        <path d="M494.986 51.5011L465.954 68.2607" stroke="white" stroke-width="0.828" stroke-miterlimit="10"/>
        <path d="M465.954 34.7277L494.986 51.5017" stroke="white" stroke-width="0.828" stroke-miterlimit="10"/>
        <path fill-rule="evenodd" clip-rule="evenodd" d="M349.771 135.342L407.86 168.877L349.771 135.342ZM407.86 68.2614V135.342V68.2614ZM407.86 135.342L465.954 101.809L407.86 135.342ZM407.86 168.89V202.423V168.89ZM407.86 202.423L436.907 219.197L407.86 202.423ZM407.86 135.342L436.907 152.116L407.86 135.342ZM436.907 152.116L494.999 118.583L436.907 152.116ZM436.907 152.116V185.65V152.116Z" stroke="white" stroke-width="0.828" stroke-miterlimit="10"/>
        <path fill-rule="evenodd" clip-rule="evenodd" d="M407.852 34.7142L378.801 51.5012L407.852 34.7142ZM494.985 152.116V118.582V152.116ZM465.943 101.808L494.985 118.582L465.943 101.808Z" stroke="white" stroke-width="0.828" stroke-miterlimit="10"/>
        <path fill-rule="evenodd" clip-rule="evenodd" d="M407.861 68.2744L465.954 34.7408L407.861 68.2744ZM378.806 51.5011L407.861 68.2744L378.806 51.5011Z" stroke="white" stroke-width="0.828" stroke-miterlimit="10"/>
        <path d="M465.954 34.7275L407.86 1.18089" stroke="white" stroke-width="0.828" stroke-miterlimit="10"/>
        <path fill-rule="evenodd" clip-rule="evenodd" d="M524.036 235.969L553.086 219.196L524.036 235.969ZM494.986 219.196L524.036 235.969L494.986 219.196Z" stroke="white" stroke-width="0.828" stroke-miterlimit="10"/>
        <path fill-rule="evenodd" clip-rule="evenodd" d="M378.801 85.0218V51.5018V85.0218ZM553.072 219.197L524.035 202.423L553.072 219.197ZM494.985 118.569L524.035 101.796L494.985 118.569ZM465.943 34.7148V68.2615V34.7148Z" stroke="white" stroke-width="0.828" stroke-miterlimit="10"/>
        <path fill-rule="evenodd" clip-rule="evenodd" d="M320.727 554.587L1.21039 370.132L320.727 554.587ZM436.9 453.973L407.852 470.746L436.9 453.973ZM465.943 470.746L436.889 453.973L465.943 470.746ZM465.943 403.665V370.132V403.665ZM465.943 370.132L436.889 386.905L465.943 370.132ZM436.889 386.905V420.426V386.905ZM436.889 420.426L465.943 403.665L436.889 420.426ZM494.985 386.892L465.943 370.119L494.985 386.892ZM465.943 403.652L494.985 420.426L465.943 403.652ZM494.985 420.426V386.892V420.426ZM436.9 420.426L465.954 437.2L436.9 420.426ZM465.954 437.2L494.999 420.426L465.954 437.2ZM378.818 554.587V588.121V554.587Z" stroke="white" stroke-width="0.828" stroke-miterlimit="10"/>
        <path d="M1.21033 403.665L320.718 588.135" stroke="white" stroke-width="0.828" stroke-miterlimit="10"/>
        <path fill-rule="evenodd" clip-rule="evenodd" d="M378.801 219.21V185.663V219.21ZM349.764 437.2L291.661 470.734L349.764 437.2ZM407.852 470.734L349.764 437.2L407.852 470.734ZM436.9 386.892L378.806 353.359L436.9 386.892ZM378.806 353.359V386.892V353.359ZM378.806 386.892L436.9 420.426L378.806 386.892ZM407.852 336.572L378.801 353.345L407.852 336.572ZM465.943 370.119L407.852 336.585L465.943 370.119ZM436.9 286.278L407.852 269.504L436.9 286.278ZM436.9 319.811V286.278V319.811ZM378.806 286.278V252.744V286.278ZM378.806 252.744L349.764 269.518L378.806 252.744ZM349.764 269.518V303.051V269.518ZM349.764 303.051L378.806 286.278L349.764 303.051ZM349.764 269.504L291.661 235.97L349.764 269.504ZM291.661 269.504L349.764 303.038L291.661 269.504ZM378.806 252.73L320.718 219.197L378.806 252.73ZM320.718 386.892V353.359V386.892ZM320.718 353.359L262.626 386.892L320.718 353.359ZM262.626 420.426L320.718 386.892L262.626 420.426ZM291.661 336.585L262.618 353.359L291.661 336.585ZM320.707 353.359L291.653 336.585L320.707 353.359ZM378.801 286.278L407.852 303.051L378.801 286.278ZM349.764 303.051L378.806 319.824L349.764 303.051ZM378.806 319.824L407.86 303.051L378.806 319.824ZM349.771 370.132L320.718 353.359L349.771 370.132ZM320.718 386.892L349.771 403.666L320.718 386.892ZM349.771 403.666V370.132V403.666ZM291.672 437.213L349.771 403.679L291.672 437.213ZM378.818 353.359L349.771 370.132L378.818 353.359ZM349.771 403.679L378.818 386.905L349.771 403.679ZM349.771 403.679L407.86 437.213L349.771 403.679ZM291.672 303.051L320.727 319.824L291.672 303.051ZM320.727 319.824L349.78 303.051L320.727 319.824ZM407.871 336.585V303.051V336.585ZM378.818 319.824V353.359V319.824ZM291.672 336.585V303.051V336.585ZM291.672 303.051L262.626 319.824L291.672 303.051ZM262.626 319.824V353.359V319.824ZM320.718 353.359V319.824V353.359ZM349.771 336.598V303.065V336.598ZM320.718 353.359L349.771 336.598L320.718 353.359ZM349.771 336.598L378.818 353.359L349.771 336.598ZM262.634 453.973L233.584 470.76L262.634 453.973ZM291.672 470.76L262.626 453.973L291.672 470.76ZM233.573 470.76L59.2907 370.132L233.573 470.76ZM262.618 386.905L204.528 353.372L262.618 386.905ZM204.528 386.905L262.618 420.44L204.528 386.905ZM262.618 420.44V386.905V420.44ZM175.473 403.679L233.565 437.226L175.473 403.679ZM233.565 437.226L262.618 420.44L233.565 437.226ZM465.943 336.598L436.889 319.824L465.943 336.598ZM465.943 370.132V336.598V370.132ZM407.852 437.213L436.9 420.426L407.852 437.213ZM262.626 420.426L291.672 437.213L262.626 420.426ZM465.954 437.213V470.747V437.213ZM436.9 420.426V453.973V420.426ZM407.852 437.2V470.734V437.2ZM349.764 437.2V403.666V437.2ZM262.618 453.973V420.426V453.973ZM233.565 437.213V470.747V437.213ZM291.653 470.747V437.213V470.747ZM378.801 185.663L320.707 152.116L378.801 185.663Z" stroke="white" stroke-width="0.828" stroke-miterlimit="10"/>
        <path fill-rule="evenodd" clip-rule="evenodd" d="M233.578 202.423V168.89V202.423ZM1.21048 336.585L59.3014 303.052L1.21048 336.585ZM233.578 168.89L262.634 152.116L233.578 168.89Z" stroke="white" stroke-width="0.828" stroke-miterlimit="10"/>
        <path d="M233.573 168.889L262.626 185.663" stroke="white" stroke-width="0.828" stroke-miterlimit="10"/>
        <path fill-rule="evenodd" clip-rule="evenodd" d="M320.707 118.582L349.764 101.808L320.707 118.582ZM378.806 51.5012L349.764 68.2745L378.806 51.5012ZM320.707 152.116V118.582V152.116Z" stroke="white" stroke-width="0.828" stroke-miterlimit="10"/>
        <path d="M349.764 135.342L320.718 118.583" stroke="white" stroke-width="0.828" stroke-miterlimit="10"/>
        <path fill-rule="evenodd" clip-rule="evenodd" d="M378.806 17.9542L407.86 1.1809L378.806 17.9542ZM349.764 68.2611V101.795V68.2611ZM378.806 51.5015V17.9542V51.5015Z" stroke="white" stroke-width="0.828" stroke-miterlimit="10"/>
        <path d="M262.626 252.731L233.573 235.971" stroke="white" stroke-width="0.828" stroke-miterlimit="10"/>
        <path d="M233.573 235.969V269.503" stroke="white" stroke-width="0.828" stroke-miterlimit="10"/>
        <path fill-rule="evenodd" clip-rule="evenodd" d="M175.483 269.518L262.626 319.825L175.483 269.518ZM233.573 269.504L262.626 286.278L233.573 269.504ZM262.626 286.278V252.744V286.278Z" stroke="white" stroke-width="0.828" stroke-miterlimit="10"/>
        <path fill-rule="evenodd" clip-rule="evenodd" d="M262.626 219.196L233.573 235.969L262.626 219.196ZM204.537 219.196L117.39 269.503L204.537 219.196Z" stroke="white" stroke-width="0.828" stroke-miterlimit="10"/>
        <path fill-rule="evenodd" clip-rule="evenodd" d="M262.618 286.278L291.661 269.504L262.618 286.278ZM291.661 269.504V235.97V269.504ZM291.661 235.97L262.618 252.744L291.661 235.97Z" stroke="white" stroke-width="0.828" stroke-miterlimit="10"/>
        <path d="M233.573 235.969L204.537 219.196" stroke="white" stroke-width="0.828" stroke-miterlimit="10"/>
        <path fill-rule="evenodd" clip-rule="evenodd" d="M262.626 219.198L233.573 202.424L262.626 219.198ZM175.483 303.052L262.626 353.359L175.483 303.052Z" stroke="white" stroke-width="0.828" stroke-miterlimit="10"/>
        <path d="M233.573 202.422V235.969" stroke="white" stroke-width="0.828" stroke-miterlimit="10"/>
        <path fill-rule="evenodd" clip-rule="evenodd" d="M175.483 403.666L204.537 386.893L175.483 403.666ZM175.483 269.504V303.039V269.504ZM204.537 386.893V353.359V386.893ZM204.537 353.359L175.483 370.133L204.537 353.359ZM175.483 370.133V403.666V370.133Z" stroke="white" stroke-width="0.828" stroke-miterlimit="10"/>
        <path fill-rule="evenodd" clip-rule="evenodd" d="M146.436 353.358L175.483 336.584L146.436 353.358ZM146.436 386.892V353.358V386.892Z" stroke="white" stroke-width="0.828" stroke-miterlimit="10"/>
        <path fill-rule="evenodd" clip-rule="evenodd" d="M117.384 370.132L146.436 353.359L117.384 370.132ZM175.483 370.132L146.436 353.359L175.483 370.132ZM146.436 353.359V319.824V353.359ZM146.436 319.824L117.384 336.598L146.436 319.824ZM117.384 336.598V370.132V336.598Z" stroke="white" stroke-width="0.828" stroke-miterlimit="10"/>
        <path fill-rule="evenodd" clip-rule="evenodd" d="M88.3462 319.825L117.39 303.052L88.3462 319.825ZM88.3462 353.359V319.825V353.359Z" stroke="white" stroke-width="0.828" stroke-miterlimit="10"/>
        <path fill-rule="evenodd" clip-rule="evenodd" d="M146.425 286.263L117.374 269.49L146.425 286.263ZM117.39 336.584L88.3462 319.811L117.39 336.584ZM146.436 319.811L117.384 303.037L146.436 319.811ZM175.473 336.571L146.425 319.797L175.473 336.571ZM117.374 370.118L146.425 386.878L117.374 370.118Z" stroke="white" stroke-width="0.828" stroke-miterlimit="10"/>
        <path d="M117.39 269.503V303.051" stroke="white" stroke-width="0.828" stroke-miterlimit="10"/>
        <path d="M146.436 319.812V286.278" stroke="white" stroke-width="0.828" stroke-miterlimit="10"/>
        <path fill-rule="evenodd" clip-rule="evenodd" d="M1.21048 370.133V336.599V370.133ZM88.3462 286.278L117.39 269.504L88.3462 286.278ZM1.21048 370.133V403.666V370.133Z" stroke="white" stroke-width="0.828" stroke-miterlimit="10"/>
        <path d="M30.2459 353.359L1.21048 336.585" stroke="white" stroke-width="0.828" stroke-miterlimit="10"/>
        <path d="M1.21048 370.132L30.2459 353.359" stroke="white" stroke-width="0.828" stroke-miterlimit="10"/>
        <path d="M117.39 303.051L88.3462 286.277" stroke="white" stroke-width="0.828" stroke-miterlimit="10"/>
        <path fill-rule="evenodd" clip-rule="evenodd" d="M88.3462 319.812L59.2907 336.585L88.3462 319.812ZM88.3462 286.278V319.812V286.278Z" stroke="white" stroke-width="0.828" stroke-miterlimit="10"/>
        <path fill-rule="evenodd" clip-rule="evenodd" d="M59.3107 303.039L88.3635 319.812L59.3107 303.039ZM59.3014 336.585L88.3569 353.359L59.3014 336.585ZM146.445 286.278L175.49 269.504L146.445 286.278ZM146.445 319.812L175.49 303.039L146.445 319.812Z" stroke="white" stroke-width="0.828" stroke-miterlimit="10"/>
        <path fill-rule="evenodd" clip-rule="evenodd" d="M59.3014 303.065V336.598V303.065ZM59.3014 370.132V336.598V370.132Z" stroke="white" stroke-width="0.828" stroke-miterlimit="10"/>
        <path fill-rule="evenodd" clip-rule="evenodd" d="M320.698 185.663L291.644 202.437L320.698 185.663ZM378.806 85.035L349.764 68.261L378.806 85.035ZM378.806 17.954L407.86 34.7143L378.806 17.954ZM524.036 370.132L494.985 386.905L524.036 370.132ZM494.985 353.359L465.943 370.132L494.985 353.359ZM494.985 319.824L465.943 336.611L494.985 319.824ZM465.943 269.517L436.889 286.291L465.943 269.517ZM436.889 319.824L465.943 303.065L436.889 319.824ZM436.889 252.743L407.842 269.517L436.889 252.743ZM465.935 269.517L436.88 252.743L465.935 269.517Z" stroke="white" stroke-width="0.828" stroke-miterlimit="10"/>
        <path fill-rule="evenodd" clip-rule="evenodd" d="M204.528 219.209L233.573 202.436L204.528 219.209ZM262.626 185.663L233.573 202.436L262.626 185.663Z" stroke="white" stroke-width="0.828" stroke-miterlimit="10"/>
        <path fill-rule="evenodd" clip-rule="evenodd" d="M407.861 235.956L436.907 219.196L407.861 235.956ZM407.861 168.888L378.806 185.662L407.861 168.888ZM378.806 219.196L407.861 202.422L378.806 219.196ZM378.806 219.196L407.861 235.956L378.806 219.196Z" stroke="white" stroke-width="0.828" stroke-miterlimit="10"/>
        <path d="M320.718 152.116L349.764 135.342" stroke="white" stroke-width="0.828" stroke-miterlimit="10"/>
        <path fill-rule="evenodd" clip-rule="evenodd" d="M291.672 168.875L320.727 152.115L291.672 168.875ZM262.626 152.115L291.672 168.875L262.626 152.115Z" stroke="white" stroke-width="0.828" stroke-miterlimit="10"/>
        <path d="M553.072 252.731V219.197" stroke="white" stroke-width="0.828" stroke-miterlimit="10"/>
        <path d="M524.036 235.969V269.503" stroke="white" stroke-width="0.828" stroke-miterlimit="10"/>
        <path d="M553.072 219.197V185.664" stroke="white" stroke-width="0.828" stroke-miterlimit="10"/>
        <path fill-rule="evenodd" clip-rule="evenodd" d="M407.852 269.503V235.956V269.503ZM494.985 252.73V219.196V252.73ZM436.9 219.196V252.73V219.196Z" stroke="white" stroke-width="0.828" stroke-miterlimit="10"/>
        <path d="M320.718 152.116V185.663" stroke="white" stroke-width="0.828" stroke-miterlimit="10"/>
        <path d="M291.661 202.422V168.875" stroke="white" stroke-width="0.828" stroke-miterlimit="10"/>
        <path fill-rule="evenodd" clip-rule="evenodd" d="M640.223 303.038V370.119V303.038ZM88.3462 286.277L59.2907 303.051L88.3462 286.277ZM349.764 135.342V101.795V135.342ZM262.618 219.197L291.661 202.423L262.618 219.197ZM262.618 152.116V185.649V152.116ZM262.618 185.649V219.183V185.649ZM320.707 185.649V219.183V185.649ZM320.707 118.568L262.618 152.102L320.707 118.568Z" stroke="white" stroke-width="0.828" stroke-miterlimit="10"/>
    </g>
</svg>
