<svg width="87" height="161" viewBox="0 0 87 161" fill="none" xmlns="http://www.w3.org/2000/svg">
    <path fill-rule="evenodd" clip-rule="evenodd" d="M60.8834 92.185L53.771 117.005L34.9077 69.0986L14.9463 72.1688L32.9609 118.606L34.1618 160.506L53.771 155.835L86.9618 124.611V102.193L80.5846 88.0475L60.8834 92.185Z" fill="#CCCCCC"/>
    <path fill-rule="evenodd" clip-rule="evenodd" d="M20.5829 71.9017H0.935058L20.5829 19.4596L0.734863 4.91394L17.0948 0.777783L86.8511 49.3496L86.9619 89.782L67.1659 93.6523L66.8656 86.0459H52.8036L65.8155 69.7658L56.2917 47.0808L49.2327 45.2134L34.9078 58.5576L20.5829 71.9017Z" fill="#CA2752"/>
    <path fill-rule="evenodd" clip-rule="evenodd" d="M0.858948 71.8996V4.77898L67.2379 52.9507V93.7832L60.8607 78.5717L52.8943 86.0439L34.0471 41.0739L15.1838 58.5555L0.858948 71.8996Z" fill="#E62752"/>
    <path fill-rule="evenodd" clip-rule="evenodd" d="M56.9482 95.654L34.0471 117.005L15.1838 72.0346L2.0412 84.3115L34.0471 160.506L67.2379 129.681V107.264L60.8607 92.0508L56.9482 95.654Z" fill="white"/>
    <path fill-rule="evenodd" clip-rule="evenodd" d="M86.8312 102.192L67.2888 107.129L67.3155 129.681L86.9313 124.61L86.8312 102.192Z" fill="white" fill-opacity="0.227451"/>
</svg>
