<svg width="15" height="14" viewBox="0 0 15 14" fill="none" xmlns="http://www.w3.org/2000/svg">
    <path d="M12.001 14H2.99897C2.60105 14 2.21943 13.8488 1.93806 13.5797C1.6567 13.3106 1.49862 12.9457 1.49862 12.5651V6.82551H0.498394C0.398225 6.82518 0.300467 6.79609 0.217786 6.74201C0.135104 6.68792 0.0713091 6.61134 0.0346651 6.52218C-0.00197893 6.43302 -0.00978317 6.33539 0.0122634 6.24194C0.03431 6.14849 0.0851915 6.06352 0.158316 5.99805L6.49977 0.382814C6.77721 0.136735 7.14162 0 7.52 0C7.89839 0 8.2628 0.136735 8.54024 0.382814L14.8417 5.99805C14.9148 6.06352 14.9657 6.14849 14.9877 6.24194C15.0098 6.33539 15.002 6.43302 14.9653 6.52218C14.9287 6.61134 14.8649 6.68792 14.7822 6.74201C14.6995 6.79609 14.6018 6.82518 14.5016 6.82551H13.5014V12.5651C13.5014 12.9457 13.3433 13.3106 13.0619 13.5797C12.7806 13.8488 12.3989 14 12.001 14ZM1.77369 5.86891H1.99874C2.13138 5.86891 2.25858 5.9193 2.35237 6.009C2.44616 6.0987 2.49885 6.22036 2.49885 6.34721V12.5651C2.49885 12.692 2.55154 12.8136 2.64533 12.9033C2.73912 12.993 2.86633 13.0434 2.99897 13.0434H12.001C12.1337 13.0434 12.2609 12.993 12.3547 12.9033C12.4485 12.8136 12.5011 12.692 12.5011 12.5651V6.34721C12.5011 6.22036 12.5538 6.0987 12.6476 6.009C12.7414 5.9193 12.8686 5.86891 13.0013 5.86891H13.2263L7.84008 1.08591C7.7476 1.00389 7.62613 0.958309 7.5 0.958309C7.37387 0.958309 7.2524 1.00389 7.15992 1.08591L1.77369 5.86891Z" fill="#333333"/>
</svg>
