<svg width="42" height="52" viewBox="0 0 42 52" fill="none" xmlns="http://www.w3.org/2000/svg">
    <path d="M38.0549 12.944C38.4718 12.944 38.8165 12.6 38.8165 12.184V3.864C38.8165 1.736 37.0769 0 34.9445 0H11.2714C9.12292 0 7.31918 0.751998 5.92429 2.208L2.21259 5.85601C0.745547 7.38401 0 9.176 0 11.184V47.224C0 49.352 1.80374 51.152 3.93616 51.152H34.9445C37.0448 51.152 38.8165 49.352 38.8165 47.224V27.304C38.8165 26.888 38.4718 26.544 38.0549 26.544C37.6381 26.544 37.2934 26.888 37.2934 27.304V47.224C37.2934 48.528 36.2191 49.624 34.9445 49.624H3.93616C2.6535 49.624 1.53118 48.504 1.53118 47.224V11.184C1.53118 9.56 2.11639 8.16 3.30285 6.92L7.02257 3.272C7.96853 2.28 9.14697 1.712 10.5178 1.56V8.608C10.5178 9.608 9.67607 10.424 8.64192 10.424H4.52138C4.0965 10.424 3.7598 10.768 3.7598 11.184C3.7598 11.6 4.10451 11.944 4.52138 11.944H8.63391C10.5098 11.944 12.041 10.448 12.041 8.608V1.52H34.9445C36.2191 1.52 37.2934 2.592 37.2934 3.864V12.184C37.2853 12.608 37.6301 12.944 38.0549 12.944Z" fill="#E12651"/>
    <path d="M40.0913 14.696C39.49 14.336 38.7846 14.2319 38.1112 14.4079C37.4458 14.5839 36.8766 15.008 36.5239 15.6L34.0147 19.72C33.9826 19.752 33.9586 19.792 33.9345 19.832C33.9185 19.864 33.9025 19.896 33.8864 19.936L21.7252 39.856C21.6771 39.936 21.645 40.0159 21.629 40.1039L20.6269 45.2639C20.5628 45.5759 20.7071 45.888 20.9797 46.056C21.0999 46.136 21.2442 46.1679 21.3805 46.1679C21.5488 46.1679 21.7092 46.1119 21.8455 46.0079L26.0141 42.7839C26.0862 42.7279 26.1504 42.656 26.1985 42.576L38.4158 22.472C38.4479 22.424 38.4639 22.3759 38.488 22.3279V22.32C38.496 22.296 38.504 22.28 38.504 22.256C38.504 22.248 38.504 22.24 38.504 22.232C38.504 22.216 38.512 22.2 38.512 22.176C38.512 22.168 38.512 22.16 38.512 22.152C38.512 22.136 38.512 22.1199 38.52 22.1039C38.52 22.0959 38.52 22.088 38.52 22.072C38.52 22.056 38.52 22.0399 38.52 22.0239C38.52 22.0159 38.52 22.008 38.52 22C38.52 21.984 38.52 21.968 38.512 21.952C38.512 21.944 38.512 21.9359 38.504 21.9279C38.504 21.9119 38.496 21.896 38.496 21.88C38.496 21.872 38.488 21.864 38.488 21.856C38.4799 21.84 38.4799 21.8239 38.4719 21.8079C38.4719 21.7999 38.4639 21.8 38.4639 21.792C38.4559 21.776 38.4479 21.7599 38.4399 21.7439C38.4399 21.7359 38.4318 21.7359 38.4318 21.7279C38.4238 21.7119 38.4158 21.696 38.3998 21.672C38.3998 21.672 38.3998 21.6639 38.3918 21.6639C38.3837 21.6479 38.3677 21.6239 38.3517 21.6079C38.2956 21.5279 38.2234 21.4639 38.1352 21.4079C38.1272 21.4079 38.1272 21.4 38.1192 21.4L35.626 19.9279L37.8066 16.36C37.9589 16.104 38.1913 15.928 38.4719 15.856C38.7445 15.784 39.0331 15.832 39.2576 15.96C39.7386 16.272 39.9149 16.9679 39.6023 17.4479L38.8407 18.736C38.6242 19.096 38.7445 19.568 39.1133 19.776C39.474 19.992 39.939 19.8719 40.1554 19.5039L40.901 18.24C41.6786 17.112 41.3018 15.48 40.0913 14.696ZM36.7083 22.352L24.9639 41.672L22.5108 43.5679L23.096 40.5279L34.8564 21.256L36.7083 22.352Z" fill="#E12651"/>
    <path d="M13.2676 19.8H13.1473C12.7224 19.8 12.3857 19.456 12.3857 19.04C12.3857 18.624 12.7305 18.28 13.1473 18.28C13.5722 18.28 13.973 18.624 13.973 19.04C13.973 19.464 13.6925 19.8 13.2676 19.8Z" fill="#E12651"/>
    <path d="M17.4443 19.8H17.2679C16.843 19.8 16.5063 19.456 16.5063 19.04C16.5063 18.624 16.8511 18.28 17.2679 18.28C17.6928 18.28 18.1177 18.624 18.1177 19.04C18.1177 19.464 17.8612 19.8 17.4443 19.8Z" fill="#E12651"/>
    <path d="M21.5488 19.8H21.4286C21.0037 19.8 20.667 19.456 20.667 19.04C20.667 18.624 21.0117 18.28 21.4286 18.28C21.8535 18.28 22.2543 18.624 22.2543 19.04C22.2543 19.464 21.9737 19.8 21.5488 19.8Z" fill="#E12651"/>
    <path d="M25.7173 19.8H25.597C25.1721 19.8 24.8354 19.456 24.8354 19.04C24.8354 18.624 25.1802 18.28 25.597 18.28C26.0219 18.28 26.4227 18.624 26.4227 19.04C26.4227 19.464 26.1422 19.8 25.7173 19.8Z" fill="#E12651"/>
    <path d="M23.8415 27.6H7.27916C6.85428 27.6 6.51758 27.256 6.51758 26.84C6.51758 26.424 6.86229 26.08 7.27916 26.08H23.8415C24.2664 26.08 24.6031 26.424 24.6031 26.84C24.6031 27.256 24.2664 27.6 23.8415 27.6Z" fill="#E12651"/>
    <path d="M20.0256 35.448H7.27916C6.85428 35.448 6.51758 35.104 6.51758 34.688C6.51758 34.272 6.86229 33.928 7.27916 33.928H20.0176C20.4425 33.928 20.7792 34.272 20.7792 34.688C20.7872 35.104 20.4425 35.448 20.0256 35.448Z" fill="#E12651"/>
    <path d="M16.4422 43.3041H7.27916C6.85428 43.3041 6.51758 42.9601 6.51758 42.5441C6.51758 42.1281 6.86229 41.7841 7.27916 41.7841H16.4422C16.867 41.7841 17.2037 42.1281 17.2037 42.5441C17.2037 42.9601 16.867 43.3041 16.4422 43.3041Z" fill="#E12651"/>
</svg>
