<svg width="52" height="52" viewBox="0 0 52 52" fill="none" xmlns="http://www.w3.org/2000/svg">
    <path d="M45.5104 8.968C45.9273 8.968 46.272 8.624 46.272 8.208V3.752C46.272 1.688 44.5885 0 42.5122 0H9.68409C7.60778 0 5.92428 1.68 5.92428 3.752V47.408C5.92428 48.632 4.94626 49.632 3.75179 49.632C2.52524 49.632 1.52316 48.632 1.52316 47.408V24.552H3.75179C4.16865 24.552 4.51337 24.208 4.51337 23.792C4.51337 23.376 4.16865 23.032 3.75179 23.032H0.76158C0.344715 23.032 0 23.376 0 23.792V47.408C0 49.472 1.68348 51.16 3.75979 51.16H36.5237C38.111 51.16 39.4979 50.184 40.0591 48.672C40.2034 48.28 40.003 47.84 39.6021 47.696C39.2013 47.552 38.7684 47.752 38.6241 48.152C38.2874 49.056 37.4617 49.648 36.5237 49.648H6.73397C7.19091 49.024 7.45546 48.256 7.45546 47.424V3.768C7.45546 2.544 8.45753 1.544 9.69209 1.544C10.9186 1.544 11.9207 2.544 11.9207 3.768V45.432C11.9207 45.848 12.2654 46.192 12.6823 46.192H45.5104C45.9273 46.192 46.272 45.848 46.272 45.432V37.936C46.272 37.52 45.9273 37.176 45.5104 37.176C45.0935 37.176 44.7488 37.52 44.7488 37.936V44.672H13.4439V3.768C13.4439 2.936 13.1713 2.168 12.7064 1.544H42.5122C43.7387 1.544 44.7408 2.544 44.7408 3.768V8.224C44.7488 8.624 45.0855 8.968 45.5104 8.968Z" fill="#E12651"/>
    <path d="M35.5297 38.7361C26.8797 38.7361 19.8491 31.7201 19.8491 23.0881C19.8491 14.4561 26.8797 7.44006 35.5297 7.44006C44.1716 7.44006 51.2022 14.4561 51.2022 23.0881C51.2022 31.7201 44.1716 38.7361 35.5297 38.7361ZM35.5297 8.96806C27.7295 8.96806 21.3803 15.3041 21.3803 23.0881C21.3803 30.8721 27.7295 37.2081 35.5297 37.2081C43.3298 37.2081 49.679 30.8721 49.679 23.0881C49.679 15.3041 43.3298 8.96806 35.5297 8.96806Z" fill="#E12651"/>
    <path d="M33.5896 30.064C33.3892 30.064 33.1968 29.984 33.0525 29.84L27.4729 24.272C27.1763 23.976 27.1763 23.496 27.4729 23.192L30.3509 20.32C30.6475 20.032 31.1205 20.024 31.4252 20.312L33.5896 22.424L39.6903 16.336C39.9869 16.04 40.4679 16.04 40.7725 16.336L43.6505 19.208C43.9471 19.504 43.9471 19.984 43.6505 20.288C43.3539 20.584 42.8729 20.584 42.5683 20.288L40.2354 17.96L34.1428 24.04C33.8462 24.328 33.3732 24.344 33.0686 24.048L30.9041 21.936L29.1003 23.736L33.5976 28.224L40.4519 21.32C40.7485 21.024 41.2295 21.016 41.5341 21.312C41.8307 21.608 41.8387 22.088 41.5421 22.392L34.1428 29.832C33.9905 29.984 33.7901 30.064 33.5896 30.064Z" fill="#E12651"/>
</svg>
