<svg width="42" height="52" viewBox="0 0 42 52" fill="none" xmlns="http://www.w3.org/2000/svg">
    <path d="M38.0469 21.808C38.4638 21.808 38.8085 21.464 38.8085 21.048V3.872C38.8085 1.736 37.0689 0 34.9285 0H11.2714C9.13095 0 7.31918 0.751998 5.91628 2.208L2.20457 5.856C0.73753 7.384 0 9.176 0 11.192V47.232C0 49.368 1.76367 51.104 3.93617 51.104H34.9445C37.0849 51.104 38.8245 49.368 38.8245 47.232V44.944C38.8245 44.52 38.4798 44.184 38.063 44.184C37.6461 44.184 37.3014 44.528 37.3014 44.944V47.232C37.3014 48.504 36.2271 49.576 34.9525 49.576H3.9442C2.61344 49.576 1.53921 48.528 1.53921 47.232V11.192C1.53921 9.568 2.12441 8.168 3.31087 6.928L7.02257 3.28C7.96854 2.288 9.14698 1.72 10.5258 1.568V8.616C10.5258 9.616 9.68409 10.432 8.64193 10.432H4.52939C4.11253 10.432 3.76781 10.776 3.76781 11.192C3.76781 11.608 4.11253 11.952 4.52939 11.952H8.64193C10.5178 11.952 12.049 10.456 12.049 8.608V1.52H34.9525C36.2271 1.52 37.3014 2.592 37.3014 3.864V21.032C37.2853 21.464 37.6301 21.808 38.0469 21.808Z" fill="#E12651"/>
    <path d="M30.0623 46.184H26.7194C26.3907 46.184 26.0941 45.968 25.9899 45.656L25.6452 44.584L24.9317 44.392L24.122 45.152C23.8735 45.384 23.5047 45.424 23.2081 45.256L20.3301 43.56C20.0496 43.392 19.9053 43.072 19.9694 42.752L20.1778 41.688L19.6567 41.168L18.6066 41.424C18.2699 41.504 17.9251 41.352 17.7648 41.056L16.1214 38.128C15.9611 37.84 16.0012 37.488 16.2176 37.248L16.9391 36.44L16.7467 35.728L15.7526 35.44C15.424 35.344 15.2075 35.048 15.2075 34.712V31.368C15.2075 31.04 15.416 30.752 15.7286 30.648L16.7467 30.312L16.9391 29.584L16.2176 28.776C15.9931 28.528 15.9611 28.176 16.1214 27.888L17.7648 25.016C17.9251 24.736 18.2458 24.584 18.5745 24.648L20.0415 24.944C20.4504 25.024 20.7229 25.424 20.6428 25.84C20.5626 26.248 20.1618 26.52 19.7449 26.44L18.815 26.256L17.7167 28.176L18.35 28.88C18.5184 29.072 18.5905 29.336 18.5184 29.584L18.1095 31.112C18.0454 31.36 17.853 31.552 17.6125 31.632L16.7227 31.928V34.144L17.5804 34.392C17.837 34.464 18.0374 34.664 18.1015 34.92L18.5104 36.44C18.5825 36.688 18.5184 36.952 18.342 37.144L17.7087 37.848L18.807 39.8L19.7129 39.584C19.9694 39.52 20.242 39.6 20.4344 39.784L21.5487 40.896C21.725 41.08 21.8052 41.336 21.7571 41.584L21.5727 42.52L23.4887 43.648L24.1861 42.984C24.3785 42.8 24.6591 42.736 24.9076 42.8L26.4388 43.208C26.6873 43.272 26.8877 43.464 26.9679 43.712L27.2725 44.648H29.5011L29.8058 43.712C29.886 43.464 30.0784 43.28 30.3269 43.208L31.7939 42.8C32.0585 42.728 32.331 42.792 32.5234 42.984L33.2289 43.648L35.674 42.232C36.0347 42.024 36.4997 42.144 36.7161 42.512C36.9245 42.88 36.8043 43.344 36.4355 43.552L33.5015 45.248C33.2048 45.416 32.8361 45.376 32.5956 45.144L31.7939 44.384L31.1366 44.568L30.7918 45.64C30.6876 45.968 30.391 46.184 30.0623 46.184ZM38.2794 41.44C38.2232 41.44 38.1591 41.432 38.103 41.416L36.6359 41.064C36.2271 40.968 35.9706 40.552 36.0748 40.144C36.171 39.736 36.5798 39.488 36.9967 39.584L37.9106 39.8L39.0409 37.856L38.3756 37.152C38.1912 36.96 38.119 36.688 38.1912 36.432L38.6 34.912C38.6722 34.656 38.8726 34.448 39.1291 34.376L40.043 34.12V31.912L39.1051 31.616C38.8566 31.536 38.6642 31.336 38.6 31.088L38.1912 29.56C38.119 29.304 38.1912 29.032 38.3756 28.84L39.0409 28.144L37.9106 26.232L36.9727 26.416C36.7241 26.464 36.4676 26.384 36.2832 26.208L35.1689 25.096C34.9845 24.912 34.9044 24.64 34.9685 24.384L35.1849 23.48L33.2289 22.384L32.5154 23.016C32.323 23.192 32.0505 23.248 31.8019 23.184L30.3349 22.776C30.0864 22.704 29.894 22.52 29.8138 22.272L29.5092 21.336H27.2805L26.9759 22.272C26.8957 22.52 26.6953 22.712 26.4468 22.776L24.9156 23.184C24.6751 23.248 24.4026 23.192 24.2102 23.016L23.5047 22.384L21.1077 23.752C20.747 23.96 20.274 23.832 20.0656 23.472C19.8572 23.104 19.9854 22.64 20.3542 22.432L23.2322 20.792C23.5207 20.632 23.8815 20.672 24.122 20.888L24.9317 21.608L25.6612 21.416L26.0059 20.344C26.1101 20.032 26.3987 19.816 26.7354 19.816H30.0784C30.407 19.816 30.7036 20.032 30.8079 20.344L31.1526 21.416L31.826 21.6L32.6276 20.88C32.8761 20.664 33.2289 20.624 33.5095 20.784L36.4436 22.424C36.7402 22.592 36.8925 22.936 36.8123 23.264L36.5558 24.312L37.0769 24.832L38.1431 24.616C38.4718 24.544 38.7844 24.696 38.9528 24.976L40.6523 27.848C40.8286 28.144 40.7805 28.512 40.5481 28.76L39.7865 29.56L39.9789 30.272L41.0531 30.616C41.3658 30.72 41.5822 31.008 41.5822 31.344V34.688C41.5822 35.032 41.3577 35.328 41.0291 35.424L39.9789 35.72L39.7945 36.416L40.5561 37.216C40.7886 37.464 40.8287 37.832 40.6603 38.12L38.9608 41.048C38.8004 41.296 38.5519 41.44 38.2794 41.44Z" fill="#E12651"/>
    <path d="M28.3547 41.2001C23.8173 41.2001 20.1377 37.5201 20.1377 32.9921C20.1377 28.4641 23.8253 24.7841 28.3547 24.7841C32.8841 24.7841 36.5798 28.4641 36.5798 32.9921C36.5798 37.5201 32.8921 41.2001 28.3547 41.2001ZM28.3547 26.3201C24.6671 26.3201 21.6609 29.3201 21.6609 33.0001C21.6609 36.6801 24.6671 39.6801 28.3547 39.6801C32.0504 39.6801 35.0486 36.6801 35.0486 33.0001C35.0566 29.3121 32.0504 26.3201 28.3547 26.3201Z" fill="#E12651"/>
</svg>
