<svg width="42" height="52" viewBox="0 0 42 52" fill="none" xmlns="http://www.w3.org/2000/svg">
    <path d="M38.0467 34.512C37.6299 34.512 37.2852 34.856 37.2852 35.272V36.56C37.2852 36.984 37.6299 37.32 38.0467 37.32C38.4636 37.32 38.8083 36.976 38.8083 36.56V35.28C38.8083 34.856 38.4716 34.512 38.0467 34.512Z" fill="#E12651"/>
    <path d="M34.9365 0H11.2714C9.13094 0 7.31918 0.752 5.92429 2.208L2.20457 5.856C0.73753 7.384 0 9.176 0 11.192V47.232C0 49.328 1.80374 51.104 3.93616 51.104H34.9445C36.5719 51.104 38.0549 50.056 38.6562 48.504C38.8085 48.112 38.6081 47.672 38.2153 47.52C37.8305 47.368 37.3815 47.568 37.2292 47.96C36.8605 48.928 35.9466 49.576 34.9525 49.576H3.94419C2.63748 49.576 1.5392 48.504 1.5392 47.232V11.192C1.5392 9.568 2.12441 8.168 3.31087 6.928L7.00653 3.28C7.9525 2.288 9.13094 1.72 10.5098 1.568V8.56C10.5098 9.608 9.68409 10.432 8.63391 10.432H4.52138C4.10451 10.432 3.7598 10.776 3.7598 11.192C3.7598 11.616 4.10451 11.952 4.52138 11.952H8.63391C10.5098 11.952 12.041 10.424 12.041 8.552V1.528H34.9445C36.2191 1.528 37.2934 2.6 37.2934 3.872V23.976C37.2934 24.4 37.6381 24.736 38.0549 24.736C38.4718 24.736 38.8165 24.392 38.8165 23.976V3.872C38.8085 1.736 37.0689 0 34.9365 0Z" fill="#E12651"/>
    <path d="M39.0168 46.1521C38.3995 46.1521 37.8223 45.92 37.3894 45.488L32.6356 40.744C32.339 40.448 32.339 39.9601 32.6356 39.664C32.9322 39.368 33.4132 39.368 33.7178 39.664L38.4717 44.408C38.7603 44.696 39.2733 44.696 39.5619 44.408C39.8505 44.12 39.8505 43.6081 39.5619 43.3201L34.8081 38.5761C33.7499 37.5201 33.5094 36.0001 34.1988 34.6961C35.0406 33.1361 35.4654 31.4241 35.4654 29.6001C35.4654 23.6881 30.6474 18.8801 24.7232 18.8801C18.7989 18.8801 13.9809 23.6881 13.9809 29.6001C13.9809 35.5121 18.7989 40.3201 24.7232 40.3201C26.551 40.3201 28.2665 39.896 29.8217 39.0641C30.1825 38.864 30.6474 39.0001 30.8559 39.3761C31.0563 39.7441 30.912 40.2081 30.5432 40.4081C28.7635 41.3601 26.7995 41.848 24.7232 41.848C17.9571 41.848 12.4497 36.3521 12.4497 29.6001C12.4497 22.8481 17.9571 17.3521 24.7232 17.3521C31.4892 17.3521 36.9966 22.8481 36.9966 29.6001C36.9966 31.6721 36.5156 33.6321 35.5536 35.4081C35.1768 36.1121 35.3051 36.9121 35.8903 37.4961L40.6522 42.2401C41.534 43.1201 41.534 44.608 40.6522 45.488C40.2113 45.912 39.6341 46.1521 39.0168 46.1521Z" fill="#E12651"/>
    <path d="M24.7152 38.792C19.6327 38.792 15.4961 34.664 15.4961 29.592C15.4961 24.52 19.6327 20.392 24.7152 20.392C26.4228 20.392 28.1624 20.896 29.5893 21.8C29.9421 22.024 30.0463 22.496 29.8218 22.848C29.5893 23.208 29.1244 23.304 28.7716 23.08C27.5852 22.328 26.1422 21.912 24.7232 21.912C20.4824 21.912 17.0273 25.352 17.0273 29.592C17.0273 33.824 20.4824 37.264 24.7232 37.264C28.964 37.264 32.4192 33.824 32.4192 29.592C32.4192 28.096 32.0264 26.736 31.2488 25.552C31.0163 25.2 31.1205 24.728 31.4732 24.496C31.8179 24.264 32.2989 24.368 32.5314 24.72C33.4694 26.16 33.9504 27.792 33.9504 29.592C33.9344 34.664 29.7978 38.792 24.7152 38.792Z" fill="#E12651"/>
</svg>
