<svg width="214" height="8" viewBox="0 0 214 8" fill="none" xmlns="http://www.w3.org/2000/svg">
    <path d="M4 1C2.33333 1 1 2.33333 1 4C1 5.66667 2.33333 7 4 7C5.66667 7 7 5.66667 7 4C7 2.33333 5.66667 1 4 1Z" fill="#E12651"/>
    <path d="M1.5 4C1.5 2.60948 2.60948 1.5 4 1.5V0.5C2.05719 0.5 0.5 2.05719 0.5 4H1.5ZM4 1.5C5.39052 1.5 6.5 2.60948 6.5 4H7.5C7.5 2.05719 5.94281 0.5 4 0.5V1.5ZM6.5 4C6.5 5.39052 5.39052 6.5 4 6.5V7.5C5.94281 7.5 7.5 5.94281 7.5 4H6.5ZM4 6.5C2.60948 6.5 1.5 5.39052 1.5 4H0.5C0.5 5.94281 2.05719 7.5 4 7.5V6.5ZM7 4.5H109V3.5H7V4.5ZM109 4.5H214V3.5H109V4.5Z" fill="#E12651"/>
</svg>
