<svg width="165" height="97" viewBox="0 0 165 97" fill="none" xmlns="http://www.w3.org/2000/svg">
    <path d="M4 7C2.33333 7 1 5.66666 1 4C1 2.33334 2.33333 1 4 1C5.66667 1 7 2.33334 7 4C7 5.66666 5.66667 7 4 7Z" fill="#E12651"/>
    <path d="M109 4V3.5H109.5V4H109ZM1.5 4C1.5 5.39053 2.60948 6.5 4 6.5V7.5C2.05719 7.5 0.5 5.9428 0.5 4H1.5ZM4 6.5C5.39052 6.5 6.5 5.39053 6.5 4H7.5C7.5 5.9428 5.94281 7.5 4 7.5V6.5ZM6.5 4C6.5 2.60947 5.39052 1.5 4 1.5V0.5C5.94281 0.5 7.5 2.0572 7.5 4H6.5ZM4 1.5C2.60948 1.5 1.5 2.60947 1.5 4H0.5C0.5 2.0572 2.05719 0.5 4 0.5V1.5ZM129 96H164.5V97H129V96ZM7 3.5H109V4.5H7V3.5ZM109.5 4V76.5H108.5V4H109.5ZM129 97C117.678 97 108.5 87.8218 108.5 76.5H109.5C109.5 87.2696 118.23 96 129 96V97Z" fill="#E12651"/>
</svg>
