<svg width="261" height="96" viewBox="0 0 261 96" fill="none" xmlns="http://www.w3.org/2000/svg">
    <path d="M4 88.9998C2.33333 88.9998 1 90.3332 1 91.9998C1 93.6665 2.33333 94.9998 4 94.9998C5.66667 94.9998 7 93.6665 7 91.9998C7 90.3332 5.66667 88.9998 4 88.9998Z" fill="#E12651"/>
    <path d="M1.5 91.9998C1.5 90.6093 2.60948 89.4998 4 89.4998V88.4998C2.05719 88.4998 0.5 90.057 0.5 91.9998H1.5ZM4 89.4998C5.39052 89.4998 6.5 90.6093 6.5 91.9998H7.5C7.5 90.057 5.94281 88.4998 4 88.4998V89.4998ZM6.5 91.9998C6.5 93.3903 5.39052 94.4998 4 94.4998V95.4998C5.94281 95.4998 7.5 93.9426 7.5 91.9998H6.5ZM4 94.4998C2.60948 94.4998 1.5 93.3903 1.5 91.9998H0.5C0.5 93.9426 2.05719 95.4998 4 95.4998V94.4998ZM4.5 88.9998V20.8496H3.5V88.9998H4.5ZM24 1.34961H261V0.349609H24V1.34961ZM4.5 20.8496C4.5 10.0801 13.2304 1.34961 24 1.34961V0.349609C12.6782 0.349609 3.5 9.52779 3.5 20.8496H4.5Z" fill="#E12651"/>
</svg>
