<svg width="47" height="122" viewBox="0 0 47 122" fill="none" xmlns="http://www.w3.org/2000/svg">
    <path d="M0 61H9.5V60H0V61ZM24 46.5V14.5H23V46.5H24ZM37.5 1H47V0H37.5V1ZM24 14.5C24 7.04416 30.0442 1 37.5 1V0C29.4919 0 23 6.49187 23 14.5H24ZM9.5 61C17.5081 61 24 54.5081 24 46.5H23C23 53.9558 16.9558 60 9.5 60V61Z" fill="#E12651"/>
    <path d="M0 61H9.5V60H0V61ZM23 74.5V107.5H24V74.5H23ZM37.5 122H47V121H37.5V122ZM23 107.5C23 115.508 29.4919 122 37.5 122V121C30.0442 121 24 114.956 24 107.5H23ZM9.5 61C16.9558 61 23 67.0442 23 74.5H24C24 66.4919 17.5081 60 9.5 60V61Z" fill="#E12651"/>
</svg>
