<svg width="214" height="146" viewBox="0 0 214 146" fill="none" xmlns="http://www.w3.org/2000/svg">
    <path d="M210 138.85C208.333 138.85 207 140.183 207 141.85C207 143.516 208.333 144.85 210 144.85C211.667 144.85 213 143.516 213 141.85C213 140.183 211.667 138.85 210 138.85Z" fill="#E12651"/>
    <path d="M207.5 141.85C207.5 140.459 208.609 139.35 210 139.35V138.35C208.057 138.35 206.5 139.907 206.5 141.85H207.5ZM210 139.35C211.391 139.35 212.5 140.459 212.5 141.85H213.5C213.5 139.907 211.943 138.35 210 138.35V139.35ZM212.5 141.85C212.5 143.24 211.391 144.35 210 144.35V145.35C211.943 145.35 213.5 143.793 213.5 141.85H212.5ZM210 144.35C208.609 144.35 207.5 143.24 207.5 141.85H206.5C206.5 143.793 208.057 145.35 210 145.35V144.35ZM207 141.35H125V142.35H207V141.35ZM105.5 121.85V21H104.5V121.85H105.5ZM85 0.5H0V1.5H85V0.5ZM105.5 21C105.5 9.67817 96.3218 0.5 85 0.5V1.5C95.7695 1.5 104.5 10.2305 104.5 21H105.5ZM125 141.35C114.23 141.35 105.5 132.619 105.5 121.85H104.5C104.5 133.172 113.678 142.35 125 142.35V141.35Z" fill="#E12651"/>
</svg>
