<svg width="42" height="89" viewBox="0 0 42 89" fill="none" xmlns="http://www.w3.org/2000/svg">
    <path d="M20.5 88V88.5C20.7761 88.5 21 88.2761 21 88H20.5ZM20.5 4V3.5C20.2239 3.5 20 3.72386 20 4H20.5ZM41.3536 4.35355C41.5488 4.15829 41.5488 3.84171 41.3536 3.64645L38.1716 0.464466C37.9763 0.269204 37.6597 0.269204 37.4645 0.464466C37.2692 0.659728 37.2692 0.976311 37.4645 1.17157L40.2929 4L37.4645 6.82843C37.2692 7.02369 37.2692 7.34027 37.4645 7.53553C37.6597 7.7308 37.9763 7.7308 38.1716 7.53553L41.3536 4.35355ZM0 88.5H20.5V87.5H0V88.5ZM21 88V4H20V88H21ZM20.5 4.5H41V3.5H20.5V4.5Z" fill="#E12651"/>
</svg>
