<svg width="214" height="76" viewBox="0 0 214 76" fill="none" xmlns="http://www.w3.org/2000/svg">
    <path d="M210 68.8498C208.333 68.8498 207 70.1831 207 71.8498C207 73.5165 208.333 74.8498 210 74.8498C211.667 74.8498 213 73.5165 213 71.8498C213 70.1831 211.667 68.8498 210 68.8498Z" fill="#E12651"/>
    <path d="M207.5 71.8498C207.5 70.4593 208.609 69.3498 210 69.3498V68.3498C208.057 68.3498 206.5 69.907 206.5 71.8498H207.5ZM210 69.3498C211.391 69.3498 212.5 70.4593 212.5 71.8498H213.5C213.5 69.907 211.943 68.3498 210 68.3498V69.3498ZM212.5 71.8498C212.5 73.2403 211.391 74.3498 210 74.3498V75.3498C211.943 75.3498 213.5 73.7926 213.5 71.8498H212.5ZM210 74.3498C208.609 74.3498 207.5 73.2403 207.5 71.8498H206.5C206.5 73.7926 208.057 75.3498 210 75.3498V74.3498ZM207 71.3498H125V72.3498H207V71.3498ZM105.5 51.8498V21H104.5V51.8498H105.5ZM85 0.5H0V1.5H85V0.5ZM105.5 21C105.5 9.67815 96.3218 0.5 85 0.5V1.5C95.7696 1.5 104.5 10.2304 104.5 21H105.5ZM125 71.3498C114.23 71.3498 105.5 62.6193 105.5 51.8498H104.5C104.5 63.1716 113.678 72.3498 125 72.3498V71.3498Z" fill="#E12651"/>
</svg>
