<svg width="165" height="97" viewBox="0 0 165 97" fill="none" xmlns="http://www.w3.org/2000/svg">
    <path d="M4 90.5C2.33333 90.5 1 91.8333 1 93.5C1 95.1667 2.33333 96.5 4 96.5C5.66667 96.5 7 95.1667 7 93.5C7 91.8333 5.66667 90.5 4 90.5Z" fill="#E12651"/>
    <path d="M109 93.5V94H109.5V93.5H109ZM1.5 93.5C1.5 92.1095 2.60948 91 4 91V90C2.05719 90 0.5 91.5572 0.5 93.5H1.5ZM4 91C5.39052 91 6.5 92.1095 6.5 93.5H7.5C7.5 91.5572 5.94281 90 4 90V91ZM6.5 93.5C6.5 94.8905 5.39052 96 4 96V97C5.94281 97 7.5 95.4428 7.5 93.5H6.5ZM4 96C2.60948 96 1.5 94.8905 1.5 93.5H0.5C0.5 95.4428 2.05719 97 4 97V96ZM129 1.5H164.5V0.5H129V1.5ZM7 94H109V93H7V94ZM109.5 93.5V21H108.5V93.5H109.5ZM129 0.5C117.678 0.5 108.5 9.67816 108.5 21H109.5C109.5 10.2304 118.23 1.5 129 1.5V0.5Z" fill="#E12651"/>
</svg>
