<svg width="261" height="26" viewBox="0 0 261 26" fill="none" xmlns="http://www.w3.org/2000/svg">
    <path d="M4 18.9998C2.33333 18.9998 1 20.3331 1 21.9998C1 23.6665 2.33333 24.9998 4 24.9998C5.66667 24.9998 7 23.6665 7 21.9998C7 20.3331 5.66667 18.9998 4 18.9998Z" fill="#E12651"/>
    <path d="M1.5 21.9998C1.5 20.6093 2.60948 19.4998 4 19.4998V18.4998C2.05719 18.4998 0.5 20.057 0.5 21.9998H1.5ZM4 19.4998C5.39052 19.4998 6.5 20.6093 6.5 21.9998H7.5C7.5 20.057 5.94281 18.4998 4 18.4998V19.4998ZM6.5 21.9998C6.5 23.3903 5.39052 24.4998 4 24.4998V25.4998C5.94281 25.4998 7.5 23.9426 7.5 21.9998H6.5ZM4 24.4998C2.60948 24.4998 1.5 23.3903 1.5 21.9998H0.5C0.5 23.9426 2.05719 25.4998 4 25.4998V24.4998ZM22.1502 1.34961H261V0.349609H22.1502V1.34961ZM4.5 18.9998C4.5 9.25187 12.4023 1.34961 22.1502 1.34961V0.349609C11.85 0.349609 3.5 8.69959 3.5 18.9998H4.5Z" fill="#E12651"/>
</svg>
