<svg width="19" height="23" viewBox="0 0 19 23" fill="none" xmlns="http://www.w3.org/2000/svg">
    <path d="M9.49316 5.55358C9.54161 5.55358 9.61666 5.53728 9.62331 5.49033C9.63281 5.42516 9.53971 5.36096 9.47891 5.36096C9.40197 5.33125 9.30032 5.31592 9.22907 5.35712C9.21387 5.36479 9.19582 5.38683 9.20152 5.40504V5.42612C9.21767 5.48074 9.30792 5.47116 9.35827 5.48841C9.40481 5.51237 9.43996 5.55358 9.49316 5.55358Z" fill="white"/>
    <path d="M0.105616 21.0789C0.272809 21.3989 0.619546 21.5283 1.00808 21.6548C1.78705 21.8465 2.84341 21.7842 3.67463 22.2288C4.56474 22.6764 5.46816 22.8719 6.18823 22.6792C6.69361 22.569 7.12014 22.2355 7.34908 21.7736C7.91336 21.7708 8.53084 21.5159 9.5207 21.4536C10.1923 21.398 11.033 21.7094 11.9982 21.6443C12.0219 21.7736 12.059 21.835 12.1074 21.9643L12.1103 21.9672C12.4865 22.7128 13.18 23.052 13.9209 22.9936C14.6619 22.9361 15.4504 22.4799 16.0897 21.742C16.6958 21.0089 17.7065 20.7032 18.3744 20.3017C18.7087 20.111 18.9785 19.8522 18.9985 19.4842C19.0203 19.1009 18.8075 18.7061 18.3126 18.1647V18.0717L18.3098 18.0688C18.1464 17.8772 18.0694 17.5561 17.9849 17.1814C17.9032 16.7972 17.8101 16.4282 17.5118 16.1791H17.5089C17.4519 16.1273 17.3911 16.1148 17.3284 16.0497C17.2743 16.0133 17.2125 15.9903 17.146 15.9884C17.5602 14.7636 17.3997 13.5447 16.9798 12.4484C16.4678 11.0972 15.572 9.92037 14.8899 9.1106C14.1252 8.1475 13.3756 7.2352 13.3899 5.88207C13.4155 3.8198 13.6179 0.00479152 9.98428 0C9.83514 0 9.68124 0.00766644 9.52355 0.0201244C5.46151 0.33924 6.53876 4.62669 6.47702 6.05553C6.40387 7.10199 6.18918 7.92709 5.46721 8.94961C4.61699 9.95678 3.42289 11.5849 2.85766 13.2821C2.59072 14.0794 2.46342 14.8959 2.58217 15.6673C2.54512 15.6999 2.50902 15.7325 2.47577 15.7967C2.22593 16.0535 2.04449 16.3726 1.8393 16.6007C1.64836 16.7914 1.37382 16.8566 1.07363 16.984C0.77249 17.1144 0.440953 17.2418 0.24336 17.6366C0.156914 17.8168 0.112265 18.0132 0.116065 18.2126C0.116065 18.4033 0.141714 18.5969 0.169263 18.7262C0.225311 19.1086 0.280409 19.4248 0.207262 19.6558C-0.032129 20.3065 -0.0615777 20.753 0.105616 21.0789ZM17.3389 16.4253L17.3417 16.4282C17.5412 16.6189 17.6343 16.9371 17.717 17.2677C17.7987 17.652 17.8652 18.0152 18.1103 18.2892C18.5776 18.7943 18.7296 19.1575 18.7211 19.3817L18.7239 19.376V19.3932L18.7211 19.3817C18.7068 19.6328 18.5434 19.7612 18.2423 19.9519C17.6372 20.3362 16.5647 20.6342 15.8816 21.4564C15.2879 22.1627 14.5641 22.5479 13.9257 22.5978C13.2864 22.6476 12.7373 22.4061 12.4133 21.7372L12.4086 21.7343C12.2072 21.3501 12.2936 20.7521 12.4627 20.1148C12.6318 19.4747 12.8741 18.8259 12.9073 18.2959C12.9425 17.6117 12.9805 17.0166 13.0945 16.5576C13.2094 16.112 13.3899 15.7938 13.71 15.6146L13.7537 15.5935V15.5916C13.7889 16.1676 14.0834 16.7847 14.6011 16.9112C15.1663 17.0396 15.9795 16.5921 16.3224 16.1781L16.5248 16.1695C16.8269 16.1618 17.0786 16.1791 17.3389 16.4253ZM9.36395 4.70144C9.35635 4.44845 9.4048 4.19737 9.50835 3.96451C9.58719 3.75464 9.73159 3.57543 9.92158 3.45373C10.0859 3.33011 10.2854 3.26303 10.4925 3.26303H10.5049C10.7091 3.26303 10.8858 3.32244 11.0663 3.45277C11.2496 3.58214 11.3836 3.77093 11.4881 3.96355C11.5888 4.21175 11.6401 4.40341 11.6477 4.65736C11.6477 4.63819 11.6534 4.61903 11.6534 4.60082V4.70048C11.6515 4.69378 11.6496 4.68611 11.6496 4.68036L11.6448 4.65736C11.6429 4.89023 11.5935 5.12022 11.5004 5.33392C11.4548 5.45371 11.3864 5.56392 11.2962 5.65495C11.2686 5.63962 11.2411 5.62621 11.2116 5.61471C11.1109 5.57158 11.0207 5.55337 10.938 5.48725C10.8696 5.46042 10.7984 5.43838 10.7271 5.424C10.7746 5.36746 10.8668 5.29655 10.9019 5.23426C10.9532 5.1116 10.9808 4.98127 10.9865 4.84902V4.83081C10.9884 4.70144 10.9694 4.57111 10.9276 4.44749C10.8848 4.31812 10.8307 4.25487 10.7518 4.12742C10.6711 4.06417 10.5913 4.00092 10.4954 4.00092H10.4802C10.3909 4.00092 10.3111 4.02967 10.2284 4.12742C10.1372 4.2175 10.0688 4.32579 10.0318 4.44749C9.98048 4.5692 9.95103 4.70048 9.94533 4.83081V4.84902C9.94723 4.93431 9.95293 5.02056 9.96433 5.10489C9.77909 5.04068 9.5435 4.97552 9.38105 4.91131C9.37155 4.84902 9.36585 4.78481 9.36395 4.72061V4.70144ZM6.97195 4.02392C7.02515 3.83513 7.11824 3.66072 7.24459 3.51123C7.36808 3.38377 7.49443 3.31957 7.64642 3.31957H7.68157C7.81836 3.31957 7.94091 3.36557 8.06535 3.44894C8.20595 3.57256 8.31899 3.72493 8.39594 3.89455C8.48239 4.08525 8.53179 4.27883 8.54319 4.53374V4.53757C8.54984 4.66598 8.54889 4.73019 8.54129 4.79248V4.86914C8.51279 4.87585 8.48714 4.88639 8.46149 4.89214C8.31519 4.94485 8.19835 5.02152 8.0834 5.08381C8.0948 4.99852 8.09575 4.91227 8.08625 4.82794V4.81356C8.07485 4.68611 8.0492 4.62286 8.00741 4.49445C7.97796 4.3967 7.92286 4.3095 7.84781 4.23858C7.80031 4.19546 7.73762 4.17342 7.67207 4.17725H7.65212C7.58277 4.183 7.52578 4.21654 7.47163 4.30375C7.40988 4.37754 7.37093 4.46762 7.35668 4.56249C7.33103 4.66599 7.32343 4.77236 7.33483 4.87969V4.8931C7.34623 5.02247 7.36998 5.08572 7.41273 5.21318C7.45548 5.34159 7.50583 5.40484 7.57137 5.47C7.58182 5.47863 7.59132 5.48725 7.60367 5.493C7.53622 5.54762 7.49158 5.56008 7.43458 5.62333C7.39943 5.65016 7.35763 5.68083 7.30918 5.6885C7.20944 5.56871 7.12109 5.43934 7.04509 5.30326C6.95295 5.10201 6.9045 4.88352 6.89595 4.66407C6.87885 4.44749 6.9064 4.23091 6.97195 4.02392ZM7.07454 6.04211C7.28923 5.91274 7.43933 5.78241 7.53813 5.72108C7.63787 5.65016 7.67587 5.62333 7.70722 5.59554H7.70912V5.59267C7.87156 5.39909 8.12805 5.14322 8.51564 5.01672C8.64958 4.98223 8.79778 4.95443 8.96307 4.95443C9.28131 4.95443 9.66604 5.01672 10.1306 5.3368C10.4118 5.52846 10.6331 5.59458 11.1423 5.78528H11.1451C11.3902 5.91561 11.5346 6.04019 11.6049 6.16765V6.04115C11.6752 6.18202 11.68 6.34589 11.6201 6.49156C11.5023 6.78959 11.1242 7.1087 10.598 7.29941V7.30132C10.3405 7.43069 10.1163 7.62044 9.85318 7.74693C9.58814 7.8763 9.28796 8.02676 8.88042 8.0028C8.73413 8.01047 8.58688 7.98843 8.45009 7.9386C8.34464 7.8811 8.24015 7.81785 8.1404 7.74885C7.95326 7.61948 7.79177 7.43069 7.55237 7.30324V7.29845H7.54762C7.16384 7.0627 6.9558 6.8078 6.88835 6.61805C6.8228 6.36027 6.8836 6.16861 7.07454 6.04211ZM4.08216 13.1776C4.31775 12.1523 4.92098 11.1556 5.30666 10.5299C5.40926 10.4676 5.34181 10.6592 4.91433 11.4632C4.53339 12.1829 3.81807 13.8561 4.79748 15.1565C4.83358 14.2088 5.04542 13.2735 5.41876 12.4005C5.96024 11.1757 7.09354 9.04256 7.18284 7.35211C7.22939 7.38661 7.39088 7.48148 7.46023 7.54569C7.67017 7.67314 7.82501 7.86481 8.02736 7.9913C8.2297 8.18392 8.48524 8.31233 8.86902 8.31233C8.90607 8.31521 8.94122 8.31808 8.97542 8.31808C9.3706 8.31808 9.67554 8.18967 9.93298 8.06126C10.2113 7.93284 10.4336 7.74118 10.6445 7.67794H10.6493C11.0976 7.54856 11.4529 7.2927 11.6534 7.00712C11.9982 8.36504 12.8038 10.3372 13.3215 11.2936C13.596 11.8054 14.1432 12.8834 14.3807 14.1915C14.5308 14.1867 14.697 14.2088 14.8737 14.2529C15.4941 12.6515 14.3494 10.9304 13.8278 10.4522C13.615 10.2596 13.6046 10.1312 13.71 10.1312C14.2762 10.6429 15.0219 11.6377 15.2917 12.7732C15.4162 13.2859 15.4447 13.8312 15.3117 14.3736C15.3763 14.4004 15.4418 14.4321 15.5083 14.4378C16.5001 14.9496 16.8658 15.3367 16.6901 15.9107V15.8695C16.6312 15.8666 16.5751 15.8695 16.5162 15.8695H16.502C16.6473 15.422 16.3272 15.0789 15.4789 14.6966C14.5992 14.3132 13.8972 14.3746 13.7775 15.1422C13.7708 15.1834 13.7661 15.2054 13.7613 15.2715C13.6958 15.2936 13.6274 15.3223 13.5609 15.3329C13.1477 15.5897 12.9244 15.974 12.799 16.4704C12.6736 16.9812 12.6356 17.5782 12.6024 18.2615V18.2643C12.5824 18.5844 12.438 19.0674 12.2955 19.559C10.8544 20.5863 8.85572 21.0329 7.15529 19.8791C7.04889 19.6941 6.91875 19.5207 6.76866 19.3683C6.69741 19.2485 6.60716 19.1412 6.50457 19.0482C6.67936 19.0482 6.82945 19.0204 6.95105 18.984C7.09069 18.9198 7.19804 18.8039 7.25314 18.6639C7.35668 18.4081 7.25314 17.996 6.9216 17.5494C6.59006 17.1019 6.02673 16.5959 5.20312 16.0919C4.59799 15.7095 4.256 15.2581 4.09831 14.7541C3.93777 14.2423 3.95867 13.7143 4.08216 13.1776ZM0.52075 19.7056V19.7027L0.522649 19.6999C0.634745 19.3798 0.551148 18.9783 0.497 18.6275C0.443803 18.2432 0.417204 17.9481 0.537849 17.7267C0.691743 17.4066 0.918784 17.3444 1.19997 17.2159C1.48401 17.0866 1.81555 17.0224 2.08059 16.7665H2.08249V16.7636C2.32853 16.5068 2.50997 16.1877 2.72466 15.9606C2.90706 15.7679 3.08945 15.6386 3.36209 15.6386H3.37159C3.42289 15.6386 3.47228 15.6434 3.52263 15.652C3.88362 15.7047 4.20091 15.9711 4.50584 16.3726L5.38076 17.9673L5.38361 17.9701C5.6173 18.4809 6.10843 18.9898 6.52641 19.5398C6.94345 20.1129 7.26644 20.6237 7.22654 21.0444V21.0501C7.17144 21.7631 6.76581 22.1503 6.14548 22.2902C5.5261 22.4195 4.68444 22.2921 3.84372 21.8455C2.91371 21.3319 1.8089 21.3961 1.09833 21.2686C0.743991 21.2054 0.51125 21.076 0.403904 20.8843C0.295608 20.6927 0.293708 20.3074 0.52075 19.7056Z" fill="white"/>
    <path d="M8.3779 5.55326C8.4292 5.55326 8.46625 5.51205 8.51184 5.48809C8.56314 5.4718 8.65244 5.48043 8.67144 5.42485H8.66859V5.40472C8.67429 5.38556 8.65814 5.36543 8.64009 5.35681C8.56789 5.31656 8.4691 5.33189 8.3912 5.3616C8.33135 5.3616 8.23825 5.4258 8.2468 5.48905C8.2525 5.53601 8.32945 5.55326 8.3779 5.55326ZM7.58183 7.00892C7.87917 7.19963 8.2905 7.45549 8.81108 7.45549C9.33261 7.45549 9.82184 7.13638 10.2398 6.9428C10.4602 6.81535 10.7291 6.62464 10.9029 6.49527C11.0767 6.30457 11.1679 6.19149 11.0444 6.17616C10.9191 6.17616 10.9266 6.30169 10.7766 6.43298C10.5818 6.56044 10.3415 6.75114 10.1543 6.88051C9.82279 7.07121 9.27656 7.32708 8.81108 7.32708C8.3437 7.32708 7.97036 7.07121 7.69108 6.87955C7.54858 6.75114 7.43459 6.62369 7.34244 6.56044C7.27499 6.49815 7.25599 6.38411 7.1515 6.36878C7.08405 6.36878 7.06505 6.56044 7.22274 6.68885C7.31204 6.7521 7.43269 6.88051 7.58183 7.00892Z" fill="white"/>
</svg>
