<svg width="169" height="46" viewBox="0 0 169 46" fill="none" xmlns="http://www.w3.org/2000/svg">
    <path fill-rule="evenodd" clip-rule="evenodd" d="M9.45666 42.5183H34.4062L32.6821 45.8952H11.252L9.5279 42.5183H9.45666ZM27.8946 34.0973H38.7664L37.0423 37.4742H6.94888L5.22478 34.0973H27.9088H27.8946ZM28.6212 25.6763H42.9555L41.2314 29.0532H5.88022C3.62892 29.0532 1.63409 27.5998 0.636678 25.4055C-0.232497 23.4107 -0.232497 21.0312 0.764916 19.1076L3.88539 13.0661L4.3556 12.1399L6.47867 7.96506C6.54991 7.83682 6.60691 7.76557 6.60691 7.63733L7.20536 6.51168L8.25976 4.38862L8.78697 3.3912L10.0409 0.997413L10.5681 0H14.0875L13.5603 0.997413L12.3064 3.3912L11.7792 4.38862L10.7248 6.51168L9.92687 8.10754L7.40484 13.0091L6.47867 14.8045L3.35819 20.8459C2.88798 21.7721 2.83099 22.969 3.28695 23.8952C3.75716 24.9496 4.74032 25.6905 5.88022 25.6905H28.6355L28.6212 25.6763Z" fill="#0E1D42"/>
    <path fill-rule="evenodd" clip-rule="evenodd" d="M43.2264 3.37696H18.291L20.0151 0H41.4453L43.1694 3.37696H43.2406H43.2264ZM24.7885 11.798H13.9167L15.6408 8.42102H45.7626L47.4867 11.798H24.8027H24.7885ZM24.0618 20.219H9.72754L11.4516 16.842H46.8028C49.0541 16.842 51.0489 18.2954 52.0464 20.4897C52.9155 22.4845 52.9155 24.8641 51.9181 26.7877L48.7976 32.8291L48.3274 33.7553L46.2044 37.9302C46.1331 38.0584 46.0761 38.1297 46.0761 38.2579L45.4777 39.3836L44.4233 41.5066L43.8961 42.504L42.6422 44.8978L42.115 45.8952H38.5955L39.1227 44.8978L40.3766 42.504L40.9038 41.5066L41.9582 39.3836L42.7562 37.7877L45.2782 32.8861L46.2044 31.0908L49.3248 25.0493C49.795 24.1231 49.852 22.9263 49.3961 22.0001C48.9259 20.9457 47.9427 20.2047 46.8028 20.2047H24.0475L24.0618 20.219Z" fill="#0E1D42"/>
    <path fill-rule="evenodd" clip-rule="evenodd" d="M168.929 10.0451C168.929 11.8404 168.331 13.2225 167.205 14.2912C166.008 15.4168 164.284 15.944 162.104 15.944H158.584V25.0918H156.062V3.87535H162.033C164.284 3.87535 166.008 4.40255 167.205 5.5282C168.402 6.58261 169 8.12148 169 10.0451H168.929ZM81.8406 23.6384C79.9883 25.0348 77.5945 25.6902 74.6735 25.6902C71.496 25.6902 68.8315 24.6358 66.7797 22.4415C64.7849 20.3184 63.7305 17.6681 63.7305 14.4764C63.7305 11.2847 64.7849 8.70568 66.9079 6.51137C69.031 4.31706 71.6243 3.19141 74.7305 3.19141C77.5233 3.19141 79.9028 3.91809 81.8264 5.31447V8.29246C79.8316 6.49712 77.452 5.57095 74.7305 5.57095C72.5362 5.57095 70.5556 6.44012 68.8885 8.22122C67.2214 10.0023 66.3665 12.0684 66.3665 14.4622C66.3665 16.856 67.1644 19.036 68.689 20.7031C70.2849 22.4272 72.2655 23.2964 74.6593 23.2964C77.3095 23.2964 79.7033 22.4272 81.7551 20.6461V23.5671L81.8264 23.6384H81.8406ZM101.675 25.0918H99.1529V6.19789H88.0103V25.106H85.4171V3.87535H101.675V25.106V25.0918ZM116.736 25.0918H105.123V3.87535H116.736V6.12665H107.716V12.4246H116.08V14.6759H107.716V22.8404H116.736V25.0918ZM136.242 25.0918H132.994L123.447 14.2199V25.0918H120.925V3.87535H123.447V13.5645L132.865 3.87535H136.043L126.097 13.8922L136.314 25.0348L136.242 25.106V25.0918ZM153.227 6.18365H147.385V25.0918H144.792V6.19789H138.95V3.94659H153.141V6.19789H153.213L153.227 6.18365ZM166.222 9.95957C166.222 7.36629 164.697 6.1124 161.705 6.1124H158.527V13.8067H161.648C164.697 13.8067 166.222 12.5528 166.222 9.95957Z" fill="#0E1D42"/>
    <path d="M64.6568 43.103V35.8076H66.1387C67.2643 35.8076 68.162 36.0926 68.8317 36.6625C69.6581 37.3607 70.0714 38.2869 70.0714 39.4553C70.0714 40.6237 69.6439 41.5214 68.789 42.2481C68.4327 42.5473 68.0623 42.761 67.6633 42.8893C67.2643 43.0175 66.7514 43.0887 66.1245 43.0887H64.6426L64.6568 43.103ZM65.469 36.5771V42.3335H66.1814C67.0506 42.3335 67.7488 42.1198 68.2618 41.6781C68.9172 41.1224 69.2449 40.3815 69.2449 39.4553C69.2449 38.5861 68.96 37.8879 68.4042 37.3607C67.8485 36.8335 67.0934 36.5771 66.1814 36.5771H65.469Z" fill="#0E1D42"/>
    <path d="M76.4409 43.1022L75.586 41.0504H72.4797L71.6106 43.1022H70.7129L74.0614 35.4648L77.3243 43.1022H76.4266H76.4409ZM72.8075 40.2809H75.2725L74.0471 37.3599L72.8075 40.2809Z" fill="#0E1D42"/>
    <path d="M81.912 40.2096V39.4402H84.947V39.6112C84.947 40.5089 84.719 41.2783 84.2488 41.9195C83.5934 42.7887 82.6957 43.2304 81.5415 43.2304C80.4586 43.2304 79.561 42.8742 78.8485 42.1475C78.1361 41.4208 77.7656 40.5231 77.7656 39.4687C77.7656 38.4143 78.1218 37.5166 78.8485 36.7899C79.5752 36.0633 80.4729 35.707 81.57 35.707C82.425 35.707 83.1659 35.9493 83.7928 36.4337C84.1206 36.6759 84.3913 36.9752 84.6335 37.3029L84.0351 37.8443C83.8214 37.5451 83.5934 37.2886 83.3511 37.0892C82.8524 36.6759 82.254 36.4765 81.5843 36.4765C80.7151 36.4765 80.0027 36.7614 79.447 37.3456C78.8913 37.9156 78.6063 38.6423 78.6063 39.4972C78.6063 40.1241 78.763 40.6656 79.0623 41.1358C79.3615 41.606 79.7462 41.948 80.1879 42.1617C80.6296 42.3755 81.0856 42.4894 81.57 42.4894C82.0545 42.4894 82.482 42.3755 82.8809 42.1617C83.2799 41.9337 83.5791 41.6488 83.7928 41.2783C83.9781 40.9648 84.0778 40.6229 84.0921 40.2381H81.9263L81.912 40.2096Z" fill="#0E1D42"/>
    <path d="M85.4883 44.9547L91.1023 34.8096L91.7435 35.1373L86.1295 45.2682L85.5025 44.9689L85.4883 44.9547Z" fill="#0E1D42"/>
    <path d="M92.898 43.103V35.8076H94.3799C95.5056 35.8076 96.4032 36.0926 97.0729 36.6625C97.8994 37.3607 98.3126 38.2869 98.3126 39.4553C98.3126 40.6237 97.8851 41.5214 97.0302 42.2481C96.674 42.5473 96.3035 42.761 95.9045 42.8893C95.5056 43.0175 94.9926 43.0887 94.3657 43.0887H92.8838L92.898 43.103ZM93.7102 36.5771V42.3335H94.4227C95.2918 42.3335 95.99 42.1198 96.503 41.6781C97.1584 41.1224 97.4861 40.3815 97.4861 39.4553C97.4861 38.5861 97.2012 37.8879 96.6455 37.3607C96.0898 36.8335 95.3346 36.5771 94.4227 36.5771H93.7102Z" fill="#0E1D42"/>
    <path d="M105.379 36.4058V37.4175C105.094 37.1182 104.767 36.9045 104.425 36.7335C104.012 36.5483 103.598 36.4485 103.171 36.4485C102.33 36.4485 101.632 36.7478 101.076 37.332C100.521 37.9162 100.236 38.6429 100.236 39.4835C100.236 40.3954 100.535 41.1221 101.148 41.6636C101.76 42.1908 102.43 42.4615 103.171 42.4615C103.641 42.4615 104.083 42.3475 104.524 42.1196C104.824 41.9628 105.109 41.7633 105.365 41.5069V42.5185C104.71 42.9887 103.969 43.231 103.171 43.231C102.088 43.231 101.19 42.8747 100.478 42.148C99.7654 41.4214 99.4092 40.5379 99.4092 39.4835C99.4092 38.4291 99.7654 37.4887 100.492 36.7763C101.219 36.0496 102.131 35.6934 103.214 35.6934C104.012 35.6934 104.738 35.9356 105.365 36.42L105.379 36.4058Z" fill="#0E1D42"/>
    <path d="M111.735 43.1022L110.88 41.0504H107.774L106.905 43.1022H106.007L109.355 35.4648L112.618 43.1022H111.721H111.735ZM108.101 40.2809H110.566L109.341 37.3599L108.101 40.2809Z" fill="#0E1D42"/>
    <path d="M113.658 35.8076H114.983C115.81 35.8076 116.422 35.9786 116.821 36.3206C117.263 36.7053 117.491 37.2182 117.491 37.8879C117.491 38.4579 117.306 38.9423 116.921 39.3413C116.536 39.7403 115.967 39.9398 115.183 39.9398H114.47V43.103H113.658V35.8076ZM114.47 36.5771V39.1703H115.14C115.625 39.1703 115.995 39.0563 116.266 38.8141C116.536 38.5861 116.679 38.2584 116.679 37.8452C116.679 37.0045 116.137 36.5771 115.069 36.5771H114.47Z" fill="#0E1D42"/>
    <path d="M118.246 39.7966V38.9844H120.654V39.7966H118.246Z" fill="#0E1D42"/>
    <path d="M127.708 36.4058V37.4175C127.423 37.1182 127.095 36.9045 126.753 36.7335C126.34 36.5483 125.926 36.4485 125.499 36.4485C124.658 36.4485 123.96 36.7478 123.404 37.332C122.849 37.9162 122.564 38.6429 122.564 39.4835C122.564 40.3954 122.863 41.1221 123.476 41.6636C124.088 42.1908 124.758 42.4615 125.499 42.4615C125.969 42.4615 126.411 42.3475 126.853 42.1196C127.152 41.9628 127.437 41.7633 127.693 41.5069V42.5185C127.038 42.9887 126.297 43.231 125.499 43.231C124.416 43.231 123.518 42.8747 122.806 42.148C122.094 41.4214 121.737 40.5379 121.737 39.4835C121.737 38.4291 122.094 37.4887 122.82 36.7763C123.547 36.0496 124.459 35.6934 125.542 35.6934C126.34 35.6934 127.066 35.9356 127.693 36.42L127.708 36.4058Z" fill="#0E1D42"/>
    <path d="M134.262 43.1024V37.5454L129.189 43.4301V35.807H130.002V41.3925L135.074 35.5078V43.1024H134.262Z" fill="#0E1D42"/>
    <path d="M142.526 36.4058V37.4175C142.241 37.1182 141.913 36.9045 141.571 36.7335C141.158 36.5483 140.745 36.4485 140.317 36.4485C139.477 36.4485 138.778 36.7478 138.223 37.332C137.667 37.9162 137.382 38.6429 137.382 39.4835C137.382 40.3954 137.681 41.1221 138.294 41.6636C138.907 42.1908 139.576 42.4615 140.317 42.4615C140.788 42.4615 141.229 42.3475 141.671 42.1196C141.97 41.9628 142.255 41.7633 142.512 41.5069V42.5185C141.856 42.9887 141.115 43.231 140.317 43.231C139.234 43.231 138.337 42.8747 137.624 42.148C136.912 41.4214 136.556 40.5379 136.556 39.4835C136.556 38.4291 136.912 37.4887 137.639 36.7763C138.365 36.0496 139.277 35.6934 140.36 35.6934C141.158 35.6934 141.885 35.9356 142.512 36.42L142.526 36.4058Z" fill="#0E1D42"/>
    <path d="M147.57 36.5771H145.804V43.103H144.991V36.5771H143.225V35.8076H147.57V36.5771Z" fill="#0E1D42"/>
    <path d="M152.443 35.8076V36.5771H149.465V38.7429H152.357V39.5123H149.465V42.3478H152.443V43.1172H148.667V35.8219H152.443V35.8076Z" fill="#0E1D42"/>
    <path d="M154.509 43.1021H153.683L154.894 35.4078L157.687 41.5633L160.536 35.3936L161.676 43.1021H160.85L160.166 38.0296L157.687 43.4014L155.236 38.0296L154.509 43.1021Z" fill="#0E1D42"/>
    <path d="M168.017 43.1022L167.162 41.0504H164.056L163.187 43.1022H162.289L165.638 35.4648L168.9 43.1022H168.003H168.017ZM164.384 40.2809H166.849L165.623 37.3599L164.384 40.2809Z" fill="#0E1D42"/>
</svg>
