<svg width="196" height="35" viewBox="0 0 196 35" fill="none" xmlns="http://www.w3.org/2000/svg">
    <path fill-rule="evenodd" clip-rule="evenodd" d="M39.2621 29.3134V30.3823C38.911 29.9818 38.5106 29.8478 38.0727 29.8478C37.6977 29.8478 37.392 29.9811 37.145 30.248C36.9061 30.3815 36.7833 30.7822 36.7833 31.1827C36.7833 31.5831 36.9101 31.9838 37.1637 32.1173C37.4 32.3843 37.6977 32.5175 38.0514 32.5175C38.5359 32.5175 38.9364 32.3835 39.2567 31.983V33.052C38.9044 33.3189 38.4745 33.4521 37.982 33.4521C37.3106 33.4521 36.7726 33.1852 36.3815 32.7847C35.9824 32.3843 35.7835 31.8501 35.7835 31.1827C35.7835 30.5153 35.9971 29.9811 36.4216 29.5806C36.8487 29.1802 37.4 28.9132 38.1088 28.9132C38.5173 28.9132 38.9017 29.0464 39.2567 29.3134H39.2621Z" fill="white"/>
    <path fill-rule="evenodd" clip-rule="evenodd" d="M43.1908 29.0473H44.1692V31.4497L47.0445 28.6458V33.3177H46.0674V30.7823L43.1908 33.585V29.0473Z" fill="white"/>
    <path fill-rule="evenodd" clip-rule="evenodd" d="M54.5371 29.3134V30.3823C54.1847 29.9818 53.7869 29.8478 53.3477 29.8478C52.9726 29.8478 52.6656 29.9811 52.42 30.248C52.1744 30.3815 52.0596 30.7822 52.0596 31.1827C52.0596 31.5831 52.1851 31.9838 52.4387 32.1173C52.6763 32.3843 52.9726 32.5175 53.3237 32.5175C53.8096 32.5175 54.2127 32.3835 54.533 31.983V33.052C54.1793 33.3189 53.7495 33.4521 53.2569 33.4521C52.5842 33.4521 52.0489 33.1852 51.6578 32.7847C51.2574 32.3843 51.0585 31.8501 51.0585 31.1827C51.0585 30.5153 51.272 29.9811 51.6965 29.5806C52.109 29.1802 52.6763 28.9132 53.3838 28.9132C53.7922 28.9132 54.1753 29.0464 54.533 29.3134H54.5371Z" fill="white"/>
    <path fill-rule="evenodd" clip-rule="evenodd" d="M61.4667 29.9808H60.2346V33.3179H59.2562V29.9808H58.0281V29.0474H61.4667V29.9808Z" fill="white"/>
    <path fill-rule="evenodd" clip-rule="evenodd" d="M67.9959 31.8501L68.8141 32.2503C68.6326 32.6507 68.3963 32.9185 68.1067 33.052C67.7823 33.3189 67.3658 33.4521 66.8679 33.4521C66.2833 33.4521 65.8067 33.1847 65.4503 32.9177C65.0405 32.3838 64.8283 31.8501 64.8283 31.1827C64.8283 30.5153 65.0512 29.9811 65.4997 29.5806C65.8802 29.1802 66.3514 28.9132 66.908 28.9132C67.4673 28.9132 67.9064 29.1807 68.2562 29.4476C68.6499 29.8481 68.8475 30.5147 68.8475 31.3156V31.4499H65.8294C65.8575 31.7169 65.9763 31.9833 66.1912 32.2503C66.37 32.3838 66.621 32.5175 66.9414 32.5175C67.2003 32.5175 67.4219 32.3838 67.6074 32.2503C67.7649 32.2503 67.8918 31.9836 68.0012 31.8501H67.9959ZM65.8975 30.6482H67.8464C67.805 30.3812 67.7035 30.1143 67.5487 29.9808C67.3738 29.8473 67.1549 29.8478 66.8906 29.8478C66.6263 29.8478 66.3834 29.8481 66.2059 30.1151C66.059 30.2485 65.9576 30.3812 65.9029 30.6482H65.8975Z" fill="white"/>
    <path fill-rule="evenodd" clip-rule="evenodd" d="M72.3798 33.3178L73.3981 28.6464L75.1358 31.8502L76.8736 28.6464L77.8933 33.3178H76.8963L76.4759 31.1828L75.1358 33.585L73.7972 31.1828L73.3754 33.3178H72.3798Z" fill="white"/>
    <path fill-rule="evenodd" clip-rule="evenodd" d="M81.6446 33.3179V29.0474H82.6204V30.5152H83.1797C83.3572 30.5152 83.5054 30.5152 83.6175 30.5152C83.7336 30.5152 83.8671 30.6482 84.0259 30.6482C84.1861 30.7817 84.3223 30.7819 84.4464 30.9154C84.6667 31.1824 84.7761 31.5831 84.7761 31.8501C84.7761 32.2505 84.6493 32.6507 84.3957 32.9177C84.2822 33.0512 84.1474 33.0514 83.9926 33.1849C83.8377 33.1849 83.7082 33.1844 83.6068 33.3179C83.5013 33.3179 83.3572 33.3179 83.1703 33.3179H81.6446ZM82.6204 32.3845H83.0729C83.3078 32.3845 83.4773 32.3845 83.5814 32.3845C83.7296 32.251 83.8017 32.117 83.8017 31.8501C83.8017 31.7166 83.7336 31.5834 83.5921 31.4499C83.488 31.4499 83.3171 31.3156 83.0782 31.3156H82.6204V32.3845ZM85.2193 33.3179V29.0474H86.1977V33.3179H85.2193Z" fill="white"/>
    <path fill-rule="evenodd" clip-rule="evenodd" d="M96.3207 30.1151L95.6946 29.5806C95.8561 29.4471 96.0644 29.1804 96.3287 29.1804C96.609 29.0469 96.9374 28.9132 97.3165 28.9132C97.757 28.9132 98.1134 29.0469 98.387 29.1804C98.6793 29.4474 98.8248 29.7146 98.8248 30.1151C98.8248 30.382 98.7674 30.5147 98.6486 30.6482C98.5472 30.7817 98.4164 30.9154 98.2468 30.9154C98.5018 31.0489 98.7033 31.1821 98.8542 31.3156C99.0331 31.4491 99.1225 31.7161 99.1225 31.983C99.1225 32.3835 99.0037 32.6507 98.7674 32.9177C98.4457 33.1847 97.9545 33.4521 97.2858 33.4521C96.8373 33.4521 96.4728 33.3184 96.1872 33.1849C95.8922 32.918 95.6706 32.785 95.5291 32.3845L96.31 31.983C96.4074 32.25 96.5262 32.3845 96.6824 32.3845C96.8453 32.518 97.0562 32.6505 97.3084 32.6505C97.6141 32.6505 97.837 32.518 97.9799 32.3845C98.0813 32.2511 98.1307 32.1165 98.1307 31.983C98.1307 31.8496 98.092 31.7171 98.0052 31.7171C97.8891 31.5836 97.6555 31.4499 97.3044 31.4499H96.8639V30.6482H97.235C97.4499 30.6482 97.6115 30.6482 97.7156 30.6482C97.8357 30.5147 97.8931 30.3815 97.8931 30.248C97.8931 30.1145 97.8357 29.9813 97.7156 29.8478C97.6141 29.8478 97.458 29.7149 97.2457 29.7149C97.0428 29.7149 96.8599 29.8478 96.6958 29.8478C96.5516 29.9813 96.4301 29.9816 96.326 30.1151H96.3207Z" fill="white"/>
    <path fill-rule="evenodd" clip-rule="evenodd" d="M106.216 29.5806V29.0475H107.196V33.3179H106.216V32.7847C105.892 33.1852 105.471 33.4521 104.955 33.4521C104.338 33.4521 103.839 33.1852 103.474 32.7847C103.103 32.2508 102.919 31.7166 102.919 31.1827C102.919 30.5153 103.122 29.9811 103.514 29.5806C103.912 29.1802 104.394 28.9132 104.969 28.9132C105.494 28.9132 105.91 29.1802 106.216 29.5806ZM105.088 29.8478C104.74 29.8478 104.462 29.9811 104.241 30.248C104.028 30.515 103.916 30.7822 103.916 31.1827C103.916 31.5831 104.028 31.8503 104.241 32.1173C104.457 32.3843 104.74 32.5175 105.088 32.5175C105.435 32.5175 105.7 32.3843 105.928 32.1173C106.163 31.9838 106.278 31.5831 106.278 31.1827C106.278 30.7822 106.163 30.382 105.928 30.1151C105.7 29.9816 105.418 29.8478 105.088 29.8478Z" fill="white"/>
    <path fill-rule="evenodd" clip-rule="evenodd" d="M111.426 33.3178V29.0479H112.406V32.3846H113.804V29.0479H114.783V32.3846H116.181V29.0479H117.16V32.3846H117.859V34.5195H116.957V33.3178H111.426Z" fill="white"/>
    <path fill-rule="evenodd" clip-rule="evenodd" d="M121.554 29.0473H122.531V31.4497L125.409 28.6458V33.3177H124.432V30.7823L121.554 33.585V29.0473Z" fill="white"/>
    <path fill-rule="evenodd" clip-rule="evenodd" d="M132.539 29.9808H131.311V33.3179H130.331V29.9808H129.102V29.0474H132.539V29.9808Z" fill="white"/>
    <path fill-rule="evenodd" clip-rule="evenodd" d="M136.23 33.3179V29.0474H137.21V30.5152H137.768C137.948 30.5152 138.092 30.5152 138.208 30.5152C138.32 30.5152 138.452 30.6482 138.611 30.6482C138.774 30.7817 138.909 30.7819 139.034 30.9154C139.252 31.1824 139.363 31.5831 139.363 31.8501C139.363 32.2505 139.235 32.6507 138.985 32.9177C138.868 33.0512 138.735 33.0514 138.581 33.1849C138.426 33.1849 138.294 33.1844 138.192 33.3179C138.087 33.3179 137.948 33.3179 137.758 33.3179H136.23ZM137.21 32.3845H137.658C137.896 32.3845 138.064 32.3845 138.172 32.3845C138.316 32.251 138.388 32.117 138.388 31.8501C138.388 31.7166 138.32 31.5834 138.179 31.4499C138.075 31.4499 137.905 31.3156 137.668 31.3156H137.21V32.3845ZM139.807 33.3179V29.0474H140.784V33.3179H139.807Z" fill="white"/>
    <path fill-rule="evenodd" clip-rule="evenodd" d="M150.698 29.0479H153.852V32.3846H154.492V34.5195H153.593V33.3178H150.657V34.5195H149.756V32.3846C150.093 32.3846 150.351 32.1171 150.526 31.8502C150.638 31.5833 150.693 31.1823 150.693 30.6485V29.0479H150.698ZM152.873 32.3846V29.9811H151.635V31.0499C151.635 31.7173 151.471 32.1177 151.146 32.3846H152.873Z" fill="white"/>
    <path fill-rule="evenodd" clip-rule="evenodd" d="M161.262 29.5806V29.0475H162.24V33.3179H161.262V32.7847C160.936 33.1852 160.516 33.4521 159.998 33.4521C159.383 33.4521 158.885 33.1852 158.518 32.7847C158.153 32.2508 157.966 31.7166 157.966 31.1827C157.966 30.5153 158.165 29.9811 158.559 29.5806C158.958 29.1802 159.437 28.9132 160.013 28.9132C160.538 28.9132 160.955 29.1802 161.262 29.5806ZM160.133 29.8478C159.784 29.8478 159.507 29.9811 159.286 30.248C159.07 30.515 158.961 30.7822 158.961 31.1827C158.961 31.5831 159.07 31.8503 159.286 32.1173C159.5 32.3843 159.784 32.5175 160.133 32.5175C160.478 32.5175 160.745 32.3843 160.972 32.1173C161.207 31.9838 161.321 31.5831 161.321 31.1827C161.321 30.7822 161.207 30.382 160.972 30.1151C160.745 29.9816 160.461 29.8478 160.133 29.8478Z" fill="white"/>
    <path fill-rule="evenodd" clip-rule="evenodd" d="M166.476 33.3179V29.0474H167.454V30.6482H169.192V29.0474H170.169V33.3179H169.192V31.5828H167.454V33.3179H166.476Z" fill="white"/>
    <path fill-rule="evenodd" clip-rule="evenodd" d="M174.401 33.3179V29.0474H175.379V30.6482H177.116V29.0474H178.094V33.3179H177.116V31.5828H175.379V33.3179H174.401Z" fill="white"/>
    <path fill-rule="evenodd" clip-rule="evenodd" d="M182.326 33.3179V29.0474H183.304V30.5152H183.862C184.041 30.5152 184.185 30.5152 184.303 30.5152C184.416 30.5152 184.547 30.6482 184.707 30.6482C184.869 30.7817 185.006 30.7819 185.129 30.9154C185.348 31.1824 185.459 31.5831 185.459 31.8501C185.459 32.2505 185.329 32.6507 185.078 32.9177C184.965 33.0512 184.83 33.0514 184.677 33.1849C184.52 33.1849 184.388 33.1844 184.287 33.3179C184.183 33.3179 184.041 33.3179 183.853 33.3179H182.326ZM183.304 32.3845H183.753C183.99 32.3845 184.16 32.3845 184.264 32.3845C184.41 32.251 184.484 32.117 184.484 31.8501C184.484 31.7166 184.416 31.5834 184.272 31.4499C184.168 31.4499 183.998 31.3156 183.764 31.3156H183.304V32.3845ZM185.902 33.3179V29.0474H186.88V33.3179H185.902Z" fill="white"/>
    <path fill-rule="evenodd" clip-rule="evenodd" d="M190.554 33.3179L192.409 31.0497L190.909 29.0474H192.072L193.001 30.248L193.936 29.0474H195.139L193.588 31.0497L195.386 33.3179H194.206L193.001 31.7171L191.751 33.3179H190.554Z" fill="white"/>
    <path fill-rule="evenodd" clip-rule="evenodd" d="M50.837 14.9032V20.2408C49.4119 20.908 47.936 21.3081 46.4108 21.3081C43.1348 21.3081 40.5034 20.2416 38.5191 18.3734C36.4321 16.3718 35.3899 13.8362 35.3899 10.767C35.3899 7.69789 36.4321 5.16224 38.5191 3.16062C40.5034 1.29245 43.0054 0.224657 46.0212 0.224657C47.505 0.224657 49.109 0.625502 50.837 1.42615V6.7638C49.4893 5.29594 47.9267 4.62796 46.1386 4.62796C44.4932 4.62796 43.1322 5.16198 42.0446 6.22951C40.7782 7.43048 40.1484 8.89886 40.1484 10.767C40.1484 12.6352 40.7275 14.1023 41.8925 15.3033C43.0174 16.3708 44.4612 16.9048 46.2307 16.9048C47.8947 16.9048 49.4319 16.2376 50.837 14.9032Z" fill="white"/>
    <path fill-rule="evenodd" clip-rule="evenodd" d="M59.54 20.7754V11.4345L52.3462 0.759212H57.8266L61.8632 6.89699L65.8931 0.759212H71.3736L64.1758 11.4345V20.7754H59.54Z" fill="white"/>
    <path fill-rule="evenodd" clip-rule="evenodd" d="M73.5714 0.759212H79.7204C82.0476 0.759212 83.7556 1.29246 84.8392 2.22655C85.8026 3.16063 86.283 4.49557 86.283 6.09686C86.283 7.03095 86.0642 7.96426 85.6211 8.63146C85.2182 9.29867 84.6564 9.83321 83.9345 10.1001C85.058 10.2335 85.9828 10.7673 86.7034 11.4345C87.5681 12.3686 87.9977 13.5698 87.9977 15.0377C87.9977 16.639 87.4773 18.1068 86.4338 19.0409C85.2462 20.2419 83.4834 20.7754 81.1308 20.7754H73.5714V0.759212ZM78.1524 4.36238V8.8986H78.9077C79.9486 8.8986 80.7305 8.6325 81.2536 8.36562C81.7927 7.9653 82.0689 7.29757 82.0689 6.49692C82.0689 5.82972 81.8074 5.29569 81.2843 4.89537C80.84 4.49504 80.0393 4.36238 78.8744 4.36238H78.1524ZM78.1524 12.3689V17.1722H79.268C80.9721 17.1722 82.1183 16.9059 82.7001 16.3721C83.1431 15.9718 83.3647 15.437 83.3647 14.6363C83.3647 13.9691 83.1525 13.4364 82.7321 13.0361C82.193 12.6357 81.0868 12.3689 79.4175 12.3689H78.1524Z" fill="white"/>
    <path fill-rule="evenodd" clip-rule="evenodd" d="M102.815 0.759212V4.62823H96.1003V8.49854H102.485V12.5018H96.1003V16.9051H102.815V20.7754H91.4619V0.759212H102.815Z" fill="white"/>
    <path fill-rule="evenodd" clip-rule="evenodd" d="M106.582 0.759212H113.629C115.796 0.759212 117.5 1.29272 118.747 2.49369C119.914 3.56122 120.493 5.02881 120.493 6.89699C120.493 8.63172 119.974 9.96692 118.927 11.0344C118.121 11.8351 117.189 12.3678 116.13 12.6347L122.299 20.7754H116.638L111.216 12.9018V20.7754H106.582V0.759212ZM111.216 4.36238V9.83295H112.271C113.538 9.83295 114.462 9.56659 115.042 9.03283C115.544 8.49906 115.796 7.83186 115.796 7.03121C115.796 6.09712 115.484 5.42991 114.865 5.02959C114.3 4.49583 113.452 4.36238 112.305 4.36238H111.22H111.216Z" fill="white"/>
    <path fill-rule="evenodd" clip-rule="evenodd" d="M124.859 0.759212H131.936C134.207 0.759212 135.962 1.29324 137.204 2.36077C138.512 3.56174 139.162 5.16199 139.162 7.29705C139.162 9.16523 138.589 10.7665 137.446 11.9675C136.282 13.1685 134.578 13.7033 132.324 13.7033H129.495V20.7754H124.855V0.759212H124.859ZM129.498 4.49531V9.96587H131.154C132.296 9.96587 133.134 9.69951 133.653 9.16575C134.156 8.76542 134.409 8.09822 134.409 7.16413C134.409 6.36348 134.156 5.69576 133.653 5.29543C133.134 4.76167 132.271 4.49531 131.062 4.49531H129.498Z" fill="white"/>
    <path fill-rule="evenodd" clip-rule="evenodd" d="M153.44 0.759212V4.62823H146.726V8.49854H153.11V12.5018H146.726V16.9051H153.44V20.7754H142.085V0.759212H153.44Z" fill="white"/>
    <path fill-rule="evenodd" clip-rule="evenodd" d="M170.516 20.7754L169.006 17.0393H161.416L159.878 20.7754H155.061L163.166 0.759212H167.411L175.334 20.7754H170.516ZM162.778 13.4361H167.746L165.277 6.76407L162.781 13.4361H162.778Z" fill="white"/>
    <path fill-rule="evenodd" clip-rule="evenodd" d="M182.231 0.759212V9.16575L189.095 0.759212H194.759L186.627 10.233L195.391 20.7754H189.424L182.231 11.9675V20.7754H177.59V0.759212H182.231Z" fill="white"/>
    <path fill-rule="evenodd" clip-rule="evenodd" d="M0.210754 0.358915V17.0391L6.11286 11.1671L13.8845 3.4278L21.6494 11.1671L24.9321 7.96402L27.5595 10.4999V0.358915H0.210754Z" fill="#E62752"/>
    <path fill-rule="evenodd" clip-rule="evenodd" d="M23.3203 12.9017L13.8847 22.2426L6.1131 14.5033L0.698059 19.9739L13.8847 33.1851L27.5598 19.4409V13.8361L24.9323 11.3002L23.3203 12.9017Z" fill="white"/>
</svg>
