<svg width="51" height="39" viewBox="0 0 51 39" fill="none" xmlns="http://www.w3.org/2000/svg">
    <path d="M30.5732 21.6925C29.1333 23.0213 27.325 23.6857 25.4833 23.6857C23.6415 23.6857 21.8332 23.0213 20.3933 21.6925L0.937624 3.48808C0.368353 4.48467 0 5.61414 0 6.87649V32.1235C0 35.9106 3.11425 39 6.93171 39H44.0683C47.8858 39 51 35.9106 51 32.1235V6.87649C51 5.64736 50.6317 4.48467 50.0624 3.48808L30.6067 21.6925H30.5732Z" fill="white"/>
    <path d="M23.0387 18.9353C24.4117 20.2308 26.5548 20.2308 27.9278 18.9353L47.283 0.830494C46.3119 0.332198 45.2403 0 44.0348 0H6.89823C5.7262 0 4.62114 0.332198 3.65003 0.830494L23.0053 18.9353H23.0387Z" fill="white"/>
</svg>
