<svg width="320" height="271" viewBox="0 0 320 271" fill="none" xmlns="http://www.w3.org/2000/svg">
    <g opacity="0.2">
        <path fill-rule="evenodd" clip-rule="evenodd" d="M373.373 202.636L390 212.184L373.373 202.636ZM207.124 336.984L390 231.431L207.124 336.984ZM390 193.012V212.184V193.012Z" stroke="white" stroke-width="0.828" stroke-miterlimit="10"/>
        <path fill-rule="evenodd" clip-rule="evenodd" d="M306.871 221.807L340.118 202.636L306.871 221.807ZM323.506 250.601L207.124 317.813L323.506 250.601ZM306.871 240.978L256.996 269.772L306.871 240.978ZM323.498 250.601L306.871 240.978L323.498 250.601Z" stroke="white" stroke-width="0.828" stroke-miterlimit="10"/>
        <path fill-rule="evenodd" clip-rule="evenodd" d="M273.624 183.389L323.506 154.595L273.624 183.389ZM323.506 135.424L306.871 145.048L323.506 135.424Z" stroke="white" stroke-width="0.828" stroke-miterlimit="10"/>
        <path fill-rule="evenodd" clip-rule="evenodd" d="M323.506 231.431L356.753 212.183L323.506 231.431ZM290.251 154.595L273.624 164.219L290.251 154.595ZM273.624 164.219V183.389V164.219ZM273.624 183.389L290.251 193.012L273.624 183.389ZM290.251 193.012L340.126 164.219L290.251 193.012Z" stroke="white" stroke-width="0.828" stroke-miterlimit="10"/>
        <path fill-rule="evenodd" clip-rule="evenodd" d="M306.871 221.807L323.506 231.431L306.871 221.807ZM290.251 193.012V212.183V193.012ZM273.624 183.389V202.636V183.389ZM273.624 202.636L290.251 212.183L273.624 202.636Z" stroke="white" stroke-width="0.828" stroke-miterlimit="10"/>
        <path fill-rule="evenodd" clip-rule="evenodd" d="M306.871 125.8L323.506 135.424L306.871 125.8ZM356.753 173.842L390 193.012L356.753 173.842ZM340.118 164.219V145.047V164.219ZM306.871 106.63L323.506 116.253L306.871 106.63ZM323.506 116.253V135.424V116.253ZM323.506 135.424L340.126 145.047L323.506 135.424Z" stroke="white" stroke-width="0.828" stroke-miterlimit="10"/>
        <path fill-rule="evenodd" clip-rule="evenodd" d="M323.491 116.253L306.863 125.8L323.491 116.253ZM273.624 164.219L256.996 154.595L273.624 164.219ZM256.996 154.595V173.842V154.595ZM256.996 173.842L273.624 183.389L256.996 173.842ZM273.624 145.048L256.996 154.595L273.624 145.048ZM290.251 154.595L273.616 145.048L290.251 154.595ZM356.745 173.842L340.118 183.389L356.745 173.842ZM340.118 145.048L323.491 154.595L340.118 145.048Z" stroke="white" stroke-width="0.828" stroke-miterlimit="10"/>
        <path fill-rule="evenodd" clip-rule="evenodd" d="M323.506 231.431V250.601V231.431ZM306.871 240.978V221.807V240.978Z" stroke="white" stroke-width="0.828" stroke-miterlimit="10"/>
        <path fill-rule="evenodd" clip-rule="evenodd" d="M306.871 68.2122V106.63V68.2122ZM290.251 58.6651L306.871 68.2122L290.251 58.6651Z" stroke="white" stroke-width="0.828" stroke-miterlimit="10"/>
        <path fill-rule="evenodd" clip-rule="evenodd" d="M290.251 116.177L306.871 106.63L290.251 116.177ZM306.871 68.212L273.624 87.4592L306.871 68.212ZM273.624 106.63L290.251 97.0064L273.624 106.63Z" stroke="white" stroke-width="0.828" stroke-miterlimit="10"/>
        <path fill-rule="evenodd" clip-rule="evenodd" d="M273.616 125.8V106.63V125.8ZM306.871 106.63L290.251 97.0066L306.871 106.63Z" stroke="white" stroke-width="0.828" stroke-miterlimit="10"/>
        <path fill-rule="evenodd" clip-rule="evenodd" d="M256.996 116.253V154.595V116.253ZM273.624 106.63L256.996 116.253L273.624 106.63Z" stroke="white" stroke-width="0.828" stroke-miterlimit="10"/>
        <path d="M257.004 97.0066L273.623 106.63" stroke="white" stroke-width="0.828" stroke-miterlimit="10"/>
        <path fill-rule="evenodd" clip-rule="evenodd" d="M257.004 97.0064L240.377 106.63L257.004 97.0064ZM257.004 116.253L240.377 106.63L257.004 116.253Z" stroke="white" stroke-width="0.828" stroke-miterlimit="10"/>
        <path d="M273.624 68.2122V29.8706" stroke="white" stroke-width="0.828" stroke-miterlimit="10"/>
        <path d="M273.623 29.8706L257.004 39.4177" stroke="white" stroke-width="0.828" stroke-miterlimit="10"/>
        <path d="M257.004 20.2474L273.623 29.8706" stroke="white" stroke-width="0.828" stroke-miterlimit="10"/>
        <path fill-rule="evenodd" clip-rule="evenodd" d="M190.505 77.8355L223.757 97.0066L190.505 77.8355ZM223.757 39.4178V77.8355V39.4178ZM223.757 77.8355L257.004 58.6651L223.757 77.8355ZM223.757 97.0066V116.253V97.0066ZM223.757 116.253L240.377 125.8L223.757 116.253ZM223.757 77.8355L240.377 87.4595L223.757 77.8355ZM240.377 87.4595L273.631 68.2122L240.377 87.4595ZM240.377 87.4595V106.63V87.4595Z" stroke="white" stroke-width="0.828" stroke-miterlimit="10"/>
        <path fill-rule="evenodd" clip-rule="evenodd" d="M223.75 20.2474L207.121 29.8707L223.75 20.2474ZM273.624 87.4595V68.2122V87.4595ZM256.997 58.6651L273.624 68.2122L256.997 58.6651Z" stroke="white" stroke-width="0.828" stroke-miterlimit="10"/>
        <path fill-rule="evenodd" clip-rule="evenodd" d="M223.757 39.4177L257.004 20.2473L223.757 39.4177ZM207.124 29.8706L223.757 39.4177L207.124 29.8706Z" stroke="white" stroke-width="0.828" stroke-miterlimit="10"/>
        <path d="M257.004 20.2476L223.757 1.00033" stroke="white" stroke-width="0.828" stroke-miterlimit="10"/>
        <path fill-rule="evenodd" clip-rule="evenodd" d="M290.251 135.424L306.871 125.8L290.251 135.424ZM273.624 125.8L290.251 135.424L273.624 125.8Z" stroke="white" stroke-width="0.828" stroke-miterlimit="10"/>
        <path fill-rule="evenodd" clip-rule="evenodd" d="M207.121 49.0411V29.8707V49.0411ZM306.871 125.8L290.251 116.253L306.871 125.8ZM273.616 68.2122L290.251 58.5882L273.616 68.2122ZM256.997 20.2474V39.4178V20.2474Z" stroke="white" stroke-width="0.828" stroke-miterlimit="10"/>
        <path fill-rule="evenodd" clip-rule="evenodd" d="M173.881 317.813L-9 212.184L173.881 317.813ZM240.377 260.225L223.749 269.772L240.377 260.225ZM256.996 269.772L240.369 260.225L256.996 269.772ZM256.996 231.431V212.184V231.431ZM256.996 212.184L240.369 221.807L256.996 212.184ZM240.369 221.807V240.978V221.807ZM240.369 240.978L256.996 231.431L240.369 240.978ZM273.624 221.807L256.996 212.184L273.624 221.807ZM256.996 231.431L273.624 240.978L256.996 231.431ZM273.624 240.978V221.807V240.978ZM240.377 240.978L257.004 250.601L240.377 240.978ZM257.004 250.601L273.631 240.978L257.004 250.601ZM207.13 317.813V336.984V317.813Z" stroke="white" stroke-width="0.828" stroke-miterlimit="10"/>
        <path d="M-9 231.431L173.876 336.984" stroke="white" stroke-width="0.828" stroke-miterlimit="10"/>
        <path fill-rule="evenodd" clip-rule="evenodd" d="M207.121 125.8V106.63V125.8ZM190.501 250.601L157.245 269.771L190.501 250.601ZM223.749 269.771L190.501 250.601L223.749 269.771ZM240.377 221.807L207.124 202.636L240.377 221.807ZM207.124 202.636V221.807V202.636ZM207.124 221.807L240.377 240.978L207.124 221.807ZM223.749 193.012L207.121 202.636L223.749 193.012ZM256.996 212.183L223.749 193.012L256.996 212.183ZM240.377 164.219L223.749 154.595L240.377 164.219ZM240.377 183.389V164.219V183.389ZM207.124 164.219V145.047V164.219ZM207.124 145.047L190.501 154.595L207.124 145.047ZM190.501 154.595V173.842V154.595ZM190.501 173.842L207.124 164.219L190.501 173.842ZM190.501 154.595L157.245 135.424L190.501 154.595ZM157.245 154.595L190.501 173.842L157.245 154.595ZM207.124 145.047L173.876 125.8L207.124 145.047ZM173.876 221.807V202.636V221.807ZM173.876 202.636L140.626 221.807L173.876 202.636ZM140.626 240.978L173.876 221.807L140.626 240.978ZM157.245 193.012L140.621 202.636L157.245 193.012ZM173.87 202.636L157.24 193.012L173.87 202.636ZM207.121 164.219L223.749 173.842L207.121 164.219ZM190.501 173.842L207.124 183.389L190.501 173.842ZM207.124 183.389L223.757 173.842L207.124 183.389ZM190.505 212.183L173.876 202.636L190.505 212.183ZM173.876 221.807L190.505 231.431L173.876 221.807ZM190.505 231.431V212.183V231.431ZM157.251 250.601L190.505 231.431L157.251 250.601ZM207.13 202.636L190.505 212.183L207.13 202.636ZM190.505 231.431L207.13 221.807L190.505 231.431ZM190.505 231.431L223.757 250.601L190.505 231.431ZM157.251 173.842L173.881 183.389L157.251 173.842ZM173.881 183.389L190.51 173.842L173.881 183.389ZM223.757 193.012V173.842V193.012ZM207.13 183.389V202.636V183.389ZM157.251 193.012V173.842V193.012ZM157.251 173.842L140.626 183.389L157.251 173.842ZM140.626 183.389V202.636V183.389ZM173.876 202.636V183.389V202.636ZM190.505 193.012V173.842V193.012ZM173.876 202.636L190.505 193.012L173.876 202.636ZM190.505 193.012L207.13 202.636L190.505 193.012ZM140.63 260.224L124.003 269.771L140.63 260.224ZM157.251 269.771L140.626 260.224L157.251 269.771ZM123.997 269.771L24.2434 212.183L123.997 269.771ZM140.621 221.807L107.372 202.636L140.621 221.807ZM107.372 221.807L140.621 240.978L107.372 221.807ZM140.621 240.978V221.807V240.978ZM90.7421 231.431L123.992 250.601L90.7421 231.431ZM123.992 250.601L140.621 240.978L123.992 250.601ZM256.996 193.012L240.369 183.389L256.996 193.012ZM256.996 212.183V193.012V212.183ZM223.749 250.601L240.377 240.978L223.749 250.601ZM140.626 240.978L157.251 250.601L140.626 240.978ZM257.004 250.601V269.771V250.601ZM240.377 240.978V260.224V240.978ZM223.749 250.601V269.771V250.601ZM190.501 250.601V231.431V250.601ZM140.621 260.224V240.978V260.224ZM123.992 250.601V269.771V250.601ZM157.24 269.771V250.601V269.771ZM207.121 106.63L173.87 87.4594L207.121 106.63Z" stroke="white" stroke-width="0.828" stroke-miterlimit="10"/>
        <path fill-rule="evenodd" clip-rule="evenodd" d="M124 116.253V97.0065V116.253ZM-9 193.012L24.2494 173.842L-9 193.012ZM124 97.0065L140.63 87.4593L124 97.0065Z" stroke="white" stroke-width="0.828" stroke-miterlimit="10"/>
        <path d="M123.997 97.0066L140.626 106.63" stroke="white" stroke-width="0.828" stroke-miterlimit="10"/>
        <path fill-rule="evenodd" clip-rule="evenodd" d="M173.87 68.2122L190.501 58.6651L173.87 68.2122ZM207.124 29.8707L190.501 39.4178L207.124 29.8707ZM173.87 87.4595V68.2122V87.4595Z" stroke="white" stroke-width="0.828" stroke-miterlimit="10"/>
        <path d="M190.501 77.8354L173.876 68.2122" stroke="white" stroke-width="0.828" stroke-miterlimit="10"/>
        <path fill-rule="evenodd" clip-rule="evenodd" d="M207.123 10.6234L223.757 1.00016L207.123 10.6234ZM190.5 39.4178V58.665V39.4178ZM207.123 29.8706V10.6234V29.8706Z" stroke="white" stroke-width="0.828" stroke-miterlimit="10"/>
        <path d="M140.626 145.047L123.997 135.424" stroke="white" stroke-width="0.828" stroke-miterlimit="10"/>
        <path d="M123.997 135.424V154.595" stroke="white" stroke-width="0.828" stroke-miterlimit="10"/>
        <path fill-rule="evenodd" clip-rule="evenodd" d="M90.7482 154.595L140.626 183.389L90.7482 154.595ZM123.997 154.595L140.626 164.219L123.997 154.595ZM140.626 164.219V145.048V164.219Z" stroke="white" stroke-width="0.828" stroke-miterlimit="10"/>
        <path fill-rule="evenodd" clip-rule="evenodd" d="M140.625 125.8L123.996 135.424L140.625 125.8ZM107.378 125.8L57.4971 154.595L107.378 125.8Z" stroke="white" stroke-width="0.828" stroke-miterlimit="10"/>
        <path fill-rule="evenodd" clip-rule="evenodd" d="M140.621 164.219L157.245 154.595L140.621 164.219ZM157.245 154.595V135.424V154.595ZM157.245 135.424L140.621 145.048L157.245 135.424Z" stroke="white" stroke-width="0.828" stroke-miterlimit="10"/>
        <path d="M123.997 135.424L107.378 125.8" stroke="white" stroke-width="0.828" stroke-miterlimit="10"/>
        <path fill-rule="evenodd" clip-rule="evenodd" d="M140.626 125.8L123.997 116.253L140.626 125.8ZM90.7482 173.842L140.626 202.636L90.7482 173.842Z" stroke="white" stroke-width="0.828" stroke-miterlimit="10"/>
        <path d="M123.997 116.253V135.424" stroke="white" stroke-width="0.828" stroke-miterlimit="10"/>
        <path fill-rule="evenodd" clip-rule="evenodd" d="M90.7482 231.431L107.378 221.807L90.7482 231.431ZM90.7482 154.595V173.842V154.595ZM107.378 221.807V202.636V221.807ZM107.378 202.636L90.7482 212.183L107.378 202.636ZM90.7482 212.183V231.431V212.183Z" stroke="white" stroke-width="0.828" stroke-miterlimit="10"/>
        <path fill-rule="evenodd" clip-rule="evenodd" d="M74.1222 202.636L90.748 193.012L74.1222 202.636ZM74.1222 221.807V202.636V221.807Z" stroke="white" stroke-width="0.828" stroke-miterlimit="10"/>
        <path fill-rule="evenodd" clip-rule="evenodd" d="M57.4941 212.184L74.1222 202.636L57.4941 212.184ZM90.7481 212.184L74.1222 202.636L90.7481 212.184ZM74.1222 202.636V183.389V202.636ZM74.1222 183.389L57.4941 193.012L74.1222 183.389ZM57.4941 193.012V212.184V193.012Z" stroke="white" stroke-width="0.828" stroke-miterlimit="10"/>
        <path fill-rule="evenodd" clip-rule="evenodd" d="M40.8738 183.389L57.4973 173.842L40.8738 183.389ZM40.8738 202.636V183.389V202.636Z" stroke="white" stroke-width="0.828" stroke-miterlimit="10"/>
        <path fill-rule="evenodd" clip-rule="evenodd" d="M74.1162 164.219L57.4881 154.595L74.1162 164.219ZM57.4973 193.012L40.8738 183.389L57.4973 193.012ZM74.1223 183.389L57.4942 173.842L74.1223 183.389ZM90.742 193.012L74.1162 183.389L90.742 193.012ZM57.4881 212.183L74.1162 221.807L57.4881 212.183Z" stroke="white" stroke-width="0.828" stroke-miterlimit="10"/>
        <path d="M57.4971 154.595V173.842" stroke="white" stroke-width="0.828" stroke-miterlimit="10"/>
        <path d="M74.1222 183.389V164.219" stroke="white" stroke-width="0.828" stroke-miterlimit="10"/>
        <path fill-rule="evenodd" clip-rule="evenodd" d="M-9 212.183V193.012V212.183ZM40.8736 164.219L57.4972 154.595L40.8736 164.219ZM-9 212.183V231.431V212.183Z" stroke="white" stroke-width="0.828" stroke-miterlimit="10"/>
        <path d="M7.61892 202.636L-9 193.012" stroke="white" stroke-width="0.828" stroke-miterlimit="10"/>
        <path d="M-9 212.184L7.61892 202.636" stroke="white" stroke-width="0.828" stroke-miterlimit="10"/>
        <path d="M57.4973 173.842L40.8738 164.219" stroke="white" stroke-width="0.828" stroke-miterlimit="10"/>
        <path fill-rule="evenodd" clip-rule="evenodd" d="M40.8738 183.389L24.2434 193.012L40.8738 183.389ZM40.8738 164.219V183.389V164.219Z" stroke="white" stroke-width="0.828" stroke-miterlimit="10"/>
        <path fill-rule="evenodd" clip-rule="evenodd" d="M24.2549 173.842L40.8838 183.389L24.2549 173.842ZM24.2496 193.012L40.88 202.636L24.2496 193.012ZM74.1278 164.219L90.7521 154.595L74.1278 164.219ZM74.1278 183.389L90.7521 173.842L74.1278 183.389Z" stroke="white" stroke-width="0.828" stroke-miterlimit="10"/>
        <path fill-rule="evenodd" clip-rule="evenodd" d="M24.2496 173.842V193.012V173.842ZM24.2496 212.184V193.012V212.184Z" stroke="white" stroke-width="0.828" stroke-miterlimit="10"/>
        <path fill-rule="evenodd" clip-rule="evenodd" d="M173.864 106.63L157.234 116.253L173.864 106.63ZM207.123 49.041L190.501 39.4177L207.123 49.041ZM207.123 10.6234L223.757 20.2473L207.123 10.6234ZM290.251 212.183L273.623 221.807L290.251 212.183ZM273.623 202.636L256.996 212.183L273.623 202.636ZM273.623 183.389L256.996 193.012L273.623 183.389ZM256.996 154.595L240.369 164.219L256.996 154.595ZM240.369 183.389L256.996 173.842L240.369 183.389ZM240.369 145.047L223.741 154.595L240.369 145.047ZM256.996 154.595L240.361 145.047L256.996 154.595Z" stroke="white" stroke-width="0.828" stroke-miterlimit="10"/>
        <path fill-rule="evenodd" clip-rule="evenodd" d="M107.372 125.8L123.997 116.253L107.372 125.8ZM140.626 106.63L123.997 116.253L140.626 106.63Z" stroke="white" stroke-width="0.828" stroke-miterlimit="10"/>
        <path fill-rule="evenodd" clip-rule="evenodd" d="M223.757 135.424L240.377 125.8L223.757 135.424ZM223.757 97.0067L207.124 106.63L223.757 97.0067ZM207.124 125.8L223.757 116.253L207.124 125.8ZM207.124 125.8L223.757 135.424L207.124 125.8Z" stroke="white" stroke-width="0.828" stroke-miterlimit="10"/>
        <path d="M173.876 87.4595L190.501 77.8355" stroke="white" stroke-width="0.828" stroke-miterlimit="10"/>
        <path fill-rule="evenodd" clip-rule="evenodd" d="M157.251 97.0066L173.881 87.4594L157.251 97.0066ZM140.625 87.4594L157.251 97.0066L140.625 87.4594Z" stroke="white" stroke-width="0.828" stroke-miterlimit="10"/>
        <path d="M306.871 145.047V125.8" stroke="white" stroke-width="0.828" stroke-miterlimit="10"/>
        <path d="M290.251 135.424V154.595" stroke="white" stroke-width="0.828" stroke-miterlimit="10"/>
        <path d="M306.871 125.8V106.63" stroke="white" stroke-width="0.828" stroke-miterlimit="10"/>
        <path fill-rule="evenodd" clip-rule="evenodd" d="M223.75 154.595V135.424V154.595ZM273.624 145.048V125.8V145.048ZM240.377 125.8V145.048V125.8Z" stroke="white" stroke-width="0.828" stroke-miterlimit="10"/>
        <path d="M173.876 87.4595V106.63" stroke="white" stroke-width="0.828" stroke-miterlimit="10"/>
        <path d="M157.244 116.253V97.0064" stroke="white" stroke-width="0.828" stroke-miterlimit="10"/>
        <path fill-rule="evenodd" clip-rule="evenodd" d="M356.753 173.842V212.184V173.842ZM40.8738 164.219L24.2434 173.842L40.8738 164.219ZM190.501 77.8356V58.6652V77.8356ZM140.621 125.8L157.245 116.253L140.621 125.8ZM140.621 87.4596V106.63V87.4596ZM140.621 106.63V125.8V106.63ZM173.87 106.63V125.8V106.63ZM173.87 68.2123L140.621 87.3827L173.87 68.2123Z" stroke="white" stroke-width="0.828" stroke-miterlimit="10"/>
    </g>
</svg>
