<svg width="28" height="34" viewBox="0 0 28 34" fill="none" xmlns="http://www.w3.org/2000/svg">
    <path d="M0 32.3C0 32.7509 0.184375 33.1833 0.512563 33.5021C0.840751 33.8209 1.28587 34 1.75 34H26.25C26.7141 34 27.1592 33.8209 27.4874 33.5021C27.8156 33.1833 28 32.7509 28 32.3V8.50002C28.0013 8.27629 27.9572 8.0545 27.8701 7.84738C27.783 7.64026 27.6547 7.45187 27.4925 7.29302L20.4925 0.493028C20.329 0.33547 20.135 0.210817 19.9218 0.126217C19.7086 0.0416175 19.4803 -0.0012651 19.25 2.84143e-05H1.75C1.28587 2.84143e-05 0.840751 0.179135 0.512563 0.497946C0.184375 0.816758 0 1.24916 0 1.70003V32.3ZM3.5 3.40003H18.5325L24.5 9.19702V30.6H3.5V3.40003Z" fill="#E62752"/>
    <path d="M18.62 19.771C19.3368 18.2397 19.4532 16.5067 18.9474 14.8978C18.4415 13.289 17.3482 11.915 15.8729 11.034C14.3976 10.1531 12.642 9.82589 10.9358 10.1139C9.22966 10.4019 7.69054 11.2854 6.60768 12.5981C5.52483 13.9109 4.97281 15.5627 5.05537 17.243C5.13792 18.9234 5.84937 20.5165 7.056 21.7232C8.26263 22.9298 9.88137 23.6668 11.608 23.7957C13.3346 23.9246 15.0503 23.4364 16.4325 22.423L19.9325 25.126C20.1107 25.2739 20.3178 25.3855 20.5413 25.4541C20.7648 25.5228 21.0002 25.5471 21.2336 25.5257C21.467 25.5042 21.6935 25.4375 21.8998 25.3293C22.1061 25.2212 22.288 25.0739 22.4345 24.8962C22.5811 24.7185 22.6894 24.514 22.7531 24.2949C22.8168 24.0757 22.8344 23.8463 22.8051 23.6204C22.7758 23.3945 22.7 23.1766 22.5823 22.9797C22.4646 22.7827 22.3074 22.6108 22.12 22.474L18.62 19.771ZM12.25 20.4C11.5578 20.4 10.8811 20.2006 10.3055 19.827C9.72992 19.4534 9.28132 18.9224 9.01641 18.3011C8.7515 17.6799 8.68219 16.9962 8.81724 16.3367C8.95229 15.6772 9.28563 15.0714 9.77512 14.5959C10.2646 14.1204 10.8882 13.7965 11.5672 13.6653C12.2461 13.5342 12.9498 13.6015 13.5894 13.8588C14.2289 14.1162 14.7755 14.5519 15.1601 15.1111C15.5447 15.6702 15.75 16.3276 15.75 17C15.75 17.9017 15.3812 18.7666 14.7249 19.4042C14.0685 20.0418 13.1782 20.4 12.25 20.4Z" fill="#E62752"/>
</svg>
