<svg width="38" height="34" viewBox="0 0 38 34" fill="none" xmlns="http://www.w3.org/2000/svg">
    <path d="M31.1958 7.93309C30.0345 5.28541 28.0302 3.08857 25.4902 1.6792C22.9502 0.269838 20.0145 -0.274304 17.133 0.130161C14.2514 0.534625 11.5831 1.86538 9.53672 3.91852C7.49037 5.97165 6.17895 8.63389 5.8034 11.4973C4.21109 11.8821 2.78673 12.7671 1.74262 14.0205C0.698507 15.2739 0.0905427 16.8285 0.00934132 18.4526C-0.0718601 20.0767 0.378049 21.6833 1.29201 23.0331C2.20598 24.3828 3.53506 25.4034 5.08117 25.9427C5.27829 26.0029 5.48312 26.0347 5.68937 26.0369C6.19344 26.117 6.70891 25.995 7.12238 25.698C7.53585 25.4009 7.81344 24.953 7.89409 24.4529C7.97474 23.9527 7.85185 23.4413 7.55244 23.031C7.25304 22.6208 6.80164 22.3453 6.29757 22.2653C5.58086 22.0086 4.95845 21.5441 4.51108 20.9321C4.06372 20.3201 3.81205 19.5888 3.78874 18.8331C3.78874 17.8328 4.18923 16.8735 4.9021 16.1662C5.61497 15.4589 6.58184 15.0615 7.58999 15.0615C8.09407 15.0615 8.5775 14.8628 8.93394 14.5091C9.29037 14.1555 9.49062 13.6758 9.49062 13.1757C9.49547 10.9453 10.297 8.78879 11.7529 7.08935C13.2087 5.3899 15.2246 4.25754 17.4424 3.89343C19.6601 3.52932 21.9362 3.95705 23.8661 5.10061C25.7961 6.24417 27.255 8.02953 27.9837 10.1395C28.0923 10.4636 28.2876 10.7523 28.5487 10.9748C28.8098 11.1973 29.1269 11.3453 29.4662 11.403C30.6091 11.6083 31.6616 12.1549 32.4828 12.9699C33.3041 13.7849 33.8549 14.8292 34.0615 15.9633C34.2682 17.0973 34.1209 18.267 33.6394 19.3157C33.1578 20.3644 32.3649 21.2422 31.3668 21.8316C30.9283 22.0816 30.6078 22.4943 30.4759 22.9789C30.344 23.4634 30.4115 23.98 30.6636 24.4151C30.9156 24.8503 31.3315 25.1682 31.8199 25.2991C32.3082 25.43 32.8289 25.363 33.2674 25.1129C34.7085 24.283 35.9044 23.0917 36.735 21.6585C37.5656 20.2253 38.0019 18.6006 38 16.9473C37.9942 14.9184 37.329 12.9455 36.1032 11.3215C34.8774 9.69761 33.1564 8.50929 31.1958 7.93309ZM24.2965 16.3061C23.5761 16.4616 22.8305 16.463 22.1095 16.3102C21.3885 16.1573 20.7086 15.8538 20.1151 15.4198C19.7896 15.1838 19.3969 15.0566 18.9937 15.0566C18.5906 15.0566 18.1979 15.1838 17.8724 15.4198C17.2794 15.8549 16.5996 16.1591 15.8784 16.312C15.1572 16.4649 14.4114 16.4629 13.691 16.3061C13.4134 16.2466 13.1259 16.2497 12.8496 16.3149C12.5733 16.3802 12.3153 16.5061 12.0945 16.6833C11.8764 16.8588 11.7003 17.08 11.5787 17.3311C11.4571 17.5821 11.3931 17.8568 11.3912 18.1354V24.4906C11.3898 25.8429 11.7049 27.1771 12.3118 28.3879C12.9186 29.5988 13.8007 30.6532 14.8884 31.4681L17.8724 33.6368C18.1979 33.8728 18.5906 34 18.9937 34C19.3969 34 19.7896 33.8728 20.1151 33.6368L23.0991 31.4492C24.1875 30.6393 25.0704 29.5885 25.6775 28.3805C26.2846 27.1724 26.5992 25.8405 26.5962 24.4906V18.1354C26.5944 17.8568 26.5304 17.5821 26.4088 17.3311C26.2872 17.08 26.111 16.8588 25.893 16.6833C25.6722 16.5061 25.4142 16.3802 25.1379 16.3149C24.8616 16.2497 24.5741 16.2466 24.2965 16.3061ZM22.795 24.4906C22.7783 25.2194 22.5992 25.9356 22.2706 26.5877C21.942 27.2398 21.472 27.8116 20.8944 28.2622L18.9937 29.62L17.0931 28.2622C16.5155 27.8116 16.0455 27.2398 15.7169 26.5877C15.3883 25.9356 15.2092 25.2194 15.1925 24.4906V20.1909C16.5218 20.1316 17.8208 19.7772 18.9937 19.1537C20.1667 19.7772 21.4657 20.1316 22.795 20.1909V24.4906Z" fill="#E62752"/>
</svg>
