<svg width="50" height="42" viewBox="0 0 50 42" fill="none" xmlns="http://www.w3.org/2000/svg">
    <mask id="path-1-outside-1_77_1779" maskUnits="userSpaceOnUse" x="0" y="0" width="50" height="42" fill="black">
        <rect fill="white" width="50" height="42"/>
        <path d="M48.108 39.0248H44.9808V12.3602C44.9808 12.0982 44.8752 11.847 44.6872 11.6618C44.4993 11.4766 44.2443 11.3726 43.9785 11.3726H37.9146C37.6488 11.3726 37.3938 11.4766 37.2059 11.6618C37.0179 11.847 36.9123 12.0982 36.9123 12.3602V39.0248H32.5724V17.8511C32.5724 17.5892 32.4668 17.338 32.2788 17.1528C32.0908 16.9676 31.8359 16.8635 31.5701 16.8635H25.5563C25.2904 16.8635 25.0355 16.9676 24.8475 17.1528C24.6596 17.338 24.554 17.5892 24.554 17.8511V39.0248H20.2441V25.3172C20.2441 25.0553 20.1385 24.8041 19.9505 24.6189C19.7626 24.4337 19.5076 24.3296 19.2418 24.3296H13.228C12.9622 24.3296 12.7073 24.4337 12.5193 24.6189C12.3313 24.8041 12.2257 25.0553 12.2257 25.3172V39.0248H8.92817V5.77299C8.92817 5.51106 8.82257 5.25987 8.6346 5.07466C8.44664 4.88945 8.1917 4.78541 7.92587 4.78541C7.66005 4.78541 7.40511 4.88945 7.21714 5.07466C7.02917 5.25987 6.92357 5.51106 6.92357 5.77299V40.0124C6.92357 40.2743 7.02917 40.5255 7.21714 40.7107C7.40511 40.896 7.66005 41 7.92587 41H47.9977C48.2635 41 48.5185 40.896 48.7064 40.7107C48.8944 40.5255 49 40.2743 49 40.0124C49 39.7505 48.8944 39.4993 48.7064 39.3141C48.5185 39.1289 48.2635 39.0248 47.9977 39.0248H48.108ZM38.9169 13.3477H42.9762V39.0248H38.9169V13.3477ZM26.5586 18.8387H30.5678V39.0248H26.5586V18.8387ZM14.1802 26.3048H18.1894V39.0248H14.1802V26.3048ZM2.0023 9.54555H3.80643C4.07226 9.54555 4.3272 9.4415 4.51516 9.25629C4.70313 9.07108 4.80873 8.81989 4.80873 8.55797C4.80873 8.29604 4.70313 8.04485 4.51516 7.85964C4.3272 7.67443 4.07226 7.57038 3.80643 7.57038H2.0023C1.73647 7.57038 1.48153 7.67443 1.29357 7.85964C1.1056 8.04485 1 8.29604 1 8.55797C1 8.81989 1.1056 9.07108 1.29357 9.25629C1.48153 9.4415 1.73647 9.54555 2.0023 9.54555ZM2.0023 15.4612H3.80643C4.07226 15.4612 4.3272 15.3571 4.51516 15.1719C4.70313 14.9867 4.80873 14.7355 4.80873 14.4736C4.80873 14.2117 4.70313 13.9605 4.51516 13.7753C4.3272 13.59 4.07226 13.486 3.80643 13.486H2.0023C1.73647 13.486 1.48153 13.59 1.29357 13.7753C1.1056 13.9605 1 14.2117 1 14.4736C1 14.7355 1.1056 14.9867 1.29357 15.1719C1.48153 15.3571 1.73647 15.4612 2.0023 15.4612ZM2.0023 21.3669H3.80643C4.07226 21.3669 4.3272 21.2628 4.51516 21.0776C4.70313 20.8924 4.80873 20.6412 4.80873 20.3793C4.80873 20.1174 4.70313 19.8662 4.51516 19.681C4.3272 19.4958 4.07226 19.3917 3.80643 19.3917H2.0023C1.73647 19.3917 1.48153 19.4958 1.29357 19.681C1.1056 19.8662 1 20.1174 1 20.3793C1 20.6412 1.1056 20.8924 1.29357 21.0776C1.48153 21.2628 1.73647 21.3669 2.0023 21.3669ZM2.0023 27.2825H3.80643C4.07226 27.2825 4.3272 27.1785 4.51516 26.9932C4.70313 26.808 4.80873 26.5568 4.80873 26.2949C4.80873 26.033 4.70313 25.7818 4.51516 25.5966C4.3272 25.4114 4.07226 25.3073 3.80643 25.3073H2.0023C1.73647 25.3073 1.48153 25.4114 1.29357 25.5966C1.1056 25.7818 1 26.033 1 26.2949C1 26.5568 1.1056 26.808 1.29357 26.9932C1.48153 27.1785 1.73647 27.2825 2.0023 27.2825ZM2.0023 33.1981H3.80643C4.07226 33.1981 4.3272 33.0941 4.51516 32.9089C4.70313 32.7236 4.80873 32.4725 4.80873 32.2105C4.80873 31.9486 4.70313 31.6974 4.51516 31.5122C4.3272 31.327 4.07226 31.2229 3.80643 31.2229H2.0023C1.73647 31.2229 1.48153 31.327 1.29357 31.5122C1.1056 31.6974 1 31.9486 1 32.2105C1 32.4725 1.1056 32.7236 1.29357 32.9089C1.48153 33.0941 1.73647 33.1981 2.0023 33.1981ZM2.0023 39.1137H3.80643C4.07226 39.1137 4.3272 39.0097 4.51516 38.8245C4.70313 38.6393 4.80873 38.3881 4.80873 38.1261C4.80873 37.8642 4.70313 37.613 4.51516 37.4278C4.3272 37.2426 4.07226 37.1386 3.80643 37.1386H2.0023C1.73647 37.1386 1.48153 37.2426 1.29357 37.4278C1.1056 37.613 1 37.8642 1 38.1261C1 38.3881 1.1056 38.6393 1.29357 38.8245C1.48153 39.0097 1.73647 39.1137 2.0023 39.1137Z"/>
        <path d="M13.6489 16.449C13.519 16.4738 13.3954 16.5237 13.2851 16.5958C13.1749 16.668 13.0802 16.7609 13.0066 16.8692C12.933 16.9775 12.8819 17.0992 12.8562 17.2271C12.8306 17.355 12.8308 17.4866 12.8571 17.6144C12.9019 17.8426 13.0269 18.048 13.2103 18.1943C13.3936 18.3407 13.6235 18.4186 13.8594 18.4143H14.0498C14.6813 18.2859 28.6633 15.4516 38.4257 5.06224L38.3555 5.98069C38.339 6.24112 38.4278 6.4974 38.6024 6.69355C38.7771 6.8897 39.0234 7.00977 39.2876 7.02753H39.3578C39.6135 7.02798 39.8598 6.9321 40.0461 6.75953C40.2324 6.58695 40.3448 6.35072 40.3601 6.0992L40.5906 2.05999C40.6018 1.911 40.5784 1.76146 40.5224 1.62263C40.4664 1.48381 40.3791 1.35932 40.2672 1.25854C40.1552 1.15776 40.0215 1.08331 39.8762 1.04081C39.7308 0.998307 39.5776 0.988852 39.428 1.01316L35.4188 1.66496C35.2872 1.68571 35.161 1.7318 35.0474 1.80061C34.9339 1.86941 34.8352 1.95957 34.757 2.06595C34.6788 2.17233 34.6227 2.29284 34.5918 2.4206C34.5609 2.54836 34.5558 2.68086 34.5769 2.81055C34.5979 2.94025 34.6447 3.06458 34.7145 3.17646C34.7843 3.28834 34.8759 3.38557 34.9838 3.4626C35.0918 3.53963 35.2141 3.59496 35.3438 3.62542C35.4734 3.65588 35.6079 3.66087 35.7395 3.64012L37.1828 3.41298C27.8715 13.6048 13.7992 16.4293 13.6489 16.449Z"/>
    </mask>
    <path d="M48.108 39.0248H44.9808V12.3602C44.9808 12.0982 44.8752 11.847 44.6872 11.6618C44.4993 11.4766 44.2443 11.3726 43.9785 11.3726H37.9146C37.6488 11.3726 37.3938 11.4766 37.2059 11.6618C37.0179 11.847 36.9123 12.0982 36.9123 12.3602V39.0248H32.5724V17.8511C32.5724 17.5892 32.4668 17.338 32.2788 17.1528C32.0908 16.9676 31.8359 16.8635 31.5701 16.8635H25.5563C25.2904 16.8635 25.0355 16.9676 24.8475 17.1528C24.6596 17.338 24.554 17.5892 24.554 17.8511V39.0248H20.2441V25.3172C20.2441 25.0553 20.1385 24.8041 19.9505 24.6189C19.7626 24.4337 19.5076 24.3296 19.2418 24.3296H13.228C12.9622 24.3296 12.7073 24.4337 12.5193 24.6189C12.3313 24.8041 12.2257 25.0553 12.2257 25.3172V39.0248H8.92817V5.77299C8.92817 5.51106 8.82257 5.25987 8.6346 5.07466C8.44664 4.88945 8.1917 4.78541 7.92587 4.78541C7.66005 4.78541 7.40511 4.88945 7.21714 5.07466C7.02917 5.25987 6.92357 5.51106 6.92357 5.77299V40.0124C6.92357 40.2743 7.02917 40.5255 7.21714 40.7107C7.40511 40.896 7.66005 41 7.92587 41H47.9977C48.2635 41 48.5185 40.896 48.7064 40.7107C48.8944 40.5255 49 40.2743 49 40.0124C49 39.7505 48.8944 39.4993 48.7064 39.3141C48.5185 39.1289 48.2635 39.0248 47.9977 39.0248H48.108ZM38.9169 13.3477H42.9762V39.0248H38.9169V13.3477ZM26.5586 18.8387H30.5678V39.0248H26.5586V18.8387ZM14.1802 26.3048H18.1894V39.0248H14.1802V26.3048ZM2.0023 9.54555H3.80643C4.07226 9.54555 4.3272 9.4415 4.51516 9.25629C4.70313 9.07108 4.80873 8.81989 4.80873 8.55797C4.80873 8.29604 4.70313 8.04485 4.51516 7.85964C4.3272 7.67443 4.07226 7.57038 3.80643 7.57038H2.0023C1.73647 7.57038 1.48153 7.67443 1.29357 7.85964C1.1056 8.04485 1 8.29604 1 8.55797C1 8.81989 1.1056 9.07108 1.29357 9.25629C1.48153 9.4415 1.73647 9.54555 2.0023 9.54555ZM2.0023 15.4612H3.80643C4.07226 15.4612 4.3272 15.3571 4.51516 15.1719C4.70313 14.9867 4.80873 14.7355 4.80873 14.4736C4.80873 14.2117 4.70313 13.9605 4.51516 13.7753C4.3272 13.59 4.07226 13.486 3.80643 13.486H2.0023C1.73647 13.486 1.48153 13.59 1.29357 13.7753C1.1056 13.9605 1 14.2117 1 14.4736C1 14.7355 1.1056 14.9867 1.29357 15.1719C1.48153 15.3571 1.73647 15.4612 2.0023 15.4612ZM2.0023 21.3669H3.80643C4.07226 21.3669 4.3272 21.2628 4.51516 21.0776C4.70313 20.8924 4.80873 20.6412 4.80873 20.3793C4.80873 20.1174 4.70313 19.8662 4.51516 19.681C4.3272 19.4958 4.07226 19.3917 3.80643 19.3917H2.0023C1.73647 19.3917 1.48153 19.4958 1.29357 19.681C1.1056 19.8662 1 20.1174 1 20.3793C1 20.6412 1.1056 20.8924 1.29357 21.0776C1.48153 21.2628 1.73647 21.3669 2.0023 21.3669ZM2.0023 27.2825H3.80643C4.07226 27.2825 4.3272 27.1785 4.51516 26.9932C4.70313 26.808 4.80873 26.5568 4.80873 26.2949C4.80873 26.033 4.70313 25.7818 4.51516 25.5966C4.3272 25.4114 4.07226 25.3073 3.80643 25.3073H2.0023C1.73647 25.3073 1.48153 25.4114 1.29357 25.5966C1.1056 25.7818 1 26.033 1 26.2949C1 26.5568 1.1056 26.808 1.29357 26.9932C1.48153 27.1785 1.73647 27.2825 2.0023 27.2825ZM2.0023 33.1981H3.80643C4.07226 33.1981 4.3272 33.0941 4.51516 32.9089C4.70313 32.7236 4.80873 32.4725 4.80873 32.2105C4.80873 31.9486 4.70313 31.6974 4.51516 31.5122C4.3272 31.327 4.07226 31.2229 3.80643 31.2229H2.0023C1.73647 31.2229 1.48153 31.327 1.29357 31.5122C1.1056 31.6974 1 31.9486 1 32.2105C1 32.4725 1.1056 32.7236 1.29357 32.9089C1.48153 33.0941 1.73647 33.1981 2.0023 33.1981ZM2.0023 39.1137H3.80643C4.07226 39.1137 4.3272 39.0097 4.51516 38.8245C4.70313 38.6393 4.80873 38.3881 4.80873 38.1261C4.80873 37.8642 4.70313 37.613 4.51516 37.4278C4.3272 37.2426 4.07226 37.1386 3.80643 37.1386H2.0023C1.73647 37.1386 1.48153 37.2426 1.29357 37.4278C1.1056 37.613 1 37.8642 1 38.1261C1 38.3881 1.1056 38.6393 1.29357 38.8245C1.48153 39.0097 1.73647 39.1137 2.0023 39.1137Z" fill="#E62752"/>
    <path d="M13.6489 16.449C13.519 16.4738 13.3954 16.5237 13.2851 16.5958C13.1749 16.668 13.0802 16.7609 13.0066 16.8692C12.933 16.9775 12.8819 17.0992 12.8562 17.2271C12.8306 17.355 12.8308 17.4866 12.8571 17.6144C12.9019 17.8426 13.0269 18.048 13.2103 18.1943C13.3936 18.3407 13.6235 18.4186 13.8594 18.4143H14.0498C14.6813 18.2859 28.6633 15.4516 38.4257 5.06224L38.3555 5.98069C38.339 6.24112 38.4278 6.4974 38.6024 6.69355C38.7771 6.8897 39.0234 7.00977 39.2876 7.02753H39.3578C39.6135 7.02798 39.8598 6.9321 40.0461 6.75953C40.2324 6.58695 40.3448 6.35072 40.3601 6.0992L40.5906 2.05999C40.6018 1.911 40.5784 1.76146 40.5224 1.62263C40.4664 1.48381 40.3791 1.35932 40.2672 1.25854C40.1552 1.15776 40.0215 1.08331 39.8762 1.04081C39.7308 0.998307 39.5776 0.988852 39.428 1.01316L35.4188 1.66496C35.2872 1.68571 35.161 1.7318 35.0474 1.80061C34.9339 1.86941 34.8352 1.95957 34.757 2.06595C34.6788 2.17233 34.6227 2.29284 34.5918 2.4206C34.5609 2.54836 34.5558 2.68086 34.5769 2.81055C34.5979 2.94025 34.6447 3.06458 34.7145 3.17646C34.7843 3.28834 34.8759 3.38557 34.9838 3.4626C35.0918 3.53963 35.2141 3.59496 35.3438 3.62542C35.4734 3.65588 35.6079 3.66087 35.7395 3.64012L37.1828 3.41298C27.8715 13.6048 13.7992 16.4293 13.6489 16.449Z" fill="#E62752"/>
    <path d="M48.108 39.0248H44.9808V12.3602C44.9808 12.0982 44.8752 11.847 44.6872 11.6618C44.4993 11.4766 44.2443 11.3726 43.9785 11.3726H37.9146C37.6488 11.3726 37.3938 11.4766 37.2059 11.6618C37.0179 11.847 36.9123 12.0982 36.9123 12.3602V39.0248H32.5724V17.8511C32.5724 17.5892 32.4668 17.338 32.2788 17.1528C32.0908 16.9676 31.8359 16.8635 31.5701 16.8635H25.5563C25.2904 16.8635 25.0355 16.9676 24.8475 17.1528C24.6596 17.338 24.554 17.5892 24.554 17.8511V39.0248H20.2441V25.3172C20.2441 25.0553 20.1385 24.8041 19.9505 24.6189C19.7626 24.4337 19.5076 24.3296 19.2418 24.3296H13.228C12.9622 24.3296 12.7073 24.4337 12.5193 24.6189C12.3313 24.8041 12.2257 25.0553 12.2257 25.3172V39.0248H8.92817V5.77299C8.92817 5.51106 8.82257 5.25987 8.6346 5.07466C8.44664 4.88945 8.1917 4.78541 7.92587 4.78541C7.66005 4.78541 7.40511 4.88945 7.21714 5.07466C7.02917 5.25987 6.92357 5.51106 6.92357 5.77299V40.0124C6.92357 40.2743 7.02917 40.5255 7.21714 40.7107C7.40511 40.896 7.66005 41 7.92587 41H47.9977C48.2635 41 48.5185 40.896 48.7064 40.7107C48.8944 40.5255 49 40.2743 49 40.0124C49 39.7505 48.8944 39.4993 48.7064 39.3141C48.5185 39.1289 48.2635 39.0248 47.9977 39.0248H48.108ZM38.9169 13.3477H42.9762V39.0248H38.9169V13.3477ZM26.5586 18.8387H30.5678V39.0248H26.5586V18.8387ZM14.1802 26.3048H18.1894V39.0248H14.1802V26.3048ZM2.0023 9.54555H3.80643C4.07226 9.54555 4.3272 9.4415 4.51516 9.25629C4.70313 9.07108 4.80873 8.81989 4.80873 8.55797C4.80873 8.29604 4.70313 8.04485 4.51516 7.85964C4.3272 7.67443 4.07226 7.57038 3.80643 7.57038H2.0023C1.73647 7.57038 1.48153 7.67443 1.29357 7.85964C1.1056 8.04485 1 8.29604 1 8.55797C1 8.81989 1.1056 9.07108 1.29357 9.25629C1.48153 9.4415 1.73647 9.54555 2.0023 9.54555ZM2.0023 15.4612H3.80643C4.07226 15.4612 4.3272 15.3571 4.51516 15.1719C4.70313 14.9867 4.80873 14.7355 4.80873 14.4736C4.80873 14.2117 4.70313 13.9605 4.51516 13.7753C4.3272 13.59 4.07226 13.486 3.80643 13.486H2.0023C1.73647 13.486 1.48153 13.59 1.29357 13.7753C1.1056 13.9605 1 14.2117 1 14.4736C1 14.7355 1.1056 14.9867 1.29357 15.1719C1.48153 15.3571 1.73647 15.4612 2.0023 15.4612ZM2.0023 21.3669H3.80643C4.07226 21.3669 4.3272 21.2628 4.51516 21.0776C4.70313 20.8924 4.80873 20.6412 4.80873 20.3793C4.80873 20.1174 4.70313 19.8662 4.51516 19.681C4.3272 19.4958 4.07226 19.3917 3.80643 19.3917H2.0023C1.73647 19.3917 1.48153 19.4958 1.29357 19.681C1.1056 19.8662 1 20.1174 1 20.3793C1 20.6412 1.1056 20.8924 1.29357 21.0776C1.48153 21.2628 1.73647 21.3669 2.0023 21.3669ZM2.0023 27.2825H3.80643C4.07226 27.2825 4.3272 27.1785 4.51516 26.9932C4.70313 26.808 4.80873 26.5568 4.80873 26.2949C4.80873 26.033 4.70313 25.7818 4.51516 25.5966C4.3272 25.4114 4.07226 25.3073 3.80643 25.3073H2.0023C1.73647 25.3073 1.48153 25.4114 1.29357 25.5966C1.1056 25.7818 1 26.033 1 26.2949C1 26.5568 1.1056 26.808 1.29357 26.9932C1.48153 27.1785 1.73647 27.2825 2.0023 27.2825ZM2.0023 33.1981H3.80643C4.07226 33.1981 4.3272 33.0941 4.51516 32.9089C4.70313 32.7236 4.80873 32.4725 4.80873 32.2105C4.80873 31.9486 4.70313 31.6974 4.51516 31.5122C4.3272 31.327 4.07226 31.2229 3.80643 31.2229H2.0023C1.73647 31.2229 1.48153 31.327 1.29357 31.5122C1.1056 31.6974 1 31.9486 1 32.2105C1 32.4725 1.1056 32.7236 1.29357 32.9089C1.48153 33.0941 1.73647 33.1981 2.0023 33.1981ZM2.0023 39.1137H3.80643C4.07226 39.1137 4.3272 39.0097 4.51516 38.8245C4.70313 38.6393 4.80873 38.3881 4.80873 38.1261C4.80873 37.8642 4.70313 37.613 4.51516 37.4278C4.3272 37.2426 4.07226 37.1386 3.80643 37.1386H2.0023C1.73647 37.1386 1.48153 37.2426 1.29357 37.4278C1.1056 37.613 1 37.8642 1 38.1261C1 38.3881 1.1056 38.6393 1.29357 38.8245C1.48153 39.0097 1.73647 39.1137 2.0023 39.1137Z" stroke="#E62752" mask="url(#path-1-outside-1_77_1779)"/>
    <path d="M13.6489 16.449C13.519 16.4738 13.3954 16.5237 13.2851 16.5958C13.1749 16.668 13.0802 16.7609 13.0066 16.8692C12.933 16.9775 12.8819 17.0992 12.8562 17.2271C12.8306 17.355 12.8308 17.4866 12.8571 17.6144C12.9019 17.8426 13.0269 18.048 13.2103 18.1943C13.3936 18.3407 13.6235 18.4186 13.8594 18.4143H14.0498C14.6813 18.2859 28.6633 15.4516 38.4257 5.06224L38.3555 5.98069C38.339 6.24112 38.4278 6.4974 38.6024 6.69355C38.7771 6.8897 39.0234 7.00977 39.2876 7.02753H39.3578C39.6135 7.02798 39.8598 6.9321 40.0461 6.75953C40.2324 6.58695 40.3448 6.35072 40.3601 6.0992L40.5906 2.05999C40.6018 1.911 40.5784 1.76146 40.5224 1.62263C40.4664 1.48381 40.3791 1.35932 40.2672 1.25854C40.1552 1.15776 40.0215 1.08331 39.8762 1.04081C39.7308 0.998307 39.5776 0.988852 39.428 1.01316L35.4188 1.66496C35.2872 1.68571 35.161 1.7318 35.0474 1.80061C34.9339 1.86941 34.8352 1.95957 34.757 2.06595C34.6788 2.17233 34.6227 2.29284 34.5918 2.4206C34.5609 2.54836 34.5558 2.68086 34.5769 2.81055C34.5979 2.94025 34.6447 3.06458 34.7145 3.17646C34.7843 3.28834 34.8759 3.38557 34.9838 3.4626C35.0918 3.53963 35.2141 3.59496 35.3438 3.62542C35.4734 3.65588 35.6079 3.66087 35.7395 3.64012L37.1828 3.41298C27.8715 13.6048 13.7992 16.4293 13.6489 16.449Z" stroke="#E62752" mask="url(#path-1-outside-1_77_1779)"/>
</svg>
