<svg width="27" height="9" viewBox="0 0 27 9" fill="none" xmlns="http://www.w3.org/2000/svg">
    <path d="M2.39384 8.39561C2.39384 8.62244 2.19679 8.80631 1.95373 8.80631H0.440116C0.197047 8.80631 0 8.62244 0 8.39561V0.60439C0 0.377565 0.197046 0.193687 0.440115 0.193687H2.17928C2.3147 0.193687 2.44259 0.251865 2.526 0.35142L6.02108 4.52288C6.27885 4.83053 6.80792 4.66044 6.80792 4.26991V0.60439C6.80792 0.377565 7.00496 0.193687 7.24803 0.193687H8.76164C9.00471 0.193687 9.20176 0.377565 9.20176 0.604389V8.39561C9.20176 8.62244 9.00471 8.80631 8.76164 8.80631H7.02248C6.88705 8.80631 6.75917 8.74814 6.67576 8.64858L3.18067 4.47712C2.9229 4.16947 2.39384 4.33957 2.39384 4.73009V8.39561Z" fill="white"/>
    <path d="M17.6413 8.80631C17.4566 8.80631 17.2915 8.69867 17.228 8.53679L16.8721 7.62963C16.8086 7.46776 16.6436 7.36012 16.4588 7.36012H13.7153C13.5355 7.36012 13.3739 7.46208 13.3069 7.6177L12.906 8.54873C12.839 8.70434 12.6774 8.80631 12.4976 8.80631H10.9032C10.5945 8.80631 10.3817 8.51742 10.4923 8.24845L13.6968 0.457225C13.7621 0.298474 13.9255 0.193687 14.1077 0.193687H16.1158C16.2991 0.193687 16.4632 0.299672 16.5278 0.45974L19.6697 8.25096C19.778 8.51953 19.5652 8.80631 19.2577 8.80631H17.6413ZM14.2783 5.11347C14.1819 5.37972 14.3941 5.65567 14.6953 5.65567H15.5112C15.8139 5.65567 16.0262 5.3771 15.9269 5.11025L15.5135 3.99907C15.376 3.62948 14.815 3.63164 14.6808 4.00229L14.2783 5.11347Z" fill="white"/>
    <path d="M20.5165 8.23096C20.3277 8.12214 20.2699 7.89417 20.3736 7.71107L20.9456 6.70135C21.0815 6.46128 21.4248 6.41012 21.6614 6.56828C22.1934 6.924 22.7506 7.10187 23.3331 7.10187C23.7575 7.10187 24.0665 7.00287 24.2602 6.80488C24.4171 6.65854 24.4955 6.47776 24.4955 6.26255C24.4955 6.05595 24.4078 5.88379 24.2326 5.74605C24.085 5.62554 23.6883 5.47489 23.0426 5.29412L22.4199 5.11334C21.8018 4.93257 21.359 4.70014 21.0915 4.41607C20.741 4.06313 20.5657 3.55524 20.5657 2.8924C20.5657 2.03156 20.847 1.33859 21.4098 0.813487C21.9909 0.271162 22.7796 0 23.7759 0C24.5956 0 25.4153 0.172976 26.235 0.518927C26.4548 0.611715 26.538 0.85871 26.4282 1.0592L25.9156 1.9951C25.7893 2.22564 25.4698 2.2877 25.2285 2.15988C24.8504 1.95956 24.4723 1.8594 24.0942 1.8594C23.7621 1.8594 23.4992 1.94548 23.3055 2.11765C23.1486 2.26399 23.0702 2.41894 23.0702 2.5825C23.0702 2.73745 23.1117 2.86657 23.1948 2.96987C23.3239 3.11621 23.5914 3.24534 23.9973 3.35725L24.7307 3.56385C25.5056 3.78766 26.0637 4.07174 26.405 4.41607C26.8017 4.81205 27 5.32425 27 5.95265C27 6.85653 26.7094 7.57963 26.1283 8.12195C25.501 8.70732 24.5923 9 23.4023 9C22.7474 9 22.1431 8.90531 21.5896 8.71593C21.2292 8.59722 20.8715 8.43556 20.5165 8.23096Z" fill="white"/>
</svg>
