<svg width="47" height="57" viewBox="0 0 47 57" fill="none" xmlns="http://www.w3.org/2000/svg">
    <path d="M23.5 29.5101C25.1068 29.5101 26.4267 28.2283 26.4267 26.6678V18.1129C26.4267 16.5524 25.1068 15.2706 23.5 15.2706C21.8932 15.2706 20.5733 16.5524 20.5733 18.1129V26.6678C20.5733 28.2562 21.8932 29.5101 23.5 29.5101Z" fill="#E12651"/>
    <path d="M45.8809 4.6815C45.1923 4.15204 44.2741 3.92911 43.4133 4.12417C37.072 5.40601 30.4725 4.12417 25.1642 0.501589C24.1599 -0.167196 22.8114 -0.167196 21.8071 0.501589C16.4988 4.09631 9.89924 5.40601 3.55797 4.12417C2.69716 3.95698 1.77901 4.15204 1.09037 4.6815C0.401723 5.23882 0 6.04693 0 6.91078V28.1447C0 36.4488 4.10313 44.2234 11.0757 49.0442L21.8071 56.4566C22.8114 57.1811 24.1886 57.1811 25.1929 56.4566L35.9243 49.0442C42.8681 44.2234 47 36.4488 47 28.1447V6.91078C47 6.04693 46.5983 5.23882 45.9096 4.6815H45.8809ZM41.0891 28.1447C41.0891 34.5818 37.9042 40.6566 32.4811 44.3906L23.4713 50.6326L14.4616 44.3906C9.06718 40.6566 5.8535 34.5818 5.8535 28.1447V10.199C12.0226 10.7005 18.163 9.33512 23.4713 6.24199C28.7796 9.33512 34.92 10.7005 41.0891 10.199V28.1447Z" fill="#E12651"/>
    <path d="M25.939 36.5324L25.5947 36.1144C25.0495 35.5849 24.2747 35.2784 23.5 35.2784C22.7253 35.2784 21.9792 35.5849 21.4053 36.1144C21.2619 36.2259 21.1471 36.3931 21.061 36.5324C20.9463 36.6996 20.8602 36.8389 20.7741 37.034C20.688 37.2012 20.6306 37.3962 20.6019 37.5913C20.6019 37.7585 20.6019 37.9536 20.6019 38.1208C20.6019 38.5109 20.6594 38.901 20.8315 39.2354C21.4341 40.6844 23.1557 41.3532 24.6477 40.768C25.0207 40.6008 25.3364 40.4058 25.6233 40.155C25.8815 39.8763 26.0824 39.5977 26.2546 39.2354C26.398 38.901 26.4842 38.5109 26.4842 38.1208C26.4842 37.9536 26.4842 37.7585 26.4842 37.5913C26.4268 37.3962 26.312 37.229 26.1972 37.034C26.1398 36.8668 26.0537 36.6996 25.9102 36.5324H25.939Z" fill="#E12651"/>
</svg>
