<svg width="55" height="54" viewBox="0 0 55 54" fill="none" xmlns="http://www.w3.org/2000/svg">
    <path d="M52.25 48.6H5.5V2.7C5.5 1.98392 5.21027 1.29716 4.69454 0.790812C4.17882 0.284463 3.47935 0 2.75 0C2.02065 0 1.32118 0.284463 0.805456 0.790812C0.289731 1.29716 0 1.98392 0 2.7V51.3C0 52.0161 0.289731 52.7028 0.805456 53.2092C1.32118 53.7155 2.02065 54 2.75 54H52.25C52.9793 54 53.6788 53.7155 54.1945 53.2092C54.7103 52.7028 55 52.0161 55 51.3C55 50.5839 54.7103 49.8972 54.1945 49.3908C53.6788 48.8845 52.9793 48.6 52.25 48.6Z" fill="#E12651"/>
    <path d="M16.5 40.5V27C16.5 26.2839 16.2103 25.5972 15.6945 25.0908C15.1788 24.5845 14.4793 24.3 13.75 24.3C13.0207 24.3 12.3212 24.5845 11.8055 25.0908C11.2897 25.5972 11 26.2839 11 27V40.5C11 41.2161 11.2897 41.9028 11.8055 42.4092C12.3212 42.9155 13.0207 43.2 13.75 43.2C14.4793 43.2 15.1788 42.9155 15.6945 42.4092C16.2103 41.9028 16.5 41.2161 16.5 40.5ZM27.5 40.5V16.2C27.5 15.4839 27.2103 14.7972 26.6945 14.2908C26.1788 13.7845 25.4793 13.5 24.75 13.5C24.0207 13.5 23.3212 13.7845 22.8055 14.2908C22.2897 14.7972 22 15.4839 22 16.2V40.5C22 41.2161 22.2897 41.9028 22.8055 42.4092C23.3212 42.9155 24.0207 43.2 24.75 43.2C25.4793 43.2 26.1788 42.9155 26.6945 42.4092C27.2103 41.9028 27.5 41.2161 27.5 40.5ZM38.5 40.5V10.8C38.5 10.0839 38.2103 9.39716 37.6945 8.89081C37.1788 8.38446 36.4793 8.1 35.75 8.1C35.0207 8.1 34.3212 8.38446 33.8055 8.89081C33.2897 9.39716 33 10.0839 33 10.8V40.5C33 41.2161 33.2897 41.9028 33.8055 42.4092C34.3212 42.9155 35.0207 43.2 35.75 43.2C36.4793 43.2 37.1788 42.9155 37.6945 42.4092C38.2103 41.9028 38.5 41.2161 38.5 40.5ZM49.5 40.5V5.4C49.5 4.68392 49.2103 3.99716 48.6945 3.49081C48.1788 2.98446 47.4793 2.7 46.75 2.7C46.0207 2.7 45.3212 2.98446 44.8055 3.49081C44.2897 3.99716 44 4.68392 44 5.4V40.5C44 41.2161 44.2897 41.9028 44.8055 42.4092C45.3212 42.9155 46.0207 43.2 46.75 43.2C47.4793 43.2 48.1788 42.9155 48.6945 42.4092C49.2103 41.9028 49.5 41.2161 49.5 40.5Z" fill="#E12651"/>
</svg>
