<svg width="54" height="55" viewBox="0 0 54 55" fill="none" xmlns="http://www.w3.org/2000/svg">
    <path d="M51.8821 37.4278L42.953 37.4599L37.6105 2.0346V2.0132C37.4296 0.868384 36.525 0.0445406 35.4288 0.00174356C34.3326 -0.0410535 33.3748 0.707895 33.1087 1.82062L23.5731 43.644L17.741 19.025L17.7304 18.9822C17.4643 17.9337 16.581 17.2169 15.5487 17.1955C14.5163 17.1848 13.6117 17.8588 13.3137 18.8859L13.3031 18.9287L8.74811 37.0105L2.12849 36.9998C0.957823 36.9998 0 37.9627 0 39.1503C0 40.3273 0.957823 41.3009 2.12849 41.3009H10.4296C11.3981 41.2367 12.1963 40.5733 12.4836 39.6104L12.4943 39.5676L15.4422 27.8412L21.3701 52.8668L21.3807 52.8989C21.7319 54.2791 22.7962 54.7606 23.605 54.7606H23.6263C24.4351 54.7606 25.4994 54.2577 25.8399 52.8561L34.9392 12.9265L38.9727 39.7174V39.7388C39.143 40.8301 40.0051 41.6647 41.0587 41.7503L41.1544 41.761L51.8821 41.7182C53.0527 41.7182 54.0106 40.7552 53.9999 39.5676C54.0106 38.38 53.0527 37.4278 51.8821 37.4278Z" fill="#E12651"/>
</svg>
