<svg width="55" height="54" viewBox="0 0 55 54" fill="none" xmlns="http://www.w3.org/2000/svg">
    <path d="M38.5447 16.9469C39.4346 16.0674 40.878 16.0674 41.7678 16.9469C42.6577 17.8268 42.6577 19.2533 41.7678 20.1329L24.6501 37.0522C23.7599 37.9317 22.3165 37.9317 21.4267 37.0522L12.8675 28.5925C11.9776 27.713 11.9776 26.2864 12.8675 25.4069C13.7577 24.5271 15.201 24.5271 16.0909 25.4069L23.0384 32.2736L38.5447 16.9469ZM27.3175 0C34.86 0 41.6901 3.02258 46.6336 7.90863C51.5772 12.7944 54.6353 19.5454 54.6353 26.9999C54.6353 34.4555 51.5775 41.2053 46.6336 46.0914C41.6901 50.9774 34.86 54 27.3175 54C19.7744 54 12.9449 50.9777 8.00167 46.0914C3.05753 41.2053 0 34.4555 0 26.9999C0 19.5454 3.05814 12.7944 8.00167 7.90863C12.9449 3.02198 19.7744 0 27.3175 0ZM43.4105 11.0942C39.2924 7.02426 33.6024 4.50655 27.3175 4.50655C21.0323 4.50655 15.3423 7.02426 11.2248 11.0942C7.1069 15.1642 4.55957 20.7883 4.55957 26.9999C4.55957 33.2123 7.1069 38.8361 11.2248 42.9058C15.3423 46.9757 21.0323 49.4931 27.3175 49.4931C33.6024 49.4931 39.2924 46.9757 43.4105 42.9058C47.5284 38.8361 50.0754 33.2123 50.0754 26.9999C50.0754 20.7883 47.5284 15.1642 43.4105 11.0942Z" fill="#E12651"/>
</svg>
