<svg width="62" height="56" viewBox="0 0 62 56" fill="none" xmlns="http://www.w3.org/2000/svg">
    <path d="M61.1509 2.2623C60.1711 0.885254 58.6686 0.0327869 56.9703 0C56.513 0 56.0558 0 55.5986 0H5.26877C5.26877 0 4.97487 0 4.81157 0C2.62332 0.131148 0.598293 1.63934 0.141047 3.83606C-0.0549161 4.68852 0.0104766 5.54102 0.0104766 6.39348V39.3443C0.0104766 40.5902 0.435015 41.7049 1.18621 42.6885C2.1007 43.8361 3.5704 44.459 5.04012 44.4918H29.0456V52.0656H19.4761C18.235 52.0656 16.9939 52.0656 15.7854 52.0656H15.7202C14.7077 52.0656 13.7278 52.9509 13.7605 54.0328C13.7932 55.082 14.6097 56 15.7202 56H42.5017C43.7428 56 44.9839 56 46.1923 56H46.2576C47.2701 56 48.2499 55.1148 48.2173 54.0328C48.1846 52.9836 47.3681 52.0656 46.2576 52.0656H32.9322V44.4918H56.9703C59.1912 44.4918 61.1835 42.9836 61.804 40.8197C61.9673 40.2951 62 39.7377 62 39.1804V5.14756C62 4.13117 61.7388 3.08197 61.1509 2.2623ZM51.7773 40.5902H31.2339C31.2339 40.5902 31.1032 40.5902 31.0052 40.5902H5.07281C5.07281 40.5902 4.94218 40.5902 4.87686 40.5902C4.77887 40.5902 4.68084 40.5574 4.61552 40.5246C4.51753 40.4918 4.45226 40.4263 4.35428 40.3935C4.32162 40.3607 4.28896 40.3279 4.2563 40.2951C4.2563 40.2951 4.19098 40.2295 4.15832 40.1968C4.12566 40.1312 4.06031 40.0328 4.02765 39.9672C4.02765 39.8689 3.96233 39.7705 3.92967 39.6721C3.92967 39.3443 3.92967 39.0164 3.92967 38.7213V9.24592C3.92967 7.86888 3.92967 6.52461 3.92967 5.14756C3.92967 5.08199 3.92967 5.04919 3.92967 4.98362C3.92967 4.88526 3.9624 4.78689 3.99506 4.72132C4.02772 4.62296 4.09297 4.55738 4.12563 4.45902C4.15829 4.42623 4.19095 4.39345 4.22361 4.36066C4.22361 4.36066 4.28892 4.29509 4.32158 4.2623C4.3869 4.22952 4.48491 4.16397 4.55023 4.13118C4.64821 4.13118 4.74618 4.06559 4.84416 4.06559C5.33407 4.06559 5.82399 4.06559 6.28123 4.06559H56.905C56.905 4.06559 57.0356 4.06559 57.1009 4.06559C57.1989 4.06559 57.2969 4.09839 57.3623 4.13118C57.4602 4.16397 57.5255 4.22952 57.6235 4.2623C57.6562 4.29509 57.6888 4.32787 57.7215 4.36066C57.7215 4.36066 57.7868 4.42623 57.8195 4.45902C57.8521 4.52459 57.9175 4.62298 57.9501 4.68855C57.9501 4.78691 58.0154 4.88526 58.0154 4.98362C58.0154 5.31149 58.0154 5.63937 58.0154 5.96724V35.4426C58.0154 36.8197 58.0154 38.1639 58.0154 39.541C58.0154 39.6065 58.0154 39.6393 58.0154 39.7049C58.0154 39.8033 57.9828 39.9016 57.9501 39.9672C57.9175 40.0656 57.8521 40.1312 57.8195 40.2295C57.7868 40.2623 57.7541 40.2951 57.7215 40.3279C57.7215 40.3279 57.6562 40.3934 57.6235 40.4262C57.5582 40.459 57.4602 40.5246 57.3949 40.5574C57.2969 40.5902 57.1989 40.623 57.1009 40.6558H51.7773V40.5902Z" fill="#E12651"/>
    <path d="M50.6015 9.63933C49.0665 9.08195 47.1395 9.63935 46.0944 10.8852C45.0492 12.0984 44.7226 13.8033 45.2779 15.2787C44.6246 16.0328 43.9388 16.7869 43.2856 17.541C41.6526 19.377 40.0522 21.1803 38.4191 23.0164L38.2232 23.2459C37.0474 22.918 35.8717 23.1475 34.8918 23.7377C32.9975 22.5574 31.1359 21.4098 29.2415 20.2295C29.2415 20.0983 29.2415 20 29.2415 19.8688C29.2415 19.7705 29.2415 19.6393 29.2415 19.541C29.1109 18.0656 28.2617 16.6557 26.89 16.0328C25.257 15.2787 23.428 15.5082 22.0563 16.7213C20.9132 17.7377 20.4233 19.4754 20.8152 20.9508C20.162 21.541 19.5414 22.0983 18.8882 22.6885C17.3858 24.0655 15.8507 25.4098 14.3157 26.7869C14.1524 26.7213 13.9565 26.6557 13.7932 26.623C11.9642 26.2295 10.1352 26.9508 9.12268 28.5574C8.24085 29.9344 8.27354 31.9016 9.25335 33.2459C10.3311 34.7213 12.0948 35.4426 13.8585 34.9836C15.6222 34.5573 16.8633 32.9508 17.0266 31.1803C17.0266 31.082 17.0266 30.9508 17.0266 30.8197C17.0266 30.459 16.9612 30.0656 16.8632 29.7377C17.5164 29.1475 18.1697 28.5902 18.7903 28C20.2926 26.623 21.8276 25.2787 23.33 23.9016C23.8852 24.1312 24.5058 24.2623 25.159 24.1967C25.8775 24.1311 26.5307 23.9344 27.1186 23.5738C29.0129 24.7541 30.8746 25.9016 32.7689 27.082C32.7689 27.2787 32.7689 27.4754 32.7689 27.6721C32.8669 28.6557 33.1934 29.4754 33.814 30.2295C34.8265 31.4754 36.6229 31.9672 38.1579 31.5738C39.9216 31.082 41.1626 29.5082 41.2933 27.7049C41.2933 27.6066 41.2933 27.5082 41.2933 27.4098C41.2933 27.4098 41.2933 27.2459 41.2933 27.1475C41.2606 26.7213 41.1626 26.2623 40.9993 25.8688C41.6852 25.1147 42.3384 24.3607 43.0243 23.6066L47.8907 18.1311L48.0867 17.9016C48.8052 18.0984 49.5891 18.1311 50.3076 17.9016C52.1692 17.4098 53.443 15.6721 53.4757 13.7377C53.4757 13.6393 53.4757 13.541 53.4757 13.4426C53.3124 11.6721 52.1692 10.2623 50.5036 9.63933H50.6015ZM13.0747 31.0492V31.1147L12.944 31.1803H12.8786C12.8786 31.1803 12.7807 31.1803 12.748 31.1803H12.6501L12.5521 31.1147V31.0492L12.4541 30.9508V30.8852C12.4541 30.8852 12.4541 30.7869 12.4541 30.7541V30.6885L12.5194 30.5901H12.5521V30.5246L12.6501 30.459H12.748C12.748 30.459 12.8134 30.459 12.846 30.459H12.944C12.944 30.459 13.0093 30.5246 13.042 30.5246V30.5901L13.14 30.7213V31.0164L13.042 31.1147L13.0747 31.0492ZM37.3414 27.5738V27.6393L37.2107 27.7049H37.1454C37.1454 27.7049 37.0474 27.7049 37.0148 27.7049H36.9168L36.8188 27.6393V27.5738L36.7208 27.4754V27.4098C36.7208 27.4098 36.7208 27.3115 36.7208 27.2787V27.2131L36.7861 27.1475V27.082H36.8188L36.9168 27.0164H36.9821C36.9821 27.0164 37.0474 27.0164 37.08 27.0164H37.178L37.276 27.1147H37.3087V27.1803L37.374 27.2787C37.374 27.2787 37.374 27.3771 37.4067 27.4426V27.5738L37.3087 27.6721L37.3414 27.5738ZM24.6038 19.5738V19.5082L24.7344 19.4426H24.7998C24.7998 19.4426 24.8977 19.4426 24.9303 19.4426H25.0283L25.1263 19.5082V19.5738L25.2244 19.6721V19.8033C25.2244 19.8033 25.2244 19.9016 25.2244 19.9344L25.159 20.0656H25.1263L25.0283 20.1639H24.963C24.963 20.1639 24.865 20.1639 24.8324 20.1639H24.7344L24.6364 20.0984L24.5711 20.0328L24.5058 19.9344V19.8361C24.5058 19.8361 24.5058 19.7705 24.5058 19.7049V19.6066L24.5711 19.5082L24.6038 19.5738ZM49.5564 13.9344V14L49.4257 14.0656H49.3604C49.3604 14.0656 49.2624 14.0656 49.2297 14.0656H49.1645L49.0665 13.9672H49.0338V13.9016L48.9685 13.8033V13.7377C48.9685 13.7377 48.9685 13.6394 48.9685 13.6066V13.5082L49.0338 13.4099V13.3443L49.1645 13.2787H49.2297C49.2297 13.2787 49.3278 13.2787 49.3604 13.2787H49.4257L49.5237 13.3443H49.5564V13.4426L49.6217 13.5082V13.7705L49.5237 13.8689L49.5564 13.9344Z" fill="#E12651"/>
</svg>
