<svg width="54" height="54" viewBox="0 0 54 54" fill="none" xmlns="http://www.w3.org/2000/svg">
    <path d="M51.3 0H2.7C1.98392 0 1.29716 0.284463 0.790812 0.790812C0.284463 1.29716 0 1.98392 0 2.7V40.5C0 41.2161 0.284463 41.9028 0.790812 42.4092C1.29716 42.9155 1.98392 43.2 2.7 43.2H16.2V48.6H13.5C12.7839 48.6 12.0972 48.8845 11.5908 49.3908C11.0845 49.8972 10.8 50.5839 10.8 51.3C10.8 52.0161 11.0845 52.7028 11.5908 53.2092C12.0972 53.7155 12.7839 54 13.5 54H40.5C41.2161 54 41.9028 53.7155 42.4092 53.2092C42.9155 52.7028 43.2 52.0161 43.2 51.3C43.2 50.5839 42.9155 49.8972 42.4092 49.3908C41.9028 48.8845 41.2161 48.6 40.5 48.6H37.8V43.2H51.3C52.0161 43.2 52.7028 42.9155 53.2092 42.4092C53.7155 41.9028 54 41.2161 54 40.5V2.7C54 1.98392 53.7155 1.29716 53.2092 0.790812C52.7028 0.284463 52.0161 0 51.3 0ZM32.4 48.6H21.6V43.2H32.4V48.6ZM48.6 37.8H5.4V5.4H48.6V37.8Z" fill="#E12651"/>
    <path d="M13.5 32.4C14.2161 32.4 14.9028 32.1155 15.4092 31.6092C15.9155 31.1028 16.2 30.4161 16.2 29.7V21.6C16.2 20.8839 15.9155 20.1972 15.4092 19.6908C14.9028 19.1845 14.2161 18.9 13.5 18.9C12.7839 18.9 12.0972 19.1845 11.5908 19.6908C11.0845 20.1972 10.8 20.8839 10.8 21.6V29.7C10.8 30.4161 11.0845 31.1028 11.5908 31.6092C12.0972 32.1155 12.7839 32.4 13.5 32.4ZM27 32.4C27.7161 32.4 28.4028 32.1155 28.9092 31.6092C29.4155 31.1028 29.7 30.4161 29.7 29.7V16.2C29.7 15.4839 29.4155 14.7972 28.9092 14.2908C28.4028 13.7845 27.7161 13.5 27 13.5C26.2839 13.5 25.5972 13.7845 25.0908 14.2908C24.5845 14.7972 24.3 15.4839 24.3 16.2V29.7C24.3 30.4161 24.5845 31.1028 25.0908 31.6092C25.5972 32.1155 26.2839 32.4 27 32.4ZM40.5 32.4C41.2161 32.4 41.9028 32.1155 42.4092 31.6092C42.9155 31.1028 43.2 30.4161 43.2 29.7V10.8C43.2 10.0839 42.9155 9.39716 42.4092 8.89081C41.9028 8.38446 41.2161 8.1 40.5 8.1C39.7839 8.1 39.0972 8.38446 38.5908 8.89081C38.0845 9.39716 37.8 10.0839 37.8 10.8V29.7C37.8 30.4161 38.0845 31.1028 38.5908 31.6092C39.0972 32.1155 39.7839 32.4 40.5 32.4Z" fill="#E12651"/>
</svg>
