<svg width="55" height="54" viewBox="0 0 55 54" fill="none" xmlns="http://www.w3.org/2000/svg">
    <path d="M51.8034 43.957H24.1524C22.3724 43.957 20.9913 45.3307 20.9913 47.1012C20.9913 48.8717 22.3724 50.2453 24.1524 50.2453H51.8034C53.5834 50.2453 54.9643 48.8717 54.9643 47.1012C54.9643 45.3307 53.5834 43.957 51.8034 43.957Z" fill="#E12651"/>
    <path d="M24.1524 10.043H51.8034C53.5834 10.043 54.9643 8.6693 54.9643 6.89881C54.9643 5.12832 53.5834 3.75466 51.8034 3.75466H24.1524C22.3724 3.75466 20.9913 5.12832 20.9913 6.89881C20.9913 8.6693 22.4338 10.043 24.1524 10.043Z" fill="#E12651"/>
    <path d="M11.6926 40.1719H2.20953C1.01265 40.1719 0 41.1792 0 42.3697V51.8022C0 52.9927 1.01265 54 2.20953 54H11.6926C12.8895 54 13.9021 52.9927 13.9021 51.8022V42.3697C13.9021 41.1792 12.8895 40.1719 11.6926 40.1719ZM10.1274 50.2148H4.44997V44.5676H10.1274V50.2148Z" fill="#E12651"/>
    <path d="M11.7233 0H2.24025C1.01991 0 0.0307192 0.984012 0.0307192 2.19785V11.6303C0.0307192 12.8441 1.01991 13.8282 2.24025 13.8282H11.7233C12.9436 13.8282 13.9328 12.8441 13.9328 11.6303V2.19785C13.9328 0.984012 12.9436 0 11.7233 0Z" fill="#E12651"/>
    <path d="M11.6926 20.0859H2.20953C1.01265 20.0859 0 21.0933 0 22.2838V31.7162C0 32.9067 1.01265 33.9141 2.20953 33.9141H11.6926C12.8895 33.9141 13.9021 32.9067 13.9021 31.7162V22.2838C13.9021 21.0933 12.8895 20.0859 11.6926 20.0859ZM10.1274 29.5184H4.44997V24.4816H10.1274V29.5184Z" fill="#E12651"/>
    <path d="M51.8034 23.8406H24.1524C22.3724 23.8406 20.9913 25.2142 20.9913 26.9847C20.9913 28.7552 22.3724 30.1289 24.1524 30.1289H51.8034C53.5834 30.1289 54.9643 28.7552 54.9643 26.9847C54.9643 25.2142 53.5834 23.8406 51.8034 23.8406Z" fill="#E12651"/>
</svg>
