<svg width="61" height="61" viewBox="0 0 61 61" fill="none" xmlns="http://www.w3.org/2000/svg">
    <path d="M52.0903 8.92979C46.3235 3.17863 38.6703 0 30.5185 0C22.3668 0 14.7001 3.17863 8.93324 8.92979C3.17986 14.6944 0 22.3581 0 30.5067C0 38.6553 3.17986 46.3191 8.93324 52.0702C14.7001 57.8348 22.3533 61 30.5051 61C38.6568 61 46.3235 57.8214 52.0769 52.0702C63.9744 40.1773 63.9744 20.8227 52.0769 8.92979H52.0903ZM48.2772 48.2586C43.5344 52.9996 37.2151 55.6125 30.5051 55.6125C23.795 55.6125 17.4892 52.9996 12.7329 48.2586C7.99006 43.5176 5.37611 37.2007 5.37611 30.4933C5.37611 23.7858 7.99006 17.4824 12.7329 12.728C17.4757 7.98697 23.795 5.37403 30.5051 5.37403C37.2151 5.37403 43.5209 7.98697 48.2772 12.728C58.0728 22.5198 58.0728 38.4533 48.2772 48.2451V48.2586ZM30.5185 13.7247C29.0364 13.7247 27.8237 14.9369 27.8237 16.4184V34.1164C27.8237 35.5979 29.0364 36.8101 30.5185 36.8101C32.0007 36.8101 33.2133 35.5979 33.2133 34.1164V16.4184C33.2133 14.9369 32.0007 13.7247 30.5185 13.7247ZM30.5185 40.4467C29.0364 40.4467 27.8237 41.6589 27.8237 43.1404V44.2179C27.8237 45.6995 29.0364 46.9117 30.5185 46.9117C32.0007 46.9117 33.2133 45.6995 33.2133 44.2179V43.1404C33.2133 41.6589 32.0007 40.4467 30.5185 40.4467Z" fill="#E12651"/>
</svg>
