<svg width="54" height="54" viewBox="0 0 54 54" fill="none" xmlns="http://www.w3.org/2000/svg">
    <path d="M52.5493 45.4163L40.6587 33.5185C42.7364 30.1602 43.9829 26.2583 43.9829 22.0045C43.9829 9.85084 34.1379 0 21.9914 0C9.84502 0 0 9.85084 0 22.0045C0 34.1581 9.84502 44.009 21.9914 44.009C26.2107 44.009 30.1425 42.7617 33.4987 40.6827L45.3893 52.5805C47.3711 54.4995 50.5677 54.4675 52.5175 52.5165C54.4673 50.5656 54.4992 47.3673 52.5813 45.3843L52.5493 45.4163ZM21.9596 37.2605C13.553 37.2605 6.71262 30.4481 6.71262 22.0045C6.71262 13.5609 13.5211 6.74848 21.9596 6.74848C30.3982 6.74848 37.2065 13.5609 37.2065 22.0045C37.2065 30.4481 30.3982 37.2605 21.9596 37.2605Z" fill="#E12651"/>
</svg>
