<svg width="35" height="30" viewBox="0 0 35 30" fill="none" xmlns="http://www.w3.org/2000/svg">
    <path fill-rule="evenodd" clip-rule="evenodd" d="M0.021728 25.6288C0.237234 27.7438 2.02912 29.4 4.2 29.4H30.8C33.1156 29.4 35 27.5156 35 25.2V11.2V8.4C35 6.0844 33.1156 4.2 30.8 4.2H16.0174C15.7239 4.20022 15.4379 4.10794 15.1999 3.93628C14.9619 3.76462 14.784 3.52232 14.6916 3.2438L14.567 2.8714C13.9944 1.1536 12.3928 0 10.5826 0H4.2C1.8844 0 0 1.8844 0 4.2V11.2V25.2C0 25.3447 0.00736094 25.4878 0.021728 25.6288ZM32.2 9.8V8.4C32.2 7.6286 31.5728 7 30.8 7H16.0174C15.1358 7.00086 14.2763 6.7239 13.561 6.20844C12.8457 5.69298 12.3111 4.96524 12.033 4.1286L11.9084 3.7562C11.816 3.47768 11.6381 3.23538 11.4001 3.06372C11.1621 2.89206 10.8761 2.79978 10.5826 2.8H4.2C3.4272 2.8 2.8 3.4286 2.8 4.2V9.8H32.2ZM2.8 12.6V25.2C2.8 25.9714 3.4272 26.6 4.2 26.6H30.8C31.4762 26.6 32.0409 26.1187 32.1715 25.4816C32.1902 25.3906 32.2 25.2964 32.2 25.2V12.6H2.8Z" fill="#E62752"/>
</svg>
