<svg width="35" height="39" viewBox="0 0 35 39" fill="none" xmlns="http://www.w3.org/2000/svg">
    <path fill-rule="evenodd" clip-rule="evenodd" d="M14 3.5C13.5359 3.5 13.0908 3.68437 12.7626 4.01256C12.4344 4.34075 12.25 4.78587 12.25 5.25V7H22.75V5.25C22.75 4.78587 22.5656 4.34075 22.2374 4.01256C21.9092 3.68437 21.4641 3.5 21 3.5H14ZM26.25 7V5.25C26.25 3.85761 25.6969 2.52225 24.7123 1.53769C23.7277 0.553124 22.3924 0 21 0H14C12.6076 0 11.2723 0.553123 10.2877 1.53769C9.30312 2.52226 8.75 3.85761 8.75 5.25V7H1.75C0.783502 7 0 7.7835 0 8.75C0 9.7165 0.783502 10.5 1.75 10.5H3.5V33.25C3.5 34.6424 4.05312 35.9777 5.03769 36.9623C6.02225 37.9469 7.35761 38.5 8.75 38.5H26.25C27.6424 38.5 28.9777 37.9469 29.9623 36.9623C30.9469 35.9777 31.5 34.6424 31.5 33.25V10.5H33.25C34.2165 10.5 35 9.7165 35 8.75C35 7.7835 34.2165 7 33.25 7H26.25ZM28 10.5H7V33.25C7 33.7141 7.18437 34.1592 7.51256 34.4874C7.84075 34.8156 8.28587 35 8.75 35H26.25C26.7141 35 27.1592 34.8156 27.4874 34.4874C27.8156 34.1592 28 33.7141 28 33.25V10.5ZM14 15.75C14.9665 15.75 15.75 16.5335 15.75 17.5V28C15.75 28.9665 14.9665 29.75 14 29.75C13.0335 29.75 12.25 28.9665 12.25 28V17.5C12.25 16.5335 13.0335 15.75 14 15.75ZM19.25 17.5C19.25 16.5335 20.0335 15.75 21 15.75C21.9665 15.75 22.75 16.5335 22.75 17.5V28C22.75 28.9665 21.9665 29.75 21 29.75C20.0335 29.75 19.25 28.9665 19.25 28V17.5Z" fill="#E62752"/>
</svg>
