<svg width="35" height="35" viewBox="0 0 35 35" fill="none" xmlns="http://www.w3.org/2000/svg">
    <path fill-rule="evenodd" clip-rule="evenodd" d="M29.75 24.5H28V10.5C28 9.57174 27.6313 8.68177 26.9749 8.02539C26.3185 7.36901 25.4283 7 24.5 7H10.5V5.25C10.5 4.78587 10.6844 4.34088 11.0126 4.0127C11.3408 3.68451 11.7859 3.5 12.25 3.5H29.75C30.2141 3.5 30.6593 3.68451 30.9874 4.0127C31.3156 4.34088 31.5 4.78587 31.5 5.25V22.75C31.5 23.2141 31.3156 23.6591 30.9874 23.9873C30.6593 24.3155 30.2141 24.5 29.75 24.5ZM24.5 24.5H12.25C11.7859 24.5 11.3408 24.3155 11.0126 23.9873C10.6844 23.6591 10.5 23.2141 10.5 22.75V10.5H22.75C23.2141 10.5 23.6593 10.6845 23.9874 11.0127C24.3156 11.3409 24.5 11.7859 24.5 12.25V24.5ZM22.75 31.5H5.25C4.78587 31.5 4.34075 31.3155 4.01256 30.9873C3.68437 30.6591 3.5 30.2141 3.5 29.75V12.25C3.5 11.7859 3.68437 11.3409 4.01256 11.0127C4.34075 10.6845 4.78587 10.5 5.25 10.5H7V24.5C7 25.4283 7.36875 26.3182 8.02512 26.9746C8.6815 27.631 9.57174 28 10.5 28H24.5V29.75C24.5 30.2141 24.3156 30.6591 23.9874 30.9873C23.6593 31.3155 23.2141 31.5 22.75 31.5ZM31.5 0H10.5C9.57174 0 8.6815 0.369013 8.02512 1.02539C7.36875 1.68177 7 2.57174 7 3.5V7H3.5C2.57174 7 1.6815 7.36901 1.02512 8.02539C0.368746 8.68177 0 9.57174 0 10.5V31.5C0 32.4283 0.368746 33.3182 1.02512 33.9746C1.6815 34.631 2.57174 35 3.5 35H24.5C25.4283 35 26.3185 34.631 26.9749 33.9746C27.6313 33.3182 28 32.4283 28 31.5V28H31.5C32.4283 28 33.3185 27.631 33.9749 26.9746C34.6313 26.3182 35 25.4283 35 24.5V3.5C35 2.57174 34.6313 1.68177 33.9749 1.02539C33.3185 0.369013 32.4283 0 31.5 0Z" fill="#E62752"/>
</svg>
