<svg width="35" height="37" viewBox="0 0 35 37" fill="none" xmlns="http://www.w3.org/2000/svg">
    <path d="M24.8322 5.58171C25.2788 5.83527 25.8075 5.90191 26.303 5.7671C26.7985 5.63229 27.2206 5.30697 27.4772 4.86212C27.6895 4.48746 28.0201 4.19385 28.4173 4.02735C28.8144 3.86085 29.2556 3.83087 29.6716 3.9421C30.0876 4.05334 30.455 4.2995 30.716 4.64199C30.9771 4.98448 31.1171 5.40392 31.114 5.83454C31.114 6.35035 30.9091 6.84503 30.5444 7.20976C30.1797 7.57449 29.685 7.77939 29.1692 7.77939C28.6534 7.77939 28.1587 7.9843 27.794 8.34903C27.4293 8.71376 27.2243 9.20844 27.2243 9.72424C27.2243 10.24 27.4293 10.7347 27.794 11.0995C28.1587 11.4642 28.6534 11.6691 29.1692 11.6691C30.1932 11.6684 31.199 11.3983 32.0856 10.8858C32.9721 10.3733 33.7081 9.63646 34.2197 8.74939C34.7313 7.86232 35.0004 6.85622 35 5.83221C34.9996 4.80819 34.7297 3.80231 34.2174 2.91565C33.7051 2.02899 32.9685 1.29278 32.0815 0.78098C31.1946 0.269184 30.1885 -0.000163939 29.1645 7.48604e-08C28.1405 0.000164089 27.1346 0.269834 26.2478 0.781914C25.361 1.29399 24.6246 2.03045 24.1126 2.91727C23.984 3.13924 23.9006 3.38446 23.8672 3.63881C23.8338 3.89315 23.851 4.15159 23.9179 4.39925C23.9848 4.64691 24.1 4.87889 24.2569 5.08183C24.4138 5.28477 24.6093 5.45466 24.8322 5.58171ZM33.195 19.4485C32.6845 19.3822 32.1686 19.5211 31.7603 19.8346C31.3519 20.1481 31.0846 20.6107 31.0168 21.121C30.6087 24.4179 29.0092 27.4517 26.5196 29.6512C24.03 31.8506 20.8221 33.0639 17.5001 33.0624H6.62841L7.89256 31.7983C8.25479 31.4339 8.45811 30.941 8.45811 30.4272C8.45811 29.9133 8.25479 29.4204 7.89256 29.056C5.99623 27.1523 4.7057 24.7299 4.18352 22.094C3.66135 19.4581 3.93088 16.7267 4.95817 14.2437C5.98546 11.7608 7.72456 9.63734 9.95641 8.14092C12.1883 6.6445 14.813 5.84201 17.5001 5.83454C18.0159 5.83454 18.5106 5.62964 18.8753 5.26491C19.2401 4.90018 19.445 4.4055 19.445 3.8897C19.445 3.37389 19.2401 2.87921 18.8753 2.51448C18.5106 2.14975 18.0159 1.94485 17.5001 1.94485C14.2118 1.95856 10.9939 2.89828 8.215 4.65634C5.43611 6.4144 3.20865 8.9197 1.7878 11.8852C0.366958 14.8507 -0.189797 18.1565 0.181322 21.4238C0.552441 24.6911 1.83642 27.7878 3.88617 30.3591L0.560479 33.6264C0.290616 33.8999 0.107808 34.2472 0.0351208 34.6245C-0.0375662 35.0018 0.00312517 35.3921 0.152061 35.7463C0.297963 36.1015 0.545733 36.4055 0.864144 36.6201C1.18255 36.8347 1.55736 36.9502 1.94132 36.9521H17.5001C21.7621 36.9527 25.878 35.3982 29.0755 32.5802C32.273 29.7623 34.3325 25.8745 34.8676 21.6462C34.9032 21.3919 34.888 21.1331 34.8231 20.8847C34.7581 20.6363 34.6446 20.4032 34.4891 20.1989C34.3336 19.9946 34.1392 19.8231 33.9171 19.6943C33.695 19.5655 33.4496 19.482 33.195 19.4485ZM29.9082 13.7501C29.5542 13.5934 29.1614 13.546 28.7802 13.6139L28.4302 13.7306L28.0801 13.9057L27.7884 14.1585C27.6134 14.3377 27.4747 14.549 27.3799 14.7808C27.2649 15.0234 27.2115 15.2906 27.2243 15.5588C27.2187 15.8182 27.265 16.0761 27.3605 16.3173C27.4611 16.5507 27.6064 16.7621 27.7884 16.9396C27.9701 17.1199 28.1856 17.2625 28.4226 17.3593C28.6595 17.4561 28.9132 17.5051 29.1692 17.5036C29.685 17.5036 30.1797 17.2987 30.5444 16.934C30.9091 16.5693 31.114 16.0746 31.114 15.5588C31.1206 15.3037 31.0673 15.0506 30.9585 14.8197C30.7495 14.3524 30.3756 13.9785 29.9082 13.7695V13.7501Z" fill="#E62752"/>
</svg>
