<svg width="35" height="35" viewBox="0 0 35 35" fill="none" xmlns="http://www.w3.org/2000/svg">
    <path d="M35 22.5055V22.418C34.9788 22.08 34.9201 21.7455 34.825 21.4205L31.955 4.39297C31.75 3.15389 31.1076 2.02937 30.1443 1.22345C29.1811 0.417529 27.9608 -0.0163744 26.705 0.000472774H8.2075C6.96669 0.00449112 5.76741 0.447861 4.82238 1.25194C3.87735 2.05601 3.24766 3.16882 3.045 4.39297L0.21 21.3855C0.114871 21.7105 0.056177 22.045 0.035 22.383V22.4705C-3.25963e-08 22.593 0 22.7505 0 22.7505V29.7505C0 31.1429 0.553124 32.4782 1.53769 33.4628C2.52226 34.4473 3.85761 35.0005 5.25 35.0005H29.75C31.1424 35.0005 32.4777 34.4473 33.4623 33.4628C34.4469 32.4782 35 31.1429 35 29.7505V22.7505C35 22.7505 35 22.593 35 22.5055ZM6.4925 4.95297C6.56334 4.54208 6.77855 4.16999 7.09939 3.9037C7.42022 3.6374 7.82559 3.49441 8.2425 3.50047H26.7925C27.2094 3.49441 27.6148 3.6374 27.9356 3.9037C28.2564 4.16999 28.4717 4.54208 28.5425 4.95297L30.6425 17.588C30.3486 17.5298 30.0496 17.5005 29.75 17.5005H5.25C4.96206 17.5028 4.67497 17.532 4.3925 17.588L6.4925 4.95297ZM31.5 29.7505C31.5 30.2146 31.3156 30.6597 30.9874 30.9879C30.6593 31.3161 30.2141 31.5005 29.75 31.5005H5.25C4.78587 31.5005 4.34075 31.3161 4.01256 30.9879C3.68437 30.6597 3.5 30.2146 3.5 29.7505V22.8905L3.64 22.0855C3.77129 21.7659 3.99423 21.4923 4.28074 21.2992C4.56725 21.1062 4.90451 21.0022 5.25 21.0005H29.75C30.0955 21.0022 30.4327 21.1062 30.7193 21.2992C31.0058 21.4923 31.2287 21.7659 31.36 22.0855L31.5 22.8905V29.7505ZM26.25 24.5005C25.9039 24.5005 25.5655 24.6031 25.2778 24.7954C24.99 24.9877 24.7657 25.261 24.6332 25.5808C24.5008 25.9005 24.4661 26.2524 24.5336 26.5919C24.6012 26.9313 24.7678 27.2432 25.0126 27.4879C25.2573 27.7327 25.5691 27.8993 25.9086 27.9668C26.2481 28.0344 26.5999 27.9997 26.9197 27.8673C27.2395 27.7348 27.5128 27.5105 27.7051 27.2227C27.8974 26.9349 28 26.5966 28 26.2505C28 25.7863 27.8156 25.3412 27.4874 25.013C27.1593 24.6848 26.7141 24.5005 26.25 24.5005Z" fill="#E62752"/>
</svg>
