<svg width="30" height="28" viewBox="0 0 30 28" fill="none" xmlns="http://www.w3.org/2000/svg">
    <path d="M8.1917 23.5088L8.19438 25.3781C8.18905 26.446 9.04067 27.2461 10.0885 27.2461H20.1932C21.2397 27.2461 22.0886 26.446 22.0886 25.3781V23.5088" stroke="white" stroke-width="0.97" stroke-miterlimit="10"/>
    <path fill-rule="evenodd" clip-rule="evenodd" d="M20.1961 1.35954H10.0946C9.04709 1.35954 8.19837 2.1594 8.19837 3.22693L8.1917 23.5103H22.0843L22.091 3.22693C22.0923 2.1594 21.2436 1.35954 20.1961 1.35954Z" stroke="white" stroke-width="0.97" stroke-miterlimit="10"/>
    <path d="M13.8764 25.3789H16.4032" stroke="white" stroke-width="0.97" stroke-miterlimit="10"/>
    <path d="M5.6719 11.4982C4.90437 12.0321 4.40782 12.967 4.40648 14.0349C4.40515 14.9693 4.90304 15.9029 5.6719 16.5703" stroke="white" stroke-width="0.97" stroke-miterlimit="10"/>
    <path d="M3.1468 9.76373C1.98163 10.8315 1.25024 12.2999 1.2489 14.0349C1.2489 15.6365 1.97895 17.2376 3.14012 18.1719" stroke="white" stroke-width="0.97" stroke-miterlimit="10"/>
    <path d="M24.6157 11.4987C25.3819 12.0326 25.8798 12.9675 25.8785 14.0354C25.8785 14.9698 25.3819 15.9034 24.6117 16.5708" stroke="white" stroke-width="0.97" stroke-miterlimit="10"/>
    <path d="M27.1404 9.76422C28.3043 10.832 29.0343 12.3003 29.0356 14.0354C29.033 15.637 28.3029 17.2381 27.1404 18.1724" stroke="white" stroke-width="0.97" stroke-miterlimit="10"/>
</svg>
