<svg width="489" height="589" viewBox="0 0 489 589" fill="none" xmlns="http://www.w3.org/2000/svg">
    <g opacity="0.3">
        <path d="M488.105 369.953L430.014 403.487" stroke="white" stroke-width="0.828" stroke-miterlimit="10"/>
        <path fill-rule="evenodd" clip-rule="evenodd" d="M459.057 353.179L488.105 369.952L459.057 353.179ZM168.596 587.955L488.105 403.486L168.596 587.955ZM488.105 336.418V369.952V336.418Z" stroke="white" stroke-width="0.828" stroke-miterlimit="10"/>
        <path d="M488.105 403.487V369.953" stroke="white" stroke-width="0.828" stroke-miterlimit="10"/>
        <path d="M488.105 336.419L459.066 353.179" stroke="white" stroke-width="0.828" stroke-miterlimit="10"/>
        <path d="M400.967 286.098L430.014 302.885" stroke="white" stroke-width="0.828" stroke-miterlimit="10"/>
        <path fill-rule="evenodd" clip-rule="evenodd" d="M342.863 386.712L400.952 353.178L342.863 386.712ZM371.924 437.033L168.596 554.421L371.924 437.033ZM342.867 420.259L255.733 470.566L342.867 420.259ZM371.913 437.033L342.863 420.259L371.913 437.033Z" stroke="white" stroke-width="0.828" stroke-miterlimit="10"/>
        <path d="M371.924 269.337V235.804" stroke="white" stroke-width="0.828" stroke-miterlimit="10"/>
        <path fill-rule="evenodd" clip-rule="evenodd" d="M284.777 319.646L371.924 269.339L284.777 319.646ZM371.924 235.805L342.867 252.565L371.924 235.805Z" stroke="white" stroke-width="0.828" stroke-miterlimit="10"/>
        <path d="M400.966 286.111L371.924 269.338" stroke="white" stroke-width="0.828" stroke-miterlimit="10"/>
        <path fill-rule="evenodd" clip-rule="evenodd" d="M371.924 403.487L430.013 369.953L371.924 403.487ZM313.831 269.339L284.777 286.112L313.831 269.339ZM284.777 286.112V319.633V286.112ZM284.777 319.633L313.831 336.42L284.777 319.633ZM313.831 336.42L400.966 286.112L313.831 336.42Z" stroke="white" stroke-width="0.828" stroke-miterlimit="10"/>
        <path fill-rule="evenodd" clip-rule="evenodd" d="M400.959 319.645V286.111V319.645ZM430.014 369.952L400.959 353.179L430.014 369.952Z" stroke="white" stroke-width="0.828" stroke-miterlimit="10"/>
        <path fill-rule="evenodd" clip-rule="evenodd" d="M342.872 386.713L371.93 403.487L342.872 386.713ZM313.831 336.42V369.953V336.42ZM284.777 319.633V353.18V319.633ZM284.777 353.18L313.831 369.953L284.777 353.18Z" stroke="white" stroke-width="0.828" stroke-miterlimit="10"/>
        <path fill-rule="evenodd" clip-rule="evenodd" d="M342.873 219.029L371.931 235.803L342.873 219.029ZM430.014 302.871L488.105 336.418L430.014 302.871ZM400.958 286.097V252.563V286.097ZM342.867 185.483L371.924 202.256L342.867 185.483ZM371.924 202.256V235.803V202.256ZM371.924 235.803L400.966 252.563L371.924 235.803Z" stroke="white" stroke-width="0.828" stroke-miterlimit="10"/>
        <path fill-rule="evenodd" clip-rule="evenodd" d="M371.904 202.243L342.849 219.017L371.904 202.243ZM284.777 286.098L255.732 269.338L284.777 286.098ZM255.732 269.338V302.872V269.338ZM255.732 302.872L284.777 319.632L255.732 302.872ZM284.777 252.551L255.732 269.338L284.777 252.551ZM313.825 269.338L284.769 252.551L313.825 269.338ZM430.003 302.872L400.951 319.632L430.003 302.872ZM400.951 252.551L371.904 269.338L400.951 252.551Z" stroke="white" stroke-width="0.828" stroke-miterlimit="10"/>
        <path d="M430.014 403.487V369.953" stroke="white" stroke-width="0.828" stroke-miterlimit="10"/>
        <path fill-rule="evenodd" clip-rule="evenodd" d="M371.924 403.499V437.032V403.499ZM342.867 420.259V386.725V420.259Z" stroke="white" stroke-width="0.828" stroke-miterlimit="10"/>
        <path fill-rule="evenodd" clip-rule="evenodd" d="M342.873 118.403V185.484V118.403ZM313.832 101.629L342.873 118.403L313.832 101.629Z" stroke="white" stroke-width="0.828" stroke-miterlimit="10"/>
        <path fill-rule="evenodd" clip-rule="evenodd" d="M313.831 202.229L342.872 185.469L313.831 202.229ZM342.867 118.402L284.777 151.936L342.867 118.402ZM284.777 185.469L313.831 168.696L284.777 185.469Z" stroke="white" stroke-width="0.828" stroke-miterlimit="10"/>
        <path fill-rule="evenodd" clip-rule="evenodd" d="M284.77 219.017V185.483V219.017ZM342.867 185.483L313.825 168.709L342.867 185.483Z" stroke="white" stroke-width="0.828" stroke-miterlimit="10"/>
        <path fill-rule="evenodd" clip-rule="evenodd" d="M255.732 202.256V269.337V202.256ZM284.777 185.483L255.732 202.256L284.777 185.483Z" stroke="white" stroke-width="0.828" stroke-miterlimit="10"/>
        <path d="M255.744 168.709L284.778 185.483" stroke="white" stroke-width="0.828" stroke-miterlimit="10"/>
        <path fill-rule="evenodd" clip-rule="evenodd" d="M255.744 168.696L226.689 185.483L255.744 168.696ZM255.744 202.242L226.689 185.483L255.744 202.242Z" stroke="white" stroke-width="0.828" stroke-miterlimit="10"/>
        <path d="M284.777 118.402V51.3214" stroke="white" stroke-width="0.828" stroke-miterlimit="10"/>
        <path d="M284.778 51.3212L255.744 68.0945" stroke="white" stroke-width="0.828" stroke-miterlimit="10"/>
        <path d="M255.744 34.56L284.778 51.3203" stroke="white" stroke-width="0.828" stroke-miterlimit="10"/>
        <path fill-rule="evenodd" clip-rule="evenodd" d="M139.561 135.162L197.65 168.709L139.561 135.162ZM197.65 68.095V135.176V68.095ZM197.65 135.176L255.744 101.642L197.65 135.176ZM197.65 168.723V202.257V168.723ZM197.65 202.257L226.696 219.017L197.65 202.257ZM197.65 135.176L226.696 151.936L197.65 135.176ZM226.696 151.936L284.79 118.403L226.696 151.936ZM226.696 151.936V185.483V151.936Z" stroke="white" stroke-width="0.828" stroke-miterlimit="10"/>
        <path fill-rule="evenodd" clip-rule="evenodd" d="M197.641 34.5475L168.59 51.3215L197.641 34.5475ZM284.777 151.936V118.402V151.936ZM255.732 101.642L284.777 118.402L255.732 101.642Z" stroke="white" stroke-width="0.828" stroke-miterlimit="10"/>
        <path fill-rule="evenodd" clip-rule="evenodd" d="M197.65 68.1082L255.743 34.5615L197.65 68.1082ZM168.596 51.3218L197.65 68.1082L168.596 51.3218Z" stroke="white" stroke-width="0.828" stroke-miterlimit="10"/>
        <path d="M255.744 34.5603L197.65 0.999969" stroke="white" stroke-width="0.828" stroke-miterlimit="10"/>
        <path fill-rule="evenodd" clip-rule="evenodd" d="M313.831 235.803L342.872 219.016L313.831 235.803ZM284.777 219.016L313.831 235.803L284.777 219.016Z" stroke="white" stroke-width="0.828" stroke-miterlimit="10"/>
        <path fill-rule="evenodd" clip-rule="evenodd" d="M168.59 84.8553V51.3217V84.8553ZM342.867 219.017L313.825 202.243L342.867 219.017ZM284.769 118.403L313.825 101.616L284.769 118.403ZM255.732 34.5477V68.0813V34.5477Z" stroke="white" stroke-width="0.828" stroke-miterlimit="10"/>
        <path fill-rule="evenodd" clip-rule="evenodd" d="M110.517 554.422L-209 369.953L110.517 554.422ZM226.689 453.794L197.642 470.581L226.689 453.794ZM255.733 470.581L226.679 453.794L255.733 470.581ZM255.733 403.486V369.953V403.486ZM255.733 369.953L226.679 386.726L255.733 369.953ZM226.679 386.726V420.26V386.726ZM226.679 420.26L255.733 403.486L226.679 420.26ZM284.778 386.713L255.733 369.953L284.778 386.713ZM255.733 403.486L284.778 420.26L255.733 403.486ZM284.778 420.26V386.713V420.26ZM226.689 420.26L255.744 437.033L226.689 420.26ZM255.744 437.033L284.79 420.26L255.744 437.033ZM168.608 554.422V587.942V554.422Z" stroke="white" stroke-width="0.828" stroke-miterlimit="10"/>
        <path d="M-209 403.486L110.508 587.955" stroke="white" stroke-width="0.828" stroke-miterlimit="10"/>
        <path fill-rule="evenodd" clip-rule="evenodd" d="M139.554 537.647V571.195V537.647ZM110.508 587.955V554.421V587.955ZM168.596 554.421L139.554 537.647L168.596 554.421Z" stroke="white" stroke-width="0.828" stroke-miterlimit="10"/>
        <path d="M139.553 571.195L168.595 587.955" stroke="white" stroke-width="0.828" stroke-miterlimit="10"/>
        <path d="M139.554 537.647L110.508 554.421" stroke="white" stroke-width="0.828" stroke-miterlimit="10"/>
        <path d="M110.508 587.955L139.554 571.195" stroke="white" stroke-width="0.828" stroke-miterlimit="10"/>
        <path fill-rule="evenodd" clip-rule="evenodd" d="M168.59 219.03V185.497V219.03ZM139.554 437.033L81.4506 470.567L139.554 437.033ZM197.642 470.567L139.554 437.033L197.642 470.567ZM226.689 386.713L168.596 353.179L226.689 386.713ZM168.596 353.179V386.713V353.179ZM168.596 386.713L226.689 420.26L168.596 386.713ZM197.642 336.405L168.59 353.179L197.642 336.405ZM255.733 369.952L197.642 336.419L255.733 369.952ZM226.689 286.111L197.642 269.338L226.689 286.111ZM226.689 319.632V286.111V319.632ZM168.596 286.111V252.564V286.111ZM168.596 252.564L139.554 269.338L168.596 252.564ZM139.554 269.338V302.885V269.338ZM139.554 302.885L168.596 286.111L139.554 302.885ZM139.554 269.338L81.4506 235.804L139.554 269.338ZM81.4506 269.338L139.554 302.871L81.4506 269.338ZM168.596 252.551L110.507 219.017L168.596 252.551ZM110.507 386.713V353.179V386.713ZM110.507 353.179L52.4151 386.713L110.507 353.179ZM52.4151 420.26L110.507 386.713L52.4151 420.26ZM81.4506 336.419L52.4071 353.179L81.4506 336.419ZM110.497 353.179L81.4426 336.419L110.497 353.179ZM168.59 286.111L197.642 302.885L168.59 286.111ZM139.554 302.885L168.596 319.645L139.554 302.885ZM168.596 319.645L197.65 302.885L168.596 319.645ZM139.56 369.952L110.507 353.179L139.56 369.952ZM110.507 386.713L139.56 403.486L110.507 386.713ZM139.56 403.486V369.952V403.486ZM81.4613 437.033L139.56 403.5L81.4613 437.033ZM168.608 353.192L139.56 369.966L168.608 353.192ZM139.56 403.5L168.608 386.726L139.56 403.5ZM139.56 403.5L197.65 437.033L139.56 403.5ZM81.4613 302.885L110.517 319.645L81.4613 302.885ZM110.517 319.645L139.57 302.885L110.517 319.645ZM197.661 336.419V302.885V336.419ZM168.608 319.645V353.179V319.645ZM81.4613 336.419V302.885V336.419ZM81.4613 302.885L52.4151 319.645L81.4613 302.885ZM52.4151 319.645V353.179V319.645ZM110.507 353.179V319.645V353.179ZM139.56 336.419V302.885V336.419ZM110.507 353.192L139.56 336.419L110.507 353.192ZM139.56 336.419L168.608 353.192L139.56 336.419ZM52.4231 453.807L23.373 470.581L52.4231 453.807ZM81.4613 470.581L52.4151 453.807L81.4613 470.581ZM23.3623 470.581L-150.92 369.966L23.3623 470.581ZM52.4071 386.739L-5.68249 353.206L52.4071 386.739ZM-5.68249 386.739L52.4071 420.273L-5.68249 386.739ZM52.4071 420.273V386.739V420.273ZM-34.738 403.513L23.3543 437.046L-34.738 403.513ZM23.3543 437.046L52.4071 420.273L23.3543 437.046ZM255.733 336.419L226.679 319.645L255.733 336.419ZM255.733 369.952V336.419V369.952ZM197.642 437.033L226.689 420.26L197.642 437.033ZM52.4151 420.26L81.4613 437.033L52.4151 420.26ZM255.744 437.033V470.581V437.033ZM226.689 420.26V453.794V420.26ZM197.642 437.033V470.567V437.033ZM139.554 437.033V403.486V437.033ZM52.4071 453.794V420.26V453.794ZM23.3543 437.033V470.581V437.033ZM81.4426 470.581V437.033V470.581ZM168.59 185.484L110.497 151.949L168.59 185.484Z" stroke="white" stroke-width="0.828" stroke-miterlimit="10"/>
        <path fill-rule="evenodd" clip-rule="evenodd" d="M23.3678 202.256V168.723V202.256ZM-209 336.418L-150.909 302.884L-209 336.418ZM23.3678 168.723L52.4233 151.936L23.3678 168.723Z" stroke="white" stroke-width="0.828" stroke-miterlimit="10"/>
        <path d="M23.3633 168.723L52.4161 185.484" stroke="white" stroke-width="0.828" stroke-miterlimit="10"/>
        <path fill-rule="evenodd" clip-rule="evenodd" d="M110.496 118.415L139.553 101.642L110.496 118.415ZM168.595 51.3212L139.553 68.1075L168.595 51.3212ZM110.496 151.949V118.415V151.949Z" stroke="white" stroke-width="0.828" stroke-miterlimit="10"/>
        <path d="M139.554 135.161L110.508 118.401" stroke="white" stroke-width="0.828" stroke-miterlimit="10"/>
        <path fill-rule="evenodd" clip-rule="evenodd" d="M168.595 17.7747L197.649 1.00135L168.595 17.7747ZM139.553 68.0953V101.629V68.0953ZM168.595 51.322V17.7747V51.322Z" stroke="white" stroke-width="0.828" stroke-miterlimit="10"/>
        <path d="M52.4161 252.551L23.3633 235.804" stroke="white" stroke-width="0.828" stroke-miterlimit="10"/>
        <path d="M23.3633 235.804V269.337" stroke="white" stroke-width="0.828" stroke-miterlimit="10"/>
        <path fill-rule="evenodd" clip-rule="evenodd" d="M-34.7266 269.339L52.4159 319.646L-34.7266 269.339ZM23.3631 269.339L52.4159 286.099L23.3631 269.339ZM52.4159 286.099V252.565V286.099Z" stroke="white" stroke-width="0.828" stroke-miterlimit="10"/>
        <path fill-rule="evenodd" clip-rule="evenodd" d="M52.4157 219.017L23.3629 235.804L52.4157 219.017ZM-5.67256 219.017L-92.8203 269.337L-5.67256 219.017Z" stroke="white" stroke-width="0.828" stroke-miterlimit="10"/>
        <path fill-rule="evenodd" clip-rule="evenodd" d="M52.4082 286.111L81.4517 269.338L52.4082 286.111ZM81.4517 269.338V235.804V269.338ZM81.4517 235.804L52.4082 252.564L81.4517 235.804Z" stroke="white" stroke-width="0.828" stroke-miterlimit="10"/>
        <path d="M23.3616 235.803L-5.67383 219.016" stroke="white" stroke-width="0.828" stroke-miterlimit="10"/>
        <path fill-rule="evenodd" clip-rule="evenodd" d="M52.4159 219.017L23.3631 202.257L52.4159 219.017ZM-34.7266 302.885L52.4159 353.179L-34.7266 302.885Z" stroke="white" stroke-width="0.828" stroke-miterlimit="10"/>
        <path d="M23.3633 202.256V235.803" stroke="white" stroke-width="0.828" stroke-miterlimit="10"/>
        <path fill-rule="evenodd" clip-rule="evenodd" d="M110.488 185.497L81.4336 202.27L110.488 185.497ZM168.596 84.8558L139.554 68.0955L168.596 84.8558ZM168.596 17.7748L197.65 34.5482L168.596 17.7748ZM313.832 369.953L284.778 386.726L313.832 369.953ZM284.778 353.192L255.733 369.966L284.778 353.192ZM284.778 319.659L255.733 336.432L284.778 319.659ZM255.733 269.351L226.679 286.125L255.733 269.351ZM226.679 319.659L255.733 302.886L226.679 319.659ZM226.679 252.578L197.632 269.351L226.679 252.578ZM255.725 269.351L226.67 252.578L255.725 269.351Z" stroke="white" stroke-width="0.828" stroke-miterlimit="10"/>
        <path fill-rule="evenodd" clip-rule="evenodd" d="M-5.68164 219.03L23.3632 202.257L-5.68164 219.03ZM52.416 185.484L23.3632 202.257L52.416 185.484Z" stroke="white" stroke-width="0.828" stroke-miterlimit="10"/>
        <path fill-rule="evenodd" clip-rule="evenodd" d="M197.65 235.79L226.696 219.016L197.65 235.79ZM197.65 168.722L168.596 185.483L197.65 168.722ZM168.596 219.016L197.65 202.256L168.596 219.016ZM168.596 219.016L197.65 235.79L168.596 219.016Z" stroke="white" stroke-width="0.828" stroke-miterlimit="10"/>
        <path d="M110.508 151.936L139.554 135.162" stroke="white" stroke-width="0.828" stroke-miterlimit="10"/>
        <path fill-rule="evenodd" clip-rule="evenodd" d="M81.4622 168.709L110.518 151.936L81.4622 168.709ZM52.416 151.936L81.4622 168.709L52.416 151.936Z" stroke="white" stroke-width="0.828" stroke-miterlimit="10"/>
        <path d="M342.867 252.551V219.017" stroke="white" stroke-width="0.828" stroke-miterlimit="10"/>
        <path d="M313.832 235.804V269.337" stroke="white" stroke-width="0.828" stroke-miterlimit="10"/>
        <path d="M342.867 219.017V185.483" stroke="white" stroke-width="0.828" stroke-miterlimit="10"/>
        <path fill-rule="evenodd" clip-rule="evenodd" d="M197.643 269.337V235.79V269.337ZM284.778 252.55V219.017V252.55ZM226.69 219.017V252.55V219.017Z" stroke="white" stroke-width="0.828" stroke-miterlimit="10"/>
        <path d="M110.508 151.936V185.483" stroke="white" stroke-width="0.828" stroke-miterlimit="10"/>
        <path d="M81.4512 202.242V168.709" stroke="white" stroke-width="0.828" stroke-miterlimit="10"/>
        <path fill-rule="evenodd" clip-rule="evenodd" d="M430.014 302.871V369.952V302.871ZM-121.864 286.098L-150.92 302.871L-121.864 286.098ZM139.554 135.162V101.629V135.162ZM52.4071 219.017L81.4506 202.243L52.4071 219.017ZM52.4071 151.936V185.47V151.936ZM52.4071 185.47V219.017V185.47ZM110.497 185.47V219.017V185.47ZM110.497 118.402L52.4071 151.936L110.497 118.402Z" stroke="white" stroke-width="0.828" stroke-miterlimit="10"/>
    </g>
</svg>
