<svg width="42" height="42" viewBox="0 0 42 42" fill="none" xmlns="http://www.w3.org/2000/svg">
    <path fill-rule="evenodd" clip-rule="evenodd" d="M32.1219 1.43114H9.61194C8.72594 1.43114 7.88893 1.83415 7.33493 2.52515L2.09894 9.07014C1.68594 9.58714 1.46094 10.2291 1.46094 10.8901V37.3291C1.46094 38.9381 2.76594 40.2441 4.37494 40.2441H37.3579C38.9679 40.2441 40.2739 38.9381 40.2739 37.3291V10.8901C40.2739 10.2291 40.0479 9.58714 39.6349 9.07014L34.3989 2.52515C33.8449 1.83415 33.0079 1.43114 32.1219 1.43114Z" stroke="white" stroke-width="1.687" stroke-miterlimit="79.8403"/>
    <path d="M3.99194 16.6191H7.36694" stroke="white" stroke-width="1.687" stroke-miterlimit="79.8403"/>
    <path d="M3.99194 13.2441H7.36694" stroke="white" stroke-width="1.687" stroke-miterlimit="79.8403"/>
    <path fill-rule="evenodd" clip-rule="evenodd" d="M34.3669 14.9311C34.3669 15.8631 33.6109 16.6191 32.6799 16.6191C31.7479 16.6191 30.9919 15.8631 30.9919 14.9311C30.9919 13.9991 31.7479 13.2441 32.6799 13.2441C33.6109 13.2441 34.3669 13.9991 34.3669 14.9311Z" stroke="white" stroke-width="1.687" stroke-miterlimit="79.8403"/>
    <path d="M3.99194 26.7441H7.36694" stroke="white" stroke-width="1.687" stroke-miterlimit="79.8403"/>
    <path d="M3.99194 23.3691H7.36694" stroke="white" stroke-width="1.687" stroke-miterlimit="79.8403"/>
    <path fill-rule="evenodd" clip-rule="evenodd" d="M34.3669 25.0561C34.3669 25.9881 33.6109 26.7441 32.6799 26.7441C31.7479 26.7441 30.9919 25.9881 30.9919 25.0561C30.9919 24.1241 31.7479 23.3691 32.6799 23.3691C33.6109 23.3691 34.3669 24.1241 34.3669 25.0561Z" stroke="white" stroke-width="1.687" stroke-miterlimit="79.8403"/>
    <path d="M3.99194 36.8691H7.36694" stroke="white" stroke-width="1.687" stroke-miterlimit="79.8403"/>
    <path d="M3.99194 33.4941H7.36694" stroke="white" stroke-width="1.687" stroke-miterlimit="79.8403"/>
    <path fill-rule="evenodd" clip-rule="evenodd" d="M34.3669 35.1811C34.3669 36.1131 33.6109 36.8691 32.6799 36.8691C31.7479 36.8691 30.9919 36.1131 30.9919 35.1811C30.9919 34.2491 31.7479 33.4941 32.6799 33.4941C33.6109 33.4941 34.3669 34.2491 34.3669 35.1811Z" stroke="white" stroke-width="1.687" stroke-miterlimit="79.8403"/>
    <path d="M1.46094 30.1191H40.2739" stroke="white" stroke-width="1.687" stroke-miterlimit="79.8403"/>
    <path d="M1.46094 19.9941H40.2739" stroke="white" stroke-width="1.687" stroke-miterlimit="79.8403"/>
    <path d="M1.46094 9.86914H40.2739" stroke="white" stroke-width="1.687" stroke-miterlimit="79.8403"/>
</svg>
