<svg width="50" height="48" viewBox="0 0 50 48" fill="none" xmlns="http://www.w3.org/2000/svg">
    <path d="M0.113037 47.2231H49.195" stroke="white" stroke-width="1.516" stroke-miterlimit="79.8403"/>
    <path d="M27.489 44.8611V42.5261C27.489 41.8811 28.006 41.3581 28.644 41.3581H45.394C46.033 41.3581 46.549 41.8811 46.549 42.5261V44.8611" stroke="white" stroke-width="1.516" stroke-miterlimit="79.8403"/>
    <path fill-rule="evenodd" clip-rule="evenodd" d="M45.2021 38.4391C45.2021 37.7951 44.6851 37.2722 44.0471 37.2722H29.9921C29.3541 37.2722 28.8361 37.7951 28.8361 38.4391V40.1902C28.8361 40.8362 29.3541 41.3582 29.9921 41.3582H44.0471C44.6851 41.3582 45.2021 40.8362 45.2021 40.1902V38.4391Z" stroke="white" stroke-width="1.516" stroke-miterlimit="79.8403"/>
    <path fill-rule="evenodd" clip-rule="evenodd" d="M45.0279 15.978C45.4239 16.379 45.4249 17.029 45.0279 17.43L35.5729 26.985C35.1759 27.387 34.5329 27.386 34.1369 26.985L31.8619 24.688C31.4659 24.287 31.4659 23.636 31.8619 23.236L41.3179 13.68C41.7139 13.279 42.3569 13.279 42.7529 13.68L45.0279 15.978Z" stroke="white" stroke-width="1.516" stroke-miterlimit="79.8403"/>
    <path fill-rule="evenodd" clip-rule="evenodd" d="M32.7 3.51992C33.097 3.92092 33.097 4.5699 32.7 4.9709L23.2449 14.5269C22.8479 14.9269 22.2049 14.9269 21.8089 14.5269L19.5339 12.2289C19.1379 11.8279 19.1369 11.1769 19.5339 10.7759L28.989 1.2209C29.386 0.819904 30.0299 0.819904 30.4259 1.2209L32.7 3.51992Z" stroke="white" stroke-width="1.516" stroke-miterlimit="79.8403"/>
    <path d="M32.9621 22.4961L23.9761 13.4151" stroke="white" stroke-width="1.516" stroke-miterlimit="79.8403"/>
    <path d="M40.5871 14.791L31.6011 5.70901" stroke="white" stroke-width="1.516" stroke-miterlimit="79.8403"/>
    <path fill-rule="evenodd" clip-rule="evenodd" d="M10.566 38.939L29.899 19.401L27.039 16.511L7.70801 36.049L10.566 38.939Z" stroke="white" stroke-width="1.516" stroke-miterlimit="79.8403"/>
    <path fill-rule="evenodd" clip-rule="evenodd" d="M11.274 39.6541L8.29501 42.665L4.021 38.3441L6.99899 35.333L11.274 39.6541Z" stroke="white" stroke-width="1.516" stroke-miterlimit="79.8403"/>
    <path d="M25.8819 23.321L23.1589 20.57" stroke="white" stroke-width="1.516" stroke-miterlimit="79.8403"/>
    <path d="M23.0231 26.2109L20.3 23.4599" stroke="white" stroke-width="1.516" stroke-miterlimit="79.8403"/>
    <path d="M34.012 16.1721L30.234 12.3541" stroke="white" stroke-width="1.516" stroke-miterlimit="79.8403"/>
    <path d="M45.01 29.2532H49.392" stroke="white" stroke-width="1.516" stroke-miterlimit="79.8403"/>
    <path d="M44.347 25.9482L48.0451 23.5722" stroke="white" stroke-width="1.516" stroke-miterlimit="79.8403"/>
    <path d="M44.347 32.5571L48.0451 34.9331" stroke="white" stroke-width="1.516" stroke-miterlimit="79.8403"/>
    <path d="M29.6971 29.2532H25.3151" stroke="white" stroke-width="1.516" stroke-miterlimit="79.8403"/>
    <path d="M30.3601 32.5571L26.6611 34.9331" stroke="white" stroke-width="1.516" stroke-miterlimit="79.8403"/>
</svg>
