<svg width="42" height="35" viewBox="0 0 42 35" fill="none" xmlns="http://www.w3.org/2000/svg">
    <path fill-rule="evenodd" clip-rule="evenodd" d="M40.5239 33.6191H1.71094V1.55615H40.5239V33.6191Z" stroke="white" stroke-width="1.687" stroke-miterlimit="79.8403"/>
    <path d="M1.71094 6.61914H40.5239" stroke="white" stroke-width="1.687" stroke-miterlimit="79.8403"/>
    <path d="M38.8359 4.08813H37.1489" stroke="white" stroke-width="1.687" stroke-miterlimit="79.8403"/>
    <path d="M36.3049 4.08813H34.6179" stroke="white" stroke-width="1.687" stroke-miterlimit="79.8403"/>
    <path d="M33.7739 4.08813H32.0859" stroke="white" stroke-width="1.687" stroke-miterlimit="79.8403"/>
    <path d="M34.6179 31.0881V28.5562H31.7609C31.5019 27.6052 31.1279 26.7021 30.6489 25.8651L32.6669 23.8471L28.3579 19.5381L26.3399 21.5562C25.5029 21.0772 24.5999 20.7032 23.6489 20.4442V17.5881H18.5859V20.4442C17.6349 20.7032 16.7319 21.0772 15.8949 21.5562L13.8769 19.5381L9.56792 23.8471L11.5859 25.8651C11.1069 26.7021 10.7329 27.6052 10.4739 28.5562H7.61792V31.0881" stroke="white" stroke-width="1.687" stroke-miterlimit="79.8403"/>
    <path d="M13.5239 31.0881C13.5239 26.8931 16.9229 23.4941 21.1179 23.4941C25.3109 23.4941 28.7109 26.8931 28.7109 31.0881" stroke="white" stroke-width="1.687" stroke-miterlimit="79.8403"/>
</svg>
