<svg width="53" height="54" viewBox="0 0 53 54" fill="none" xmlns="http://www.w3.org/2000/svg">
    <path fill-rule="evenodd" clip-rule="evenodd" d="M51.9772 52.5869H21.0375V32.7037H51.9772V52.5869Z" stroke="white" stroke-width="1.656" stroke-miterlimit="10"/>
    <path d="M40.9267 29.3674V1.7448H1.14661V52.5867H8.88219V49.2506" stroke="white" stroke-width="1.656" stroke-miterlimit="10"/>
    <path d="M4.46272 6.14819H6.67385" stroke="white" stroke-width="1.656" stroke-miterlimit="10"/>
    <path d="M30.9829 6.14819H37.6135" stroke="white" stroke-width="1.656" stroke-miterlimit="10"/>
    <path d="M1.14667 10.6855H40.9268" stroke="white" stroke-width="1.656" stroke-miterlimit="10"/>
    <path d="M4.46272 15.0891H6.67385" stroke="white" stroke-width="1.656" stroke-miterlimit="10"/>
    <path d="M30.9829 15.0891H37.6135" stroke="white" stroke-width="1.656" stroke-miterlimit="10"/>
    <path d="M40.9268 19.4922H1.14667" stroke="white" stroke-width="1.656" stroke-miterlimit="10"/>
    <path d="M4.46272 23.8972H6.67385" stroke="white" stroke-width="1.656" stroke-miterlimit="10"/>
    <path d="M30.9829 23.8972H37.6135" stroke="white" stroke-width="1.656" stroke-miterlimit="10"/>
    <path d="M40.9268 28.3003H1.14667" stroke="white" stroke-width="1.656" stroke-miterlimit="10"/>
    <path d="M4.46272 32.7036H6.67385" stroke="white" stroke-width="1.656" stroke-miterlimit="10"/>
    <path d="M30.9829 32.7036H37.6135" stroke="white" stroke-width="1.656" stroke-miterlimit="10"/>
    <path d="M17.7227 37.1067H1.14667" stroke="white" stroke-width="1.656" stroke-miterlimit="10"/>
    <path d="M4.46272 41.5098H6.67385" stroke="white" stroke-width="1.656" stroke-miterlimit="10"/>
    <path d="M17.7227 46.0481H1.14667" stroke="white" stroke-width="1.656" stroke-miterlimit="10"/>
    <path d="M21.0375 37.1069L36.5074 47.115L51.9772 37.1069" stroke="white" stroke-width="1.656" stroke-miterlimit="10"/>
    <path d="M29.8787 42.7108L25.7305 48.1824" stroke="white" stroke-width="1.656" stroke-miterlimit="10"/>
    <path d="M43.4101 42.7108L47.5582 48.1824" stroke="white" stroke-width="1.656" stroke-miterlimit="10"/>
</svg>
