<svg width="42" height="41" viewBox="0 0 42 41" fill="none" xmlns="http://www.w3.org/2000/svg">
    <path d="M12.749 32.3521H1.78101V5.35205H35.531V32.3521H32.999" stroke="white" stroke-width="1.687" stroke-miterlimit="79.8403"/>
    <path d="M6.84302 3.66406V1.13306H40.593V28.1331H37.218" stroke="white" stroke-width="1.687" stroke-miterlimit="79.8403"/>
    <path fill-rule="evenodd" clip-rule="evenodd" d="M30.468 34.0391V30.6641H28.797C28.658 30.1231 28.446 29.6141 28.169 29.1441L29.349 27.9641L27.261 25.8761L26.081 27.0561C25.611 26.7791 25.102 26.5671 24.562 26.4281V24.7581H21.187V26.4281C20.646 26.5671 20.136 26.7791 19.667 27.0561L18.487 25.8761L16.399 27.9641L17.579 29.1441C17.302 29.6141 17.09 30.1231 16.95 30.6641H15.281V34.0391H16.95C17.09 34.5791 17.302 35.0891 17.579 35.5581L16.399 36.7381L18.487 38.8261L19.667 37.6461C20.136 37.9231 20.646 38.1351 21.187 38.2751V39.9451H24.562V38.2751C25.102 38.1351 25.611 37.9231 26.081 37.6461L27.261 38.8261L29.349 36.7381L28.169 35.5581C28.446 35.0891 28.658 34.5791 28.797 34.0391H30.468ZM22.874 35.3891C21.196 35.3891 19.837 34.0291 19.837 32.3521C19.837 30.6731 21.196 29.3141 22.874 29.3141C24.552 29.3141 25.912 30.6731 25.912 32.3521C25.912 34.0291 24.552 35.3891 22.874 35.3891Z" stroke="white" stroke-width="1.687" stroke-miterlimit="79.8403"/>
    <path d="M9.37402 32.3521V10.4141" stroke="white" stroke-width="1.687" stroke-miterlimit="79.8403"/>
    <path d="M1.78101 10.4141H35.531" stroke="white" stroke-width="1.687" stroke-miterlimit="79.8403"/>
    <path d="M28.781 7.88306H30.468" stroke="white" stroke-width="1.687" stroke-miterlimit="79.8403"/>
    <path d="M26.249 7.88306H27.937" stroke="white" stroke-width="1.687" stroke-miterlimit="79.8403"/>
    <path d="M31.312 7.88306H32.999" stroke="white" stroke-width="1.687" stroke-miterlimit="79.8403"/>
    <path d="M15.281 14.6331H26.249" stroke="white" stroke-width="1.687" stroke-miterlimit="79.8403"/>
    <path d="M15.281 18.0081H22.874" stroke="white" stroke-width="1.687" stroke-miterlimit="79.8403"/>
    <path d="M27.093 14.6331H28.781" stroke="white" stroke-width="1.687" stroke-miterlimit="79.8403"/>
</svg>
