<svg width="56" height="56" viewBox="0 0 56 56" fill="none" xmlns="http://www.w3.org/2000/svg">
    <path fill-rule="evenodd" clip-rule="evenodd" d="M29.916 26.9563H25.0492C23.2272 26.9563 21.7428 25.355 21.7428 23.4863C21.7428 22.8189 22.2154 22.4187 22.8027 22.4187C23.39 22.4187 23.8626 22.8189 23.8626 23.4863C23.8626 24.1537 24.4058 24.8211 25.0492 24.8211H29.916C30.5594 24.8211 31.1026 24.1537 31.1026 23.4863C31.1026 22.8189 31.5765 22.4187 32.1625 22.4187C32.7498 22.4187 33.2237 22.8189 33.2237 23.4863C33.2237 25.355 31.7393 26.9563 29.916 26.9563Z" fill="white"/>
    <path fill-rule="evenodd" clip-rule="evenodd" d="M25.0481 45.1055C24.461 45.1055 23.9886 44.5707 23.9886 44.0369V25.8894C23.9886 25.3556 24.461 24.8221 25.0481 24.8221C25.6353 24.8221 26.1077 25.3556 26.1077 25.8894V44.0369C26.1077 44.5707 25.6353 45.1055 25.0481 45.1055Z" fill="white"/>
    <path fill-rule="evenodd" clip-rule="evenodd" d="M29.9134 45.1055C29.3263 45.1055 28.8539 44.5707 28.8539 44.0369V25.8894C28.8539 25.3556 29.3263 24.8221 29.9134 24.8221C30.5006 24.8221 30.9729 25.3556 30.9729 25.8894V44.0369C30.9729 44.5707 30.5006 45.1055 29.9134 45.1055Z" fill="white"/>
    <path fill-rule="evenodd" clip-rule="evenodd" d="M14.633 26.9563H9.70345C7.94414 26.9563 6.45848 25.355 6.45848 23.4863C6.45848 22.8189 6.93101 22.4187 7.517 22.4187C8.10432 22.4187 8.57686 22.8189 8.57686 23.4863C8.57686 24.1537 9.11612 24.8211 9.70345 24.8211H14.633C15.2203 24.8211 15.7555 24.1537 15.7555 23.4863C15.7555 22.8189 16.2281 22.4187 16.8154 22.4187C17.4027 22.4187 17.8753 22.8189 17.8753 23.4863C17.8753 25.355 16.391 26.9563 14.633 26.9563Z" fill="white"/>
    <path fill-rule="evenodd" clip-rule="evenodd" d="M9.70242 45.1055C9.11528 45.1055 8.64159 44.5707 8.64159 44.0369V25.8894C8.64159 25.3556 9.11528 24.8221 9.70242 24.8221C10.2882 24.8221 10.762 25.3556 10.762 25.8894V44.0369C10.762 44.5707 10.2882 45.1055 9.70242 45.1055Z" fill="white"/>
    <path fill-rule="evenodd" clip-rule="evenodd" d="M14.6304 45.1055C14.0433 45.1055 13.5709 44.5707 13.5709 44.0369V25.8894C13.5709 25.3556 14.0433 24.8221 14.6304 24.8221C15.2175 24.8221 15.6899 25.3556 15.6899 25.8894V44.0369C15.6899 44.5707 15.2175 45.1055 14.6304 45.1055Z" fill="white"/>
    <path fill-rule="evenodd" clip-rule="evenodd" d="M45.2604 26.9563H40.3936C38.5702 26.9563 37.0872 25.355 37.0872 23.4863C37.0872 22.8189 37.5598 22.4187 38.1471 22.4187C38.7344 22.4187 39.2069 22.8189 39.2069 23.4863C39.2069 24.1537 39.7516 24.8211 40.3936 24.8211H45.2604C45.8477 24.8211 46.3856 24.1537 46.3856 23.4863C46.3856 22.8189 46.8582 22.4187 47.4455 22.4187C48.0315 22.4187 48.504 22.8189 48.504 23.4863C48.504 25.355 47.0197 26.9563 45.2604 26.9563Z" fill="white"/>
    <path fill-rule="evenodd" clip-rule="evenodd" d="M40.3926 45.1055C39.8068 45.1055 39.3331 44.5707 39.3331 44.0369V25.8894C39.3331 25.3556 39.8068 24.8221 40.3926 24.8221C40.9797 24.8221 41.4534 25.3556 41.4534 25.8894V44.0369C41.4534 44.5707 40.9797 45.1055 40.3926 45.1055Z" fill="white"/>
    <path fill-rule="evenodd" clip-rule="evenodd" d="M45.2579 45.1055C44.6734 45.1055 44.1983 44.5707 44.1983 44.0369V25.8894C44.1983 25.3556 44.6734 24.8221 45.2579 24.8221C45.845 24.8221 46.3187 25.3556 46.3187 25.8894V44.0369C46.3187 44.5707 45.845 45.1055 45.2579 45.1055Z" fill="white"/>
    <path fill-rule="evenodd" clip-rule="evenodd" d="M52.1834 21.0854H4.52489C3.93774 21.0854 3.46405 20.5506 3.46405 20.0169C3.46405 19.4831 3.93774 18.9496 4.52489 18.9496H52.1834C52.7693 18.9496 53.2416 19.4831 53.2416 20.0169C53.2416 20.5506 52.7693 21.0854 52.1834 21.0854Z" fill="white"/>
    <path fill-rule="evenodd" clip-rule="evenodd" d="M54.7401 17.3484H1.96814C1.48375 17.3484 1.05942 17.082 0.940657 16.5483C0.819226 16.1479 1.0314 15.6144 1.45841 15.481L27.8437 0.935379C28.1626 0.801937 28.5443 0.801937 28.8632 0.935379L55.2485 15.481C55.6742 15.6144 55.8877 16.1479 55.7676 16.5483C55.6475 17.082 55.2245 17.3484 54.7401 17.3484ZM6.10617 15.3468H50.6008L28.3535 3.07122L6.10617 15.3468Z" fill="white"/>
    <path fill-rule="evenodd" clip-rule="evenodd" d="M50.6875 48.4414H6.02209C5.43495 48.4414 4.96255 48.04 4.96255 47.3728C4.96255 46.8391 5.43495 46.3056 6.02209 46.3056H50.6875C51.2747 46.3056 51.747 46.8391 51.747 47.3728C51.747 48.04 51.2747 48.4414 50.6875 48.4414Z" fill="white"/>
    <path fill-rule="evenodd" clip-rule="evenodd" d="M54.7402 55.7805H1.96824C1.3811 55.7805 0.908707 55.2457 0.908707 54.7119V50.9759C0.908707 50.4421 1.3811 49.9086 1.96824 49.9086H54.7402C55.3274 49.9086 55.7998 50.4421 55.7998 50.9759V54.7119C55.7998 55.2457 55.3274 55.7805 54.7402 55.7805ZM3.02643 53.6447H53.6807V52.0431H3.02643V53.6447Z" fill="white"/>
    <path fill-rule="evenodd" clip-rule="evenodd" d="M28.3542 13.2122C26.4269 13.2122 24.7986 11.6103 24.7986 9.6083C24.7986 7.60629 26.3949 5.87149 28.3542 5.87149C30.3148 5.87149 31.9098 7.60629 31.9098 9.6083C31.9098 11.6103 30.2828 13.2122 28.3542 13.2122ZM28.3542 8.00643C27.5761 8.00643 26.9194 8.8075 26.9194 9.6083C26.9194 10.4091 27.5881 11.0772 28.3542 11.0772C29.1203 11.0772 29.7903 10.4091 29.7903 9.6083C29.7903 8.8075 29.1323 8.00643 28.3542 8.00643Z" fill="white"/>
</svg>
