<svg width="23" height="22" viewBox="0 0 23 22" fill="none" xmlns="http://www.w3.org/2000/svg">
    <path d="M21.1622 8.5347C20.5206 6.89951 19.2455 5.59247 17.6442 4.93616C17.3887 3.85716 16.4426 3.05625 15.3089 3.05625C14.9446 3.05625 14.5993 3.13968 14.2894 3.28985V7.74491C14.5993 7.89508 14.9446 7.97851 15.3089 7.97851C16.4208 7.97851 17.356 7.20541 17.6306 6.15422C18.642 6.67147 19.4657 7.51409 19.9714 8.5486C18.9437 8.82948 18.1879 9.78612 18.1879 10.9235C18.1879 12.0609 18.9437 13.0176 19.9714 13.2984C19.4657 14.333 18.642 15.1756 17.6306 15.6928C17.356 14.6416 16.4208 13.8685 15.3089 13.8685C14.9446 13.8685 14.5993 13.9547 14.2894 14.1021V18.5572C14.5993 18.7074 14.9446 18.7908 15.3089 18.7908C16.4426 18.7908 17.3887 17.9899 17.6442 16.9109C19.2428 16.2546 20.5206 14.9503 21.1622 13.3123C22.217 13.0509 23 12.0832 23 10.9235C23 9.76387 22.217 8.79611 21.1622 8.5347ZM0 19.3887L13.4874 22V0L0 2.23587V19.3887ZM3.93664 12.9008H3.99102C4.31726 13.2206 4.68156 13.4736 5.08121 13.6627C5.48085 13.8519 5.8669 13.9464 6.23392 13.9464C6.69066 13.9464 7.04681 13.8519 7.30236 13.66C7.56064 13.4681 7.68842 13.1705 7.68842 12.7589C7.68842 12.4447 7.61773 12.2055 7.47908 12.0442C7.34043 11.8829 7.07128 11.7439 6.67435 11.6299C6.52754 11.5882 6.33452 11.5381 6.09799 11.4797C5.86147 11.4213 5.64397 11.3601 5.45095 11.2934C4.90993 11.1071 4.5266 10.8345 4.30095 10.4758C4.0753 10.1171 3.96111 9.67488 3.96111 9.14929C3.96111 8.82114 4.01277 8.50967 4.11879 8.22045C4.2221 7.93123 4.38251 7.66983 4.59456 7.44179C4.80118 7.21653 5.06217 7.04133 5.38026 6.91063C5.69835 6.77993 6.05449 6.71318 6.44598 6.71318C6.813 6.71318 7.18546 6.77158 7.56336 6.88838C7.94125 7.00518 8.2539 7.14701 8.50402 7.31387V8.75161H8.44965C8.18593 8.49855 7.86241 8.2872 7.48452 8.112C7.10662 7.9368 6.73416 7.85059 6.37258 7.85059C6.01099 7.85059 5.67388 7.94514 5.41288 8.13424C5.15189 8.32335 5.02139 8.60144 5.02139 8.97409C5.02139 9.30224 5.10024 9.54974 5.25792 9.7166C5.41288 9.88345 5.663 10.0197 6.00827 10.1226C6.19858 10.181 6.41336 10.2366 6.64988 10.295C6.88641 10.3534 7.08487 10.4035 7.24255 10.4535C7.72376 10.5954 8.09622 10.8429 8.35449 11.1905C8.61548 11.5437 8.74598 12.0109 8.74598 12.5921C8.74598 13.3207 8.51489 13.9186 8.05 14.3858C7.58511 14.853 6.95165 15.0866 6.14693 15.0866C5.69019 15.0866 5.27423 15.0171 4.89362 14.8752C4.513 14.7362 4.19492 14.5805 3.93664 14.4136V12.9008Z" fill="white"/>
</svg>
