<svg width="21" height="26" viewBox="0 0 21 26" fill="none" xmlns="http://www.w3.org/2000/svg">
    <path d="M20.5144 2.14353C20.3619 2.02132 20.1837 1.93452 19.9929 1.88952C19.8021 1.84451 19.6036 1.84244 19.4119 1.88345C18.0094 2.17467 16.5616 2.17838 15.1576 1.89435C13.7536 1.61033 12.4231 1.04458 11.2481 0.231935C11.0284 0.0809218 10.7674 0 10.5 0C10.2326 0 9.97158 0.0809218 9.75188 0.231935C8.57687 1.04458 7.24641 1.61033 5.84242 1.89435C4.43843 2.17838 2.99062 2.17467 1.58813 1.88345C1.39643 1.84244 1.19788 1.84451 1.00709 1.88952C0.816298 1.93452 0.638113 2.02132 0.485632 2.14353C0.333355 2.26593 0.210691 2.42057 0.126654 2.5961C0.0426161 2.77162 -0.000659124 2.96358 7.58819e-06 3.15785V12.8459C-0.00115927 14.7103 0.447272 16.5481 1.30796 18.2061C2.16865 19.8641 3.41668 21.2944 4.94813 22.3779L9.73875 25.7589C9.96104 25.9157 10.2271 26 10.5 26C10.7729 26 11.039 25.9157 11.2612 25.7589L16.0519 22.3779C17.5833 21.2944 18.8314 19.8641 19.692 18.2061C20.5527 16.5481 21.0012 14.7103 21 12.8459V3.15785C21.0007 2.96358 20.9574 2.77162 20.8733 2.5961C20.7893 2.42057 20.6666 2.26593 20.5144 2.14353ZM18.375 12.8459C18.376 14.2955 18.0276 15.7244 17.3587 17.0137C16.6898 18.303 15.7198 19.4153 14.5294 20.2582L10.5 23.1061L6.47063 20.2582C5.28024 19.4153 4.31023 18.303 3.64134 17.0137C2.97244 15.7244 2.624 14.2955 2.62501 12.8459V4.65332C5.37657 4.88665 8.13231 4.25412 10.5 2.84575C12.8677 4.25412 15.6234 4.88665 18.375 4.65332V12.8459ZM12.5212 9.86795L8.99063 13.379L7.8225 12.2087C7.57535 11.9638 7.24015 11.8262 6.89063 11.8262C6.54111 11.8262 6.2059 11.9638 5.95875 12.2087C5.7116 12.4536 5.57276 12.7857 5.57276 13.132C5.57276 13.4783 5.7116 13.8104 5.95875 14.0553L8.05875 16.1359C8.18077 16.2578 8.32593 16.3545 8.48587 16.4206C8.64581 16.4866 8.81736 16.5206 8.99063 16.5206C9.16389 16.5206 9.33544 16.4866 9.49538 16.4206C9.65532 16.3545 9.80049 16.2578 9.9225 16.1359L14.4375 11.7015C14.6846 11.4567 14.8235 11.1245 14.8235 10.7782C14.8235 10.4319 14.6846 10.0998 14.4375 9.85495C14.1903 9.61007 13.8551 9.47251 13.5056 9.47251C13.1561 9.47251 12.8209 9.61007 12.5737 9.85495L12.5212 9.86795Z" fill="url(#paint0_linear_78_1835)"/>
    <defs>
        <linearGradient id="paint0_linear_78_1835" x1="0.798236" y1="0.164804" x2="32.0071" y2="25.1236" gradientUnits="userSpaceOnUse">
            <stop stop-color="#0E1D42"/>
            <stop offset="1" stop-color="#E62752"/>
        </linearGradient>
    </defs>
</svg>
