<svg width="65" height="80" viewBox="0 0 65 80" fill="none" xmlns="http://www.w3.org/2000/svg">
    <path opacity="0.1" d="M63.4968 6.59549C63.0249 6.21945 62.4734 5.95238 61.8828 5.81389C61.2923 5.67541 60.6777 5.66903 60.0844 5.79524C55.7433 6.69129 51.262 6.70271 46.9163 5.82878C42.5706 4.95485 38.4525 3.21408 34.8156 0.713645C34.1356 0.24899 33.3277 0 32.5 0C31.6723 0 30.8644 0.24899 30.1844 0.713645C26.5475 3.21408 22.4294 4.95485 18.0837 5.82878C13.738 6.70271 9.25668 6.69129 4.91565 5.79524C4.32227 5.66903 3.70772 5.67541 3.11718 5.81389C2.52664 5.95238 1.97511 6.21945 1.50315 6.59549C1.03181 6.97208 0.652139 7.4479 0.392023 7.98798C0.131907 8.52807 -0.00204015 9.1187 2.34873e-05 9.71646V39.5258C-0.00358822 45.2626 1.38441 50.9172 4.04844 56.0188C6.71247 61.1204 10.5754 65.5213 15.3156 68.855L30.1438 79.2582C30.8318 79.7407 31.6554 80 32.5 80C33.3446 80 34.1682 79.7407 34.8563 79.2582L49.6844 68.855C54.4246 65.5213 58.2875 61.1204 60.9516 56.0188C63.6156 50.9172 65.0036 45.2626 65 39.5258V9.71646C65.002 9.1187 64.8681 8.52807 64.608 7.98798C64.3479 7.4479 63.9682 6.97208 63.4968 6.59549ZM56.875 39.5258C56.8781 43.9862 55.7996 48.3829 53.7292 52.3499C51.6588 56.3169 48.6564 59.7395 44.9719 62.3329L32.5 71.0957L20.0281 62.3329C16.3436 59.7395 13.3412 56.3169 11.2708 52.3499C9.20042 48.3829 8.1219 43.9862 8.12502 39.5258V14.3179C16.6418 15.0359 25.1714 13.0896 32.5 8.75616C39.8286 13.0896 48.3582 15.0359 56.875 14.3179V39.5258Z" fill="url(#paint0_linear_78_1853)"/>
    <defs>
        <linearGradient id="paint0_linear_78_1853" x1="2.47073" y1="0.50709" x2="98.6219" y2="77.86" gradientUnits="userSpaceOnUse">
            <stop stop-color="#0E1D42"/>
            <stop offset="1" stop-color="#E62752"/>
        </linearGradient>
    </defs>
</svg>
