<svg width="151" height="275" viewBox="0 0 151 275" fill="none" xmlns="http://www.w3.org/2000/svg">
    <path fill-rule="evenodd" clip-rule="evenodd"
          d="M110.232 275C107.382 275 104.592 274.083 102.253 272.48L51.9527 236.761C35.8866 225.312 22.7693 209.971 13.7345 192.569C4.69978 174.938 0 155.476 0 135.784V33.4316C0 31.3709 0.461225 29.3088 1.34015 27.477C2.23054 25.6452 3.52487 24.0432 5.11519 22.6694C6.7078 21.2955 8.58269 20.3792 10.5769 19.9212C12.5826 19.4633 14.6846 19.4633 16.6789 19.9212C31.3887 22.8979 46.608 22.8979 61.3431 19.9212C76.0737 16.9446 90.0355 10.9921 102.384 2.52005C104.686 0.688263 107.439 0 110.232 0C113.032 0 115.774 0.917236 118.078 2.52005C127.32 8.93134 137.483 13.7385 148.214 17.1731L150.998 17.8618V46.2533L150.029 46.0253C136.079 42.8196 122.631 37.5532 110.207 29.997C85.3586 44.8804 56.4391 51.5193 27.5425 49.2296V135.784C27.5425 151.125 31.1867 166.237 38.2158 179.975C45.2311 193.485 55.4178 205.392 67.9063 214.322L110.232 244.316L151 215.236V249.126L118.221 272.48C115.871 274.083 113.08 275 110.232 275ZM94.3704 174.71C92.5782 174.71 90.7492 174.252 89.0877 173.565C87.3895 172.878 85.8819 171.96 84.599 170.586L62.5526 148.605C59.9526 146.087 58.4929 142.424 58.4929 138.76C58.4929 135.096 59.9526 131.661 62.5526 129.143C65.1412 126.395 68.6545 125.022 72.324 125.022C75.9911 125.022 79.5183 126.395 82.1068 129.143L94.3704 141.508L131.434 104.414L131.992 104.184C134.592 101.665 138.105 100.062 141.775 100.062C143.608 100.062 145.405 100.52 147.064 101.207L150.998 103.727L151 124.335L104.153 170.586C102.87 171.96 101.328 172.878 99.6531 173.565C97.9917 174.252 96.1856 174.71 94.3704 174.71Z"
          fill="url(#paint0_linear_324_137)" fill-opacity="0.109804"/>
    <defs>
        <linearGradient id="paint0_linear_324_137" x1="-41.0775" y1="25.7152" x2="319.7" y2="211.057"
                        gradientUnits="userSpaceOnUse">
            <stop stop-color="#0E1D42"/>
            <stop offset="1" stop-color="#E62752"/>
        </linearGradient>
    </defs>
</svg>
