<svg width="298" height="352" viewBox="0 0 298 352" fill="none" xmlns="http://www.w3.org/2000/svg">
    <g opacity="0.6">
        <path fill-rule="evenodd" clip-rule="evenodd" d="M103.974 351.062L98.5693 346.698C84.434 333.779 72.6831 318.437 63.8769 301.304C52.1386 278.443 46.05 253.135 46.05 227.474H46.0878V82.3857C94.3176 86.5239 142.669 75.3447 184.176 50.3643C215.306 69.087 250.268 80.0633 286.164 82.637L297.141 82.5606L297.136 36.9668L293.747 37.0678C284.378 36.6137 275.032 35.4514 265.804 33.5589C241.195 28.5124 217.872 18.5204 197.244 4.11255C193.399 1.41265 188.799 -9.39841e-05 184.136 -9.39841e-05C179.458 -9.39841e-05 174.876 1.46312 171.028 4.11255C150.443 18.47 127.12 28.513 102.47 33.5343C77.8558 38.5304 52.4742 38.4803 27.8623 33.3076C24.4937 32.6263 21.0217 32.6252 17.6708 33.4579C14.3173 34.2401 11.2036 35.7806 8.52643 37.9254C5.89214 40.1206 3.72717 42.8702 2.2233 45.9486C0.732052 49.0522 0.000281196 52.4849 0.000281196 55.8914V227.523C0.000281196 260.527 7.85525 293.053 22.9444 322.424C26.7192 329.767 30.9204 336.857 35.5178 343.67L41.1851 351.062H103.974Z" fill="url(#paint0_linear_256_174)" fill-opacity="0.109804"/>
        <path d="M159.442 290.758C162.218 291.893 165.274 292.522 168.269 292.522C171.302 292.522 174.317 291.893 177.093 290.758C179.888 289.597 182.467 287.879 184.607 285.684L263.774 207.162C268.12 202.822 270.56 196.942 270.56 190.81C270.56 184.679 268.12 178.824 263.774 174.458C259.455 170.144 253.583 167.697 247.454 167.697C241.325 167.697 235.458 170.144 231.113 174.458L230.18 174.737L168.269 236.909L147.78 216.193C143.46 211.853 137.566 209.407 131.442 209.407C125.313 209.407 119.441 211.853 115.118 216.193C110.776 220.508 108.336 226.388 108.336 232.545C108.336 238.677 110.776 244.53 115.118 248.87L151.946 285.684C154.088 287.829 156.606 289.547 159.442 290.758Z" fill="url(#paint1_linear_256_174)" fill-opacity="0.109804"/>
    </g>
    <defs>
        <linearGradient id="paint0_linear_256_174" x1="377.974" y1="32.8276" x2="-173.507" y2="469.541" gradientUnits="userSpaceOnUse">
            <stop stop-color="#0E1D42"/>
            <stop offset="1" stop-color="#E62752"/>
        </linearGradient>
        <linearGradient id="paint1_linear_256_174" x1="0.924778" y1="32.828" x2="552.405" y2="469.541" gradientUnits="userSpaceOnUse">
            <stop stop-color="#0E1D42"/>
            <stop offset="1" stop-color="#E62752"/>
        </linearGradient>
    </defs>
</svg>
