<svg width="9" height="11" viewBox="0 0 9 11" fill="none" xmlns="http://www.w3.org/2000/svg">
    <path d="M8.79187 0.906818C8.72652 0.855114 8.65016 0.818391 8.56839 0.799349C8.48662 0.780307 8.40153 0.779431 8.31937 0.796784C7.71831 0.919991 7.09782 0.921561 6.4961 0.801396C5.89439 0.681231 5.3242 0.441876 4.82062 0.0980652C4.72646 0.0341751 4.6146 -6.10352e-05 4.5 -6.10352e-05C4.3854 -6.10352e-05 4.27354 0.0341751 4.17938 0.0980652C3.6758 0.441876 3.10561 0.681231 2.5039 0.801396C1.90218 0.921561 1.28169 0.919991 0.680628 0.796784C0.598468 0.779431 0.513377 0.780307 0.43161 0.799349C0.349842 0.818391 0.273477 0.855114 0.208128 0.906818C0.142866 0.9586 0.0902962 1.02402 0.0542801 1.09829C0.0182641 1.17255 -0.000282482 1.25376 3.25208e-06 1.33595V5.43474C-0.00049683 6.22354 0.191688 7.00106 0.560554 7.70252C0.929419 8.40399 1.46429 9.00911 2.12063 9.4675L4.17375 10.8979C4.26902 10.9643 4.38305 10.9999 4.5 10.9999C4.61695 10.9999 4.73098 10.9643 4.82625 10.8979L6.87937 9.4675C7.53571 9.00911 8.07058 8.40399 8.43945 7.70252C8.80831 7.00106 9.0005 6.22354 9 5.43474V1.33595C9.00028 1.25376 8.98174 1.17255 8.94572 1.09829C8.9097 1.02402 8.85713 0.9586 8.79187 0.906818ZM7.875 5.43474C7.87543 6.04804 7.7261 6.65258 7.43943 7.19805C7.15276 7.74351 6.73704 8.21412 6.22687 8.57072L4.5 9.77559L2.77313 8.57072C2.26296 8.21412 1.84724 7.74351 1.56057 7.19805C1.2739 6.65258 1.12457 6.04804 1.125 5.43474V1.96865C2.30424 2.06737 3.48527 1.79976 4.5 1.20391C5.51473 1.79976 6.69576 2.06737 7.875 1.96865V5.43474ZM5.36625 4.17484L3.85313 5.66031L3.3525 5.16515C3.24658 5.06155 3.10292 5.00335 2.95313 5.00335C2.80333 5.00335 2.65967 5.06155 2.55375 5.16515C2.44783 5.26875 2.38833 5.40926 2.38833 5.55577C2.38833 5.70229 2.44783 5.8428 2.55375 5.9464L3.45375 6.82667C3.50604 6.87824 3.56826 6.91917 3.6368 6.9471C3.70535 6.97503 3.77887 6.98941 3.85313 6.98941C3.92738 6.98941 4.0009 6.97503 4.06945 6.9471C4.138 6.91917 4.20021 6.87824 4.2525 6.82667L6.1875 4.95058C6.29342 4.84698 6.35292 4.70647 6.35292 4.55996C6.35292 4.41345 6.29342 4.27294 6.1875 4.16934C6.08158 4.06574 5.93792 4.00754 5.78812 4.00754C5.63833 4.00754 5.49467 4.06574 5.38875 4.16934L5.36625 4.17484Z" fill="#E12651"/>
</svg>
