<svg width="80" height="54" viewBox="0 0 80 54" fill="none" xmlns="http://www.w3.org/2000/svg">
    <path fill-rule="evenodd" clip-rule="evenodd" d="M10.5942 53.9233L7.98546 50.4544C7.00467 48.9865 6.10661 47.5182 5.29929 45.9169C2.07935 39.6451 0.400635 32.7059 0.400635 25.6336V0.0138893H10.2286V25.6336C10.2286 31.2381 11.5283 36.5762 14.033 41.5136C16.5377 46.3175 20.174 50.5878 24.6282 53.7904L24.8831 53.9233H10.5942ZM54.5551 53.9233L54.8139 53.7904C59.2749 50.5878 62.8965 46.3175 65.4012 41.5136C67.9125 36.5762 69.2123 31.2381 69.2123 25.6336H69.2056V0.0138893H79.0402V25.6336C79.0402 32.7059 77.3682 39.6451 74.1402 45.9169C73.3356 47.5182 72.4389 48.9865 71.4568 50.4544L68.8493 53.9233H54.5551ZM34.0692 39.6449C33.426 39.6449 32.7762 39.5117 32.1784 39.2448C31.5792 38.9779 31.0387 38.5779 30.5783 38.1775L22.7133 30.304C21.7873 29.3699 21.2682 28.036 21.2682 26.835C21.2682 25.5006 21.7873 24.166 22.7133 23.2319C23.6421 22.2978 24.8898 21.8975 26.2055 21.8975C27.5119 21.8975 28.7689 22.2978 29.6883 23.2319L34.0692 27.7694L47.2852 14.4253H47.4907C48.4168 13.4912 49.6645 12.9566 50.9722 12.9566C52.2866 12.9566 53.5355 13.4912 54.463 14.4253C55.3917 15.3594 55.9095 16.5598 55.9095 17.8942C55.9095 19.2286 55.3917 20.4304 54.463 21.3645L37.552 38.1775C37.0983 38.5779 36.5445 38.9779 35.9534 39.2448C35.3542 39.5117 34.7111 39.6449 34.0692 39.6449Z" fill="white" fill-opacity="0.109804"/>
</svg>
