<svg width="158" height="187" viewBox="0 0 158 187" fill="none" xmlns="http://www.w3.org/2000/svg">
    <path fill-rule="evenodd" clip-rule="evenodd" d="M102.401 186.244L105.26 183.936C112.735 177.104 118.949 168.991 123.607 159.93C129.814 147.84 133.034 134.456 133.034 120.886H133.014V44.1568C107.508 46.3453 81.9382 40.4332 59.9871 27.2226C43.5245 37.1239 25.0349 42.9286 6.05152 44.2897L0.246826 44.2493L0.249495 20.1374L2.04161 20.1908C6.99628 19.9506 11.9389 19.336 16.8189 18.3352C29.8334 15.6664 42.1674 10.3822 53.0762 2.7627C55.1098 1.33487 57.5425 0.587753 60.0085 0.587753C62.4825 0.587753 64.9057 1.36156 66.9407 2.7627C77.8269 10.3555 90.1608 15.6667 103.197 18.3221C116.214 20.9643 129.637 20.9378 142.653 18.2023C144.434 17.842 146.27 17.8414 148.042 18.2818C149.816 18.6954 151.462 19.5101 152.878 20.6443C154.271 21.8053 155.416 23.2594 156.212 24.8873C157 26.5287 157.387 28.3441 157.387 30.1455V120.912C157.387 138.366 153.233 155.567 145.253 171.099C143.257 174.982 141.035 178.732 138.604 182.335L135.607 186.244H102.401ZM45.9971 155.286C44.4132 155.286 42.7972 154.953 41.3294 154.353C39.8295 153.712 38.4977 152.804 37.3648 151.67L17.8891 132.201C15.5926 129.905 14.3022 126.81 14.3022 123.567C14.3022 120.311 15.5926 117.202 17.8891 114.92C20.1749 112.625 23.2801 111.331 26.5214 111.331C29.76 111.331 32.8772 112.625 35.1617 114.92L45.9971 125.875L78.7383 92.9958L79.232 92.8485C81.5299 90.5667 84.6324 89.2727 87.8736 89.2727C91.1149 89.2727 94.2201 90.5667 96.5046 92.8485C98.8025 95.1571 100.093 98.2535 100.093 101.496C100.093 104.739 98.8025 107.849 96.5046 110.144L54.6375 151.67C53.5059 152.83 52.1421 153.739 50.6636 154.353C49.1957 154.953 47.6011 155.286 45.9971 155.286Z" fill="url(#paint0_linear_2_535)" fill-opacity="0.109804"/>
    <defs>
        <linearGradient id="paint0_linear_2_535" x1="-42.5011" y1="17.9484" x2="249.145" y2="248.901" gradientUnits="userSpaceOnUse">
            <stop stop-color="#0E1D42"/>
            <stop offset="1" stop-color="#E62752"/>
        </linearGradient>
    </defs>
</svg>
