<svg width="118" height="214" viewBox="0 0 118 214" fill="none" xmlns="http://www.w3.org/2000/svg">
    <path fill-rule="evenodd" clip-rule="evenodd" d="M85.5173 213.391C83.3128 213.391 81.1538 212.697 79.3443 211.402L40.4275 183.674C27.9961 174.787 17.8479 163.043 10.8583 149.459C3.86728 135.848 0.231018 120.782 0.231018 105.49V26.0261C0.231018 24.4381 0.588631 22.8633 1.26785 21.4221C1.95774 19.9676 2.95854 18.7142 4.18887 17.7134C5.42187 16.6859 6.87238 16.0049 8.41496 15.6179C9.96688 15.2443 11.5935 15.2176 13.1361 15.5645C24.5173 17.9531 36.2922 17.9936 47.692 15.6583C59.0892 13.3231 69.8913 8.69177 79.4457 2.01971C81.2258 0.778702 83.3569 0.111923 85.5173 0.111923C87.6844 0.111923 89.8061 0.792053 91.5889 2.01971C98.7386 7.01041 106.602 10.867 114.904 13.4691L117.057 14.0294V36.0211L116.309 35.9143C105.515 33.4056 95.1104 29.2294 85.4986 23.4381C66.2737 35.0074 43.8983 40.1851 21.5416 38.2769V105.477C21.5416 117.367 24.3612 129.083 29.7989 139.665C35.226 150.233 43.1083 159.375 52.7708 166.274L85.5173 189.639L117.06 167.127V193.334L91.6983 211.402C89.8808 212.697 87.7217 213.391 85.5173 213.391ZM73.246 135.595C71.8583 135.595 70.4438 135.314 69.1587 134.781C67.8443 134.22 66.6781 133.433 65.6853 132.432L48.6275 115.378C46.6165 113.377 45.4876 110.655 45.4876 107.812C45.4876 104.97 46.6165 102.248 48.6275 100.246C50.6304 98.2446 53.3486 97.1109 56.1882 97.1109C59.0252 97.1109 61.7541 98.2446 63.757 100.246L73.246 109.841L101.921 81.0445L102.354 80.9246C104.365 78.923 107.083 77.788 109.922 77.788C111.341 77.788 112.731 78.082 114.015 78.6024L117.057 80.6445L117.06 96.4828L80.8148 132.432C79.822 133.447 78.6291 134.247 77.3334 134.781C76.047 135.314 74.6498 135.595 73.246 135.595Z" fill="white" fill-opacity="0.035294"/>
</svg>
