<svg width="87" height="28" viewBox="0 0 87 28" fill="none" xmlns="http://www.w3.org/2000/svg">
    <path d="M0 24.9227L2.92549 19.3092C4.82041 21.1353 6.81506 22.0483 8.94268 22.0483C10.1395 22.0483 11.0371 21.744 11.569 21.1353C12.0011 20.6957 12.2339 20.1208 12.2339 19.4444C12.2339 18.7681 11.9679 18.2609 11.5025 17.8551C11.0703 17.4831 9.94001 17.0097 8.11158 16.4686L6.34964 15.8937C4.5877 15.3188 3.32442 14.6087 2.5598 13.7295C1.56248 12.6473 1.06381 11.058 1.06381 8.99517C1.06381 6.32367 1.86167 4.15942 3.45739 2.53623C5.05311 0.913044 7.34696 0 10.206 0C13.065 0 15.6248 0.710145 18.3175 2.16425L15.5915 7.57488C14.0955 6.35749 12.5995 5.78261 11.1036 5.78261C10.1727 5.78261 9.4081 6.05314 8.84295 6.5942C8.37753 7.03382 8.17807 7.54106 8.17807 8.04831C8.17807 8.55556 8.31104 8.92754 8.54375 9.2657C8.90944 9.70531 9.67405 10.1111 10.8376 10.4831L12.932 11.1256C15.1261 11.8357 16.7218 12.715 17.6859 13.7633C18.8162 14.9807 19.3814 16.57 19.3814 18.5314C19.3814 21.3382 18.5502 23.57 16.888 25.2609C15.0929 27.087 12.4998 28 9.14215 28C7.28047 28 5.55178 27.6957 3.9893 27.1208C2.65953 26.6473 1.32977 25.9372 0 24.9903V24.9227Z" fill="white"/>
    <path d="M23.6699 0.608696H30.4849V27.3575H23.6699V0.608696Z" fill="white"/>
    <path d="M50.9633 0.608696V6.49275H42.8517V10.9565H50.5311V16.8406H42.8517V21.4396H50.9633V27.3237H36.0367V0.608696H50.9633Z" fill="white"/>
    <path d="M60.9033 27.3575H54.1215L58.5762 0.608696H65.3248L70.6439 14.8792L76.2621 0.608696H83.0772L87 27.3575H80.1849L78.2568 11.971L71.9071 27.3575H69.1811L63.0974 11.971L60.8368 27.3575H60.9033Z" fill="white"/>
</svg>
