<svg width="41" height="40" viewBox="0 0 41 40" fill="none" xmlns="http://www.w3.org/2000/svg">
    <path d="M35.0115 5.8556C31.1355 2.08435 25.9915 0 20.5124 0C15.0334 0 9.88039 2.08435 6.00431 5.8556C2.13728 9.63568 0 14.6611 0 20.0044C0 25.3478 2.13728 30.3731 6.00431 34.1444C9.88039 37.9245 15.0244 40 20.5034 40C25.9824 40 31.1355 37.9157 35.0025 34.1444C42.9992 26.3458 42.9992 13.6542 35.0025 5.8556H35.0115ZM32.4486 31.645C29.2608 34.7538 25.0134 36.4672 20.5034 36.4672C15.9934 36.4672 11.755 34.7538 8.55817 31.645C5.37037 28.5361 3.61345 24.3939 3.61345 19.9956C3.61345 15.5973 5.37037 11.4639 8.55817 8.34621C11.746 5.23736 15.9934 3.52396 20.5034 3.52396C25.0134 3.52396 29.2518 5.23736 32.4486 8.34621C39.0325 14.7671 39.0325 25.2153 32.4486 31.6361V31.645ZM20.5124 8.99978C19.5163 8.99978 18.7012 9.79466 18.7012 10.7662V22.3714C18.7012 23.3429 19.5163 24.1378 20.5124 24.1378C21.5086 24.1378 22.3237 23.3429 22.3237 22.3714V10.7662C22.3237 9.79466 21.5086 8.99978 20.5124 8.99978ZM20.5124 26.5224C19.5163 26.5224 18.7012 27.3173 18.7012 28.2888V28.9954C18.7012 29.9669 19.5163 30.7618 20.5124 30.7618C21.5086 30.7618 22.3237 29.9669 22.3237 28.9954V28.2888C22.3237 27.3173 21.5086 26.5224 20.5124 26.5224Z" fill="white"/>
</svg>
