<svg width="41" height="37" viewBox="0 0 41 37" fill="none" xmlns="http://www.w3.org/2000/svg">
    <path d="M40.4385 1.49474C39.7906 0.5849 38.797 0.0216628 37.6739 0C37.3715 0 37.0692 0 36.7668 0H3.48418C3.48418 0 3.28984 0 3.18185 0C1.73478 0.086651 0.395646 1.08313 0.0932729 2.53454C-0.0363155 3.09777 0.00692809 3.66103 0.00692809 4.22427V25.9953C0.00692809 26.8185 0.287671 27.555 0.784427 28.2049C1.38917 28.9631 2.36107 29.3747 3.33298 29.3964H19.2076V34.4005H12.8794C12.0586 34.4005 11.2379 34.4005 10.4388 34.4005H10.3956C9.72605 34.4005 9.07809 34.9854 9.09969 35.7003C9.12129 36.3935 9.66125 37 10.3956 37H28.106C28.9267 37 29.7474 37 30.5465 37H30.5897C31.2593 37 31.9072 36.4151 31.8856 35.7003C31.864 35.007 31.3241 34.4005 30.5897 34.4005H21.7777V29.3964H37.6739C39.1425 29.3964 40.4601 28.3999 40.8704 26.9702C40.9784 26.6236 41 26.2553 41 25.887V3.40107C41 2.72952 40.8273 2.0363 40.4385 1.49474ZM34.2398 26.8185H20.6547C20.6547 26.8185 20.5683 26.8185 20.5035 26.8185H3.3546C3.3546 26.8185 3.26821 26.8185 3.22502 26.8185C3.16022 26.8185 3.09539 26.7968 3.0522 26.7752C2.9874 26.7535 2.94423 26.7102 2.87944 26.6885C2.85784 26.6669 2.83625 26.6452 2.81465 26.6236C2.81465 26.6236 2.77146 26.5802 2.74986 26.5586C2.72826 26.5152 2.68504 26.4502 2.66345 26.4069C2.66345 26.3419 2.62025 26.2769 2.59866 26.212C2.59866 25.9953 2.59866 25.7787 2.59866 25.5837V6.10891C2.59866 5.19908 2.59866 4.31091 2.59866 3.40107C2.59866 3.35774 2.59866 3.33607 2.59866 3.29275C2.59866 3.22776 2.6203 3.16277 2.64189 3.11944C2.66349 3.05445 2.70664 3.01113 2.72824 2.94614C2.74984 2.92447 2.77143 2.90281 2.79303 2.88115C2.79303 2.88115 2.83622 2.83783 2.85782 2.81617C2.90102 2.7945 2.96583 2.75119 3.00902 2.72953C3.07382 2.72953 3.1386 2.68619 3.2034 2.68619C3.52737 2.68619 3.85135 2.68619 4.15372 2.68619H37.6307C37.6307 2.68619 37.7171 2.68619 37.7603 2.68619C37.8251 2.68619 37.8899 2.70787 37.9331 2.72953C37.9979 2.75119 38.0411 2.7945 38.1059 2.81617C38.1275 2.83783 38.1491 2.85949 38.1707 2.88115C38.1707 2.88115 38.2139 2.92447 38.2355 2.94614C38.257 2.98946 38.3003 3.05447 38.3219 3.09779C38.3219 3.16278 38.365 3.22776 38.365 3.29275C38.365 3.50938 38.365 3.72601 38.365 3.94264V23.4174C38.365 24.3273 38.365 25.2154 38.365 26.1253C38.365 26.1686 38.365 26.1903 38.365 26.2336C38.365 26.2986 38.3435 26.3636 38.3219 26.4069C38.3003 26.4719 38.257 26.5152 38.2355 26.5802C38.2139 26.6019 38.1923 26.6235 38.1707 26.6452C38.1707 26.6452 38.1275 26.6885 38.1059 26.7102C38.0627 26.7319 37.9979 26.7752 37.9547 26.7969C37.8899 26.8185 37.8251 26.8402 37.7603 26.8618H34.2398V26.8185Z" fill="white"/>
    <path d="M33.4623 6.36884C32.4472 6.00058 31.1729 6.36885 30.4818 7.19204C29.7906 7.99356 29.5746 9.12002 29.9418 10.0948C29.5098 10.5931 29.0563 11.0913 28.6244 11.5896C27.5445 12.8027 26.4861 13.9941 25.4062 15.2073L25.2766 15.3589C24.4991 15.1423 23.7216 15.2939 23.0736 15.6838C21.821 14.904 20.5898 14.1458 19.3372 13.3659C19.3372 13.2793 19.3372 13.2143 19.3372 13.1276C19.3372 13.0626 19.3372 12.976 19.3372 12.911C19.2508 11.9362 18.6892 11.0047 17.7821 10.5931C16.7022 10.0948 15.4927 10.2465 14.5856 11.048C13.8297 11.7196 13.5057 12.8677 13.7649 13.8425C13.3329 14.2324 12.9226 14.6007 12.4906 14.9906C11.4971 15.9004 10.4819 16.7886 9.46682 17.6985C9.35883 17.6551 9.2293 17.6118 9.12131 17.5902C7.91182 17.3302 6.70228 17.8068 6.03274 18.8683C5.44959 19.7781 5.47121 21.0779 6.11915 21.966C6.83189 22.9408 7.99819 23.4174 9.16449 23.1141C10.3308 22.8325 11.1515 21.7711 11.2595 20.6013C11.2595 20.5363 11.2595 20.4497 11.2595 20.363C11.2595 20.1247 11.2163 19.8648 11.1515 19.6481C11.5834 19.2582 12.0155 18.8899 12.4258 18.5C13.4193 17.5902 14.4344 16.702 15.4279 15.7922C15.7951 15.9438 16.2054 16.0304 16.6374 15.9871C17.1126 15.9438 17.5445 15.8138 17.9333 15.5755C19.186 16.3554 20.4171 17.1136 21.6698 17.8934C21.6698 18.0234 21.6698 18.1534 21.6698 18.2834C21.7346 18.9332 21.9505 19.4748 22.3609 19.9731C23.0304 20.7962 24.2183 21.1212 25.2334 20.8612C26.3997 20.5363 27.2204 19.4965 27.3068 18.305C27.3068 18.2401 27.3068 18.175 27.3068 18.1101C27.3068 18.1101 27.3068 18.0017 27.3068 17.9367C27.2852 17.6551 27.2205 17.3519 27.1125 17.0919C27.566 16.5937 27.998 16.0954 28.4515 15.5972L31.6696 11.9795L31.7993 11.8279C32.2744 11.9578 32.7928 11.9795 33.2679 11.8279C34.499 11.5029 35.3413 10.3548 35.3629 9.07669C35.3629 9.0117 35.3629 8.94672 35.3629 8.88173C35.2549 7.71194 34.499 6.78044 33.3975 6.36884H33.4623ZM8.64615 20.5146V20.558L8.55974 20.6013H8.5165C8.5165 20.6013 8.45176 20.6013 8.43016 20.6013H8.36537L8.30058 20.558V20.5146L8.23579 20.4496V20.4063C8.23579 20.4063 8.23579 20.3413 8.23579 20.3197V20.2763L8.27896 20.2113H8.30058V20.168L8.36537 20.1247H8.43016C8.43016 20.1247 8.47335 20.1247 8.49495 20.1247H8.55974C8.55974 20.1247 8.60294 20.168 8.62453 20.168V20.2113L8.68933 20.298V20.493L8.62453 20.558L8.64615 20.5146ZM24.6935 18.2184V18.2617L24.6071 18.305H24.5639C24.5639 18.305 24.4991 18.305 24.4775 18.305H24.4127L24.3479 18.2617V18.2184L24.2831 18.1534V18.1101C24.2831 18.1101 24.2831 18.0451 24.2831 18.0234V17.9801L24.3263 17.9367V17.8934H24.3479L24.4127 17.8501H24.4559C24.4559 17.8501 24.4991 17.8501 24.5207 17.8501H24.5855L24.6503 17.9151H24.6719V17.9584L24.715 18.0234C24.715 18.0234 24.7151 18.0884 24.7367 18.1317V18.2184L24.6719 18.2834L24.6935 18.2184ZM16.2703 12.9327V12.8894L16.3566 12.846H16.3998C16.3998 12.846 16.4646 12.846 16.4862 12.846H16.551L16.6158 12.8894V12.9327L16.6806 12.9976V13.0843C16.6806 13.0843 16.6806 13.1493 16.6806 13.1709L16.6374 13.2576H16.6158L16.551 13.3226H16.5078C16.5078 13.3226 16.443 13.3226 16.4214 13.3226H16.3566L16.2918 13.2793L16.2486 13.2359L16.2055 13.1709V13.106C16.2055 13.106 16.2055 13.0627 16.2055 13.0193V12.9543L16.2486 12.8894L16.2703 12.9327ZM32.7711 9.20666V9.24999L32.6847 9.29333H32.6416C32.6416 9.29333 32.5768 9.29333 32.5552 9.29333H32.512L32.4472 9.22834H32.4256V9.18501L32.3824 9.12002V9.07669C32.3824 9.07669 32.3824 9.01171 32.3824 8.99005V8.92507L32.4256 8.86008V8.81675L32.512 8.77341H32.5552C32.5552 8.77341 32.62 8.77341 32.6416 8.77341H32.6847L32.7495 8.81675H32.7711V8.88173L32.8143 8.92507V9.09837L32.7495 9.16336L32.7711 9.20666Z" fill="white"/>
</svg>
