<svg width="36" height="36" viewBox="0 0 36 36" fill="none" xmlns="http://www.w3.org/2000/svg">
    <path d="M34.2 32.4H3.6V1.8C3.6 1.32261 3.41036 0.864773 3.07279 0.527208C2.73523 0.189642 2.27739 0 1.8 0C1.32261 0 0.864773 0.189642 0.527208 0.527208C0.189642 0.864773 0 1.32261 0 1.8V34.2C0 34.6774 0.189642 35.1352 0.527208 35.4728C0.864773 35.8104 1.32261 36 1.8 36H34.2C34.6774 36 35.1352 35.8104 35.4728 35.4728C35.8104 35.1352 36 34.6774 36 34.2C36 33.7226 35.8104 33.2648 35.4728 32.9272C35.1352 32.5896 34.6774 32.4 34.2 32.4Z" fill="white"/>
    <path d="M10.8 27V18C10.8 17.5226 10.6104 17.0648 10.2728 16.7272C9.93523 16.3896 9.47739 16.2 9 16.2C8.52261 16.2 8.06477 16.3896 7.72721 16.7272C7.38964 17.0648 7.2 17.5226 7.2 18V27C7.2 27.4774 7.38964 27.9352 7.72721 28.2728C8.06477 28.6104 8.52261 28.8 9 28.8C9.47739 28.8 9.93523 28.6104 10.2728 28.2728C10.6104 27.9352 10.8 27.4774 10.8 27ZM18 27V10.8C18 10.3226 17.8104 9.86477 17.4728 9.52721C17.1352 9.18964 16.6774 9 16.2 9C15.7226 9 15.2648 9.18964 14.9272 9.52721C14.5896 9.86477 14.4 10.3226 14.4 10.8V27C14.4 27.4774 14.5896 27.9352 14.9272 28.2728C15.2648 28.6104 15.7226 28.8 16.2 28.8C16.6774 28.8 17.1352 28.6104 17.4728 28.2728C17.8104 27.9352 18 27.4774 18 27ZM25.2 27V7.2C25.2 6.72261 25.0104 6.26477 24.6728 5.92721C24.3352 5.58964 23.8774 5.4 23.4 5.4C22.9226 5.4 22.4648 5.58964 22.1272 5.92721C21.7896 6.26477 21.6 6.72261 21.6 7.2V27C21.6 27.4774 21.7896 27.9352 22.1272 28.2728C22.4648 28.6104 22.9226 28.8 23.4 28.8C23.8774 28.8 24.3352 28.6104 24.6728 28.2728C25.0104 27.9352 25.2 27.4774 25.2 27ZM32.4 27V3.6C32.4 3.12261 32.2104 2.66477 31.8728 2.32721C31.5352 1.98964 31.0774 1.8 30.6 1.8C30.1226 1.8 29.6648 1.98964 29.3272 2.32721C28.9896 2.66477 28.8 3.12261 28.8 3.6V27C28.8 27.4774 28.9896 27.9352 29.3272 28.2728C29.6648 28.6104 30.1226 28.8 30.6 28.8C31.0774 28.8 31.5352 28.6104 31.8728 28.2728C32.2104 27.9352 32.4 27.4774 32.4 27Z" fill="white"/>
</svg>
