<svg width="36" height="36" viewBox="0 0 36 36" fill="none" xmlns="http://www.w3.org/2000/svg">
    <path d="M33.9297 29.3047H15.8191C14.6533 29.3047 13.7487 30.2205 13.7487 31.4008C13.7487 32.5811 14.6533 33.4969 15.8191 33.4969H33.9297C35.0955 33.4969 36 32.5811 36 31.4008C36 30.2205 35.0955 29.3047 33.9297 29.3047Z" fill="white"/>
    <path d="M15.8191 6.69531H33.9297C35.0955 6.69531 36 5.77954 36 4.59921C36 3.41888 35.0955 2.50311 33.9297 2.50311H15.8191C14.6533 2.50311 13.7487 3.41888 13.7487 4.59921C13.7487 5.77954 14.6935 6.69531 15.8191 6.69531Z" fill="white"/>
    <path d="M7.6583 26.7812H1.44718C0.663259 26.7812 0 27.4528 0 28.2465V34.5348C0 35.3284 0.663259 36 1.44718 36H7.6583C8.44222 36 9.10548 35.3284 9.10548 34.5348V28.2465C9.10548 27.4528 8.44222 26.7812 7.6583 26.7812ZM6.63315 33.4765H2.9146V29.7117H6.63315V33.4765Z" fill="white"/>
    <path d="M7.67842 0H1.4673C0.668012 0 0.0201202 0.656008 0.0201202 1.46523V7.75353C0.0201202 8.56276 0.668012 9.21877 1.4673 9.21877H7.67842C8.47771 9.21877 9.1256 8.56276 9.1256 7.75353V1.46523C9.1256 0.656008 8.47771 0 7.67842 0Z" fill="white"/>
    <path d="M7.6583 13.3906H1.44718C0.663259 13.3906 0 14.0622 0 14.8559V21.1441C0 21.9378 0.663259 22.6094 1.44718 22.6094H7.6583C8.44222 22.6094 9.10548 21.9378 9.10548 21.1441V14.8559C9.10548 14.0622 8.44222 13.3906 7.6583 13.3906ZM6.63315 19.6789H2.9146V16.3211H6.63315V19.6789Z" fill="white"/>
    <path d="M33.9297 15.8937H15.8191C14.6533 15.8937 13.7487 16.8095 13.7487 17.9898C13.7487 19.1702 14.6533 20.0859 15.8191 20.0859H33.9297C35.0955 20.0859 36 19.1702 36 17.9898C36 16.8095 35.0955 15.8937 33.9297 15.8937Z" fill="white"/>
</svg>
