<svg width="36" height="36" viewBox="0 0 36 36" fill="none" xmlns="http://www.w3.org/2000/svg">
    <path d="M34.2 0H1.8C1.32261 0 0.864773 0.189642 0.527208 0.527208C0.189642 0.864773 0 1.32261 0 1.8V27C0 27.4774 0.189642 27.9352 0.527208 28.2728C0.864773 28.6104 1.32261 28.8 1.8 28.8H10.8V32.4H9C8.52261 32.4 8.06477 32.5896 7.72721 32.9272C7.38964 33.2648 7.2 33.7226 7.2 34.2C7.2 34.6774 7.38964 35.1352 7.72721 35.4728C8.06477 35.8104 8.52261 36 9 36H27C27.4774 36 27.9352 35.8104 28.2728 35.4728C28.6104 35.1352 28.8 34.6774 28.8 34.2C28.8 33.7226 28.6104 33.2648 28.2728 32.9272C27.9352 32.5896 27.4774 32.4 27 32.4H25.2V28.8H34.2C34.6774 28.8 35.1352 28.6104 35.4728 28.2728C35.8104 27.9352 36 27.4774 36 27V1.8C36 1.32261 35.8104 0.864773 35.4728 0.527208C35.1352 0.189642 34.6774 0 34.2 0ZM21.6 32.4H14.4V28.8H21.6V32.4ZM32.4 25.2H3.6V3.6H32.4V25.2Z" fill="white"/>
    <path d="M9 21.6C9.47739 21.6 9.93523 21.4104 10.2728 21.0728C10.6104 20.7352 10.8 20.2774 10.8 19.8V14.4C10.8 13.9226 10.6104 13.4648 10.2728 13.1272C9.93523 12.7896 9.47739 12.6 9 12.6C8.52261 12.6 8.06477 12.7896 7.72721 13.1272C7.38964 13.4648 7.2 13.9226 7.2 14.4V19.8C7.2 20.2774 7.38964 20.7352 7.72721 21.0728C8.06477 21.4104 8.52261 21.6 9 21.6ZM18 21.6C18.4774 21.6 18.9352 21.4104 19.2728 21.0728C19.6104 20.7352 19.8 20.2774 19.8 19.8V10.8C19.8 10.3226 19.6104 9.86477 19.2728 9.52721C18.9352 9.18964 18.4774 9 18 9C17.5226 9 17.0648 9.18964 16.7272 9.52721C16.3896 9.86477 16.2 10.3226 16.2 10.8V19.8C16.2 20.2774 16.3896 20.7352 16.7272 21.0728C17.0648 21.4104 17.5226 21.6 18 21.6ZM27 21.6C27.4774 21.6 27.9352 21.4104 28.2728 21.0728C28.6104 20.7352 28.8 20.2774 28.8 19.8V7.2C28.8 6.72261 28.6104 6.26477 28.2728 5.92721C27.9352 5.58964 27.4774 5.4 27 5.4C26.5226 5.4 26.0648 5.58964 25.7272 5.92721C25.3896 6.26477 25.2 6.72261 25.2 7.2V19.8C25.2 20.2774 25.3896 20.7352 25.7272 21.0728C26.0648 21.4104 26.5226 21.6 27 21.6Z" fill="white"/>
</svg>
