<svg width="36" height="36" viewBox="0 0 36 36" fill="none" xmlns="http://www.w3.org/2000/svg">
    <path d="M25.3977 11.298C25.984 10.7116 26.9351 10.7116 27.5214 11.298C28.1078 11.8845 28.1078 12.8356 27.5214 13.4219L16.2423 24.7014C15.6557 25.2878 14.7047 25.2878 14.1183 24.7014L8.47858 19.0617C7.89224 18.4753 7.89224 17.5243 8.47858 16.9379C9.06512 16.3514 10.0162 16.3514 10.6025 16.9379L15.1803 21.5157L25.3977 11.298ZM17.9999 0C22.9697 0 27.4702 2.01506 30.7276 5.27242C33.9849 8.52958 36 13.0303 36 17.9999C36 22.9703 33.9851 27.4702 30.7276 30.7276C27.4702 33.9849 22.9697 36 17.9999 36C13.0297 36 8.52958 33.9851 5.27242 30.7276C2.01465 27.4702 0 22.9703 0 17.9999C0 13.0303 2.01506 8.52958 5.27242 5.27242C8.52958 2.01465 13.0297 0 17.9999 0ZM28.6038 7.39616C25.8903 4.68284 22.1411 3.00437 17.9999 3.00437C13.8585 3.00437 10.1093 4.68284 7.39616 7.39616C4.68284 10.1095 3.00437 13.8589 3.00437 17.9999C3.00437 22.1415 4.68284 25.8907 7.39616 28.6038C10.1093 31.3172 13.8585 32.9954 17.9999 32.9954C22.1411 32.9954 25.8903 31.3172 28.6038 28.6038C31.3172 25.8907 32.9954 22.1415 32.9954 17.9999C32.9954 13.8589 31.3172 10.1095 28.6038 7.39616Z" fill="white"/>
</svg>
