<svg width="406" height="589" viewBox="0 0 406 589" fill="none" xmlns="http://www.w3.org/2000/svg">
    <g opacity="0.3">
        <path fill-rule="evenodd" clip-rule="evenodd" d="M669.067 353.178L698.117 369.952L669.067 353.178ZM378.605 587.955L698.117 403.485L378.605 587.955ZM698.117 336.418V369.952V336.418Z" stroke="white" stroke-width="0.828" stroke-miterlimit="10"/>
        <path fill-rule="evenodd" clip-rule="evenodd" d="M552.879 386.712L610.966 353.178L552.879 386.712ZM581.943 437.033L378.605 554.421L581.943 437.033ZM552.879 420.259L465.742 470.566L552.879 420.259ZM581.929 437.033L552.879 420.259L581.929 437.033Z" stroke="white" stroke-width="0.828" stroke-miterlimit="10"/>
        <path fill-rule="evenodd" clip-rule="evenodd" d="M349.568 135.162L407.669 168.709L349.568 135.162ZM407.669 68.0945V135.175V68.0945ZM407.669 135.175L465.755 101.642L407.669 135.175ZM407.669 168.723V202.256V168.723ZM407.669 202.256L436.705 219.017L407.669 202.256ZM407.669 135.175L436.705 151.936L407.669 135.175ZM436.705 151.936L494.806 118.402L436.705 151.936ZM436.705 151.936V185.483V151.936Z" stroke="white" stroke-width="0.828" stroke-miterlimit="10"/>
        <path fill-rule="evenodd" clip-rule="evenodd" d="M407.655 34.5469L378.605 51.3209L407.655 34.5469ZM494.792 151.935V118.402V151.935ZM465.742 101.642L494.792 118.402L465.742 101.642Z" stroke="white" stroke-width="0.828" stroke-miterlimit="10"/>
        <path fill-rule="evenodd" clip-rule="evenodd" d="M407.669 68.1076L465.755 34.561L407.669 68.1076ZM378.605 51.3212L407.669 68.1076L378.605 51.3212Z" stroke="white" stroke-width="0.828" stroke-miterlimit="10"/>
        <path fill-rule="evenodd" clip-rule="evenodd" d="M378.605 84.8548V51.3212V84.8548ZM552.879 219.017L523.842 202.243L552.879 219.017ZM494.779 118.402L523.842 101.615L494.779 118.402ZM465.742 34.5472V68.0808V34.5472Z" stroke="white" stroke-width="0.828" stroke-miterlimit="10"/>
        <path fill-rule="evenodd" clip-rule="evenodd" d="M320.531 554.421L1.01178 369.952L320.531 554.421ZM436.705 453.793L407.655 470.58L436.705 453.793ZM465.742 470.58L436.692 453.793L465.742 470.58ZM465.742 403.485V369.952V403.485ZM465.742 369.952L436.692 386.725L465.742 369.952ZM436.692 386.725V420.259V386.725ZM436.692 420.259L465.742 403.485L436.692 420.259ZM494.792 386.712L465.742 369.952L494.792 386.712ZM465.742 403.485L494.792 420.259L465.742 403.485ZM494.792 420.259V386.712V420.259ZM436.705 420.259L465.755 437.032L436.705 420.259ZM465.755 437.032L494.805 420.259L465.755 437.032ZM378.618 554.421V587.941V554.421Z" stroke="white" stroke-width="0.828" stroke-miterlimit="10"/>
        <path d="M1.01178 403.485L320.518 587.955" stroke="white" stroke-width="0.828" stroke-miterlimit="10"/>
        <path fill-rule="evenodd" clip-rule="evenodd" d="M349.568 537.647V571.194V537.647ZM320.518 587.955V554.421V587.955ZM378.605 554.421L349.568 537.647L378.605 554.421Z" stroke="white" stroke-width="0.828" stroke-miterlimit="10"/>
        <path d="M349.568 571.194L378.605 587.955" stroke="white" stroke-width="0.828" stroke-miterlimit="10"/>
        <path d="M349.568 537.647L320.518 554.421" stroke="white" stroke-width="0.828" stroke-miterlimit="10"/>
        <path d="M320.518 587.955L349.568 571.194" stroke="white" stroke-width="0.828" stroke-miterlimit="10"/>
        <path fill-rule="evenodd" clip-rule="evenodd" d="M378.605 219.03V185.496V219.03ZM349.568 437.033L291.468 470.566L349.568 437.033ZM407.655 470.566L349.568 437.033L407.655 470.566ZM436.705 386.712L378.605 353.179L436.705 386.712ZM378.605 353.179V386.712V353.179ZM378.605 386.712L436.705 420.259L378.605 386.712ZM407.655 336.405L378.605 353.179L407.655 336.405ZM465.742 369.952L407.655 336.418L465.742 369.952ZM436.705 286.111L407.655 269.337L436.705 286.111ZM436.705 319.631V286.111V319.631ZM378.605 286.111V252.563V286.111ZM378.605 252.563L349.568 269.337L378.605 252.563ZM349.568 269.337V302.885V269.337ZM349.568 302.885L378.605 286.111L349.568 302.885ZM349.568 269.337L291.468 235.804L349.568 269.337ZM291.468 269.337L349.568 302.871L291.468 269.337ZM378.605 252.55L320.518 219.017L378.605 252.55ZM320.518 386.712V353.179V386.712ZM320.518 353.179L262.431 386.712L320.518 353.179ZM262.431 420.259L320.518 386.712L262.431 420.259ZM291.468 336.418L262.418 353.179L291.468 336.418ZM320.504 353.179L291.454 336.418L320.504 353.179ZM378.605 286.111L407.655 302.885L378.605 286.111ZM349.568 302.885L378.605 319.644L349.568 302.885ZM378.605 319.644L407.668 302.885L378.605 319.644ZM349.568 369.952L320.518 353.179L349.568 369.952ZM320.518 386.712L349.568 403.485L320.518 386.712ZM349.568 403.485V369.952V403.485ZM291.468 437.033L349.568 403.499L291.468 437.033ZM378.618 353.192L349.568 369.966L378.618 353.192ZM349.568 403.499L378.618 386.725L349.568 403.499ZM349.568 403.499L407.668 437.033L349.568 403.499ZM291.468 302.885L320.531 319.644L291.468 302.885ZM320.531 319.644L349.581 302.885L320.531 319.644ZM407.668 336.418V302.885V336.418ZM378.618 319.644V353.179V319.644ZM291.468 336.418V302.885V336.418ZM291.468 302.885L262.431 319.644L291.468 302.885ZM262.431 319.644V353.179V319.644ZM320.518 353.179V319.644V353.179ZM349.568 336.418V302.885V336.418ZM320.518 353.192L349.568 336.418L320.518 353.192ZM349.568 336.418L378.618 353.192L349.568 336.418ZM262.431 453.806L233.381 470.58L262.431 453.806ZM291.468 470.58L262.431 453.806L291.468 470.58ZM233.381 470.58L59.0919 369.966L233.381 470.58ZM262.418 386.739L204.331 353.205L262.418 386.739ZM204.331 386.739L262.418 420.272L204.331 386.739ZM262.418 420.272V386.739V420.272ZM175.274 403.512L233.367 437.046L175.274 403.512ZM233.367 437.046L262.418 420.272L233.367 437.046ZM465.742 336.418L436.692 319.644L465.742 336.418ZM465.742 369.952V336.418V369.952ZM407.655 437.033L436.705 420.259L407.655 437.033ZM262.431 420.259L291.468 437.033L262.431 420.259ZM465.755 437.033V470.58V437.033ZM436.705 420.259V453.793V420.259ZM407.655 437.033V470.566V437.033ZM349.568 437.033V403.485V437.033ZM262.418 453.793V420.259V453.793ZM233.367 437.033V470.58V437.033ZM291.454 470.58V437.033V470.58ZM378.605 185.483L320.504 151.949L378.605 185.483Z" stroke="white" stroke-width="0.828" stroke-miterlimit="10"/>
        <path fill-rule="evenodd" clip-rule="evenodd" d="M233.381 202.256V168.723V202.256ZM1.01166 336.418L59.1026 302.884L1.01166 336.418ZM233.381 168.723L262.431 151.936L233.381 168.723Z" stroke="white" stroke-width="0.828" stroke-miterlimit="10"/>
        <path d="M233.381 168.722L262.431 185.483" stroke="white" stroke-width="0.828" stroke-miterlimit="10"/>
        <path fill-rule="evenodd" clip-rule="evenodd" d="M320.505 118.415L349.568 101.642L320.505 118.415ZM378.605 51.3211L349.568 68.1074L378.605 51.3211ZM320.505 151.949V118.415V151.949Z" stroke="white" stroke-width="0.828" stroke-miterlimit="10"/>
        <path d="M349.568 135.162L320.518 118.402" stroke="white" stroke-width="0.828" stroke-miterlimit="10"/>
        <path fill-rule="evenodd" clip-rule="evenodd" d="M378.605 17.7733L407.669 0.999947L378.605 17.7733ZM349.568 68.0939V101.628V68.0939ZM378.605 51.3206V17.7733V51.3206Z" stroke="white" stroke-width="0.828" stroke-miterlimit="10"/>
        <path d="M262.431 252.55L233.381 235.804" stroke="white" stroke-width="0.828" stroke-miterlimit="10"/>
        <path d="M233.381 235.803V269.337" stroke="white" stroke-width="0.828" stroke-miterlimit="10"/>
        <path fill-rule="evenodd" clip-rule="evenodd" d="M175.285 269.338L262.431 319.645L175.285 269.338ZM233.381 269.338L262.431 286.098L233.381 269.338ZM262.431 286.098V252.564V286.098Z" stroke="white" stroke-width="0.828" stroke-miterlimit="10"/>
        <path fill-rule="evenodd" clip-rule="evenodd" d="M262.431 219.016L233.381 235.803L262.431 219.016ZM204.344 219.016L117.191 269.337L204.344 219.016Z" stroke="white" stroke-width="0.828" stroke-miterlimit="10"/>
        <path fill-rule="evenodd" clip-rule="evenodd" d="M262.418 286.111L291.468 269.338L262.418 286.111ZM291.468 269.338V235.804V269.338ZM291.468 235.804L262.418 252.564L291.468 235.804Z" stroke="white" stroke-width="0.828" stroke-miterlimit="10"/>
        <path d="M233.381 235.804L204.344 219.017" stroke="white" stroke-width="0.828" stroke-miterlimit="10"/>
        <path fill-rule="evenodd" clip-rule="evenodd" d="M262.431 219.017L233.381 202.257L262.431 219.017ZM175.285 302.885L262.431 353.179L175.285 302.885Z" stroke="white" stroke-width="0.828" stroke-miterlimit="10"/>
        <path d="M233.381 202.256V235.804" stroke="white" stroke-width="0.828" stroke-miterlimit="10"/>
        <path fill-rule="evenodd" clip-rule="evenodd" d="M175.285 403.486L204.344 386.713L175.285 403.486ZM175.285 269.338V302.872V269.338ZM204.344 386.713V353.179V386.713ZM204.344 353.179L175.285 369.952L204.344 353.179ZM175.285 369.952V403.486V369.952Z" stroke="white" stroke-width="0.828" stroke-miterlimit="10"/>
        <path fill-rule="evenodd" clip-rule="evenodd" d="M146.237 353.179L175.285 336.418L146.237 353.179ZM146.237 386.712V353.179V386.712Z" stroke="white" stroke-width="0.828" stroke-miterlimit="10"/>
        <path fill-rule="evenodd" clip-rule="evenodd" d="M117.186 369.951L146.237 353.178L117.186 369.951ZM175.285 369.951L146.237 353.178L175.285 369.951ZM146.237 353.178V319.644V353.178ZM146.237 319.644L117.186 336.418L146.237 319.644ZM117.186 336.418V369.951V336.418Z" stroke="white" stroke-width="0.828" stroke-miterlimit="10"/>
        <path fill-rule="evenodd" clip-rule="evenodd" d="M88.1474 319.645L117.191 302.885L88.1474 319.645ZM88.1474 353.179V319.645V353.179Z" stroke="white" stroke-width="0.828" stroke-miterlimit="10"/>
        <path fill-rule="evenodd" clip-rule="evenodd" d="M146.226 286.098L117.175 269.324L146.226 286.098ZM117.191 336.418L88.1474 319.631L117.191 336.418ZM146.237 319.631L117.186 302.871L146.237 319.631ZM175.274 336.405L146.226 319.631L175.274 336.405ZM117.175 369.939L146.226 386.712L117.175 369.939Z" stroke="white" stroke-width="0.828" stroke-miterlimit="10"/>
        <path d="M117.191 269.338V302.885" stroke="white" stroke-width="0.828" stroke-miterlimit="10"/>
        <path d="M146.237 319.631V286.098" stroke="white" stroke-width="0.828" stroke-miterlimit="10"/>
        <path fill-rule="evenodd" clip-rule="evenodd" d="M1.01166 369.952V336.419V369.952ZM88.1474 286.111L117.191 269.338L88.1474 286.111ZM1.01166 369.952V403.486V369.952Z" stroke="white" stroke-width="0.828" stroke-miterlimit="10"/>
        <path d="M30.0471 353.179L1.01166 336.419" stroke="white" stroke-width="0.828" stroke-miterlimit="10"/>
        <path d="M1.01166 369.951L30.0471 353.178" stroke="white" stroke-width="0.828" stroke-miterlimit="10"/>
        <path d="M117.191 302.885L88.1474 286.098" stroke="white" stroke-width="0.828" stroke-miterlimit="10"/>
        <path fill-rule="evenodd" clip-rule="evenodd" d="M88.1473 319.631L59.0919 336.418L88.1473 319.631ZM88.1473 286.097V319.631V286.097Z" stroke="white" stroke-width="0.828" stroke-miterlimit="10"/>
        <path fill-rule="evenodd" clip-rule="evenodd" d="M59.1119 302.872L88.1648 319.632L59.1119 302.872ZM59.1027 336.419L88.1581 353.179L59.1027 336.419ZM146.246 286.111L175.291 269.338L146.246 286.111ZM146.246 319.632L175.291 302.872L146.246 319.632Z" stroke="white" stroke-width="0.828" stroke-miterlimit="10"/>
        <path fill-rule="evenodd" clip-rule="evenodd" d="M59.1027 302.884V336.418V302.884ZM59.1027 369.951V336.418V369.951Z" stroke="white" stroke-width="0.828" stroke-miterlimit="10"/>
        <path fill-rule="evenodd" clip-rule="evenodd" d="M320.505 185.496L291.441 202.27L320.505 185.496ZM378.605 84.8552L349.568 68.0949L378.605 84.8552ZM378.605 17.7742L407.668 34.5476L378.605 17.7742ZM523.842 369.952L494.792 386.725L523.842 369.952ZM494.792 353.192L465.742 369.966L494.792 353.192ZM494.792 319.658L465.742 336.432L494.792 319.658ZM465.742 269.351L436.692 286.125L465.742 269.351ZM436.692 319.658L465.742 302.885L436.692 319.658ZM436.692 252.577L407.642 269.351L436.692 252.577ZM465.742 269.351L436.679 252.577L465.742 269.351Z" stroke="white" stroke-width="0.828" stroke-miterlimit="10"/>
        <path fill-rule="evenodd" clip-rule="evenodd" d="M204.331 219.029L233.381 202.256L204.331 219.029ZM262.431 185.483L233.381 202.256L262.431 185.483Z" stroke="white" stroke-width="0.828" stroke-miterlimit="10"/>
        <path fill-rule="evenodd" clip-rule="evenodd" d="M407.669 235.79L436.705 219.017L407.669 235.79ZM407.669 168.723L378.605 185.483L407.669 168.723ZM378.605 219.017L407.669 202.256L378.605 219.017ZM378.605 219.017L407.669 235.79L378.605 219.017Z" stroke="white" stroke-width="0.828" stroke-miterlimit="10"/>
        <path d="M320.518 151.935L349.568 135.161" stroke="white" stroke-width="0.828" stroke-miterlimit="10"/>
        <path fill-rule="evenodd" clip-rule="evenodd" d="M291.468 168.709L320.531 151.936L291.468 168.709ZM262.431 151.936L291.468 168.709L262.431 151.936Z" stroke="white" stroke-width="0.828" stroke-miterlimit="10"/>
        <path d="M320.518 151.935V185.483" stroke="white" stroke-width="0.828" stroke-miterlimit="10"/>
        <path d="M291.468 202.243V168.709" stroke="white" stroke-width="0.828" stroke-miterlimit="10"/>
        <path fill-rule="evenodd" clip-rule="evenodd" d="M640.029 302.87V369.951V302.87ZM88.1473 286.097L59.0919 302.87L88.1473 286.097ZM349.568 135.161V101.628V135.161ZM262.418 219.016L291.468 202.242L262.418 219.016ZM262.418 151.935V185.469V151.935ZM262.418 185.469V219.016V185.469ZM320.504 185.469V219.016V185.469ZM320.504 118.402L262.418 151.935L320.504 118.402Z" stroke="white" stroke-width="0.828" stroke-miterlimit="10"/>
    </g>
</svg>
