<svg width="549" height="589" viewBox="0 0 549 589" fill="none" xmlns="http://www.w3.org/2000/svg">
    <g opacity="0.3">
        <path d="M548.105 370.052L490.014 403.586" stroke="white" stroke-width="0.828" stroke-miterlimit="10"/>
        <path fill-rule="evenodd" clip-rule="evenodd" d="M519.057 353.278L548.105 370.051L519.057 353.278ZM228.596 588.054L548.105 403.585L228.596 588.054ZM548.105 336.518V370.051V336.518Z" stroke="white" stroke-width="0.828" stroke-miterlimit="10"/>
        <path d="M548.105 403.586V370.052" stroke="white" stroke-width="0.828" stroke-miterlimit="10"/>
        <path d="M548.105 336.518L519.067 353.278" stroke="white" stroke-width="0.828" stroke-miterlimit="10"/>
        <path d="M460.966 286.197L490.014 302.984" stroke="white" stroke-width="0.828" stroke-miterlimit="10"/>
        <path fill-rule="evenodd" clip-rule="evenodd" d="M402.863 386.811L460.952 353.277L402.863 386.811ZM431.924 437.132L228.596 554.52L431.924 437.132ZM402.867 420.358L315.733 470.665L402.867 420.358ZM431.913 437.132L402.863 420.358L431.913 437.132Z" stroke="white" stroke-width="0.828" stroke-miterlimit="10"/>
        <path d="M431.924 269.436V235.903" stroke="white" stroke-width="0.828" stroke-miterlimit="10"/>
        <path fill-rule="evenodd" clip-rule="evenodd" d="M344.778 319.745L431.924 269.438L344.778 319.745ZM431.924 235.904L402.867 252.664L431.924 235.904Z" stroke="white" stroke-width="0.828" stroke-miterlimit="10"/>
        <path d="M460.966 286.21L431.924 269.437" stroke="white" stroke-width="0.828" stroke-miterlimit="10"/>
        <path fill-rule="evenodd" clip-rule="evenodd" d="M431.924 403.586L490.014 370.052L431.924 403.586ZM373.832 269.438L344.778 286.211L373.832 269.438ZM344.778 286.211V319.731V286.211ZM344.778 319.731L373.832 336.518L344.778 319.731ZM373.832 336.518L460.966 286.211L373.832 336.518Z" stroke="white" stroke-width="0.828" stroke-miterlimit="10"/>
        <path fill-rule="evenodd" clip-rule="evenodd" d="M460.958 319.744V286.21V319.744ZM490.014 370.051L460.958 353.278L490.014 370.051Z" stroke="white" stroke-width="0.828" stroke-miterlimit="10"/>
        <path fill-rule="evenodd" clip-rule="evenodd" d="M402.873 386.812L431.931 403.586L402.873 386.812ZM373.832 336.518V370.052V336.518ZM344.778 319.731V353.279V319.731ZM344.778 353.279L373.832 370.052L344.778 353.279Z" stroke="white" stroke-width="0.828" stroke-miterlimit="10"/>
        <path fill-rule="evenodd" clip-rule="evenodd" d="M402.873 219.129L431.931 235.903L402.873 219.129ZM490.014 302.97L548.105 336.517L490.014 302.97ZM460.958 286.196V252.662V286.196ZM402.867 185.582L431.924 202.355L402.867 185.582ZM431.924 202.355V235.903V202.355ZM431.924 235.903L460.966 252.662L431.924 235.903Z" stroke="white" stroke-width="0.828" stroke-miterlimit="10"/>
        <path fill-rule="evenodd" clip-rule="evenodd" d="M431.904 202.343L402.85 219.117L431.904 202.343ZM344.778 286.197L315.733 269.437L344.778 286.197ZM315.733 269.437V302.971V269.437ZM315.733 302.971L344.778 319.731L315.733 302.971ZM344.778 252.65L315.733 269.437L344.778 252.65ZM373.825 269.437L344.77 252.65L373.825 269.437ZM490.003 302.971L460.952 319.731L490.003 302.971ZM460.952 252.65L431.904 269.437L460.952 252.65Z" stroke="white" stroke-width="0.828" stroke-miterlimit="10"/>
        <path d="M490.014 403.586V370.052" stroke="white" stroke-width="0.828" stroke-miterlimit="10"/>
        <path fill-rule="evenodd" clip-rule="evenodd" d="M431.924 403.598V437.131V403.598ZM402.867 420.358V386.824V420.358Z" stroke="white" stroke-width="0.828" stroke-miterlimit="10"/>
        <path fill-rule="evenodd" clip-rule="evenodd" d="M402.873 118.502V185.583V118.502ZM373.832 101.728L402.873 118.502L373.832 101.728Z" stroke="white" stroke-width="0.828" stroke-miterlimit="10"/>
        <path fill-rule="evenodd" clip-rule="evenodd" d="M373.832 202.329L402.873 185.568L373.832 202.329ZM402.867 118.501L344.778 152.035L402.867 118.501ZM344.778 185.568L373.832 168.795L344.778 185.568Z" stroke="white" stroke-width="0.828" stroke-miterlimit="10"/>
        <path fill-rule="evenodd" clip-rule="evenodd" d="M344.77 219.116V185.583V219.116ZM402.867 185.583L373.825 168.809L402.867 185.583Z" stroke="white" stroke-width="0.828" stroke-miterlimit="10"/>
        <path fill-rule="evenodd" clip-rule="evenodd" d="M315.733 202.355V269.436V202.355ZM344.778 185.582L315.733 202.355L344.778 185.582Z" stroke="white" stroke-width="0.828" stroke-miterlimit="10"/>
        <path d="M315.744 168.809L344.778 185.583" stroke="white" stroke-width="0.828" stroke-miterlimit="10"/>
        <path fill-rule="evenodd" clip-rule="evenodd" d="M315.743 168.795L286.689 185.582L315.743 168.795ZM315.743 202.341L286.689 185.582L315.743 202.341Z" stroke="white" stroke-width="0.828" stroke-miterlimit="10"/>
        <path d="M344.778 118.501V51.4206" stroke="white" stroke-width="0.828" stroke-miterlimit="10"/>
        <path d="M344.778 51.4203L315.744 68.1936" stroke="white" stroke-width="0.828" stroke-miterlimit="10"/>
        <path d="M315.744 34.6591L344.778 51.4194" stroke="white" stroke-width="0.828" stroke-miterlimit="10"/>
        <path fill-rule="evenodd" clip-rule="evenodd" d="M199.56 135.261L257.65 168.809L199.56 135.261ZM257.65 68.1941V135.275V68.1941ZM257.65 135.275L315.744 101.741L257.65 135.275ZM257.65 168.822V202.356V168.822ZM257.65 202.356L286.696 219.116L257.65 202.356ZM257.65 135.275L286.696 152.035L257.65 135.275ZM286.696 152.035L344.79 118.502L286.696 152.035ZM286.696 152.035V185.583V152.035Z" stroke="white" stroke-width="0.828" stroke-miterlimit="10"/>
        <path fill-rule="evenodd" clip-rule="evenodd" d="M257.642 34.6464L228.59 51.4204L257.642 34.6464ZM344.778 152.035V118.501V152.035ZM315.733 101.741L344.778 118.501L315.733 101.741Z" stroke="white" stroke-width="0.828" stroke-miterlimit="10"/>
        <path fill-rule="evenodd" clip-rule="evenodd" d="M257.65 68.2073L315.744 34.6606L257.65 68.2073ZM228.596 51.4209L257.65 68.2073L228.596 51.4209Z" stroke="white" stroke-width="0.828" stroke-miterlimit="10"/>
        <path d="M315.744 34.6594L257.65 1.09909" stroke="white" stroke-width="0.828" stroke-miterlimit="10"/>
        <path fill-rule="evenodd" clip-rule="evenodd" d="M373.832 235.902L402.873 219.115L373.832 235.902ZM344.778 219.115L373.832 235.902L344.778 219.115Z" stroke="white" stroke-width="0.828" stroke-miterlimit="10"/>
        <path fill-rule="evenodd" clip-rule="evenodd" d="M228.59 84.9544V51.4208V84.9544ZM402.867 219.116L373.825 202.342L402.867 219.116ZM344.77 118.502L373.825 101.715L344.77 118.502ZM315.733 34.6468V68.1804V34.6468Z" stroke="white" stroke-width="0.828" stroke-miterlimit="10"/>
        <path fill-rule="evenodd" clip-rule="evenodd" d="M170.517 554.521L-149 370.052L170.517 554.521ZM286.689 453.893L257.642 470.68L286.689 453.893ZM315.733 470.68L286.679 453.893L315.733 470.68ZM315.733 403.585V370.052V403.585ZM315.733 370.052L286.679 386.825L315.733 370.052ZM286.679 386.825V420.359V386.825ZM286.679 420.359L315.733 403.585L286.679 420.359ZM344.778 386.812L315.733 370.052L344.778 386.812ZM315.733 403.585L344.778 420.359L315.733 403.585ZM344.778 420.359V386.812V420.359ZM286.689 420.359L315.744 437.133L286.689 420.359ZM315.744 437.133L344.79 420.359L315.744 437.133ZM228.608 554.521V588.041V554.521Z" stroke="white" stroke-width="0.828" stroke-miterlimit="10"/>
        <path d="M-149 403.585L170.508 588.054" stroke="white" stroke-width="0.828" stroke-miterlimit="10"/>
        <path fill-rule="evenodd" clip-rule="evenodd" d="M199.554 537.747V571.294V537.747ZM170.508 588.054V554.521V588.054ZM228.596 554.521L199.554 537.747L228.596 554.521Z" stroke="white" stroke-width="0.828" stroke-miterlimit="10"/>
        <path d="M199.554 571.294L228.596 588.054" stroke="white" stroke-width="0.828" stroke-miterlimit="10"/>
        <path d="M199.554 537.746L170.508 554.52" stroke="white" stroke-width="0.828" stroke-miterlimit="10"/>
        <path d="M170.508 588.054L199.554 571.294" stroke="white" stroke-width="0.828" stroke-miterlimit="10"/>
        <path fill-rule="evenodd" clip-rule="evenodd" d="M228.591 219.129V185.596V219.129ZM199.554 437.132L141.451 470.666L199.554 437.132ZM257.642 470.666L199.554 437.132L257.642 470.666ZM286.69 386.812L228.596 353.278L286.69 386.812ZM228.596 353.278V386.812V353.278ZM228.596 386.812L286.69 420.359L228.596 386.812ZM257.642 336.504L228.591 353.278L257.642 336.504ZM315.733 370.051L257.642 336.518L315.733 370.051ZM286.69 286.21L257.642 269.437L286.69 286.21ZM286.69 319.731V286.21V319.731ZM228.596 286.21V252.663V286.21ZM228.596 252.663L199.554 269.437L228.596 252.663ZM199.554 269.437V302.984V269.437ZM199.554 302.984L228.596 286.21L199.554 302.984ZM199.554 269.437L141.451 235.903L199.554 269.437ZM141.451 269.437L199.554 302.971L141.451 269.437ZM228.596 252.65L170.508 219.116L228.596 252.65ZM170.508 386.812V353.278V386.812ZM170.508 353.278L112.415 386.812L170.508 353.278ZM112.415 420.359L170.508 386.812L112.415 420.359ZM141.451 336.518L112.407 353.278L141.451 336.518ZM170.497 353.278L141.443 336.518L170.497 353.278ZM228.591 286.21L257.642 302.984L228.591 286.21ZM199.554 302.984L228.596 319.744L199.554 302.984ZM228.596 319.744L257.65 302.984L228.596 319.744ZM199.56 370.051L170.508 353.278L199.56 370.051ZM170.508 386.812L199.56 403.585L170.508 386.812ZM199.56 403.585V370.051V403.585ZM141.462 437.132L199.56 403.599L141.462 437.132ZM228.608 353.291L199.56 370.065L228.608 353.291ZM199.56 403.599L228.608 386.825L199.56 403.599ZM199.56 403.599L257.65 437.132L199.56 403.599ZM141.462 302.984L170.517 319.744L141.462 302.984ZM170.517 319.744L199.57 302.984L170.517 319.744ZM257.661 336.518V302.984V336.518ZM228.608 319.744V353.278V319.744ZM141.462 336.518V302.984V336.518ZM141.462 302.984L112.415 319.744L141.462 302.984ZM112.415 319.744V353.278V319.744ZM170.508 353.278V319.744V353.278ZM199.56 336.518V302.984V336.518ZM170.508 353.291L199.56 336.518L170.508 353.291ZM199.56 336.518L228.608 353.291L199.56 336.518ZM112.423 453.906L83.3732 470.68L112.423 453.906ZM141.462 470.68L112.415 453.906L141.462 470.68ZM83.3626 470.68L-90.9197 370.065L83.3626 470.68ZM112.407 386.838L54.3178 353.305L112.407 386.838ZM54.3178 386.838L112.407 420.372L54.3178 386.838ZM112.407 420.372V386.838V420.372ZM25.2623 403.612L83.3546 437.145L25.2623 403.612ZM83.3546 437.145L112.407 420.372L83.3546 437.145ZM315.733 336.518L286.679 319.744L315.733 336.518ZM315.733 370.051V336.518V370.051ZM257.642 437.132L286.69 420.359L257.642 437.132ZM112.415 420.359L141.462 437.132L112.415 420.359ZM315.744 437.132V470.68V437.132ZM286.69 420.359V453.893V420.359ZM257.642 437.132V470.666V437.132ZM199.554 437.132V403.585V437.132ZM112.407 453.893V420.359V453.893ZM83.3546 437.132V470.68V437.132ZM141.443 470.68V437.132V470.68ZM228.591 185.583L170.497 152.048L228.591 185.583Z" stroke="white" stroke-width="0.828" stroke-miterlimit="10"/>
        <path fill-rule="evenodd" clip-rule="evenodd" d="M83.3678 202.355V168.822V202.355ZM-149 336.517L-90.9091 302.983L-149 336.517ZM83.3678 168.822L112.423 152.035L83.3678 168.822Z" stroke="white" stroke-width="0.828" stroke-miterlimit="10"/>
        <path d="M83.3624 168.822L112.415 185.583" stroke="white" stroke-width="0.828" stroke-miterlimit="10"/>
        <path fill-rule="evenodd" clip-rule="evenodd" d="M170.497 118.514L199.554 101.741L170.497 118.514ZM228.596 51.4201L199.554 68.2064L228.596 51.4201ZM170.497 152.048V118.514V152.048Z" stroke="white" stroke-width="0.828" stroke-miterlimit="10"/>
        <path d="M199.554 135.26L170.508 118.5" stroke="white" stroke-width="0.828" stroke-miterlimit="10"/>
        <path fill-rule="evenodd" clip-rule="evenodd" d="M228.596 17.8738L257.65 1.10047L228.596 17.8738ZM199.554 68.1944V101.728V68.1944ZM228.596 51.4211V17.8738V51.4211Z" stroke="white" stroke-width="0.828" stroke-miterlimit="10"/>
        <path d="M112.415 252.65L83.3624 235.903" stroke="white" stroke-width="0.828" stroke-miterlimit="10"/>
        <path d="M83.3624 235.903V269.436" stroke="white" stroke-width="0.828" stroke-miterlimit="10"/>
        <path fill-rule="evenodd" clip-rule="evenodd" d="M25.2729 269.438L112.415 319.745L25.2729 269.438ZM83.3625 269.438L112.415 286.198L83.3625 269.438ZM112.415 286.198V252.664V286.198Z" stroke="white" stroke-width="0.828" stroke-miterlimit="10"/>
        <path fill-rule="evenodd" clip-rule="evenodd" d="M112.415 219.116L83.3623 235.903L112.415 219.116ZM54.3268 219.116L-32.8209 269.436L54.3268 219.116Z" stroke="white" stroke-width="0.828" stroke-miterlimit="10"/>
        <path fill-rule="evenodd" clip-rule="evenodd" d="M112.407 286.21L141.451 269.437L112.407 286.21ZM141.451 269.437V235.904V269.437ZM141.451 235.904L112.407 252.663L141.451 235.904Z" stroke="white" stroke-width="0.828" stroke-miterlimit="10"/>
        <path d="M83.3625 235.902L54.327 219.115" stroke="white" stroke-width="0.828" stroke-miterlimit="10"/>
        <path fill-rule="evenodd" clip-rule="evenodd" d="M112.415 219.116L83.3625 202.356L112.415 219.116ZM25.2729 302.984L112.415 353.278L25.2729 302.984Z" stroke="white" stroke-width="0.828" stroke-miterlimit="10"/>
        <path d="M83.3624 202.355V235.902" stroke="white" stroke-width="0.828" stroke-miterlimit="10"/>
        <path fill-rule="evenodd" clip-rule="evenodd" d="M25.2729 403.586L54.327 386.812L25.2729 403.586ZM25.2729 269.438V302.971V269.438ZM54.327 386.812V353.279V386.812ZM54.327 353.279L25.2729 370.052L54.327 353.279ZM25.2729 370.052V403.586V370.052Z" stroke="white" stroke-width="0.828" stroke-miterlimit="10"/>
        <path fill-rule="evenodd" clip-rule="evenodd" d="M-3.77454 353.279L25.2729 336.518L-3.77454 353.279ZM-3.77454 386.812V353.279V386.812Z" stroke="white" stroke-width="0.828" stroke-miterlimit="10"/>
        <path fill-rule="evenodd" clip-rule="evenodd" d="M-32.8262 370.051L-3.77469 353.278L-32.8262 370.051ZM25.2728 370.051L-3.77469 353.278L25.2728 370.051ZM-3.77469 353.278V319.744V353.278ZM-3.77469 319.744L-32.8262 336.518L-3.77469 319.744ZM-32.8262 336.518V370.051V336.518Z" stroke="white" stroke-width="0.828" stroke-miterlimit="10"/>
        <path fill-rule="evenodd" clip-rule="evenodd" d="M-3.78534 286.198L-32.8368 269.424L-3.78534 286.198ZM-32.8208 336.518L-61.8643 319.731L-32.8208 336.518ZM-3.77467 319.731L-32.8261 302.971L-3.77467 319.731ZM25.2621 336.505L-3.78534 319.731L25.2621 336.505ZM-32.8368 370.039L-3.78534 386.812L-32.8368 370.039Z" stroke="white" stroke-width="0.828" stroke-miterlimit="10"/>
        <path fill-rule="evenodd" clip-rule="evenodd" d="M-90.8997 302.971L-61.8469 319.731L-90.8997 302.971ZM-90.9091 336.518L-61.8535 353.278L-90.9091 336.518ZM-3.76525 286.21L25.2795 269.437L-3.76525 286.21ZM-3.76525 319.731L25.2795 302.971L-3.76525 319.731Z" stroke="white" stroke-width="0.828" stroke-miterlimit="10"/>
        <path fill-rule="evenodd" clip-rule="evenodd" d="M170.487 185.596L141.433 202.369L170.487 185.596ZM228.596 84.9548L199.554 68.1945L228.596 84.9548ZM228.596 17.8738L257.65 34.6472L228.596 17.8738ZM373.832 370.052L344.778 386.825L373.832 370.052ZM344.778 353.291L315.733 370.065L344.778 353.291ZM344.778 319.758L315.733 336.531L344.778 319.758ZM315.733 269.45L286.679 286.224L315.733 269.45ZM286.679 319.758L315.733 302.985L286.679 319.758ZM286.679 252.677L257.631 269.45L286.679 252.677ZM315.725 269.45L286.669 252.677L315.725 269.45Z" stroke="white" stroke-width="0.828" stroke-miterlimit="10"/>
        <path fill-rule="evenodd" clip-rule="evenodd" d="M54.3176 219.129L83.3624 202.356L54.3176 219.129ZM112.415 185.583L83.3624 202.356L112.415 185.583Z" stroke="white" stroke-width="0.828" stroke-miterlimit="10"/>
        <path fill-rule="evenodd" clip-rule="evenodd" d="M257.65 235.889L286.696 219.115L257.65 235.889ZM257.65 168.821L228.596 185.582L257.65 168.821ZM228.596 219.115L257.65 202.355L228.596 219.115ZM228.596 219.115L257.65 235.889L228.596 219.115Z" stroke="white" stroke-width="0.828" stroke-miterlimit="10"/>
        <path d="M170.508 152.035L199.554 135.261" stroke="white" stroke-width="0.828" stroke-miterlimit="10"/>
        <path fill-rule="evenodd" clip-rule="evenodd" d="M141.461 168.808L170.517 152.035L141.461 168.808ZM112.415 152.035L141.461 168.808L112.415 152.035Z" stroke="white" stroke-width="0.828" stroke-miterlimit="10"/>
        <path d="M402.867 252.65V219.116" stroke="white" stroke-width="0.828" stroke-miterlimit="10"/>
        <path d="M373.832 235.903V269.436" stroke="white" stroke-width="0.828" stroke-miterlimit="10"/>
        <path d="M402.867 219.116V185.583" stroke="white" stroke-width="0.828" stroke-miterlimit="10"/>
        <path fill-rule="evenodd" clip-rule="evenodd" d="M257.642 269.436V235.889V269.436ZM344.778 252.649V219.116V252.649ZM286.689 219.116V252.649V219.116Z" stroke="white" stroke-width="0.828" stroke-miterlimit="10"/>
        <path d="M170.508 152.035V185.583" stroke="white" stroke-width="0.828" stroke-miterlimit="10"/>
        <path d="M141.451 202.341V168.808" stroke="white" stroke-width="0.828" stroke-miterlimit="10"/>
        <path fill-rule="evenodd" clip-rule="evenodd" d="M490.014 302.97V370.051V302.97ZM-61.8642 286.197L-90.9197 302.97L-61.8642 286.197ZM199.554 135.261V101.728V135.261ZM112.407 219.116L141.451 202.342L112.407 219.116ZM112.407 152.035V185.569V152.035ZM112.407 185.569V219.116V185.569ZM170.497 185.569V219.116V185.569ZM170.497 118.501L112.407 152.035L170.497 118.501Z" stroke="white" stroke-width="0.828" stroke-miterlimit="10"/>
    </g>
</svg>
