<svg xmlns="http://www.w3.org/2000/svg" display="none">

    <symbol id="next" viewBox="0 0 10 16">
        <path fill-rule="evenodd" clip-rule="evenodd"
              d="M1.51676 15.6572L0.610394 14.763L7.53416 7.83597L0.609009 0.907648L1.51676 0.000383377L9.34681 7.83597L1.51676 15.6572Z"/>
    </symbol>

    <symbol id="prev" viewBox="0 0 10 16">
        <path fill-rule="evenodd" clip-rule="evenodd"
              d="M8.35813 15.657L9.26449 14.7628L2.34073 7.83573L9.26588 0.907404L8.35813 0.000139236L0.528076 7.83573L8.35813 15.657Z"/>
    </symbol>

    <symbol id="vk" viewBox="0 0 18 10">
        <path fill-rule="evenodd" clip-rule="evenodd"
              d="M10.0179 9.95145C10.0179 9.95145 10.3141 9.9109 10.4676 9.75077C10.6077 9.60398 10.6011 9.32399 10.6011 9.32399C10.6011 9.32399 10.5838 8.02979 11.1976 7.84297C11.8008 7.65616 12.5787 9.09745 13.4007 9.64456C14.0252 10.0716 14.4962 9.97816 14.4962 9.97816L16.698 9.95145C16.698 9.95145 17.8496 9.88444 17.3025 8.99039C17.2598 8.91032 16.9849 8.33634 15.6665 7.13537C14.2868 5.86768 14.4708 6.08129 16.1349 3.9062C17.1463 2.57179 17.552 1.77132 17.4239 1.42437C17.3051 1.09077 16.5592 1.18395 16.5592 1.18395L14.0812 1.19763C14.0812 1.19763 13.8984 1.17099 13.761 1.25106C13.6275 1.33112 13.5421 1.50452 13.5421 1.50452C13.5421 1.50452 13.1511 2.5316 12.628 3.41231C11.5231 5.24045 11.0828 5.34768 10.9013 5.22758C10.481 4.9607 10.5877 4.16008 10.5877 3.58628C10.5877 1.81151 10.8626 1.06388 10.0513 0.877057C9.78044 0.810337 9.58294 0.770513 8.89439 0.757169C8.00834 0.743825 7.26108 0.757378 6.83673 0.970883C6.55517 1.10432 6.3376 1.39769 6.47104 1.42437C6.63384 1.43772 7.0048 1.51781 7.20096 1.78469C7.4545 2.1183 7.44782 2.87868 7.44782 2.87868C7.44782 2.87868 7.59197 4.97373 7.10624 5.24061C6.7713 5.41408 6.31361 5.05361 5.33015 3.3856C4.82574 2.53157 4.4454 1.58466 4.4454 1.58466C4.4454 1.58466 4.37202 1.41093 4.23991 1.31752C4.08111 1.19742 3.85964 1.17091 3.85964 1.17091L1.50577 1.18395C1.50577 1.18395 1.15215 1.1841 1.02271 1.34423C0.906616 1.47767 1.01334 1.7443 1.01334 1.7443C1.01334 1.7443 2.85614 5.98809 4.9445 8.12315C6.85938 10.0714 9.03317 9.95145 9.03317 9.95145H10.0179Z"/>
    </symbol>

    <symbol id="youtube" viewBox="0 0 14 10">
        <path fill-rule="evenodd" clip-rule="evenodd"
              d="M13.2079 7.17357V2.47495C13.2079 2.47495 13.2079 0.205484 10.9347 0.205484H2.28906C2.28906 0.205484 0.0171509 0.205746 0.0171509 2.47495V7.17357C0.0171509 7.17357 0.017186 9.44238 2.28906 9.44238H10.9347C10.9347 9.44238 13.2079 9.44277 13.2079 7.17357ZM9.17274 4.82393L4.8546 7.36063V2.30158L9.17274 4.82393Z"/>
    </symbol>

    <symbol id="telegram" viewBox="0 0 16 16">
        <path fill-rule="evenodd" clip-rule="evenodd"
              d="M15.0698 1.37671L12.9968 13.804C12.9701 13.9642 12.8833 14.0847 12.7378 14.1781C12.6631 14.2182 12.5777 14.2316 12.4869 14.2316C12.4282 14.2316 12.3628 14.2312 12.2933 14.1912L8.62525 12.6967L6.6657 15.0854C6.56826 15.2189 6.43615 15.2725 6.26796 15.2725C6.19855 15.2725 6.13982 15.2591 6.09044 15.2457C5.98899 15.2057 5.90623 15.1388 5.8435 15.0587C5.78209 14.9652 5.75005 14.8585 5.75005 14.7517V11.9354L12.7472 3.35287L4.09219 10.8411L0.892643 9.53297C0.693753 9.45288 0.585626 9.30594 0.569609 9.09237C0.557595 8.8788 0.644318 8.7188 0.828525 8.61201L14.301 0.842905C14.3824 0.789512 14.4678 0.762737 14.5586 0.762737C14.6667 0.762737 14.7641 0.78985 14.8522 0.856592C15.0297 0.990074 15.1018 1.16313 15.0698 1.37671Z"/>
    </symbol>

    <symbol id="close" viewBox="0 0 16 16">
        <path fill-rule="evenodd" clip-rule="evenodd"
              d="M0.907754 15.6567L0.00138501 14.7625L6.92515 7.83549L0 0.90716L0.907754 -0.000104904L8.7378 7.83549L0.907754 15.6567Z"/>
        <path fill-rule="evenodd" clip-rule="evenodd"
              d="M14.83 15.6567L15.7364 14.7625L8.81265 7.83549L15.7378 0.90716L14.83 -0.000104904L6.99999 7.83549L14.83 15.6567Z"/>
    </symbol>


</svg>