<svg width="28" height="28" viewBox="0 0 28 28" fill="none" xmlns="http://www.w3.org/2000/svg">
    <path d="M13.8504 0.999954C20.9475 0.999954 26.7008 6.76113 26.7008 13.8679C26.7008 20.9747 20.9475 26.7358 13.8504 26.7358C6.75332 26.7358 1 20.9747 1 13.8679C1 6.76113 6.75332 0.999954 13.8504 0.999954Z" stroke="#E12651" stroke-width="1.5" stroke-miterlimit="10"/>
    <path fill-rule="evenodd" clip-rule="evenodd" d="M19.1029 7.97327L17.2676 18.9977C17.2423 19.1446 17.1663 19.2513 17.037 19.3314C16.9703 19.3581 16.8971 19.3848 16.8158 19.3848C16.7638 19.3848 16.7051 19.3711 16.6438 19.3444L13.3957 18.0235L11.6591 20.1323C11.5725 20.2391 11.4566 20.3057 11.3073 20.3057C11.2447 20.3057 11.1926 20.2923 11.15 20.2789C11.0593 20.2389 10.986 20.1857 10.9314 20.1056C10.8754 20.0255 10.8487 19.9318 10.8487 19.8384V17.3294L17.045 9.73542L9.37869 16.3682L6.54647 15.2069C6.36921 15.1402 6.27324 15.0073 6.25858 14.8205C6.24925 14.6203 6.32518 14.4864 6.48912 14.393L18.4218 7.49298C18.4951 7.45295 18.5711 7.42651 18.6497 7.42651C18.747 7.42651 18.8323 7.45328 18.9096 7.50667C19.0682 7.62679 19.1322 7.77308 19.1029 7.97327Z" fill="#E12651"/>
</svg>
