<svg width="62" height="80" viewBox="0 0 62 80" fill="none" xmlns="http://www.w3.org/2000/svg">
    <path d="M60.5662 6.59549C60.116 6.21945 59.59 5.95238 59.0267 5.81389C58.4634 5.67541 57.8772 5.66903 57.3112 5.79524C53.1706 6.69129 48.8961 6.70271 44.7509 5.82878C40.6058 4.95485 36.6778 3.21408 33.2087 0.713645C32.5601 0.24899 31.7895 0 31 0C30.2105 0 29.4399 0.24899 28.7913 0.713645C25.3222 3.21408 21.3942 4.95485 17.2491 5.82878C13.1039 6.70271 8.82945 6.69129 4.68877 5.79524C4.12278 5.66903 3.5366 5.67541 2.97331 5.81389C2.41002 5.95238 1.88395 6.21945 1.43377 6.59549C0.984191 6.97208 0.62204 7.4479 0.37393 7.98798C0.125819 8.52807 -0.00194599 9.1187 2.24032e-05 9.71646V39.5258C-0.00342261 45.2626 1.32052 50.9172 3.86159 56.0188C6.40267 61.1204 10.0873 65.5213 14.6088 68.855L28.7525 79.2582C29.4088 79.7407 30.1944 80 31 80C31.8056 80 32.5912 79.7407 33.2475 79.2582L47.3912 68.855C51.9127 65.5213 55.5973 61.1204 58.1384 56.0188C60.6795 50.9172 62.0034 45.2626 62 39.5258V9.71646C62.0019 9.1187 61.8742 8.52807 61.6261 7.98798C61.378 7.4479 61.0158 6.97208 60.5662 6.59549ZM54.25 39.5258C54.253 43.9862 53.2242 48.3829 51.2494 52.3499C49.2745 56.3169 46.4107 59.7395 42.8962 62.3329L31 71.0957L19.1038 62.3329C15.5893 59.7395 12.7255 56.3169 10.7506 52.3499C8.77578 48.3829 7.74704 43.9862 7.75002 39.5258V14.3179C15.8737 15.0359 24.0097 13.0896 31 8.75616C37.9903 13.0896 46.1263 15.0359 54.25 14.3179V39.5258ZM36.9675 30.3629L26.5438 41.1663L23.095 37.5652C22.3653 36.8117 21.3757 36.3884 20.3438 36.3884C19.3118 36.3884 18.3222 36.8117 17.5925 37.5652C16.8628 38.3186 16.4529 39.3405 16.4529 40.4061C16.4529 41.4716 16.8628 42.4935 17.5925 43.247L23.7925 49.649C24.1527 50.024 24.5813 50.3217 25.0535 50.5248C25.5257 50.7279 26.0322 50.8325 26.5438 50.8325C27.0553 50.8325 27.5618 50.7279 28.034 50.5248C28.5062 50.3217 28.9348 50.024 29.295 49.649L42.625 36.0047C43.3547 35.2512 43.7646 34.2293 43.7646 33.1638C43.7646 32.0983 43.3547 31.0764 42.625 30.3229C41.8953 29.5695 40.9057 29.1462 39.8737 29.1462C38.8418 29.1462 37.8522 29.5695 37.1225 30.3229L36.9675 30.3629Z" fill="url(#paint0_linear_83_2090)"/>
    <defs>
        <linearGradient id="paint0_linear_83_2090" x1="2.3567" y1="0.50709" x2="97.439" y2="73.4697" gradientUnits="userSpaceOnUse">
            <stop stop-color="#0E1D42"/>
            <stop offset="1" stop-color="#E62752"/>
        </linearGradient>
    </defs>
</svg>
