<svg width="27" height="27" viewBox="0 0 27 27" fill="none" xmlns="http://www.w3.org/2000/svg">
    <path fill-rule="evenodd" clip-rule="evenodd" d="M26.8896 13.006C26.8843 15.3015 26.3846 17.3433 25.3717 19.2384C24.4188 21.0267 23.1033 22.5082 21.4494 23.6826C19.9954 24.7102 18.404 25.418 16.6621 25.7783C14.7363 26.1787 12.8091 26.1385 10.8966 25.6714C9.8864 25.4312 8.91753 25.0574 8.00726 24.5636C7.85266 24.4702 7.71935 24.4705 7.55409 24.5239C5.54697 25.1645 3.54122 25.805 1.53409 26.4456C1.30486 26.5257 1.08223 26.5923 0.852995 26.6724C0.690399 26.7391 0.682473 26.6719 0.725121 26.5518C0.95702 25.8578 1.18622 25.1644 1.42078 24.4705C1.9219 22.9757 2.42302 21.4805 2.93347 19.9858C3.00277 19.7856 2.90147 19.666 2.82284 19.5192C2.19245 18.4382 1.74596 17.2637 1.47008 16.0492C0.867672 13.3934 1.08227 10.8043 2.09383 8.29528C2.67757 6.85394 3.51323 5.54617 4.58476 4.39843C5.94684 2.9304 7.55947 1.83611 9.42266 1.11544C11.1632 0.434805 12.9638 0.18108 14.8163 0.287846C17.3539 0.447994 19.6648 1.28864 21.6933 2.8234C24.3188 4.81192 25.9674 7.41415 26.6285 10.6438C26.8044 11.4713 26.8683 12.3121 26.8896 13.006ZM13.9273 2.45001C13.4315 2.42332 12.8504 2.48984 12.2707 2.56991C12.0415 2.60995 11.8189 2.64981 11.5964 2.71653C8.13386 3.59735 5.64824 5.65246 4.18487 8.92217C3.33724 10.8039 3.1094 12.793 3.42926 14.8215C3.67849 16.4364 4.27557 17.9175 5.20583 19.2521C5.30845 19.3989 5.32309 19.5324 5.26578 19.6926C4.86996 20.8537 4.48746 22.0146 4.09963 23.1756C4.0783 23.2424 4.0143 23.309 4.07294 23.3757C4.13159 23.4424 4.20623 23.3623 4.27021 23.349C5.43636 22.9753 6.60117 22.6015 7.75534 22.2145C8.02322 22.121 8.21379 22.1748 8.44303 22.3083C11.0579 23.8831 13.8527 24.2967 16.794 23.5093C19.0317 22.9221 20.8736 21.6943 22.333 19.8926C23.7443 18.1577 24.5321 16.1555 24.6907 13.9268C24.8133 12.2186 24.5467 10.5507 23.8657 8.96257C23.0074 6.97406 21.6719 5.37246 19.8674 4.18469C18.1015 3.02361 16.1463 2.42332 13.9273 2.45001Z" fill="#E12651"/>
    <path fill-rule="evenodd" clip-rule="evenodd" d="M7.57031 10.0568C7.59164 8.86899 8.05947 7.88141 8.97511 7.10732C9.23634 6.89377 9.55086 6.80043 9.89606 6.85381C10.0467 6.88051 10.1999 6.89388 10.3439 6.88053C10.7064 6.85384 10.9144 7.0672 11.0263 7.36082C11.3675 8.25503 11.6953 9.16261 12.0325 10.0568C12.0938 10.217 12.0792 10.377 11.9992 10.5371C11.7913 10.9642 11.4621 11.298 11.1329 11.645C10.845 11.9386 10.8277 12.0321 11.0263 12.3924C11.9779 14.1141 13.2934 15.4623 15.114 16.2765C15.2046 16.3165 15.2859 16.37 15.3699 16.4101C15.5978 16.5302 15.8057 16.5164 15.9977 16.3162C16.3695 15.9425 16.716 15.5289 17.0532 15.1152C17.3131 14.7949 17.4358 14.7413 17.8023 14.9014C18.6966 15.3285 19.5496 15.8093 20.4172 16.2765C20.7064 16.4366 20.7358 16.6499 20.6931 17.037C20.5185 18.6118 19.3083 19.3324 17.9315 19.5727C17.4677 19.6394 17.0306 19.5999 16.5947 19.4664C15.3166 19.0527 14.061 18.5856 12.9308 17.8516C11.8779 17.1576 10.9716 16.3032 10.18 15.3289C9.40693 14.3813 8.71916 13.3669 8.15138 12.2725C7.83018 11.6586 7.57031 10.6841 7.57031 10.0568Z" fill="#E12651"/>
</svg>
